<svg width="960" height="540" viewBox="0 0 960 540" xmlns="http://www.w3.org/2000/svg"><mask id="satori_om-id"><rect x="0" y="0" width="960" height="540" fill="#fff"/></mask><rect x="0" y="0" width="960" height="540" fill="#fff"/><mask id="satori_om-id-0"><rect x="60" y="40" width="160" height="77" fill="#fff"/></mask><g  ><path fill="#000" d="M104.9 55.6L108.2 100L97.9 100L97.1 82.7Q96.8 76.4 96.8 71.6L96.8 71.6Q96.8 67.9 97.0 64.5L97.0 64.5L90.1 95.3L80.2 95.3L72.9 64.5Q73.3 70.1 73.3 75.0L73.3 75.0Q73.3 78.8 73.1 82.8L73.1 82.8L72.4 100L62.1 100L65.4 55.6L78.7 55.6L85.3 85.7L91.6 55.6L104.9 55.6ZM143.9 82.3Q143.9 84.4 143.7 86.0L143.7 86.0L122.7 86.0Q123.2 90.3 125.1 92Q127.0 93.7 130.4 93.7L130.4 93.7Q132.4 93.7 134.4 93.0Q136.3 92.3 138.5 90.7L138.5 90.7L142.7 96.4Q136.7 101.1 129.4 101.1L129.4 101.1Q121.2 101.1 116.8 96.2Q112.4 91.4 112.4 83.2L112.4 83.2Q112.4 78.0 114.2 73.9Q116.1 69.7 119.6 67.3Q123.2 64.9 128.2 64.9L128.2 64.9Q135.6 64.9 139.7 69.5Q143.9 74.1 143.9 82.3L143.9 82.3ZM134.0 79.9L134.0 79.5Q133.9 71.6 128.5 71.6L128.5 71.6Q125.9 71.6 124.4 73.6Q123.0 75.5 122.7 79.9L122.7 79.9L134.0 79.9ZM169.5 64.9Q173.9 64.9 176.4 67.6Q178.9 70.3 178.9 75.2L178.9 75.2L178.9 100L168.8 100L168.8 76.9Q168.8 74.3 168 73.3Q167.2 72.4 165.6 72.4L165.6 72.4Q162.5 72.4 159.7 76.8L159.7 76.8L159.7 100L149.6 100L149.6 66.0L158.4 66.0L159.1 70.0Q161.3 67.5 163.8 66.2Q166.4 64.9 169.5 64.9L169.5 64.9ZM215.2 66.0L215.2 100L206.4 100L206.0 95.7Q202.3 101.1 195.7 101.1L195.7 101.1Q191.0 101.1 188.6 98.3Q186.2 95.5 186.2 90.4L186.2 90.4L186.2 66.0L196.3 66.0L196.3 89.1Q196.3 91.6 197.1 92.6Q197.9 93.6 199.6 93.6L199.6 93.6Q202.8 93.6 205.1 89.6L205.1 89.6L205.1 66.0L215.2 66.0Z "/></g><mask id="satori_om-id-1"><rect x="60" y="124" width="840" height="3" fill="#fff"/></mask><rect x="60" y="124" width="840" height="3" fill="#333"/><mask id="satori_om-id-2"><rect x="0" y="150" width="960" height="90" fill="#fff"/></mask><mask id="satori_om-id-2-0"><rect x="110" y="169" width="258" height="53" fill="#fff"/></mask><g  ><path fill="#000" d="M121.4 179.5Q128.5 179.5 132.9 182.7Q137.2 186.0 137.2 194.6L137.2 194.6Q137.2 203.1 133.0 206.5Q128.7 210 122.0 210L122.0 210L112.9 210L112.9 179.5L121.4 179.5ZM122.4 184.7L120.1 184.7L120.1 204.8L122.5 204.8Q126.0 204.8 127.9 202.5Q129.7 200.3 129.7 194.6L129.7 194.6Q129.7 190.7 128.8 188.5Q127.9 186.4 126.3 185.6Q124.7 184.7 122.4 184.7L122.4 184.7ZM161.7 197.9Q161.7 199.3 161.6 200.4L161.6 200.4L147.1 200.4Q147.5 203.3 148.8 204.5Q150.1 205.7 152.5 205.7L152.5 205.7Q153.9 205.7 155.2 205.2Q156.5 204.7 158.0 203.6L158.0 203.6L160.9 207.5Q156.8 210.7 151.8 210.7L151.8 210.7Q146.1 210.7 143.1 207.4Q140.1 204.1 140.1 198.4L140.1 198.4Q140.1 194.9 141.3 192.0Q142.6 189.2 145.1 187.5Q147.5 185.9 151.0 185.9L151.0 185.9Q156.0 185.9 158.9 189.1Q161.7 192.2 161.7 197.9L161.7 197.9ZM154.9 196.2L154.9 195.9Q154.8 190.5 151.1 190.5L151.1 190.5Q149.3 190.5 148.3 191.8Q147.4 193.1 147.1 196.2L147.1 196.2L154.9 196.2ZM178.7 186.6L185.8 186.6L178.4 210L170.2 210L162.7 186.6L170.2 186.6L174.4 204.7L178.7 186.6ZM188.2 186.6L195.2 186.6L195.2 210L188.2 210L188.2 186.6ZM191.7 174.3Q193.5 174.3 194.6 175.4Q195.8 176.6 195.8 178.3L195.8 178.3Q195.8 180.0 194.6 181.1Q193.5 182.2 191.7 182.2L191.7 182.2Q189.9 182.2 188.7 181.1Q187.6 180.0 187.6 178.3L187.6 178.3Q187.6 176.6 188.7 175.4Q189.9 174.3 191.7 174.3L191.7 174.3ZM210.8 185.9Q213.2 185.9 215.1 186.6Q217.1 187.3 218.8 188.7L218.8 188.7L215.8 192.9Q213.6 191.2 211.3 191.2L211.3 191.2Q209 191.2 207.8 192.9Q206.6 194.6 206.6 198.5L206.6 198.5Q206.6 202.2 207.8 203.7Q209 205.2 211.2 205.2L211.2 205.2Q212.4 205.2 213.4 204.9Q214.4 204.5 215.7 203.7L215.7 203.7L218.8 208.0Q215.3 210.7 210.9 210.7L210.9 210.7Q207.3 210.7 204.7 209.2Q202.1 207.7 200.7 205.0Q199.3 202.2 199.3 198.5L199.3 198.5Q199.3 194.8 200.7 192.0Q202.1 189.1 204.7 187.5Q207.3 185.9 210.8 185.9L210.8 185.9ZM242.1 197.9Q242.1 199.3 242.0 200.4L242.0 200.4L227.5 200.4Q227.8 203.3 229.2 204.5Q230.5 205.7 232.8 205.7L232.8 205.7Q234.2 205.7 235.5 205.2Q236.9 204.7 238.4 203.6L238.4 203.6L241.3 207.5Q237.2 210.7 232.1 210.7L232.1 210.7Q226.5 210.7 223.4 207.4Q220.4 204.1 220.4 198.4L220.4 198.4Q220.4 194.9 221.7 192.0Q222.9 189.2 225.4 187.5Q227.9 185.9 231.3 185.9L231.3 185.9Q236.4 185.9 239.2 189.1Q242.1 192.2 242.1 197.9L242.1 197.9ZM235.3 196.2L235.3 195.9Q235.2 190.5 231.5 190.5L231.5 190.5Q229.7 190.5 228.7 191.8Q227.7 193.1 227.5 196.2L227.5 196.2L235.3 196.2Z M264.7 185.9Q267.2 185.9 269.4 186.6Q271.6 187.4 273.2 188.7L273.2 188.7L270.7 192.7Q267.8 190.9 264.9 190.9L264.9 190.9Q263.6 190.9 262.8 191.3Q262.1 191.8 262.1 192.6L262.1 192.6Q262.1 193.3 262.4 193.7Q262.8 194.1 263.8 194.6Q264.8 195.0 266.9 195.6L266.9 195.6Q270.6 196.7 272.3 198.4Q274.1 200.1 274.1 203.0L274.1 203.0Q274.1 205.4 272.8 207.2Q271.4 208.9 269.0 209.8Q266.6 210.7 263.7 210.7L263.7 210.7Q260.8 210.7 258.3 209.8Q255.7 208.9 254.0 207.3L254.0 207.3L257.4 203.5Q260.3 205.8 263.6 205.8L263.6 205.8Q265.1 205.8 266.0 205.2Q266.9 204.6 266.9 203.6L266.9 203.6Q266.9 202.7 266.6 202.3Q266.2 201.8 265.2 201.4Q264.2 200.9 262.0 200.3L262.0 200.3Q258.5 199.3 256.8 197.5Q255.1 195.7 255.1 193.0L255.1 193.0Q255.1 191.0 256.3 189.4Q257.4 187.8 259.6 186.8Q261.8 185.9 264.7 185.9L264.7 185.9ZM298.1 197.9Q298.1 199.3 297.9 200.4L297.9 200.4L283.4 200.4Q283.8 203.3 285.1 204.5Q286.4 205.7 288.8 205.7L288.8 205.7Q290.2 205.7 291.5 205.2Q292.8 204.7 294.4 203.6L294.4 203.6L297.2 207.5Q293.1 210.7 288.1 210.7L288.1 210.7Q282.4 210.7 279.4 207.4Q276.4 204.1 276.4 198.4L276.4 198.4Q276.4 194.9 277.6 192.0Q278.9 189.2 281.4 187.5Q283.8 185.9 287.3 185.9L287.3 185.9Q292.3 185.9 295.2 189.1Q298.1 192.2 298.1 197.9L298.1 197.9ZM291.2 196.2L291.2 195.9Q291.1 190.5 287.5 190.5L287.5 190.5Q285.6 190.5 284.7 191.8Q283.7 193.1 283.4 196.2L283.4 196.2L291.2 196.2ZM314.3 204.5L316.6 208.9Q315.3 209.8 313.7 210.3Q312.0 210.7 310.3 210.7L310.3 210.7Q302.6 210.7 302.6 202.3L302.6 202.3L302.6 191.5L299.3 191.5L299.3 186.6L302.6 186.6L302.6 181.6L309.6 180.8L309.6 186.6L315.0 186.6L314.2 191.5L309.6 191.5L309.6 202.2Q309.6 203.8 310.1 204.5Q310.6 205.2 311.8 205.2L311.8 205.2Q313.0 205.2 314.3 204.5L314.3 204.5ZM338.7 186.6L338.7 210L332.6 210L332.3 207.1Q329.8 210.7 325.2 210.7L325.2 210.7Q322.0 210.7 320.4 208.8Q318.7 206.9 318.7 203.4L318.7 203.4L318.7 186.6L325.7 186.6L325.7 202.5Q325.7 204.2 326.2 204.9Q326.8 205.6 327.9 205.6L327.9 205.6Q330.1 205.6 331.7 202.9L331.7 202.9L331.7 186.6L338.7 186.6ZM357.3 185.9Q361.7 185.9 363.9 189.1Q366.0 192.4 366.0 198.3L366.0 198.3Q366.0 201.9 364.9 204.7Q363.8 207.5 361.7 209.1Q359.6 210.7 356.8 210.7L356.8 210.7Q353.2 210.7 351.1 208.3L351.1 208.3L351.1 219.0L344.1 219.8L344.1 186.6L350.2 186.6L350.6 189.2Q352.0 187.5 353.7 186.7Q355.5 185.9 357.3 185.9L357.3 185.9ZM354.6 205.6Q358.8 205.6 358.8 198.3L358.8 198.3Q358.8 194.2 357.9 192.6Q357.0 191.0 355.1 191.0L355.1 191.0Q353.9 191.0 352.9 191.7Q351.9 192.4 351.1 193.7L351.1 193.7L351.1 203.6Q352.5 205.6 354.6 205.6L354.6 205.6Z "/></g><mask id="satori_om-id-3"><rect x="0" y="240" width="960" height="90" fill="#fff"/></mask><mask id="satori_om-id-3-0"><rect x="110" y="259" width="253" height="53" fill="#fff"/></mask><g  ><path fill="#000" d="M121.4 269.5Q128.5 269.5 132.9 272.7Q137.2 276.0 137.2 284.6L137.2 284.6Q137.2 293.1 133.0 296.5Q128.7 300 122.0 300L122.0 300L112.9 300L112.9 269.5L121.4 269.5ZM122.4 274.7L120.1 274.7L120.1 294.8L122.5 294.8Q126.0 294.8 127.9 292.5Q129.7 290.3 129.7 284.6L129.7 284.6Q129.7 280.7 128.8 278.5Q127.9 276.4 126.3 275.6Q124.7 274.7 122.4 274.7L122.4 274.7ZM161.7 287.9Q161.7 289.3 161.6 290.4L161.6 290.4L147.1 290.4Q147.5 293.3 148.8 294.5Q150.1 295.7 152.5 295.7L152.5 295.7Q153.9 295.7 155.2 295.2Q156.5 294.7 158.0 293.6L158.0 293.6L160.9 297.5Q156.8 300.7 151.8 300.7L151.8 300.7Q146.1 300.7 143.1 297.4Q140.1 294.1 140.1 288.4L140.1 288.4Q140.1 284.9 141.3 282.0Q142.6 279.2 145.1 277.5Q147.5 275.9 151.0 275.9L151.0 275.9Q156.0 275.9 158.9 279.1Q161.7 282.2 161.7 287.9L161.7 287.9ZM154.9 286.2L154.9 285.9Q154.8 280.5 151.1 280.5L151.1 280.5Q149.3 280.5 148.3 281.8Q147.4 283.1 147.1 286.2L147.1 286.2L154.9 286.2ZM178.9 275.9Q183.1 275.9 185.3 279.2Q187.6 282.4 187.6 288.3L187.6 288.3Q187.6 291.9 186.5 294.8Q185.3 297.6 183.2 299.2Q181.1 300.7 178.3 300.7L178.3 300.7Q176.4 300.7 174.8 300.0Q173.3 299.2 172.2 297.8L172.2 297.8L171.8 300L165.7 300L165.7 267.4L172.6 266.6L172.6 279.0Q173.7 277.6 175.3 276.7Q177.0 275.9 178.9 275.9L178.9 275.9ZM176.3 295.7Q180.4 295.7 180.4 288.3L180.4 288.3Q180.4 284.2 179.4 282.6Q178.4 281.0 176.6 281.0L176.6 281.0Q174.2 281.0 172.6 283.7L172.6 283.7L172.6 293.4Q173.3 294.5 174.2 295.1Q175.2 295.7 176.3 295.7L176.3 295.7ZM211.6 276.6L211.6 300L205.6 300L205.3 297.1Q202.8 300.7 198.2 300.7L198.2 300.7Q195.0 300.7 193.4 298.8Q191.7 296.9 191.7 293.4L191.7 293.4L191.7 276.6L198.7 276.6L198.7 292.5Q198.7 294.2 199.2 294.9Q199.8 295.6 200.9 295.6L200.9 295.6Q203.1 295.6 204.7 292.9L204.7 292.9L204.7 276.6L211.6 276.6ZM237.0 272.9L238.6 278Q236.3 278.9 231.9 278.9L231.9 278.9Q234.2 279.9 235.2 281.3Q236.3 282.7 236.3 285.0L236.3 285.0Q236.3 287.2 235.1 289.0Q233.9 290.8 231.7 291.8Q229.5 292.8 226.5 292.8L226.5 292.8Q225.1 292.8 223.8 292.5L223.8 292.5Q223.4 292.7 223.2 293.1Q223.0 293.4 223.0 293.8L223.0 293.8Q223.0 294.5 223.5 294.9Q224.0 295.2 225.6 295.2L225.6 295.2L229.1 295.2Q231.8 295.2 233.8 296.1Q235.8 297.0 236.9 298.5Q238.0 300.1 238.0 302.0L238.0 302.0Q238.0 305.7 234.9 307.7Q231.7 309.8 225.8 309.8L225.8 309.8Q221.5 309.8 219.1 308.9Q216.6 308.0 215.6 306.3Q214.6 304.7 214.6 302.2L214.6 302.2L220.9 302.2Q220.9 303.3 221.3 303.9Q221.7 304.5 222.8 304.8Q223.9 305.1 226.0 305.1L226.0 305.1Q228.8 305.1 229.9 304.5Q231.0 303.8 231.0 302.5L231.0 302.5Q231.0 301.5 230.2 300.8Q229.4 300.2 227.7 300.2L227.7 300.2L224.3 300.2Q220.7 300.2 218.9 298.9Q217.1 297.6 217.1 295.6L217.1 295.6Q217.1 294.3 217.9 293.1Q218.6 291.9 219.9 291.1L219.9 291.1Q217.7 289.9 216.7 288.3Q215.7 286.7 215.7 284.4L215.7 284.4Q215.7 280.5 218.5 278.2Q221.4 275.9 226.0 275.9L226.0 275.9Q229.5 276.0 231.9 275.2Q234.4 274.4 237.0 272.9L237.0 272.9ZM226.2 280.5Q224.5 280.5 223.6 281.5Q222.6 282.5 222.6 284.3L222.6 284.3Q222.6 286.2 223.6 287.3Q224.5 288.3 226.2 288.3L226.2 288.3Q227.9 288.3 228.8 287.3Q229.7 286.3 229.7 284.2L229.7 284.2Q229.7 280.5 226.2 280.5L226.2 280.5Z M277.6 275.9Q280.4 275.9 282.0 277.8Q283.7 279.6 283.7 282.9L283.7 282.9L283.7 300L276.8 300L276.8 284.1Q276.8 281.0 274.8 281.0L274.8 281.0Q273.7 281.0 272.8 281.7Q272.0 282.5 271.2 284.0L271.2 284.0L271.2 300L264.3 300L264.3 284.1Q264.3 281.0 262.3 281.0L262.3 281.0Q261.2 281.0 260.4 281.8Q259.5 282.5 258.7 284.0L258.7 284.0L258.7 300L251.8 300L251.8 276.6L257.8 276.6L258.3 279.4Q259.7 277.6 261.3 276.7Q263.0 275.9 265.1 275.9L265.1 275.9Q267.1 275.9 268.5 276.9Q269.9 277.8 270.6 279.6L270.6 279.6Q272.0 277.7 273.7 276.8Q275.4 275.9 277.6 275.9L277.6 275.9ZM299.1 275.9Q304.4 275.9 307.5 279.2Q310.5 282.4 310.5 288.3L310.5 288.3Q310.5 292.1 309.1 294.9Q307.7 297.7 305.2 299.2Q302.6 300.7 299.1 300.7L299.1 300.7Q293.7 300.7 290.7 297.5Q287.6 294.2 287.6 288.3L287.6 288.3Q287.6 284.6 289.0 281.8Q290.4 279.0 293.0 277.4Q295.5 275.9 299.1 275.9L299.1 275.9ZM299.1 281.0Q297.0 281.0 295.9 282.8Q294.8 284.6 294.8 288.3L294.8 288.3Q294.8 292.1 295.9 293.9Q296.9 295.6 299.1 295.6L299.1 295.6Q301.2 295.6 302.2 293.9Q303.3 292.1 303.3 288.3L303.3 288.3Q303.3 284.5 302.3 282.8Q301.2 281.0 299.1 281.0L299.1 281.0ZM328.6 266.6L335.6 267.4L335.6 300L329.4 300L329.1 297.3Q326.6 300.7 322.4 300.7L322.4 300.7Q318.1 300.7 315.8 297.4Q313.5 294.1 313.5 288.3L313.5 288.3Q313.5 284.7 314.7 281.9Q315.9 279.1 318.1 277.5Q320.3 275.9 323.1 275.9L323.1 275.9Q326.4 275.9 328.6 278.1L328.6 278.1L328.6 266.6ZM324.6 295.6Q327.0 295.6 328.6 293.0L328.6 293.0L328.6 282.9Q327.8 281.9 326.9 281.4Q326.1 280.9 325.0 280.9L325.0 280.9Q323.0 280.9 321.9 282.8Q320.8 284.6 320.8 288.3L320.8 288.3Q320.8 292.4 321.7 294.0Q322.7 295.6 324.6 295.6L324.6 295.6ZM361.4 287.9Q361.4 289.3 361.3 290.4L361.3 290.4L346.8 290.4Q347.2 293.3 348.5 294.5Q349.8 295.7 352.1 295.7L352.1 295.7Q353.5 295.7 354.9 295.2Q356.2 294.7 357.7 293.6L357.7 293.6L360.6 297.5Q356.5 300.7 351.5 300.7L351.5 300.7Q345.8 300.7 342.8 297.4Q339.7 294.1 339.7 288.4L339.7 288.4Q339.7 284.9 341.0 282.0Q342.3 279.2 344.7 277.5Q347.2 275.9 350.6 275.9L350.6 275.9Q355.7 275.9 358.6 279.1Q361.4 282.2 361.4 287.9L361.4 287.9ZM354.6 286.2L354.6 285.9Q354.5 280.5 350.8 280.5L350.8 280.5Q349.0 280.5 348.0 281.8Q347.0 283.1 346.8 286.2L346.8 286.2L354.6 286.2Z "/></g><mask id="satori_om-id-4"><rect x="0" y="330" width="960" height="90" fill="#fff"/></mask><mask id="satori_om-id-4-0"><rect x="110" y="349" width="265" height="53" fill="#fff"/></mask><g  ><path fill="#000" d="M120.1 390L112.9 390L112.9 359.5L131.0 359.5L130.3 364.7L120.1 364.7L120.1 372.8L129.0 372.8L129.0 377.9L120.1 377.9L120.1 390ZM152.7 383.2Q152.7 384.5 153.1 385.2Q153.5 385.8 154.3 386.1L154.3 386.1L152.9 390.6Q150.7 390.4 149.3 389.7Q148.0 388.9 147.2 387.2L147.2 387.2Q144.9 390.7 140.2 390.7L140.2 390.7Q136.7 390.7 134.6 388.7Q132.6 386.7 132.6 383.4L132.6 383.4Q132.6 379.6 135.4 377.6Q138.2 375.6 143.5 375.6L143.5 375.6L145.9 375.6L145.9 374.6Q145.9 372.5 145.0 371.7Q144.1 370.9 141.9 370.9L141.9 370.9Q140.8 370.9 139.2 371.3Q137.5 371.6 135.8 372.2L135.8 372.2L134.2 367.6Q136.4 366.8 138.8 366.3Q141.1 365.9 143.0 365.9L143.0 365.9Q148.1 365.9 150.4 368.0Q152.7 370.0 152.7 374.2L152.7 374.2L152.7 383.2ZM142.2 385.8Q144.6 385.8 145.9 383.5L145.9 383.5L145.9 379.4L144.2 379.4Q141.8 379.4 140.6 380.2Q139.5 381.1 139.5 382.8L139.5 382.8Q139.5 384.2 140.2 385.0Q140.9 385.8 142.2 385.8L142.2 385.8ZM168.4 365.9Q170.8 365.9 172.7 366.6Q174.7 367.3 176.4 368.7L176.4 368.7L173.4 372.9Q171.2 371.2 169.0 371.2L169.0 371.2Q166.6 371.2 165.4 372.9Q164.3 374.6 164.3 378.5L164.3 378.5Q164.3 382.2 165.4 383.7Q166.6 385.2 168.9 385.2L168.9 385.2Q170.1 385.2 171.0 384.9Q172.0 384.5 173.4 383.7L173.4 383.7L176.4 388.0Q172.9 390.7 168.5 390.7L168.5 390.7Q165.0 390.7 162.4 389.2Q159.8 387.7 158.4 385.0Q156.9 382.2 156.9 378.5L156.9 378.5Q156.9 374.8 158.4 372.0Q159.8 369.1 162.4 367.5Q165.0 365.9 168.4 365.9L168.4 365.9ZM191.7 384.5L194.0 388.9Q192.7 389.8 191.0 390.3Q189.3 390.7 187.7 390.7L187.7 390.7Q180.0 390.7 180.0 382.3L180.0 382.3L180.0 371.5L176.7 371.5L176.7 366.6L180.0 366.6L180.0 361.6L187.0 360.8L187.0 366.6L192.3 366.6L191.6 371.5L187.0 371.5L187.0 382.2Q187.0 383.8 187.5 384.5Q188.0 385.2 189.2 385.2L189.2 385.2Q190.3 385.2 191.7 384.5L191.7 384.5ZM206.4 365.9Q211.8 365.9 214.9 369.2Q217.9 372.4 217.9 378.3L217.9 378.3Q217.9 382.1 216.5 384.9Q215.1 387.7 212.5 389.2Q210.0 390.7 206.4 390.7L206.4 390.7Q201.1 390.7 198.1 387.5Q195.0 384.2 195.0 378.3L195.0 378.3Q195.0 374.6 196.4 371.8Q197.8 369.0 200.4 367.4Q202.9 365.9 206.4 365.9L206.4 365.9ZM206.4 371.0Q204.3 371.0 203.3 372.8Q202.2 374.6 202.2 378.3L202.2 378.3Q202.2 382.1 203.3 383.9Q204.3 385.6 206.4 385.6L206.4 385.6Q208.6 385.6 209.6 383.9Q210.7 382.1 210.7 378.3L210.7 378.3Q210.7 374.5 209.6 372.8Q208.6 371.0 206.4 371.0L206.4 371.0ZM234.7 366.0Q236.0 366.0 237.0 366.3L237.0 366.3L235.9 373.0Q234.6 372.7 233.8 372.7L233.8 372.7Q231.7 372.7 230.7 374.1Q229.6 375.6 229.0 378.4L229.0 378.4L229.0 390L222.0 390L222.0 366.6L228.1 366.6L228.7 371.2Q229.5 368.7 231.1 367.4Q232.7 366.0 234.7 366.0L234.7 366.0ZM260.0 366.6L252.6 390.0Q251.2 394.6 248.0 397.0Q244.8 399.5 239.4 399.8L239.4 399.8L238.7 394.9Q242 394.4 243.6 393.4Q245.2 392.3 246.2 390L246.2 390L243.8 390L236.7 366.6L244.1 366.6L248.2 385.6L252.8 366.6L260.0 366.6Z M285.6 366.0Q286.8 366.0 287.9 366.3L287.9 366.3L286.8 373.0Q285.5 372.7 284.7 372.7L284.7 372.7Q282.6 372.7 281.5 374.1Q280.5 375.6 279.8 378.4L279.8 378.4L279.8 390L272.9 390L272.9 366.6L279.0 366.6L279.5 371.2Q280.3 368.7 281.9 367.4Q283.5 366.0 285.6 366.0L285.6 366.0ZM310.9 377.9Q310.9 379.3 310.8 380.4L310.8 380.4L296.3 380.4Q296.6 383.3 298.0 384.5Q299.3 385.7 301.6 385.7L301.6 385.7Q303.0 385.7 304.3 385.2Q305.7 384.7 307.2 383.6L307.2 383.6L310.1 387.5Q306.0 390.7 301.0 390.7L301.0 390.7Q295.3 390.7 292.2 387.4Q289.2 384.1 289.2 378.4L289.2 378.4Q289.2 374.9 290.5 372.0Q291.8 369.2 294.2 367.5Q296.7 365.9 300.1 365.9L300.1 365.9Q305.2 365.9 308.0 369.1Q310.9 372.2 310.9 377.9L310.9 377.9ZM304.1 376.2L304.1 375.9Q304.0 370.5 300.3 370.5L300.3 370.5Q298.5 370.5 297.5 371.8Q296.5 373.1 296.3 376.2L296.3 376.2L304.1 376.2ZM323.0 365.9Q325.6 365.9 327.8 366.6Q330.0 367.4 331.6 368.7L331.6 368.7L329.1 372.7Q326.2 370.9 323.3 370.9L323.3 370.9Q321.9 370.9 321.2 371.3Q320.5 371.8 320.5 372.6L320.5 372.6Q320.5 373.3 320.8 373.7Q321.2 374.1 322.2 374.6Q323.2 375.0 325.3 375.6L325.3 375.6Q328.9 376.7 330.7 378.4Q332.5 380.1 332.5 383.0L332.5 383.0Q332.5 385.4 331.1 387.2Q329.8 388.9 327.4 389.8Q325.0 390.7 322.1 390.7L322.1 390.7Q319.2 390.7 316.6 389.8Q314.1 388.9 312.4 387.3L312.4 387.3L315.7 383.5Q318.7 385.8 321.9 385.8L321.9 385.8Q323.5 385.8 324.4 385.2Q325.3 384.6 325.3 383.6L325.3 383.6Q325.3 382.7 325.0 382.3Q324.6 381.8 323.6 381.4Q322.6 380.9 320.4 380.3L320.4 380.3Q316.9 379.3 315.2 377.5Q313.5 375.7 313.5 373.0L313.5 373.0Q313.5 371.0 314.7 369.4Q315.8 367.8 318.0 366.8Q320.2 365.9 323.0 365.9L323.0 365.9ZM356.4 377.9Q356.4 379.3 356.3 380.4L356.3 380.4L341.8 380.4Q342.2 383.3 343.5 384.5Q344.8 385.7 347.2 385.7L347.2 385.7Q348.6 385.7 349.9 385.2Q351.2 384.7 352.7 383.6L352.7 383.6L355.6 387.5Q351.5 390.7 346.5 390.7L346.5 390.7Q340.8 390.7 337.8 387.4Q334.8 384.1 334.8 378.4L334.8 378.4Q334.8 374.9 336.0 372.0Q337.3 369.2 339.8 367.5Q342.2 365.9 345.7 365.9L345.7 365.9Q350.7 365.9 353.6 369.1Q356.4 372.2 356.4 377.9L356.4 377.9ZM349.6 376.2L349.6 375.9Q349.5 370.5 345.8 370.5L345.8 370.5Q344.0 370.5 343.0 371.8Q342.1 373.1 341.8 376.2L341.8 376.2L349.6 376.2ZM372.7 384.5L375.0 388.9Q373.7 389.8 372.0 390.3Q370.3 390.7 368.7 390.7L368.7 390.7Q361.0 390.7 361.0 382.3L361.0 382.3L361.0 371.5L357.7 371.5L357.7 366.6L361.0 366.6L361.0 361.6L368.0 360.8L368.0 366.6L373.3 366.6L372.6 371.5L368.0 371.5L368.0 382.2Q368.0 383.8 368.5 384.5Q369.0 385.2 370.2 385.2L370.2 385.2Q371.4 385.2 372.7 384.5L372.7 384.5Z "/></g><mask id="satori_om-id-5"><rect x="0" y="420" width="960" height="90" fill="#fff"/></mask><mask id="satori_om-id-5-0"><rect x="110" y="439" width="198" height="53" fill="#fff"/></mask><g  ><path fill="#000" d="M112.9 449.5L131.6 449.5L130.8 454.7L120.1 454.7L120.1 462.0L129.4 462.0L129.4 467.0L120.1 467.0L120.1 474.8L131.6 474.8L131.6 480L112.9 480L112.9 449.5ZM155.0 456.6L148.6 467.5L156.1 480L148.2 480L144.2 471.2L140.2 480L132.7 480L140.2 467.7L133.4 456.6L141.2 456.6L144.5 464.1L147.6 456.6L155.0 456.6ZM158.4 456.6L165.4 456.6L165.4 480L158.4 480L158.4 456.6ZM161.8 444.3Q163.6 444.3 164.8 445.4Q166.0 446.6 166.0 448.3L166.0 448.3Q166.0 450.0 164.8 451.1Q163.6 452.2 161.8 452.2L161.8 452.2Q160.0 452.2 158.9 451.1Q157.7 450.0 157.7 448.3L157.7 448.3Q157.7 446.6 158.9 445.4Q160.0 444.3 161.8 444.3L161.8 444.3ZM183.1 474.5L185.5 478.9Q184.2 479.8 182.5 480.3Q180.8 480.7 179.1 480.7L179.1 480.7Q171.5 480.7 171.5 472.3L171.5 472.3L171.5 461.5L168.2 461.5L168.2 456.6L171.5 456.6L171.5 451.6L178.4 450.8L178.4 456.6L183.8 456.6L183.0 461.5L178.4 461.5L178.4 472.2Q178.4 473.8 178.9 474.5Q179.5 475.2 180.6 475.2L180.6 475.2Q181.8 475.2 183.1 474.5L183.1 474.5Z M224.0 455.9Q226.8 455.9 228.5 457.8Q230.2 459.6 230.2 462.9L230.2 462.9L230.2 480L223.2 480L223.2 464.1Q223.2 461.0 221.2 461.0L221.2 461.0Q220.1 461.0 219.3 461.7Q218.5 462.5 217.7 464.0L217.7 464.0L217.7 480L210.7 480L210.7 464.1Q210.7 461.0 208.7 461.0L208.7 461.0Q207.7 461.0 206.8 461.8Q206.0 462.5 205.2 464.0L205.2 464.0L205.2 480L198.2 480L198.2 456.6L204.3 456.6L204.8 459.4Q206.1 457.6 207.8 456.7Q209.4 455.9 211.6 455.9L211.6 455.9Q213.5 455.9 215.0 456.9Q216.4 457.8 217.1 459.6L217.1 459.6Q218.5 457.7 220.2 456.8Q221.8 455.9 224.0 455.9L224.0 455.9ZM255.8 467.9Q255.8 469.3 255.6 470.4L255.6 470.4L241.2 470.4Q241.5 473.3 242.8 474.5Q244.2 475.7 246.5 475.7L246.5 475.7Q247.9 475.7 249.2 475.2Q250.5 474.7 252.1 473.6L252.1 473.6L254.9 477.5Q250.8 480.7 245.8 480.7L245.8 480.7Q240.2 480.7 237.1 477.4Q234.1 474.1 234.1 468.4L234.1 468.4Q234.1 464.9 235.4 462.0Q236.6 459.2 239.1 457.5Q241.6 455.9 245.0 455.9L245.0 455.9Q250.1 455.9 252.9 459.1Q255.8 462.2 255.8 467.9L255.8 467.9ZM249.0 466.2L249.0 465.9Q248.9 460.5 245.2 460.5L245.2 460.5Q243.4 460.5 242.4 461.8Q241.4 463.1 241.2 466.2L241.2 466.2L249.0 466.2ZM273.4 455.9Q276.4 455.9 278.1 457.7Q279.8 459.6 279.8 462.9L279.8 462.9L279.8 480L272.9 480L272.9 464.1Q272.9 462.4 272.3 461.7Q271.8 461.0 270.7 461.0L270.7 461.0Q268.6 461.0 266.6 464.0L266.6 464.0L266.6 480L259.7 480L259.7 456.6L265.8 456.6L266.2 459.4Q267.7 457.6 269.5 456.8Q271.2 455.9 273.4 455.9L273.4 455.9ZM304.8 456.6L304.8 480L298.8 480L298.5 477.1Q295.9 480.7 291.4 480.7L291.4 480.7Q288.2 480.7 286.5 478.8Q284.9 476.9 284.9 473.4L284.9 473.4L284.9 456.6L291.8 456.6L291.8 472.5Q291.8 474.2 292.4 474.9Q292.9 475.6 294.1 475.6L294.1 475.6Q296.3 475.6 297.8 472.9L297.8 472.9L297.8 456.6L304.8 456.6Z "/></g></svg>