<svg width="960" height="540" viewBox="0 0 960 540" xmlns="http://www.w3.org/2000/svg"><mask id="satori_om-id"><rect x="0" y="0" width="960" height="540" fill="#fff"/></mask><rect x="0" y="0" width="960" height="540" fill="#fff"/><mask id="satori_om-id-0"><rect x="0" y="0" width="960" height="264" fill="#fff"/></mask><mask id="satori_om-id-0-0"><rect x="40" y="28" width="180" height="180" fill="#fff"/></mask><mask id="satori_om-id-0-0-0"><rect x="45" y="57" width="171" height="122" fill="#fff"/></mask><path fill="#000" d="M45 132.0L45 132.0Q45 140.6 49.2 147.9Q53.4 155.1 60.6 159.3Q67.8 163.5 76.3 163.5L76.3 163.5L145.1 163.5Q153.7 163.5 160.9 159.3Q168.2 155.1 172.4 147.9Q176.7 140.6 176.7 132.0L176.7 132.0Q176.7 125.7 174.0 119.3L174.0 119.3Q181.2 110.5 181.2 98.3L181.2 98.3Q181.2 91.5 178.6 85.4Q176.0 79.2 171.5 74.7Q167.1 70.3 160.9 67.6Q154.7 65.0 147.9 65.0L147.9 65.0Q133.8 65.0 123.3 76.1L123.3 76.1Q115.9 71.9 106.1 71.9L106.1 71.9Q92.7 71.9 82.4 80.2Q72.1 88.5 69.2 101.5L69.2 101.5Q58.5 104.0 51.8 112.5Q45 121.0 45 132.0ZM55.8 132.0L55.8 132.0Q55.8 124.0 61.2 118.3Q66.5 112.5 74.5 111.5L74.5 111.5L77.7 111.4Q78.9 111.4 78.9 110.2L78.9 110.2L79.3 106.8Q80.6 96.5 88.2 89.5Q95.9 82.6 106.1 82.6L106.1 82.6Q116.6 82.6 124.4 89.6Q132.2 96.5 133.1 106.8L133.1 106.8L133.6 110.5Q133.8 111.5 134.9 111.5L134.9 111.5L145.1 111.5Q153.5 111.5 159.6 117.6Q165.7 123.7 165.7 132.0L165.7 132.0Q165.7 140.7 159.6 146.8Q153.6 152.9 145.1 152.9L145.1 152.9L76.3 152.9Q68.0 152.9 61.9 146.7Q55.8 140.5 55.8 132.0ZM98.4 54.1L98.4 54.1Q98.4 56.4 100.0 58.0L100.0 58.0L104.2 62.1Q106.5 63.9 108.2 63.7L108.2 63.7Q110.2 63.7 111.7 62.1Q113.3 60.4 113.3 58.1Q113.3 55.8 111.6 54.3L111.6 54.3L107.8 50.2Q106.1 48.6 104.0 48.6L104.0 48.6Q101.7 48.6 100.0 50.2Q98.4 51.8 98.4 54.1ZM132.4 82.2L132.4 82.2Q139.0 75.8 147.9 75.8L147.9 75.8Q157.3 75.8 163.9 82.3Q170.5 88.9 170.5 98.3L170.5 98.3Q170.5 104.3 167.3 110.0L167.3 110.0Q158.1 100.9 145.1 100.9L145.1 100.9L143.1 100.9Q140.7 90.5 132.4 82.2ZM142.7 35.6L142.7 48.6Q142.7 51.1 144.2 52.6Q145.7 54.1 147.9 54.1L147.9 54.1Q150.4 54.1 151.9 52.6Q153.4 51.1 153.4 48.6L153.4 48.6L153.4 35.6Q153.4 33.4 151.8 31.9Q150.3 30.4 147.9 30.4L147.9 30.4Q145.7 30.4 144.2 31.9Q142.7 33.4 142.7 35.6L142.7 35.6ZM177.8 63.2L177.8 63.2Q177.8 65.7 179.2 67.2L179.2 67.2Q181.2 68.7 183.1 68.7L183.1 68.7Q184.9 68.7 186.9 67.2L186.9 67.2L196.0 58.0Q197.6 56.3 197.6 54.0L197.6 54.0Q197.6 51.7 196.0 50.2Q194.5 48.6 192.3 48.6L192.3 48.6Q190.0 48.6 188.6 50.2L188.6 50.2L179.2 59.3Q177.8 61.0 177.8 63.2ZM184.4 134.6Q182.8 136.1 182.8 138.4Q182.8 140.7 184.5 142.4L184.5 142.4L188.6 146.4Q190.0 147.9 192.3 147.9Q194.5 147.9 196.0 146.4Q197.6 144.8 197.6 142.4L197.6 142.4Q197.6 140.2 196.0 138.7L196.0 138.7L191.9 134.6Q190.4 133.0 188.3 133.0L188.3 133.0Q186.0 133.0 184.4 134.6ZM193.8 94.5Q192.1 96.1 192.1 98.3Q192.1 100.5 193.8 102.0L193.8 102.0Q195.4 103.6 197.7 103.6L197.7 103.6L210.7 103.6Q212.9 103.6 214.3 102.1Q215.8 100.6 215.8 98.3Q215.8 96.0 214.3 94.5Q212.9 92.9 210.7 92.9L210.7 92.9L197.7 92.9Q195.4 92.9 193.8 94.5Z "/><mask id="satori_om-id-0-1"><rect x="248" y="28" width="672" height="224" fill="#fff"/></mask><mask id="satori_om-id-0-1-0"><rect x="248" y="28" width="672" height="162" fill="#fff"/></mask><mask id="satori_om-id-0-1-0-0"><rect x="248" y="28" width="272" height="162" fill="#fff"/></mask><path fill="#000" d="M250.3 47.6L329 47.6L329 66.9L284.4 172.2L258.6 163.5L299.5 69.0L250.3 69.0L250.3 47.6ZM375.1 45.1Q388.2 45.1 397.7 49.8Q407.1 54.5 412.1 62.4Q417.0 70.3 417.0 79.8L417.0 79.8Q417.0 89.6 413.1 98.4Q409.1 107.2 399.0 118.6Q388.9 130.1 369.7 147.5L369.7 147.5L419.5 147.5L416.7 169.3L337.5 169.3L337.5 149.1Q359.6 127.4 369.7 116.3Q379.8 105.2 383.8 97.8Q387.9 90.5 387.9 82.7L387.9 82.7Q387.9 75.3 383.6 71.1Q379.4 66.9 372.2 66.9L372.2 66.9Q365.7 66.9 360.7 69.9Q355.6 72.8 350.1 79.5L350.1 79.5L333.3 66.2Q340.9 56.3 351.4 50.7Q361.9 45.1 375.1 45.1L375.1 45.1ZM464.5 102.9Q456.4 102.9 449.1 99.1Q441.7 95.3 437 88.2Q432.3 81.1 432.3 71.9L432.3 71.9Q432.3 62.7 436.9 55.8Q441.5 48.9 449.0 45.2Q456.4 41.5 464.5 41.5L464.5 41.5Q472.6 41.5 480.0 45.2Q487.4 48.9 492.0 55.8Q496.6 62.7 496.6 71.9L496.6 71.9Q496.6 81.3 492.0 88.3Q487.4 95.3 480.0 99.1Q472.6 102.9 464.5 102.9L464.5 102.9ZM464.5 86.1Q470.1 86.1 473.5 82.3Q477.0 78.4 477.0 71.9L477.0 71.9Q477.0 65.4 473.6 61.7Q470.3 57.9 464.5 57.9L464.5 57.9Q458.8 57.9 455.4 61.7Q451.9 65.4 451.9 71.9L451.9 71.9Q451.9 78.4 455.4 82.3Q458.8 86.1 464.5 86.1L464.5 86.1Z "/><mask id="satori_om-id-0-1-0-1"><rect x="734" y="52" width="186" height="108" fill="#fff"/></mask><mask id="satori_om-id-0-1-0-1-0"><rect x="734" y="74" width="64" height="64" fill="#fff"/></mask><clipPath id="satori_cp-id-0-1-0-1-0-0"><rect x="734" y="74" width="64" height="64"/></clipPath><mask id="satori_om-id-0-1-0-1-0-0"><rect x="734" y="74" width="64" height="64" fill="#fff"/></mask><image x="734" y="74" width="64" height="64" href="data:image/svg+xml;utf8,%3Csvg  xmlns=%22http://www.w3.org/2000/svg%22 width=%22Infinity%22 height=%22NaN%22%3E%3Ccircle cx=%2232%22 cy=%2232%22 r=%2219.2%22 stroke=%22%23000%22 stroke-width=%223%22 fill=%22%23fff%22%3E%3C/circle%3E%3Cline x1=%2255.04%22 y1=%2232%22 x2=%2262.72%22 y2=%2232%22 stroke=%22%23000%22 stroke-width=%223%22 stroke-linecap=%22round%22%3E%3C/line%3E%3Cline x1=%2248.291740238538054%22 y1=%2248.291740238538054%22 x2=%2253.72232031805074%22 y2=%2253.722320318050734%22 stroke=%22%23000%22 stroke-width=%223%22 stroke-linecap=%22round%22%3E%3C/line%3E%3Cline x1=%2232%22 y1=%2255.04%22 x2=%2232%22 y2=%2262.72%22 stroke=%22%23000%22 stroke-width=%223%22 stroke-linecap=%22round%22%3E%3C/line%3E%3Cline x1=%2215.708259761461946%22 y1=%2248.291740238538054%22 x2=%2210.277679681949262%22 y2=%2253.72232031805074%22 stroke=%22%23000%22 stroke-width=%223%22 stroke-linecap=%22round%22%3E%3C/line%3E%3Cline x1=%228.96%22 y1=%2232%22 x2=%221.2800000000000011%22 y2=%2232.00000000000001%22 stroke=%22%23000%22 stroke-width=%223%22 stroke-linecap=%22round%22%3E%3C/line%3E%3Cline x1=%2215.708259761461942%22 y1=%2215.708259761461946%22 x2=%2210.277679681949255%22 y2=%2210.277679681949262%22 stroke=%22%23000%22 stroke-width=%223%22 stroke-linecap=%22round%22%3E%3C/line%3E%3Cline x1=%2231.999999999999996%22 y1=%228.96%22 x2=%2231.999999999999993%22 y2=%221.2800000000000011%22 stroke=%22%23000%22 stroke-width=%223%22 stroke-linecap=%22round%22%3E%3C/line%3E%3Cline x1=%2248.291740238538054%22 y1=%2215.708259761461942%22 x2=%2253.722320318050734%22 y2=%2210.277679681949255%22 stroke=%22%23000%22 stroke-width=%223%22 stroke-linecap=%22round%22%3E%3C/line%3E%3C/svg%3E" preserveAspectRatio="none" clip-path="url(#satori_cp-id-0-1-0-1-0-0)" mask="url(#satori_om-id-0-1-0-1-0-0)"/><mask id="satori_om-id-0-1-0-1-0-0-0"><rect x="734" y="74" width="0" height="64" fill="#fff"/></mask><mask id="satori_om-id-0-1-0-1-0-0-1"><rect x="734" y="74" width="0" height="64" fill="#fff"/></mask><mask id="satori_om-id-0-1-0-1-0-0-2"><rect x="734" y="74" width="0" height="64" fill="#fff"/></mask><mask id="satori_om-id-0-1-0-1-0-0-3"><rect x="734" y="74" width="0" height="64" fill="#fff"/></mask><mask id="satori_om-id-0-1-0-1-0-0-4"><rect x="734" y="74" width="0" height="64" fill="#fff"/></mask><mask id="satori_om-id-0-1-0-1-0-0-5"><rect x="734" y="74" width="0" height="64" fill="#fff"/></mask><mask id="satori_om-id-0-1-0-1-0-0-6"><rect x="734" y="74" width="0" height="64" fill="#fff"/></mask><mask id="satori_om-id-0-1-0-1-0-0-7"><rect x="734" y="74" width="0" height="64" fill="#fff"/></mask><mask id="satori_om-id-0-1-0-1-0-0-8"><rect x="734" y="74" width="0" height="64" fill="#fff"/></mask><mask id="satori_om-id-0-1-0-1-0-1"><rect x="754" y="97" width="24" height="19" fill="#fff"/></mask><path fill="#000" d="M765.3 99.7L765.3 108.5Q765.3 109.8 764.7 110.9Q764.2 112.0 763.0 112.6Q761.8 113.2 760.2 113.2L760.2 113.2Q757.7 113.2 756.4 111.9Q755.0 110.6 755.0 108.5L755.0 108.5L755.0 99.7L758.2 99.7L758.2 108.4Q758.2 109.6 758.6 110.3Q759.1 110.9 760.2 110.9L760.2 110.9Q761.2 110.9 761.7 110.3Q762.2 109.6 762.2 108.4L762.2 108.4L762.2 99.7L765.3 99.7ZM774.3 99.7L777.5 99.7L773.8 112.9L769.9 112.9L766.1 99.7L769.4 99.7L771.9 110.4L774.3 99.7Z "/><mask id="satori_om-id-0-1-0-1-1"><rect x="810" y="52" width="68" height="108" fill="#fff"/></mask><path fill="#000" d="M851.4 91.6Q858.1 91.6 863.4 94.8Q868.7 98.0 871.7 104.0Q874.7 110.1 874.7 118.5L874.7 118.5Q874.7 126.8 871.1 133.5Q867.5 140.3 860.8 144.3Q854.2 148.2 845.3 148.2L845.3 148.2Q829.7 148.2 822.1 137.8Q814.6 127.4 814.6 109.1L814.6 109.1Q814.6 95.4 818.8 85.1Q823.1 74.8 831.1 69.1Q839.0 63.4 849.8 63.4L849.8 63.4Q860.3 63.4 868.3 68.8L868.3 68.8L861.4 80.1Q856.0 77.0 850.3 77.0L850.3 77.0Q843.5 77.0 839.3 82.7Q835.1 88.5 834.2 99.0L834.2 99.0Q841.6 91.6 851.4 91.6L851.4 91.6ZM845.5 134.7Q850.6 134.7 853.1 130.4Q855.7 126.2 855.7 118.7L855.7 118.7Q855.7 111.2 853.3 107.9Q850.9 104.7 846.1 104.7L846.1 104.7Q839.6 104.7 834.2 111.0L834.2 111.0Q834.5 123.9 837 129.3Q839.5 134.7 845.5 134.7L845.5 134.7Z "/><mask id="satori_om-id-0-1-0-1-2"><rect x="888" y="81" width="32" height="50" fill="#fff"/></mask><path fill="#333" d="M903.5 86.3Q910.3 86.3 914.0 90.3Q917.6 94.3 917.6 101.0L917.6 101.0Q917.6 108.7 915.1 113.7Q912.6 118.7 907.5 121.8Q902.3 124.8 894.0 126.5L894.0 126.5L892.3 120.4Q899.6 118.6 903.3 115.9Q907.0 113.1 908.1 108.2L908.1 108.2Q905.1 111.9 900.3 111.9L900.3 111.9Q897.3 111.9 894.8 110.3Q892.4 108.8 890.9 106.0Q889.5 103.1 889.5 99.4L889.5 99.4Q889.5 95.5 891.3 92.5Q893.2 89.6 896.4 87.9Q899.6 86.3 903.5 86.3L903.5 86.3ZM903.0 105.6Q904.6 105.6 906.1 104.8Q907.5 103.9 908.6 102.3L908.6 102.3Q908.7 97.0 907.5 94.8Q906.3 92.6 903.5 92.6L903.5 92.6Q901.1 92.6 899.7 94.3Q898.4 96.0 898.4 99.1L898.4 99.1Q898.4 102.6 899.6 104.1Q900.9 105.6 903.0 105.6L903.0 105.6Z "/><mask id="satori_om-id-0-1-1"><rect x="248" y="204" width="672" height="48" fill="#fff"/></mask><mask id="satori_om-id-0-1-1-0"><rect x="248" y="204" width="99" height="48" fill="#fff"/></mask><path fill="#333" d="M272.0 241.4L265.5 241.4L265.5 229.5L257.2 229.5L257.2 241.4L250.6 241.4L250.6 213.7L257.2 213.7L257.2 224.4L265.5 224.4L265.5 213.7L272.0 213.7L272.0 241.4Z M284.6 214.4L302.1 214.4L302.1 218.6L292.2 242.0L286.5 240.1L295.6 219.1L284.6 219.1L284.6 214.4ZM319.5 226.9Q322.2 228.2 323.6 230.0Q324.9 231.8 324.9 234.1L324.9 234.1Q324.9 236.3 323.6 238.1Q322.4 239.9 320.0 241Q317.6 242.1 314.3 242.1L314.3 242.1Q311.2 242.1 308.8 241.0Q306.5 240.0 305.2 238.2Q304.0 236.4 304.0 234.2L304.0 234.2Q304.0 229.7 309.0 227.5L309.0 227.5Q305.1 225.2 305.1 221.1L305.1 221.1Q305.1 218.9 306.3 217.3Q307.5 215.6 309.6 214.7Q311.8 213.8 314.5 213.8L314.5 213.8Q318.6 213.8 321.2 215.7Q323.8 217.5 323.8 220.8L323.8 220.8Q323.8 222.6 322.8 224.1Q321.7 225.7 319.5 226.9L319.5 226.9ZM314.5 218.1Q313.0 218.1 312.1 218.9Q311.2 219.7 311.2 221.2L311.2 221.2Q311.2 222.5 312.0 223.4Q312.8 224.2 314.5 225.0L314.5 225.0L315.3 225.3Q316.7 224.4 317.2 223.4Q317.7 222.4 317.7 221.1L317.7 221.1Q317.7 219.7 316.9 218.9Q316.1 218.1 314.5 218.1L314.5 218.1ZM314.5 237.6Q316.4 237.6 317.5 236.6Q318.6 235.6 318.6 234.0L318.6 234.0Q318.6 232.4 317.6 231.5Q316.7 230.5 314.4 229.7L314.4 229.7L313.1 229.2Q310.4 230.7 310.4 233.9L310.4 233.9Q310.4 235.6 311.5 236.6Q312.6 237.6 314.5 237.6L314.5 237.6ZM334.8 226.6Q333.0 226.6 331.4 225.8Q329.7 225.0 328.7 223.4Q327.6 221.8 327.6 219.8L327.6 219.8Q327.6 217.7 328.7 216.2Q329.7 214.6 331.3 213.8Q333.0 213 334.8 213L334.8 213Q336.6 213 338.2 213.8Q339.9 214.6 340.9 216.2Q341.9 217.7 341.9 219.8L341.9 219.8Q341.9 221.8 340.9 223.4Q339.9 225.0 338.2 225.8Q336.6 226.6 334.8 226.6L334.8 226.6ZM334.8 222.9Q336.0 222.9 336.8 222.1Q337.6 221.2 337.6 219.8L337.6 219.8Q337.6 218.3 336.8 217.5Q336.1 216.6 334.8 216.6L334.8 216.6Q333.5 216.6 332.8 217.5Q332.0 218.3 332.0 219.8L332.0 219.8Q332.0 221.2 332.8 222.1Q333.5 222.9 334.8 222.9L334.8 222.9Z "/><mask id="satori_om-id-0-1-1-1"><rect x="375" y="204" width="92" height="48" fill="#fff"/></mask><path fill="#333" d="M377.6 213.7L384.2 213.7L384.2 236.2L395.0 236.2L394.3 241.4L377.6 241.4L377.6 213.7Z M418.8 223.2Q421.0 223.2 422.8 224.3Q424.6 225.3 425.6 227.3Q426.6 229.4 426.6 232.2L426.6 232.2Q426.6 234.9 425.4 237.2Q424.2 239.4 421.9 240.8Q419.7 242.1 416.8 242.1L416.8 242.1Q411.6 242.1 409.0 238.6Q406.5 235.1 406.5 229.0L406.5 229.0Q406.5 224.5 407.9 221.0Q409.4 217.6 412.0 215.7Q414.7 213.8 418.3 213.8L418.3 213.8Q421.8 213.8 424.4 215.6L424.4 215.6L422.1 219.4Q420.3 218.3 418.4 218.3L418.4 218.3Q416.2 218.3 414.8 220.2Q413.4 222.2 413.1 225.7L413.1 225.7Q415.5 223.2 418.8 223.2L418.8 223.2ZM416.8 237.6Q418.5 237.6 419.4 236.1Q420.2 234.7 420.2 232.2L420.2 232.2Q420.2 229.7 419.4 228.6Q418.6 227.6 417.0 227.6L417.0 227.6Q414.9 227.6 413.1 229.7L413.1 229.7Q413.2 234.0 414 235.8Q414.8 237.6 416.8 237.6L416.8 237.6ZM437.2 214.4L442.8 214.4L442.8 241.4L436.6 241.4L436.6 220.5L430.8 224.1L428.1 219.9L437.2 214.4ZM454.8 226.6Q453.0 226.6 451.4 225.8Q449.8 225.0 448.7 223.4Q447.7 221.8 447.7 219.8L447.7 219.8Q447.7 217.7 448.7 216.2Q449.7 214.6 451.4 213.8Q453.0 213 454.8 213L454.8 213Q456.6 213 458.3 213.8Q459.9 214.6 460.9 216.2Q462.0 217.7 462.0 219.8L462.0 219.8Q462.0 221.8 460.9 223.4Q459.9 225.0 458.3 225.8Q456.6 226.6 454.8 226.6L454.8 226.6ZM454.8 222.9Q456.1 222.9 456.8 222.1Q457.6 221.2 457.6 219.8L457.6 219.8Q457.6 218.3 456.9 217.5Q456.1 216.6 454.8 216.6L454.8 216.6Q453.6 216.6 452.8 217.5Q452.0 218.3 452.0 219.8L452.0 219.8Q452.0 221.2 452.8 222.1Q453.6 222.9 454.8 222.9L454.8 222.9Z "/><mask id="satori_om-id-1"><rect x="0" y="264" width="960" height="245" fill="#fff"/></mask><mask id="satori_om-id-1-0"><rect x="40" y="282" width="880" height="29" fill="#fff"/></mask><mask id="satori_om-id-1-0-0"><rect x="40" y="282" width="305" height="29" fill="#fff"/></mask><path fill="#333" d="M45.7 287.9Q47.5 287.9 48.7 288.5Q50.0 289.1 50.6 290.2Q51.3 291.2 51.3 292.5L51.3 292.5Q51.3 293.8 50.8 295.0Q50.2 296.2 48.9 297.7Q47.6 299.2 45.0 301.5L45.0 301.5L51.6 301.5L51.3 304.4L40.7 304.4L40.7 301.8Q43.6 298.8 45.0 297.4Q46.3 295.9 46.9 294.9Q47.4 293.9 47.4 292.9L47.4 292.9Q47.4 291.9 46.9 291.3Q46.3 290.8 45.3 290.8L45.3 290.8Q44.5 290.8 43.8 291.2Q43.1 291.6 42.4 292.5L42.4 292.5L40.1 290.7Q41.2 289.4 42.6 288.6Q44.0 287.9 45.7 287.9L45.7 287.9ZM65.1 298.1L67.0 298.1L67.0 300.9L65.1 300.9L65.1 304.4L61.4 304.4L61.4 300.9L54.6 300.9L54.6 298.4L59.2 287.8L62.4 289.0L58.5 298.1L61.5 298.1L61.9 294.3L65.1 294.3L65.1 298.1ZM77.7 298.4L70.0 298.4L70.0 295.5L77.7 295.5L77.7 298.4ZM94.7 304.4L90.7 304.4L90.7 297.3L85.7 297.3L85.7 304.4L81.8 304.4L81.8 287.8L85.7 287.8L85.7 294.2L90.7 294.2L90.7 287.8L94.7 287.8L94.7 304.4ZM106 287.4Q109.6 287.4 111.5 289.7Q113.5 292.0 113.5 296.1L113.5 296.1Q113.5 298.8 112.6 300.8Q111.7 302.8 110.0 303.8Q108.3 304.8 106 304.8L106 304.8Q103.7 304.8 102.0 303.8Q100.3 302.8 99.4 300.8Q98.5 298.9 98.5 296.1L98.5 296.1Q98.5 293.4 99.4 291.5Q100.3 289.5 102.0 288.4Q103.7 287.4 106 287.4L106 287.4ZM106 290.3Q104.3 290.3 103.5 291.7Q102.6 293.0 102.6 296.1L102.6 296.1Q102.6 299.2 103.5 300.6Q104.3 302.0 106 302.0L106 302.0Q107.7 302.0 108.6 300.6Q109.4 299.2 109.4 296.1L109.4 296.1Q109.4 293.0 108.5 291.6Q107.7 290.3 106 290.3L106 290.3ZM130.1 287.8L130.1 298.9Q130.1 300.6 129.4 302.0Q128.6 303.3 127.2 304.1Q125.7 304.8 123.6 304.8L123.6 304.8Q120.4 304.8 118.8 303.2Q117.1 301.6 117.1 298.9L117.1 298.9L117.1 287.8L121.1 287.8L121.1 298.8Q121.1 300.4 121.7 301.1Q122.3 301.9 123.6 301.9L123.6 301.9Q124.9 301.9 125.6 301.1Q126.2 300.4 126.2 298.8L126.2 298.8L126.2 287.8L130.1 287.8ZM143.4 304.4L140.0 298.1L138.4 298.1L138.4 304.4L134.5 304.4L134.5 287.8L139.9 287.8Q143.3 287.8 145.1 289.1Q146.8 290.3 146.8 292.9L146.8 292.9Q146.8 294.5 146.0 295.5Q145.2 296.6 143.6 297.4L143.6 297.4L147.8 304.4L143.4 304.4ZM138.4 290.6L138.4 295.4L140.1 295.4Q141.4 295.4 142.1 294.8Q142.7 294.2 142.7 292.9L142.7 292.9Q142.7 291.7 142.0 291.1Q141.3 290.6 139.8 290.6L139.8 290.6L138.4 290.6Z M166.9 304.4L163.5 298.1L161.9 298.1L161.9 304.4L158.0 304.4L158.0 287.8L163.4 287.8Q166.8 287.8 168.6 289.1Q170.3 290.3 170.3 292.9L170.3 292.9Q170.3 294.5 169.5 295.5Q168.7 296.6 167.1 297.4L167.1 297.4L171.3 304.4L166.9 304.4ZM161.9 290.6L161.9 295.4L163.6 295.4Q164.9 295.4 165.6 294.8Q166.2 294.2 166.2 292.9L166.2 292.9Q166.2 291.7 165.5 291.1Q164.8 290.6 163.3 290.6L163.3 290.6L161.9 290.6ZM187.2 304.4L183.1 304.4L182.2 300.9L177.3 300.9L176.5 304.4L172.4 304.4L177.4 287.8L182.2 287.8L187.2 304.4ZM179.8 290.7L178.0 298.0L181.5 298.0L179.8 290.7ZM190.0 287.8L193.9 287.8L193.9 304.4L190.0 304.4L190.0 287.8ZM211.3 287.8L211.3 304.4L206.3 304.4L201.5 291.6Q201.7 293.4 201.9 294.9Q202.0 296.4 202.0 298.3L202.0 298.3L202.0 304.4L198.5 304.4L198.5 287.8L203.4 287.8L208.3 300.7Q207.8 297.4 207.8 294.5L207.8 294.5L207.8 287.8L211.3 287.8Z M226.3 291.3L229.5 291.3L229.5 295.0L233.1 295.0L233.1 297.9L229.5 297.9L229.5 301.7L226.3 301.7L226.3 297.9L222.7 297.9L222.7 295.0L226.3 295.0L226.3 291.3Z M249.9 287.4Q251.7 287.4 253.1 287.9Q254.5 288.5 255.6 289.5L255.6 289.5L253.8 291.7Q252.1 290.3 250.2 290.3L250.2 290.3Q249.1 290.3 248.5 290.7Q247.9 291.1 247.9 291.9L247.9 291.9Q247.9 292.5 248.2 292.8Q248.5 293.2 249.1 293.5Q249.8 293.8 251.1 294.2L251.1 294.2Q253.7 295.0 254.9 296.2Q256.1 297.4 256.1 299.6L256.1 299.6Q256.1 301.2 255.3 302.3Q254.5 303.5 253.0 304.2Q251.5 304.8 249.5 304.8L249.5 304.8Q247.4 304.8 245.9 304.2Q244.3 303.6 243.2 302.5L243.2 302.5L245.2 300.3Q246.1 301.1 247.1 301.5Q248.2 301.9 249.4 301.9L249.4 301.9Q250.6 301.9 251.3 301.4Q252.0 300.8 252.0 299.9L252.0 299.9Q252.0 299.3 251.7 298.8Q251.5 298.4 250.8 298.1Q250.2 297.7 249.0 297.4L249.0 297.4Q246.2 296.5 245.0 295.3Q243.9 294.1 243.9 292.2L243.9 292.2Q243.9 290.8 244.6 289.7Q245.4 288.6 246.8 288.0Q248.1 287.4 249.9 287.4L249.9 287.4ZM272.6 287.8L272.6 304.4L267.5 304.4L262.7 291.6Q263.0 293.4 263.1 294.9Q263.2 296.4 263.2 298.3L263.2 298.3L263.2 304.4L259.7 304.4L259.7 287.8L264.6 287.8L269.6 300.7Q269.0 297.4 269.0 294.5L269.0 294.5L269.0 287.8L272.6 287.8ZM283.9 287.4Q287.4 287.4 289.4 289.7Q291.4 292.0 291.4 296.1L291.4 296.1Q291.4 298.8 290.5 300.8Q289.6 302.8 287.9 303.8Q286.2 304.8 283.9 304.8L283.9 304.8Q281.5 304.8 279.9 303.8Q278.2 302.8 277.3 300.8Q276.4 298.9 276.4 296.1L276.4 296.1Q276.4 293.4 277.3 291.5Q278.2 289.5 279.9 288.4Q281.5 287.4 283.9 287.4L283.9 287.4ZM283.9 290.3Q282.2 290.3 281.3 291.7Q280.5 293.0 280.5 296.1L280.5 296.1Q280.5 299.2 281.4 300.6Q282.2 302.0 283.9 302.0L283.9 302.0Q285.6 302.0 286.4 300.6Q287.3 299.2 287.3 296.1L287.3 296.1Q287.3 293.0 286.4 291.6Q285.6 290.3 283.9 290.3L283.9 290.3ZM310.0 287.8L313.8 287.8L311.0 304.4L305.9 304.4L303.8 291.7L301.6 304.4L296.6 304.4L293.9 287.8L297.8 287.8L299.5 301.5L301.8 287.8L305.9 287.8L308.1 301.5L310.0 287.8Z M326.3 303.9L337.4 287.2L339.8 288.6L328.6 305.4L326.3 303.9ZM327.7 287.9Q328.9 287.9 329.8 288.4Q330.8 288.9 331.4 289.9Q331.9 290.9 331.9 292.2L331.9 292.2Q331.9 293.5 331.4 294.5Q330.8 295.5 329.8 296.0Q328.9 296.5 327.7 296.5L327.7 296.5Q326.5 296.5 325.5 296.0Q324.5 295.4 324.0 294.5Q323.4 293.5 323.4 292.2L323.4 292.2Q323.4 290.9 324.0 289.9Q324.5 289.0 325.5 288.4Q326.5 287.9 327.7 287.9L327.7 287.9ZM327.7 290.2Q326.1 290.2 326.1 292.2L326.1 292.2Q326.1 293.1 326.5 293.7Q326.8 294.2 327.7 294.2L327.7 294.2Q329.2 294.2 329.2 292.2L329.2 292.2Q329.2 290.2 327.7 290.2L327.7 290.2ZM338.3 296.2Q339.5 296.2 340.5 296.8Q341.5 297.3 342.1 298.3Q342.6 299.2 342.6 300.5L342.6 300.5Q342.6 301.8 342.1 302.8Q341.5 303.8 340.5 304.3Q339.5 304.8 338.3 304.8L338.3 304.8Q337.1 304.8 336.2 304.3Q335.2 303.8 334.6 302.8Q334.0 301.8 334.0 300.5L334.0 300.5Q334.0 299.2 334.6 298.3Q335.2 297.3 336.2 296.8Q337.1 296.2 338.3 296.2L338.3 296.2ZM338.3 298.5Q336.8 298.5 336.8 300.5L336.8 300.5Q336.8 301.4 337.1 302.0Q337.5 302.6 338.3 302.6L338.3 302.6Q339.9 302.6 339.9 300.5L339.9 300.5Q339.9 298.5 338.3 298.5L338.3 298.5Z "/><mask id="satori_om-id-1-0-1"><rect x="541" y="282" width="379" height="29" fill="#fff"/></mask><path fill="#333" d="M551.4 304.4L548.0 298.1L546.5 298.1L546.5 304.4L542.6 304.4L542.6 287.8L548.0 287.8Q551.4 287.8 553.1 289.1Q554.8 290.3 554.8 292.9L554.8 292.9Q554.8 294.5 554.1 295.5Q553.3 296.6 551.7 297.4L551.7 297.4L555.9 304.4L551.4 304.4ZM546.5 290.6L546.5 295.4L548.2 295.4Q549.5 295.4 550.1 294.8Q550.8 294.2 550.8 292.9L550.8 292.9Q550.8 291.7 550.1 291.1Q549.4 290.6 547.9 290.6L547.9 290.6L546.5 290.6ZM567.4 300.7Q567.4 301.5 567.6 301.8Q567.8 302.1 568.3 302.3L568.3 302.3L567.5 304.8Q566.3 304.7 565.6 304.3Q564.8 303.8 564.4 302.9L564.4 302.9Q563.2 304.8 560.6 304.8L560.6 304.8Q558.7 304.8 557.6 303.7Q556.4 302.6 556.4 300.9L556.4 300.9Q556.4 298.8 558.0 297.7Q559.5 296.6 562.4 296.6L562.4 296.6L563.7 296.6L563.7 296.0Q563.7 294.9 563.2 294.5Q562.7 294.0 561.5 294.0L561.5 294.0Q560.9 294.0 560.0 294.2Q559.1 294.4 558.2 294.7L558.2 294.7L557.3 292.2Q558.5 291.8 559.8 291.5Q561.1 291.3 562.1 291.3L562.1 291.3Q564.9 291.3 566.2 292.4Q567.4 293.5 567.4 295.8L567.4 295.8L567.4 300.7ZM561.7 302.1Q563.0 302.1 563.7 300.9L563.7 300.9L563.7 298.7L562.8 298.7Q561.5 298.7 560.8 299.1Q560.2 299.6 560.2 300.5L560.2 300.5Q560.2 301.3 560.6 301.7Q561.0 302.1 561.7 302.1L561.7 302.1ZM570.4 291.7L574.2 291.7L574.2 304.4L570.4 304.4L570.4 291.7ZM572.3 285.0Q573.3 285.0 573.9 285.6Q574.6 286.2 574.6 287.1L574.6 287.1Q574.6 288.1 573.9 288.7Q573.3 289.3 572.3 289.3L572.3 289.3Q571.3 289.3 570.7 288.7Q570.1 288.1 570.1 287.1L570.1 287.1Q570.1 286.2 570.7 285.6Q571.3 285.0 572.3 285.0L572.3 285.0ZM584.7 291.3Q586.3 291.3 587.3 292.3Q588.2 293.3 588.2 295.1L588.2 295.1L588.2 304.4L584.4 304.4L584.4 295.8Q584.4 294.8 584.1 294.4Q583.8 294.1 583.2 294.1L583.2 294.1Q582.1 294.1 581.0 295.7L581.0 295.7L581.0 304.4L577.2 304.4L577.2 291.7L580.5 291.7L580.8 293.2Q581.6 292.2 582.6 291.8Q583.5 291.3 584.7 291.3L584.7 291.3Z M604.2 291.3Q605.9 291.3 606.8 292.3Q607.7 293.3 607.7 295.1L607.7 295.1L607.7 304.4L604.0 304.4L604.0 295.8Q604.0 294.8 603.7 294.4Q603.4 294.1 602.8 294.1L602.8 294.1Q601.6 294.1 600.5 295.7L600.5 295.7L600.5 304.4L596.8 304.4L596.8 291.7L600.1 291.7L600.3 293.2Q601.1 292.2 602.1 291.8Q603.0 291.3 604.2 291.3L604.2 291.3ZM616.1 291.3Q619.0 291.3 620.7 293.1Q622.4 294.9 622.4 298.1L622.4 298.1Q622.4 300.1 621.6 301.6Q620.8 303.2 619.4 304.0Q618.0 304.8 616.1 304.8L616.1 304.8Q613.2 304.8 611.5 303.1Q609.9 301.3 609.9 298.1L609.9 298.1Q609.9 296.0 610.6 294.5Q611.4 293.0 612.8 292.1Q614.2 291.3 616.1 291.3L616.1 291.3ZM616.1 294.1Q615.0 294.1 614.4 295.0Q613.8 296.0 613.8 298.1L613.8 298.1Q613.8 300.1 614.4 301.1Q614.9 302.1 616.1 302.1L616.1 302.1Q617.3 302.1 617.8 301.1Q618.4 300.1 618.4 298.1L618.4 298.1Q618.4 296.0 617.9 295.0Q617.3 294.1 616.1 294.1L616.1 294.1ZM637.4 291.7L641.0 291.7L638.3 304.4L633.8 304.4L632.1 295.1L630.4 304.4L625.9 304.4L623.2 291.7L627.1 291.7L628.4 301.6L630.4 291.7L634.1 291.7L635.8 301.6L637.4 291.7Z M649.7 294.9Q650.6 294.9 651.2 295.5Q651.8 296.2 651.8 297.0L651.8 297.0Q651.8 298.0 651.2 298.6Q650.6 299.2 649.7 299.2L649.7 299.2Q648.8 299.2 648.1 298.6Q647.5 298.0 647.5 297.0L647.5 297.0Q647.5 296.2 648.1 295.5Q648.8 294.9 649.7 294.9L649.7 294.9Z M665.3 287.9Q668.2 287.9 669.8 290.1Q671.4 292.2 671.4 296.4L671.4 296.4Q671.4 300.4 669.8 302.6Q668.2 304.8 665.3 304.8L665.3 304.8Q662.3 304.8 660.7 302.6Q659.2 300.4 659.2 296.4L659.2 296.4Q659.2 292.2 660.7 290.1Q662.3 287.9 665.3 287.9L665.3 287.9ZM665.3 290.7Q664.5 290.7 664.0 291.2Q663.5 291.7 663.3 293.0Q663.0 294.2 663.0 296.4L663.0 296.4Q663.0 298.5 663.3 299.7Q663.5 301.0 664.0 301.5Q664.5 302.0 665.3 302.0L665.3 302.0Q666.1 302.0 666.6 301.5Q667.0 301.0 667.3 299.8Q667.5 298.5 667.5 296.4L667.5 296.4Q667.5 294.2 667.3 292.9Q667.0 291.7 666.6 291.2Q666.1 290.7 665.3 290.7L665.3 290.7ZM675.2 300.5Q676.0 300.5 676.7 301.1Q677.3 301.8 677.3 302.7L677.3 302.7Q677.3 303.6 676.7 304.2Q676.0 304.8 675.2 304.8L675.2 304.8Q674.2 304.8 673.6 304.2Q673.0 303.6 673.0 302.7L673.0 302.7Q673.0 301.8 673.6 301.1Q674.2 300.5 675.2 300.5L675.2 300.5ZM688.0 295.7Q689.7 296.5 690.5 297.6Q691.3 298.7 691.3 300.0L691.3 300.0Q691.3 301.4 690.5 302.5Q689.8 303.6 688.3 304.2Q686.9 304.8 684.9 304.8L684.9 304.8Q683.0 304.8 681.6 304.2Q680.2 303.6 679.5 302.5Q678.7 301.4 678.7 300.1L678.7 300.1Q678.7 297.4 681.8 296.1L681.8 296.1Q679.4 294.7 679.4 292.2L679.4 292.2Q679.4 291.0 680.1 290.0Q680.8 289.0 682.1 288.4Q683.4 287.9 685.0 287.9L685.0 287.9Q687.5 287.9 689.1 289.0Q690.6 290.1 690.6 292.1L690.6 292.1Q690.6 293.1 690.0 294.1Q689.4 295.0 688.0 295.7L688.0 295.7ZM685.0 290.4Q684.1 290.4 683.6 290.9Q683.1 291.4 683.1 292.3L683.1 292.3Q683.1 293.1 683.5 293.6Q684.0 294.1 685.0 294.6L685.0 294.6L685.5 294.8Q686.3 294.2 686.7 293.7Q687.0 293.1 687.0 292.2L687.0 292.2Q687.0 291.4 686.5 290.9Q686.0 290.4 685.0 290.4L685.0 290.4ZM685.0 302.1Q686.2 302.1 686.8 301.5Q687.5 301.0 687.5 300.0L687.5 300.0Q687.5 299.0 686.9 298.5Q686.4 297.9 685.0 297.4L685.0 297.4L684.2 297.1Q682.6 298.0 682.6 299.9L682.6 299.9Q682.6 300.9 683.2 301.5Q683.9 302.1 685.0 302.1L685.0 302.1ZM696.1 294.5L693.6 294.5L693.1 287.8L696.6 287.8L696.1 294.5ZM700.9 294.5L698.4 294.5L698.0 287.8L701.4 287.8L700.9 294.5Z M711.1 294.9Q712.0 294.9 712.6 295.5Q713.2 296.2 713.2 297.0L713.2 297.0Q713.2 298.0 712.6 298.6Q712.0 299.2 711.1 299.2L711.1 299.2Q710.2 299.2 709.5 298.6Q708.9 298.0 708.9 297.0L708.9 297.0Q708.9 296.2 709.5 295.5Q710.2 294.9 711.1 294.9L711.1 294.9Z M726.6 287.4Q728.4 287.4 729.8 287.9Q731.2 288.5 732.3 289.5L732.3 289.5L730.5 291.7Q728.8 290.3 726.9 290.3L726.9 290.3Q725.8 290.3 725.2 290.7Q724.6 291.1 724.6 291.9L724.6 291.9Q724.6 292.5 724.9 292.8Q725.2 293.2 725.8 293.5Q726.5 293.8 727.8 294.2L727.8 294.2Q730.4 295.0 731.6 296.2Q732.8 297.4 732.8 299.6L732.8 299.6Q732.8 301.2 732.0 302.3Q731.2 303.5 729.7 304.2Q728.2 304.8 726.2 304.8L726.2 304.8Q724.1 304.8 722.6 304.2Q721.0 303.6 719.9 302.5L719.9 302.5L721.9 300.3Q722.8 301.1 723.8 301.5Q724.9 301.9 726.1 301.9L726.1 301.9Q727.3 301.9 728.0 301.4Q728.7 300.8 728.7 299.9L728.7 299.9Q728.7 299.3 728.4 298.8Q728.2 298.4 727.5 298.1Q726.9 297.7 725.7 297.4L725.7 297.4Q722.9 296.5 721.7 295.3Q720.6 294.1 720.6 292.2L720.6 292.2Q720.6 290.8 721.3 289.7Q722.1 288.6 723.5 288.0Q724.8 287.4 726.6 287.4L726.6 287.4ZM742.3 291.3Q744.0 291.3 744.9 292.3Q745.9 293.3 745.9 295.1L745.9 295.1L745.9 304.4L742.1 304.4L742.1 295.8Q742.1 294.8 741.8 294.4Q741.5 294.1 740.9 294.1L740.9 294.1Q739.7 294.1 738.7 295.7L738.7 295.7L738.7 304.4L734.9 304.4L734.9 291.7L738.2 291.7L738.4 293.2Q739.3 292.2 740.2 291.8Q741.2 291.3 742.3 291.3L742.3 291.3ZM754.2 291.3Q757.2 291.3 758.8 293.1Q760.5 294.9 760.5 298.1L760.5 298.1Q760.5 300.1 759.7 301.6Q759.0 303.2 757.6 304.0Q756.2 304.8 754.2 304.8L754.2 304.8Q751.3 304.8 749.7 303.1Q748 301.3 748 298.1L748 298.1Q748 296.0 748.8 294.5Q749.5 293.0 750.9 292.1Q752.3 291.3 754.2 291.3L754.2 291.3ZM754.2 294.1Q753.1 294.1 752.5 295.0Q751.9 296.0 751.9 298.1L751.9 298.1Q751.9 300.1 752.5 301.1Q753.1 302.1 754.2 302.1L754.2 302.1Q755.4 302.1 756.0 301.1Q756.5 300.1 756.5 298.1L756.5 298.1Q756.5 296.0 756.0 295.0Q755.4 294.1 754.2 294.1L754.2 294.1ZM775.5 291.7L779.1 291.7L776.5 304.4L771.9 304.4L770.2 295.1L768.5 304.4L764.1 304.4L761.3 291.7L765.2 291.7L766.5 301.6L768.5 291.7L772.2 291.7L773.9 301.6L775.5 291.7Z M796.5 300.7Q796.5 301.5 796.7 301.8Q796.9 302.1 797.4 302.3L797.4 302.3L796.6 304.8Q795.4 304.7 794.7 304.3Q793.9 303.8 793.5 302.9L793.5 302.9Q792.3 304.8 789.7 304.8L789.7 304.8Q787.8 304.8 786.7 303.7Q785.5 302.6 785.5 300.9L785.5 300.9Q785.5 298.8 787.1 297.7Q788.6 296.6 791.5 296.6L791.5 296.6L792.8 296.6L792.8 296.0Q792.8 294.9 792.3 294.5Q791.8 294.0 790.6 294.0L790.6 294.0Q790.0 294.0 789.1 294.2Q788.2 294.4 787.3 294.7L787.3 294.7L786.4 292.2Q787.6 291.8 788.9 291.5Q790.2 291.3 791.2 291.3L791.2 291.3Q794.0 291.3 795.3 292.4Q796.5 293.5 796.5 295.8L796.5 295.8L796.5 300.7ZM790.8 302.1Q792.1 302.1 792.8 300.9L792.8 300.9L792.8 298.7L791.9 298.7Q790.6 298.7 789.9 299.1Q789.3 299.6 789.3 300.5L789.3 300.5Q789.3 301.3 789.7 301.7Q790.1 302.1 790.8 302.1L790.8 302.1ZM806.3 301.4L807.5 303.8Q806.8 304.3 805.9 304.6Q805.0 304.8 804.1 304.8L804.1 304.8Q799.9 304.8 799.9 300.2L799.9 300.2L799.9 294.3L798.1 294.3L798.1 291.7L799.9 291.7L799.9 288.9L803.7 288.5L803.7 291.7L806.6 291.7L806.2 294.3L803.7 294.3L803.7 300.2Q803.7 301.1 804.0 301.5Q804.3 301.8 804.9 301.8L804.9 301.8Q805.6 301.8 806.3 301.4L806.3 301.4Z M824.2 298.1L826.1 298.1L826.1 300.9L824.2 300.9L824.2 304.4L820.6 304.4L820.5 300.9L813.7 300.9L813.7 298.4L818.3 287.8L821.5 289.0L817.6 298.1L820.6 298.1L821.0 294.3L824.2 294.3L824.2 298.1ZM838.2 300.7Q838.2 301.5 838.4 301.8Q838.6 302.1 839.1 302.3L839.1 302.3L838.3 304.8Q837.1 304.7 836.3 304.3Q835.6 303.8 835.2 302.9L835.2 302.9Q833.9 304.8 831.4 304.8L831.4 304.8Q829.5 304.8 828.3 303.7Q827.2 302.6 827.2 300.9L827.2 300.9Q827.2 298.8 828.7 297.7Q830.3 296.6 833.2 296.6L833.2 296.6L834.5 296.6L834.5 296.0Q834.5 294.9 834.0 294.5Q833.5 294.0 832.3 294.0L832.3 294.0Q831.7 294.0 830.8 294.2Q829.9 294.4 829.0 294.7L829.0 294.7L828.1 292.2Q829.3 291.8 830.6 291.5Q831.8 291.3 832.9 291.3L832.9 291.3Q835.6 291.3 836.9 292.4Q838.2 293.5 838.2 295.8L838.2 295.8L838.2 300.7ZM832.5 302.1Q833.8 302.1 834.5 300.9L834.5 300.9L834.5 298.7L833.5 298.7Q832.2 298.7 831.6 299.1Q831.0 299.6 831.0 300.5L831.0 300.5Q831.0 301.3 831.4 301.7Q831.8 302.1 832.5 302.1L832.5 302.1ZM855.3 291.3Q856.8 291.3 857.7 292.3Q858.6 293.3 858.6 295.1L858.6 295.1L858.6 304.4L854.8 304.4L854.8 295.8Q854.8 294.1 853.8 294.1L853.8 294.1Q853.2 294.1 852.7 294.5Q852.3 294.9 851.8 295.7L851.8 295.7L851.8 304.4L848.0 304.4L848.0 295.8Q848.0 294.1 847.0 294.1L847.0 294.1Q846.4 294.1 845.9 294.5Q845.4 294.9 845.0 295.7L845.0 295.7L845.0 304.4L841.2 304.4L841.2 291.7L844.5 291.7L844.8 293.2Q845.5 292.2 846.4 291.8Q847.3 291.3 848.5 291.3L848.5 291.3Q849.6 291.3 850.3 291.8Q851.1 292.3 851.5 293.3L851.5 293.3Q852.3 292.3 853.2 291.8Q854.1 291.3 855.3 291.3L855.3 291.3Z M868.6 294.9Q869.5 294.9 870.1 295.5Q870.7 296.2 870.7 297.0L870.7 297.0Q870.7 298.0 870.1 298.6Q869.5 299.2 868.6 299.2L868.6 299.2Q867.7 299.2 867.0 298.6Q866.4 298.0 866.4 297.0L866.4 297.0Q866.4 296.2 867.0 295.5Q867.7 294.9 868.6 294.9L868.6 294.9Z M884.2 287.9Q887.2 287.9 888.7 290.1Q890.3 292.2 890.3 296.4L890.3 296.4Q890.3 300.4 888.7 302.6Q887.2 304.8 884.2 304.8L884.2 304.8Q881.2 304.8 879.6 302.6Q878.1 300.4 878.1 296.4L878.1 296.4Q878.1 292.2 879.6 290.1Q881.2 287.9 884.2 287.9L884.2 287.9ZM884.2 290.7Q883.4 290.7 882.9 291.2Q882.4 291.7 882.2 293.0Q881.9 294.2 881.9 296.4L881.9 296.4Q881.9 298.5 882.2 299.7Q882.4 301.0 882.9 301.5Q883.4 302.0 884.2 302.0L884.2 302.0Q885.0 302.0 885.5 301.5Q886.0 301.0 886.2 299.8Q886.4 298.5 886.4 296.4L886.4 296.4Q886.4 294.2 886.2 292.9Q886.0 291.7 885.5 291.2Q885.0 290.7 884.2 290.7L884.2 290.7ZM894.1 300.5Q895.0 300.5 895.6 301.1Q896.2 301.8 896.2 302.7L896.2 302.7Q896.2 303.6 895.6 304.2Q895.0 304.8 894.1 304.8L894.1 304.8Q893.2 304.8 892.5 304.2Q891.9 303.6 891.9 302.7L891.9 302.7Q891.9 301.8 892.5 301.1Q893.2 300.5 894.1 300.5L894.1 300.5ZM902.7 287.9Q904.4 287.9 905.6 288.4Q906.8 289.0 907.4 289.9Q908.1 290.9 908.1 292.0L908.1 292.0Q908.1 293.5 907.3 294.5Q906.4 295.4 904.9 295.9L904.9 295.9Q906.5 296.0 907.6 297.0Q908.6 298.0 908.6 299.9L908.6 299.9Q908.6 301.2 907.9 302.4Q907.2 303.5 905.8 304.2Q904.4 304.8 902.4 304.8L902.4 304.8Q898.9 304.8 896.8 302.4L896.8 302.4L898.9 300.4Q899.7 301.2 900.5 301.6Q901.3 302.0 902.2 302.0L902.2 302.0Q903.3 302.0 904.0 301.3Q904.7 300.7 904.7 299.6L904.7 299.6Q904.7 298.4 904.1 297.8Q903.4 297.3 902.1 297.3L902.1 297.3L900.7 297.3L901.1 294.7L902.1 294.7Q903.2 294.7 903.8 294.1Q904.4 293.6 904.4 292.6L904.4 292.6Q904.4 291.7 903.8 291.2Q903.3 290.7 902.2 290.7L902.2 290.7Q900.5 290.7 899.1 292.1L899.1 292.1L897.2 290.1Q899.5 287.9 902.7 287.9L902.7 287.9ZM913.5 294.5L911.0 294.5L910.6 287.8L914.0 287.8L913.5 294.5ZM918.4 294.5L915.9 294.5L915.4 287.8L918.8 287.8L918.4 294.5Z "/><defs><clipPath id="satori_bc-id-1-1"><rect x="40" y="319" width="880" height="164"/></clipPath></defs><mask id="satori_om-id-1-1"><rect x="40" y="319" width="880" height="162" fill="#fff"/><path width="880" height="164" fill="none" stroke="#000" stroke-width="4" d="M920,483 A0,0 0 0 1 920,483 h-880 A0,0 0 0 1 40,483"/></mask><path width="880" height="164" clip-path="url(#satori_bc-id-1-1)" fill="none" stroke="#000" stroke-width="4" d="M920,483 A0,0 0 0 1 920,483 h-880 A0,0 0 0 1 40,483"/><clipPath id="satori_cp-id-1-1-0"><rect x="40" y="319" width="880" height="164"/></clipPath><mask id="satori_om-id-1-1-0"><rect x="40" y="319" width="880" height="164" fill="#fff"/></mask><image x="40" y="319" width="880" height="164" href="data:image/svg+xml;utf8,%3Csvg  xmlns=%22http://www.w3.org/2000/svg%22 width=%22Infinity%22 height=%22NaN%22%3E%3Crect x=%220%22 y=%22154%22 width=%2236.666666666666664%22 height=%228%22 fill=%22%23ccc%22 shape-rendering=%22crispEdges%22%3E%3C/rect%3E%3Crect x=%2236.666666666666664%22 y=%22154%22 width=%2236.666666666666664%22 height=%228%22 fill=%22%23ccc%22 shape-rendering=%22crispEdges%22%3E%3C/rect%3E%3Crect x=%2273.33333333333333%22 y=%22146%22 width=%2236.666666666666664%22 height=%2216%22 fill=%22%23ccc%22 shape-rendering=%22crispEdges%22%3E%3C/rect%3E%3Crect x=%22110%22 y=%22138%22 width=%2236.666666666666664%22 height=%2224%22 fill=%22%23ccc%22 shape-rendering=%22crispEdges%22%3E%3C/rect%3E%3Crect x=%22146.66666666666666%22 y=%22122%22 width=%2236.666666666666664%22 height=%2240%22 fill=%22%23ccc%22 shape-rendering=%22crispEdges%22%3E%3C/rect%3E%3Crect x=%22183.33333333333331%22 y=%2298%22 width=%2236.666666666666664%22 height=%2264%22 fill=%22%23ccc%22 shape-rendering=%22crispEdges%22%3E%3C/rect%3E%3Crect x=%22220%22 y=%2274%22 width=%2236.666666666666664%22 height=%2288%22 fill=%22%23ccc%22 shape-rendering=%22crispEdges%22%3E%3C/rect%3E%3Crect x=%22256.66666666666663%22 y=%2250%22 width=%2236.666666666666664%22 height=%22112%22 fill=%22%23ccc%22 shape-rendering=%22crispEdges%22%3E%3C/rect%3E%3Crect x=%22293.3333333333333%22 y=%2242%22 width=%2236.666666666666664%22 height=%22120%22 fill=%22%23ccc%22 shape-rendering=%22crispEdges%22%3E%3C/rect%3E%3Crect x=%22330%22 y=%2258%22 width=%2236.666666666666664%22 height=%22104%22 fill=%22%23ccc%22 shape-rendering=%22crispEdges%22%3E%3C/rect%3E%3Crect x=%22366.66666666666663%22 y=%2282%22 width=%2236.666666666666664%22 height=%2280%22 fill=%22%23ccc%22 shape-rendering=%22crispEdges%22%3E%3C/rect%3E%3Crect x=%22403.3333333333333%22 y=%22106%22 width=%2236.666666666666664%22 height=%2256%22 fill=%22%23ccc%22 shape-rendering=%22crispEdges%22%3E%3C/rect%3E%3Crect x=%22440%22 y=%22122%22 width=%2236.666666666666664%22 height=%2240%22 fill=%22%23ccc%22 shape-rendering=%22crispEdges%22%3E%3C/rect%3E%3Crect x=%22476.66666666666663%22 y=%22130%22 width=%2236.666666666666664%22 height=%2232%22 fill=%22%23ccc%22 shape-rendering=%22crispEdges%22%3E%3C/rect%3E%3Crect x=%22513.3333333333333%22 y=%22138%22 width=%2236.666666666666664%22 height=%2224%22 fill=%22%23ccc%22 shape-rendering=%22crispEdges%22%3E%3C/rect%3E%3Crect x=%22550%22 y=%22146%22 width=%2236.666666666666664%22 height=%2216%22 fill=%22%23ccc%22 shape-rendering=%22crispEdges%22%3E%3C/rect%3E%3Crect x=%22586.6666666666666%22 y=%22146%22 width=%2236.666666666666664%22 height=%2216%22 fill=%22%23ccc%22 shape-rendering=%22crispEdges%22%3E%3C/rect%3E%3Crect x=%22623.3333333333333%22 y=%22138%22 width=%2236.666666666666664%22 height=%2224%22 fill=%22%23ccc%22 shape-rendering=%22crispEdges%22%3E%3C/rect%3E%3Crect x=%22660%22 y=%22130%22 width=%2236.666666666666664%22 height=%2232%22 fill=%22%23ccc%22 shape-rendering=%22crispEdges%22%3E%3C/rect%3E%3Crect x=%22696.6666666666666%22 y=%22138%22 width=%2236.666666666666664%22 height=%2224%22 fill=%22%23ccc%22 shape-rendering=%22crispEdges%22%3E%3C/rect%3E%3Crect x=%22733.3333333333333%22 y=%22146%22 width=%2236.666666666666664%22 height=%2216%22 fill=%22%23ccc%22 shape-rendering=%22crispEdges%22%3E%3C/rect%3E%3Crect x=%22770%22 y=%22154%22 width=%2236.666666666666664%22 height=%228%22 fill=%22%23ccc%22 shape-rendering=%22crispEdges%22%3E%3C/rect%3E%3Crect x=%22806.6666666666666%22 y=%22154%22 width=%2236.666666666666664%22 height=%228%22 fill=%22%23ccc%22 shape-rendering=%22crispEdges%22%3E%3C/rect%3E%3Crect x=%22843.3333333333333%22 y=%22154%22 width=%2236.666666666666664%22 height=%228%22 fill=%22%23ccc%22 shape-rendering=%22crispEdges%22%3E%3C/rect%3E%3Crect x=%22513.3333333333333%22 y=%22154%22 width=%2236.666666666666664%22 height=%228%22 fill=%22%23666%22 shape-rendering=%22crispEdges%22%3E%3C/rect%3E%3Crect x=%22550%22 y=%22146%22 width=%2236.666666666666664%22 height=%2216%22 fill=%22%23666%22 shape-rendering=%22crispEdges%22%3E%3C/rect%3E%3Crect x=%22586.6666666666666%22 y=%22130%22 width=%2236.666666666666664%22 height=%2232%22 fill=%22%23666%22 shape-rendering=%22crispEdges%22%3E%3C/rect%3E%3Crect x=%22623.3333333333333%22 y=%22114%22 width=%2236.666666666666664%22 height=%2248%22 fill=%22%23666%22 shape-rendering=%22crispEdges%22%3E%3C/rect%3E%3Crect x=%22660%22 y=%22122%22 width=%2236.666666666666664%22 height=%2240%22 fill=%22%23666%22 shape-rendering=%22crispEdges%22%3E%3C/rect%3E%3Crect x=%22696.6666666666666%22 y=%22138%22 width=%2236.666666666666664%22 height=%2224%22 fill=%22%23666%22 shape-rendering=%22crispEdges%22%3E%3C/rect%3E%3Crect x=%22733.3333333333333%22 y=%22146%22 width=%2236.666666666666664%22 height=%2216%22 fill=%22%23666%22 shape-rendering=%22crispEdges%22%3E%3C/rect%3E%3Crect x=%22770%22 y=%22154%22 width=%2236.666666666666664%22 height=%228%22 fill=%22%23666%22 shape-rendering=%22crispEdges%22%3E%3C/rect%3E%3C/svg%3E" preserveAspectRatio="none" clip-path="url(#satori_cp-id-1-1-0)" mask="url(#satori_om-id-1-1-0)"/><mask id="satori_om-id-1-1-0-0"><rect x="40" y="319" width="0" height="164" fill="#fff"/></mask><mask id="satori_om-id-1-1-0-1"><rect x="40" y="319" width="0" height="164" fill="#fff"/></mask><mask id="satori_om-id-1-1-0-2"><rect x="40" y="319" width="0" height="164" fill="#fff"/></mask><mask id="satori_om-id-1-1-0-3"><rect x="40" y="319" width="0" height="164" fill="#fff"/></mask><mask id="satori_om-id-1-1-0-4"><rect x="40" y="319" width="0" height="164" fill="#fff"/></mask><mask id="satori_om-id-1-1-0-5"><rect x="40" y="319" width="0" height="164" fill="#fff"/></mask><mask id="satori_om-id-1-1-0-6"><rect x="40" y="319" width="0" height="164" fill="#fff"/></mask><mask id="satori_om-id-1-1-0-7"><rect x="40" y="319" width="0" height="164" fill="#fff"/></mask><mask id="satori_om-id-1-1-0-8"><rect x="40" y="319" width="0" height="164" fill="#fff"/></mask><mask id="satori_om-id-1-1-0-9"><rect x="40" y="319" width="0" height="164" fill="#fff"/></mask><mask id="satori_om-id-1-1-0-10"><rect x="40" y="319" width="0" height="164" fill="#fff"/></mask><mask id="satori_om-id-1-1-0-11"><rect x="40" y="319" width="0" height="164" fill="#fff"/></mask><mask id="satori_om-id-1-1-0-12"><rect x="40" y="319" width="0" height="164" fill="#fff"/></mask><mask id="satori_om-id-1-1-0-13"><rect x="40" y="319" width="0" height="164" fill="#fff"/></mask><mask id="satori_om-id-1-1-0-14"><rect x="40" y="319" width="0" height="164" fill="#fff"/></mask><mask id="satori_om-id-1-1-0-15"><rect x="40" y="319" width="0" height="164" fill="#fff"/></mask><mask id="satori_om-id-1-1-0-16"><rect x="40" y="319" width="0" height="164" fill="#fff"/></mask><mask id="satori_om-id-1-1-0-17"><rect x="40" y="319" width="0" height="164" fill="#fff"/></mask><mask id="satori_om-id-1-1-0-18"><rect x="40" y="319" width="0" height="164" fill="#fff"/></mask><mask id="satori_om-id-1-1-0-19"><rect x="40" y="319" width="0" height="164" fill="#fff"/></mask><mask id="satori_om-id-1-1-0-20"><rect x="40" y="319" width="0" height="164" fill="#fff"/></mask><mask id="satori_om-id-1-1-0-21"><rect x="40" y="319" width="0" height="164" fill="#fff"/></mask><mask id="satori_om-id-1-1-0-22"><rect x="40" y="319" width="0" height="164" fill="#fff"/></mask><mask id="satori_om-id-1-1-0-23"><rect x="40" y="319" width="0" height="164" fill="#fff"/></mask><mask id="satori_om-id-1-1-0-24"><rect x="40" y="319" width="0" height="164" fill="#fff"/></mask><mask id="satori_om-id-1-1-0-25"><rect x="40" y="319" width="0" height="164" fill="#fff"/></mask><mask id="satori_om-id-1-1-0-26"><rect x="40" y="319" width="0" height="164" fill="#fff"/></mask><mask id="satori_om-id-1-1-0-27"><rect x="40" y="319" width="0" height="164" fill="#fff"/></mask><mask id="satori_om-id-1-1-0-28"><rect x="40" y="319" width="0" height="164" fill="#fff"/></mask><mask id="satori_om-id-1-1-0-29"><rect x="40" y="319" width="0" height="164" fill="#fff"/></mask><mask id="satori_om-id-1-1-0-30"><rect x="40" y="319" width="0" height="164" fill="#fff"/></mask><mask id="satori_om-id-1-1-0-31"><rect x="40" y="319" width="0" height="164" fill="#fff"/></mask><mask id="satori_om-id-1-2"><rect x="40" y="487" width="880" height="22" fill="#fff"/></mask><mask id="satori_om-id-1-2-0"><rect x="143" y="487" width="50" height="29" fill="#fff"/></mask><path fill="#333" d="M169.3 498.5Q170.6 498.5 171.7 499.2Q172.7 499.8 173.3 501.0Q173.9 502.2 173.9 503.9L173.9 503.9Q173.9 505.6 173.2 506.9Q172.5 508.3 171.2 509.1Q169.8 509.8 168.1 509.8L168.1 509.8Q164.9 509.8 163.4 507.8Q161.9 505.7 161.9 502.0L161.9 502.0Q161.9 499.3 162.8 497.2Q163.6 495.2 165.2 494.0Q166.8 492.9 169.0 492.9L169.0 492.9Q171.1 492.9 172.7 494.0L172.7 494.0L171.3 496.2Q170.2 495.6 169.1 495.6L169.1 495.6Q167.7 495.6 166.9 496.7Q166.0 497.9 165.8 500.0L165.8 500.0Q167.3 498.5 169.3 498.5L169.3 498.5ZM168.1 507.1Q169.1 507.1 169.6 506.3Q170.1 505.4 170.1 503.9L170.1 503.9Q170.1 502.4 169.7 501.8Q169.2 501.1 168.2 501.1L168.2 501.1Q166.9 501.1 165.8 502.4L165.8 502.4Q165.9 505.0 166.4 506.1Q166.9 507.1 168.1 507.1L168.1 507.1Z "/><mask id="satori_om-id-1-2-1"><rect x="363" y="487" width="50" height="29" fill="#fff"/></mask><path fill="#333" d="M381.8 493.2L385.2 493.2L385.2 509.4L381.4 509.4L381.4 496.9L378.0 499.0L376.3 496.5L381.8 493.2ZM392.8 492.9Q394.6 492.9 395.9 493.5Q397.1 494.1 397.8 495.2Q398.4 496.2 398.4 497.5L398.4 497.5Q398.4 498.8 397.9 500.0Q397.4 501.2 396.0 502.7Q394.7 504.2 392.1 506.5L392.1 506.5L398.8 506.5L398.4 509.4L387.8 509.4L387.8 506.8Q390.8 503.8 392.1 502.4Q393.5 500.9 394.0 499.9Q394.6 498.9 394.6 497.9L394.6 497.9Q394.6 496.9 394.0 496.3Q393.4 495.8 392.5 495.8L392.5 495.8Q391.6 495.8 390.9 496.2Q390.3 496.6 389.5 497.5L389.5 497.5L387.3 495.7Q388.3 494.4 389.7 493.6Q391.1 492.9 392.8 492.9L392.8 492.9Z "/><mask id="satori_om-id-1-2-2"><rect x="583" y="487" width="50" height="29" fill="#fff"/></mask><path fill="#333" d="M609.3 498.5Q610.6 498.5 611.7 499.2Q612.7 499.8 613.3 501.0Q613.9 502.2 613.9 503.9L613.9 503.9Q613.9 505.6 613.2 506.9Q612.5 508.3 611.2 509.1Q609.8 509.8 608.1 509.8L608.1 509.8Q604.9 509.8 603.4 507.8Q601.9 505.7 601.9 502.0L601.9 502.0Q601.9 499.3 602.8 497.2Q603.6 495.2 605.2 494.0Q606.8 492.9 609.0 492.9L609.0 492.9Q611.1 492.9 612.7 494.0L612.7 494.0L611.3 496.2Q610.2 495.6 609.1 495.6L609.1 495.6Q607.7 495.6 606.9 496.7Q606.0 497.9 605.8 500.0L605.8 500.0Q607.3 498.5 609.3 498.5L609.3 498.5ZM608.1 507.1Q609.1 507.1 609.6 506.3Q610.1 505.4 610.1 503.9L610.1 503.9Q610.1 502.4 609.7 501.8Q609.2 501.1 608.2 501.1L608.2 501.1Q606.9 501.1 605.8 502.4L605.8 502.4Q605.9 505.0 606.4 506.1Q606.9 507.1 608.1 507.1L608.1 507.1Z "/><mask id="satori_om-id-1-2-3"><rect x="803" y="487" width="50" height="29" fill="#fff"/></mask><path fill="#333" d="M821.8 493.2L825.2 493.2L825.2 509.4L821.4 509.4L821.4 496.9L818.0 499.0L816.3 496.5L821.8 493.2ZM832.8 492.9Q834.6 492.9 835.9 493.5Q837.1 494.1 837.8 495.2Q838.4 496.2 838.4 497.5L838.4 497.5Q838.4 498.8 837.9 500.0Q837.4 501.2 836.0 502.7Q834.7 504.2 832.1 506.5L832.1 506.5L838.8 506.5L838.4 509.4L827.8 509.4L827.8 506.8Q830.8 503.8 832.1 502.4Q833.5 500.9 834.0 499.9Q834.6 498.9 834.6 497.9L834.6 497.9Q834.6 496.9 834.0 496.3Q833.4 495.8 832.5 495.8L832.5 495.8Q831.6 495.8 830.9 496.2Q830.3 496.6 829.5 497.5L829.5 497.5L827.3 495.7Q828.3 494.4 829.7 493.6Q831.1 492.9 832.8 492.9L832.8 492.9Z "/><mask id="satori_om-id-2"><rect x="0" y="509" width="960" height="18" fill="#fff"/></mask><mask id="satori_om-id-2-0"><rect x="40" y="515" width="880" height="0" fill="#fff"/></mask></svg>