<svg width="960" height="540" viewBox="0 0 960 540" xmlns="http://www.w3.org/2000/svg"><mask id="satori_om-id"><rect x="0" y="0" width="960" height="540" fill="#fff"/></mask><rect x="0" y="0" width="960" height="540" fill="#fff"/><mask id="satori_om-id-0"><rect x="0" y="0" width="960" height="232" fill="#fff"/></mask><mask id="satori_om-id-0-0"><rect x="40" y="32" width="180" height="180" fill="#fff"/></mask><mask id="satori_om-id-0-0-0"><rect x="45" y="61" width="171" height="122" fill="#fff"/></mask><path fill="#000" d="M45 136.0L45 136.0Q45 144.6 49.2 151.9Q53.4 159.1 60.6 163.3Q67.8 167.5 76.3 167.5L76.3 167.5L145.1 167.5Q153.7 167.5 160.9 163.3Q168.2 159.1 172.4 151.9Q176.7 144.6 176.7 136.0L176.7 136.0Q176.7 129.7 174.0 123.3L174.0 123.3Q181.2 114.5 181.2 102.3L181.2 102.3Q181.2 95.5 178.6 89.4Q176.0 83.2 171.5 78.7Q167.1 74.3 160.9 71.6Q154.7 69.0 147.9 69.0L147.9 69.0Q133.8 69.0 123.3 80.1L123.3 80.1Q115.9 75.9 106.1 75.9L106.1 75.9Q92.7 75.9 82.4 84.2Q72.1 92.5 69.2 105.5L69.2 105.5Q58.5 108.0 51.8 116.5Q45 125.0 45 136.0ZM55.8 136.0L55.8 136.0Q55.8 128.0 61.2 122.3Q66.5 116.5 74.5 115.5L74.5 115.5L77.7 115.4Q78.9 115.4 78.9 114.2L78.9 114.2L79.3 110.8Q80.6 100.5 88.2 93.5Q95.9 86.6 106.1 86.6L106.1 86.6Q116.6 86.6 124.4 93.6Q132.2 100.5 133.1 110.8L133.1 110.8L133.6 114.5Q133.8 115.5 134.9 115.5L134.9 115.5L145.1 115.5Q153.5 115.5 159.6 121.6Q165.7 127.7 165.7 136.0L165.7 136.0Q165.7 144.7 159.6 150.8Q153.6 156.9 145.1 156.9L145.1 156.9L76.3 156.9Q68.0 156.9 61.9 150.7Q55.8 144.5 55.8 136.0ZM98.4 58.1L98.4 58.1Q98.4 60.4 100.0 62.0L100.0 62.0L104.2 66.1Q106.5 67.9 108.2 67.7L108.2 67.7Q110.2 67.7 111.7 66.1Q113.3 64.4 113.3 62.1Q113.3 59.8 111.6 58.3L111.6 58.3L107.8 54.2Q106.1 52.6 104.0 52.6L104.0 52.6Q101.7 52.6 100.0 54.2Q98.4 55.8 98.4 58.1ZM132.4 86.2L132.4 86.2Q139.0 79.8 147.9 79.8L147.9 79.8Q157.3 79.8 163.9 86.3Q170.5 92.9 170.5 102.3L170.5 102.3Q170.5 108.3 167.3 114.0L167.3 114.0Q158.1 104.9 145.1 104.9L145.1 104.9L143.1 104.9Q140.7 94.5 132.4 86.2ZM142.7 39.6L142.7 52.6Q142.7 55.1 144.2 56.6Q145.7 58.1 147.9 58.1L147.9 58.1Q150.4 58.1 151.9 56.6Q153.4 55.1 153.4 52.6L153.4 52.6L153.4 39.6Q153.4 37.4 151.8 35.9Q150.3 34.4 147.9 34.4L147.9 34.4Q145.7 34.4 144.2 35.9Q142.7 37.4 142.7 39.6L142.7 39.6ZM177.8 67.2L177.8 67.2Q177.8 69.7 179.2 71.2L179.2 71.2Q181.2 72.7 183.1 72.7L183.1 72.7Q184.9 72.7 186.9 71.2L186.9 71.2L196.0 62.0Q197.6 60.3 197.6 58.0L197.6 58.0Q197.6 55.7 196.0 54.2Q194.5 52.6 192.3 52.6L192.3 52.6Q190.0 52.6 188.6 54.2L188.6 54.2L179.2 63.3Q177.8 65.0 177.8 67.2ZM184.4 138.6Q182.8 140.1 182.8 142.4Q182.8 144.7 184.5 146.4L184.5 146.4L188.6 150.4Q190.0 151.9 192.3 151.9Q194.5 151.9 196.0 150.4Q197.6 148.8 197.6 146.4L197.6 146.4Q197.6 144.2 196.0 142.7L196.0 142.7L191.9 138.6Q190.4 137.0 188.3 137.0L188.3 137.0Q186.0 137.0 184.4 138.6ZM193.8 98.5Q192.1 100.1 192.1 102.3Q192.1 104.5 193.8 106.0L193.8 106.0Q195.4 107.6 197.7 107.6L197.7 107.6L210.7 107.6Q212.9 107.6 214.3 106.1Q215.8 104.6 215.8 102.3Q215.8 100.0 214.3 98.5Q212.9 96.9 210.7 96.9L210.7 96.9L197.7 96.9Q195.4 96.9 193.8 98.5Z "/><mask id="satori_om-id-0-1"><rect x="248" y="32" width="672" height="162" fill="#fff"/></mask><mask id="satori_om-id-0-1-0"><rect x="248" y="32" width="272" height="162" fill="#fff"/></mask><path fill="#000" d="M250.3 51.6L329 51.6L329 70.9L284.4 176.2L258.6 167.5L299.5 73.0L250.3 73.0L250.3 51.6ZM375.1 49.1Q388.2 49.1 397.7 53.8Q407.1 58.5 412.1 66.4Q417.0 74.3 417.0 83.8L417.0 83.8Q417.0 93.6 413.1 102.4Q409.1 111.2 399.0 122.6Q388.9 134.1 369.7 151.5L369.7 151.5L419.5 151.5L416.7 173.3L337.5 173.3L337.5 153.1Q359.6 131.4 369.7 120.3Q379.8 109.2 383.8 101.8Q387.9 94.5 387.9 86.7L387.9 86.7Q387.9 79.3 383.6 75.1Q379.4 70.9 372.2 70.9L372.2 70.9Q365.7 70.9 360.7 73.9Q355.6 76.8 350.1 83.5L350.1 83.5L333.3 70.2Q340.9 60.3 351.4 54.7Q361.9 49.1 375.1 49.1L375.1 49.1ZM464.5 106.9Q456.4 106.9 449.1 103.1Q441.7 99.3 437 92.2Q432.3 85.1 432.3 75.9L432.3 75.9Q432.3 66.7 436.9 59.8Q441.5 52.9 449.0 49.2Q456.4 45.5 464.5 45.5L464.5 45.5Q472.6 45.5 480.0 49.2Q487.4 52.9 492.0 59.8Q496.6 66.7 496.6 75.9L496.6 75.9Q496.6 85.3 492.0 92.3Q487.4 99.3 480.0 103.1Q472.6 106.9 464.5 106.9L464.5 106.9ZM464.5 90.1Q470.1 90.1 473.5 86.3Q477.0 82.4 477.0 75.9L477.0 75.9Q477.0 69.4 473.6 65.7Q470.3 61.9 464.5 61.9L464.5 61.9Q458.8 61.9 455.4 65.7Q451.9 69.4 451.9 75.9L451.9 75.9Q451.9 82.4 455.4 86.3Q458.8 90.1 464.5 90.1L464.5 90.1Z "/><mask id="satori_om-id-0-1-1"><rect x="540" y="65" width="99" height="96" fill="#fff"/></mask><mask id="satori_om-id-0-1-1-0"><rect x="540" y="65" width="99" height="48" fill="#fff"/></mask><path fill="#333" d="M564.0 102.4L557.5 102.4L557.5 90.5L549.2 90.5L549.2 102.4L542.6 102.4L542.6 74.7L549.2 74.7L549.2 85.4L557.5 85.4L557.5 74.7L564.0 74.7L564.0 102.4Z M576.6 75.4L594.1 75.4L594.1 79.6L584.2 103.0L578.5 101.1L587.6 80.1L576.6 80.1L576.6 75.4ZM611.5 87.9Q614.2 89.2 615.6 91.0Q616.9 92.8 616.9 95.1L616.9 95.1Q616.9 97.3 615.6 99.1Q614.4 100.9 612.0 102Q609.6 103.1 606.3 103.1L606.3 103.1Q603.2 103.1 600.8 102.0Q598.5 101.0 597.2 99.2Q596 97.4 596 95.2L596 95.2Q596 90.7 601.0 88.5L601.0 88.5Q597.1 86.2 597.1 82.1L597.1 82.1Q597.1 79.9 598.3 78.3Q599.5 76.6 601.6 75.7Q603.8 74.8 606.5 74.8L606.5 74.8Q610.6 74.8 613.2 76.7Q615.8 78.5 615.8 81.8L615.8 81.8Q615.8 83.6 614.8 85.1Q613.7 86.7 611.5 87.9L611.5 87.9ZM606.5 79.1Q605 79.1 604.1 79.9Q603.2 80.7 603.2 82.2L603.2 82.2Q603.2 83.5 604.0 84.4Q604.8 85.2 606.5 86.0L606.5 86.0L607.3 86.3Q608.7 85.4 609.2 84.4Q609.7 83.4 609.7 82.1L609.7 82.1Q609.7 80.7 608.9 79.9Q608.1 79.1 606.5 79.1L606.5 79.1ZM606.5 98.6Q608.4 98.6 609.5 97.6Q610.6 96.6 610.6 95.0L610.6 95.0Q610.6 93.4 609.6 92.5Q608.7 91.5 606.4 90.7L606.4 90.7L605.1 90.2Q602.4 91.7 602.4 94.9L602.4 94.9Q602.4 96.6 603.5 97.6Q604.6 98.6 606.5 98.6L606.5 98.6ZM626.8 87.6Q625 87.6 623.4 86.8Q621.7 86.0 620.7 84.4Q619.6 82.8 619.6 80.8L619.6 80.8Q619.6 78.7 620.7 77.2Q621.7 75.6 623.3 74.8Q625 74 626.8 74L626.8 74Q628.6 74 630.2 74.8Q631.9 75.6 632.9 77.2Q633.9 78.7 633.9 80.8L633.9 80.8Q633.9 82.8 632.9 84.4Q631.9 86.0 630.2 86.8Q628.6 87.6 626.8 87.6L626.8 87.6ZM626.8 83.9Q628.0 83.9 628.8 83.1Q629.6 82.2 629.6 80.8L629.6 80.8Q629.6 79.3 628.8 78.5Q628.1 77.6 626.8 77.6L626.8 77.6Q625.5 77.6 624.8 78.5Q624 79.3 624 80.8L624 80.8Q624 82.2 624.8 83.1Q625.5 83.9 626.8 83.9L626.8 83.9Z "/><mask id="satori_om-id-0-1-1-1"><rect x="540" y="113" width="99" height="48" fill="#fff"/></mask><path fill="#333" d="M542.6 122.7L549.2 122.7L549.2 145.2L560.0 145.2L559.3 150.4L542.6 150.4L542.6 122.7Z M583.8 132.2Q586.0 132.2 587.8 133.3Q589.6 134.3 590.6 136.3Q591.6 138.4 591.6 141.2L591.6 141.2Q591.6 143.9 590.4 146.2Q589.2 148.4 586.9 149.8Q584.7 151.1 581.8 151.1L581.8 151.1Q576.6 151.1 574.0 147.6Q571.5 144.1 571.5 138.0L571.5 138.0Q571.5 133.5 572.9 130.0Q574.4 126.6 577.0 124.7Q579.7 122.8 583.3 122.8L583.3 122.8Q586.8 122.8 589.4 124.6L589.4 124.6L587.1 128.4Q585.3 127.3 583.4 127.3L583.4 127.3Q581.2 127.3 579.8 129.2Q578.4 131.2 578.1 134.7L578.1 134.7Q580.5 132.2 583.8 132.2L583.8 132.2ZM581.8 146.6Q583.5 146.6 584.4 145.1Q585.2 143.7 585.2 141.2L585.2 141.2Q585.2 138.7 584.4 137.6Q583.6 136.6 582.0 136.6L582.0 136.6Q579.9 136.6 578.1 138.7L578.1 138.7Q578.2 143.0 579 144.8Q579.8 146.6 581.8 146.6L581.8 146.6ZM602.2 123.4L607.8 123.4L607.8 150.4L601.6 150.4L601.6 129.5L595.8 133.1L593.1 128.9L602.2 123.4ZM619.8 135.6Q618.0 135.6 616.4 134.8Q614.8 134.0 613.7 132.4Q612.7 130.8 612.7 128.8L612.7 128.8Q612.7 126.7 613.7 125.2Q614.7 123.6 616.4 122.8Q618.0 122 619.8 122L619.8 122Q621.6 122 623.3 122.8Q624.9 123.6 625.9 125.2Q627.0 126.7 627.0 128.8L627.0 128.8Q627.0 130.8 625.9 132.4Q624.9 134.0 623.3 134.8Q621.6 135.6 619.8 135.6L619.8 135.6ZM619.8 131.9Q621.1 131.9 621.8 131.1Q622.6 130.2 622.6 128.8L622.6 128.8Q622.6 127.3 621.9 126.5Q621.1 125.6 619.8 125.6L619.8 125.6Q618.6 125.6 617.8 126.5Q617.0 127.3 617.0 128.8L617.0 128.8Q617.0 130.2 617.8 131.1Q618.6 131.9 619.8 131.9L619.8 131.9Z "/><mask id="satori_om-id-0-1-2"><rect x="734" y="56" width="186" height="108" fill="#fff"/></mask><mask id="satori_om-id-0-1-2-0"><rect x="734" y="78" width="64" height="64" fill="#fff"/></mask><clipPath id="satori_cp-id-0-1-2-0-0"><rect x="734" y="78" width="64" height="64"/></clipPath><mask id="satori_om-id-0-1-2-0-0"><rect x="734" y="78" width="64" height="64" fill="#fff"/></mask><image x="734" y="78" width="64" height="64" href="data:image/svg+xml;utf8,%3Csvg  xmlns=%22http://www.w3.org/2000/svg%22 width=%22Infinity%22 height=%22NaN%22%3E%3Ccircle cx=%2232%22 cy=%2232%22 r=%2219.2%22 stroke=%22%23000%22 stroke-width=%223%22 fill=%22%23fff%22%3E%3C/circle%3E%3Cline x1=%2255.04%22 y1=%2232%22 x2=%2262.72%22 y2=%2232%22 stroke=%22%23000%22 stroke-width=%223%22 stroke-linecap=%22round%22%3E%3C/line%3E%3Cline x1=%2248.291740238538054%22 y1=%2248.291740238538054%22 x2=%2253.72232031805074%22 y2=%2253.722320318050734%22 stroke=%22%23000%22 stroke-width=%223%22 stroke-linecap=%22round%22%3E%3C/line%3E%3Cline x1=%2232%22 y1=%2255.04%22 x2=%2232%22 y2=%2262.72%22 stroke=%22%23000%22 stroke-width=%223%22 stroke-linecap=%22round%22%3E%3C/line%3E%3Cline x1=%2215.708259761461946%22 y1=%2248.291740238538054%22 x2=%2210.277679681949262%22 y2=%2253.72232031805074%22 stroke=%22%23000%22 stroke-width=%223%22 stroke-linecap=%22round%22%3E%3C/line%3E%3Cline x1=%228.96%22 y1=%2232%22 x2=%221.2800000000000011%22 y2=%2232.00000000000001%22 stroke=%22%23000%22 stroke-width=%223%22 stroke-linecap=%22round%22%3E%3C/line%3E%3Cline x1=%2215.708259761461942%22 y1=%2215.708259761461946%22 x2=%2210.277679681949255%22 y2=%2210.277679681949262%22 stroke=%22%23000%22 stroke-width=%223%22 stroke-linecap=%22round%22%3E%3C/line%3E%3Cline x1=%2231.999999999999996%22 y1=%228.96%22 x2=%2231.999999999999993%22 y2=%221.2800000000000011%22 stroke=%22%23000%22 stroke-width=%223%22 stroke-linecap=%22round%22%3E%3C/line%3E%3Cline x1=%2248.291740238538054%22 y1=%2215.708259761461942%22 x2=%2253.722320318050734%22 y2=%2210.277679681949255%22 stroke=%22%23000%22 stroke-width=%223%22 stroke-linecap=%22round%22%3E%3C/line%3E%3C/svg%3E" preserveAspectRatio="none" clip-path="url(#satori_cp-id-0-1-2-0-0)" mask="url(#satori_om-id-0-1-2-0-0)"/><mask id="satori_om-id-0-1-2-0-0-0"><rect x="734" y="78" width="0" height="64" fill="#fff"/></mask><mask id="satori_om-id-0-1-2-0-0-1"><rect x="734" y="78" width="0" height="64" fill="#fff"/></mask><mask id="satori_om-id-0-1-2-0-0-2"><rect x="734" y="78" width="0" height="64" fill="#fff"/></mask><mask id="satori_om-id-0-1-2-0-0-3"><rect x="734" y="78" width="0" height="64" fill="#fff"/></mask><mask id="satori_om-id-0-1-2-0-0-4"><rect x="734" y="78" width="0" height="64" fill="#fff"/></mask><mask id="satori_om-id-0-1-2-0-0-5"><rect x="734" y="78" width="0" height="64" fill="#fff"/></mask><mask id="satori_om-id-0-1-2-0-0-6"><rect x="734" y="78" width="0" height="64" fill="#fff"/></mask><mask id="satori_om-id-0-1-2-0-0-7"><rect x="734" y="78" width="0" height="64" fill="#fff"/></mask><mask id="satori_om-id-0-1-2-0-0-8"><rect x="734" y="78" width="0" height="64" fill="#fff"/></mask><mask id="satori_om-id-0-1-2-0-1"><rect x="754" y="101" width="24" height="19" fill="#fff"/></mask><path fill="#000" d="M765.3 103.7L765.3 112.5Q765.3 113.8 764.7 114.9Q764.2 116.0 763.0 116.6Q761.8 117.2 760.2 117.2L760.2 117.2Q757.7 117.2 756.4 115.9Q755.0 114.6 755.0 112.5L755.0 112.5L755.0 103.7L758.2 103.7L758.2 112.4Q758.2 113.6 758.6 114.3Q759.1 114.9 760.2 114.9L760.2 114.9Q761.2 114.9 761.7 114.3Q762.2 113.6 762.2 112.4L762.2 112.4L762.2 103.7L765.3 103.7ZM774.3 103.7L777.5 103.7L773.8 116.9L769.9 116.9L766.1 103.7L769.4 103.7L771.9 114.4L774.3 103.7Z "/><mask id="satori_om-id-0-1-2-1"><rect x="810" y="56" width="68" height="108" fill="#fff"/></mask><path fill="#000" d="M851.4 95.6Q858.1 95.6 863.4 98.8Q868.7 102.0 871.7 108.0Q874.7 114.1 874.7 122.5L874.7 122.5Q874.7 130.8 871.1 137.5Q867.5 144.3 860.8 148.3Q854.2 152.2 845.3 152.2L845.3 152.2Q829.7 152.2 822.1 141.8Q814.6 131.4 814.6 113.1L814.6 113.1Q814.6 99.4 818.8 89.1Q823.1 78.8 831.1 73.1Q839.0 67.4 849.8 67.4L849.8 67.4Q860.3 67.4 868.3 72.8L868.3 72.8L861.4 84.1Q856.0 81.0 850.3 81.0L850.3 81.0Q843.5 81.0 839.3 86.7Q835.1 92.5 834.2 103.0L834.2 103.0Q841.6 95.6 851.4 95.6L851.4 95.6ZM845.5 138.7Q850.6 138.7 853.1 134.4Q855.7 130.2 855.7 122.7L855.7 122.7Q855.7 115.2 853.3 111.9Q850.9 108.7 846.1 108.7L846.1 108.7Q839.6 108.7 834.2 115.0L834.2 115.0Q834.5 127.9 837 133.3Q839.5 138.7 845.5 138.7L845.5 138.7Z "/><mask id="satori_om-id-0-1-2-2"><rect x="888" y="85" width="32" height="50" fill="#fff"/></mask><path fill="#333" d="M903.5 90.3Q910.3 90.3 914.0 94.3Q917.6 98.3 917.6 105.0L917.6 105.0Q917.6 112.7 915.1 117.7Q912.6 122.7 907.5 125.8Q902.3 128.8 894.0 130.5L894.0 130.5L892.3 124.4Q899.6 122.6 903.3 119.9Q907.0 117.1 908.1 112.2L908.1 112.2Q905.1 115.9 900.3 115.9L900.3 115.9Q897.3 115.9 894.8 114.3Q892.4 112.8 890.9 110.0Q889.5 107.1 889.5 103.4L889.5 103.4Q889.5 99.5 891.3 96.5Q893.2 93.6 896.4 91.9Q899.6 90.3 903.5 90.3L903.5 90.3ZM903.0 109.6Q904.6 109.6 906.1 108.8Q907.5 107.9 908.6 106.3L908.6 106.3Q908.7 101.0 907.5 98.8Q906.3 96.6 903.5 96.6L903.5 96.6Q901.1 96.6 899.7 98.3Q898.4 100.0 898.4 103.1L898.4 103.1Q898.4 106.6 899.6 108.1Q900.9 109.6 903.0 109.6L903.0 109.6Z "/><mask id="satori_om-id-1"><rect x="0" y="232" width="960" height="253" fill="#fff"/></mask><mask id="satori_om-id-1-0"><rect x="40" y="242" width="880" height="41" fill="#fff"/></mask><mask id="satori_om-id-1-0-0"><rect x="40" y="254" width="213" height="29" fill="#fff"/></mask><path fill="#333" d="M45.7 259.9Q47.5 259.9 48.7 260.5Q50.0 261.1 50.6 262.2Q51.3 263.2 51.3 264.5L51.3 264.5Q51.3 265.8 50.8 267.0Q50.2 268.2 48.9 269.7Q47.6 271.2 45.0 273.5L45.0 273.5L51.6 273.5L51.3 276.4L40.7 276.4L40.7 273.8Q43.6 270.8 45.0 269.4Q46.3 267.9 46.9 266.9Q47.4 265.9 47.4 264.9L47.4 264.9Q47.4 263.9 46.9 263.3Q46.3 262.8 45.3 262.8L45.3 262.8Q44.5 262.8 43.8 263.2Q43.1 263.6 42.4 264.5L42.4 264.5L40.1 262.7Q41.2 261.4 42.6 260.6Q44.0 259.9 45.7 259.9L45.7 259.9ZM65.1 270.1L67.0 270.1L67.0 272.9L65.1 272.9L65.1 276.4L61.4 276.4L61.4 272.9L54.6 272.9L54.6 270.4L59.2 259.8L62.4 261.0L58.5 270.1L61.5 270.1L61.9 266.3L65.1 266.3L65.1 270.1ZM83.4 276.4L79.5 276.4L79.5 269.3L74.5 269.3L74.5 276.4L70.5 276.4L70.5 259.8L74.5 259.8L74.5 266.2L79.5 266.2L79.5 259.8L83.4 259.8L83.4 276.4Z M104.1 276.4L100.7 270.1L99.1 270.1L99.1 276.4L95.2 276.4L95.2 259.8L100.6 259.8Q104.1 259.8 105.8 261.1Q107.5 262.3 107.5 264.9L107.5 264.9Q107.5 266.5 106.7 267.5Q106.0 268.6 104.3 269.4L104.3 269.4L108.5 276.4L104.1 276.4ZM99.1 262.6L99.1 267.4L100.8 267.4Q102.1 267.4 102.8 266.8Q103.4 266.2 103.4 264.9L103.4 264.9Q103.4 263.7 102.7 263.1Q102.0 262.6 100.6 262.6L100.6 262.6L99.1 262.6ZM124.4 276.4L120.3 276.4L119.4 272.9L114.6 272.9L113.7 276.4L109.6 276.4L114.7 259.8L119.4 259.8L124.4 276.4ZM117.0 262.7L115.2 270.0L118.7 270.0L117.0 262.7ZM127.2 259.8L131.1 259.8L131.1 276.4L127.2 276.4L127.2 259.8ZM148.5 259.8L148.5 276.4L143.5 276.4L138.7 263.6Q138.9 265.4 139.1 266.9Q139.2 268.4 139.2 270.3L139.2 270.3L139.2 276.4L135.7 276.4L135.7 259.8L140.6 259.8L145.5 272.7Q145.0 269.4 145.0 266.5L145.0 266.5L145.0 259.8L148.5 259.8Z M163.5 263.3L166.7 263.3L166.7 267.0L170.3 267.0L170.3 269.9L166.7 269.9L166.7 273.7L163.5 273.7L163.5 269.9L159.9 269.9L159.9 267.0L163.5 267.0L163.5 263.3Z M187.1 259.4Q189.0 259.4 190.3 259.9Q191.7 260.5 192.8 261.5L192.8 261.5L191.0 263.7Q189.3 262.3 187.4 262.3L187.4 262.3Q186.3 262.3 185.7 262.7Q185.1 263.1 185.1 263.9L185.1 263.9Q185.1 264.5 185.4 264.8Q185.7 265.2 186.3 265.5Q187.0 265.8 188.4 266.2L188.4 266.2Q190.9 267.0 192.1 268.2Q193.3 269.4 193.3 271.6L193.3 271.6Q193.3 273.2 192.5 274.3Q191.7 275.5 190.2 276.2Q188.7 276.8 186.7 276.8L186.7 276.8Q184.7 276.8 183.1 276.2Q181.5 275.6 180.4 274.5L180.4 274.5L182.4 272.3Q183.3 273.1 184.4 273.5Q185.4 273.9 186.6 273.9L186.6 273.9Q187.8 273.9 188.5 273.4Q189.2 272.8 189.2 271.9L189.2 271.9Q189.2 271.3 189.0 270.8Q188.7 270.4 188.0 270.1Q187.4 269.7 186.2 269.4L186.2 269.4Q183.4 268.5 182.2 267.3Q181.1 266.1 181.1 264.2L181.1 264.2Q181.1 262.8 181.9 261.7Q182.6 260.6 184.0 260.0Q185.4 259.4 187.1 259.4L187.1 259.4ZM209.8 259.8L209.8 276.4L204.8 276.4L200.0 263.6Q200.2 265.4 200.3 266.9Q200.5 268.4 200.5 270.3L200.5 270.3L200.5 276.4L197.0 276.4L197.0 259.8L201.9 259.8L206.8 272.7Q206.2 269.4 206.2 266.5L206.2 266.5L206.2 259.8L209.8 259.8ZM221.1 259.4Q224.6 259.4 226.6 261.7Q228.6 264.0 228.6 268.1L228.6 268.1Q228.6 270.8 227.7 272.8Q226.8 274.8 225.1 275.8Q223.4 276.8 221.1 276.8L221.1 276.8Q218.8 276.8 217.1 275.8Q215.4 274.8 214.5 272.8Q213.6 270.9 213.6 268.1L213.6 268.1Q213.6 265.4 214.5 263.5Q215.4 261.5 217.1 260.4Q218.8 259.4 221.1 259.4L221.1 259.4ZM221.1 262.3Q219.4 262.3 218.6 263.7Q217.7 265.0 217.7 268.1L217.7 268.1Q217.7 271.2 218.6 272.6Q219.4 274.0 221.1 274.0L221.1 274.0Q222.8 274.0 223.6 272.6Q224.5 271.2 224.5 268.1L224.5 268.1Q224.5 265.0 223.6 263.6Q222.8 262.3 221.1 262.3L221.1 262.3ZM247.2 259.8L251.0 259.8L248.2 276.4L243.1 276.4L241.0 263.7L238.8 276.4L233.8 276.4L231.1 259.8L235.0 259.8L236.7 273.5L239.0 259.8L243.1 259.8L245.3 273.5L247.2 259.8Z "/><mask id="satori_om-id-1-0-1"><rect x="383" y="242" width="537" height="41" fill="#fff"/></mask><path fill="#333" d="M397.8 273.8L393.0 264.8L390.8 264.8L390.8 273.8L385.2 273.8L385.2 250.2L392.9 250.2Q397.8 250.2 400.2 252.0Q402.6 253.8 402.6 257.4L402.6 257.4Q402.6 259.7 401.5 261.2Q400.4 262.7 398.1 263.8L398.1 263.8L404.1 273.8L397.8 273.8ZM390.8 254.1L390.8 260.9L393.1 260.9Q395.0 260.9 395.9 260.1Q396.9 259.2 396.9 257.4L396.9 257.4Q396.9 255.7 395.9 254.9Q394.9 254.1 392.8 254.1L392.8 254.1L390.8 254.1ZM420.4 268.6Q420.4 269.6 420.7 270.1Q421.0 270.5 421.7 270.8L421.7 270.8L420.5 274.3Q418.9 274.1 417.8 273.5Q416.8 272.9 416.2 271.6L416.2 271.6Q414.4 274.4 410.7 274.4L410.7 274.4Q408.1 274.4 406.5 272.8Q404.9 271.2 404.9 268.7L404.9 268.7Q404.9 265.8 407.0 264.2Q409.2 262.6 413.3 262.6L413.3 262.6L415.2 262.6L415.2 261.9Q415.2 260.3 414.5 259.7Q413.8 259.1 412.1 259.1L412.1 259.1Q411.2 259.1 410.0 259.3Q408.7 259.6 407.4 260.0L407.4 260.0L406.2 256.5Q407.9 255.8 409.6 255.5Q411.4 255.2 413.0 255.2L413.0 255.2Q416.8 255.2 418.6 256.8Q420.4 258.4 420.4 261.6L420.4 261.6L420.4 268.6ZM412.3 270.5Q414.1 270.5 415.2 268.8L415.2 268.8L415.2 265.6L413.8 265.6Q412.0 265.6 411.1 266.2Q410.2 266.9 410.2 268.2L410.2 268.2Q410.2 269.3 410.8 269.9Q411.3 270.5 412.3 270.5L412.3 270.5ZM424.7 255.7L430.1 255.7L430.1 273.8L424.7 273.8L424.7 255.7ZM427.4 246.2Q428.8 246.2 429.7 247.1Q430.6 248.0 430.6 249.3L430.6 249.3Q430.6 250.6 429.7 251.5Q428.8 252.3 427.4 252.3L427.4 252.3Q426.0 252.3 425.1 251.5Q424.2 250.6 424.2 249.3L424.2 249.3Q424.2 248.0 425.1 247.1Q426.0 246.2 427.4 246.2L427.4 246.2ZM444.9 255.2Q447.2 255.2 448.6 256.6Q449.9 258.0 449.9 260.6L449.9 260.6L449.9 273.8L444.5 273.8L444.5 261.5Q444.5 260.2 444.1 259.6Q443.7 259.1 442.8 259.1L442.8 259.1Q441.2 259.1 439.7 261.4L439.7 261.4L439.7 273.8L434.3 273.8L434.3 255.7L439.0 255.7L439.4 257.9Q440.5 256.5 441.9 255.8Q443.2 255.2 444.9 255.2L444.9 255.2Z M472.6 255.2Q474.9 255.2 476.2 256.6Q477.6 258.0 477.6 260.6L477.6 260.6L477.6 273.8L472.2 273.8L472.2 261.5Q472.2 260.2 471.8 259.6Q471.3 259.1 470.5 259.1L470.5 259.1Q468.9 259.1 467.4 261.4L467.4 261.4L467.4 273.8L462.0 273.8L462.0 255.7L466.7 255.7L467.0 257.9Q468.2 256.5 469.5 255.8Q470.9 255.2 472.6 255.2L472.6 255.2ZM489.4 255.2Q493.6 255.2 495.9 257.7Q498.3 260.2 498.3 264.8L498.3 264.8Q498.3 267.7 497.2 269.8Q496.1 272.0 494.1 273.2Q492.1 274.4 489.4 274.4L489.4 274.4Q485.3 274.4 482.9 271.8Q480.6 269.3 480.6 264.7L480.6 264.7Q480.6 261.9 481.7 259.7Q482.7 257.5 484.7 256.3Q486.7 255.2 489.4 255.2L489.4 255.2ZM489.4 259.1Q487.8 259.1 487.0 260.5Q486.2 261.9 486.2 264.7L486.2 264.7Q486.2 267.7 487.0 269.1Q487.8 270.4 489.4 270.4L489.4 270.4Q491.1 270.4 491.9 269.0Q492.7 267.7 492.7 264.8L492.7 264.8Q492.7 261.8 491.9 260.5Q491.1 259.1 489.4 259.1L489.4 259.1ZM519.5 255.7L524.6 255.7L520.9 273.8L514.5 273.8L512.1 260.5L509.7 273.8L503.3 273.8L499.5 255.7L504.9 255.7L506.8 269.8L509.6 255.7L514.9 255.7L517.3 269.8L519.5 255.7Z M537.0 260.3Q538.2 260.3 539.1 261.2Q540.0 262.1 540.0 263.3L540.0 263.3Q540.0 264.6 539.1 265.5Q538.2 266.4 537.0 266.4L537.0 266.4Q535.7 266.4 534.8 265.5Q533.9 264.6 533.9 263.3L533.9 263.3Q533.9 262.1 534.8 261.2Q535.7 260.3 537.0 260.3L537.0 260.3Z M559.1 250.3Q563.3 250.3 565.5 253.4Q567.7 256.5 567.7 262.3L567.7 262.3Q567.7 268.1 565.5 271.2Q563.3 274.4 559.1 274.4L559.1 274.4Q554.8 274.4 552.6 271.2Q550.4 268.1 550.4 262.3L550.4 262.3Q550.4 256.5 552.6 253.4Q554.8 250.3 559.1 250.3L559.1 250.3ZM559.1 254.3Q557.9 254.3 557.2 255.1Q556.5 255.8 556.2 257.5Q555.9 259.3 555.9 262.3L555.9 262.3Q555.9 265.4 556.2 267.1Q556.5 268.9 557.2 269.6Q557.9 270.4 559.1 270.4L559.1 270.4Q560.2 270.4 560.9 269.7Q561.6 268.9 561.9 267.2Q562.2 265.4 562.2 262.3L562.2 262.3Q562.2 259.2 561.9 257.5Q561.6 255.7 560.9 255.0Q560.2 254.3 559.1 254.3L559.1 254.3ZM573.1 268.2Q574.3 268.2 575.2 269.1Q576.1 270.0 576.1 271.3L576.1 271.3Q576.1 272.6 575.2 273.5Q574.3 274.4 573.1 274.4L573.1 274.4Q571.8 274.4 570.9 273.5Q570.0 272.6 570.0 271.3L570.0 271.3Q570.0 270.0 570.9 269.1Q571.8 268.2 573.1 268.2L573.1 268.2ZM591.3 261.4Q593.6 262.6 594.8 264.1Q595.9 265.6 595.9 267.6L595.9 267.6Q595.9 269.4 594.8 271.0Q593.7 272.5 591.7 273.5Q589.7 274.4 586.9 274.4L586.9 274.4Q584.2 274.4 582.2 273.5Q580.2 272.6 579.2 271.1Q578.1 269.5 578.1 267.7L578.1 267.7Q578.1 263.8 582.4 262.0L582.4 262.0Q579.0 260.0 579.0 256.5L579.0 256.5Q579.0 254.7 580.1 253.3Q581.1 251.9 582.9 251.1Q584.7 250.3 587.0 250.3L587.0 250.3Q590.5 250.3 592.8 251.9Q595.0 253.5 595.0 256.2L595.0 256.2Q595.0 257.8 594.1 259.1Q593.2 260.5 591.3 261.4L591.3 261.4ZM587.1 254.0Q585.8 254.0 585.0 254.6Q584.2 255.3 584.2 256.6L584.2 256.6Q584.2 257.7 584.9 258.5Q585.6 259.2 587.0 259.8L587.0 259.8L587.7 260.1Q588.9 259.3 589.3 258.5Q589.8 257.7 589.8 256.5L589.8 256.5Q589.8 255.4 589.1 254.7Q588.4 254.0 587.1 254.0L587.1 254.0ZM587.1 270.5Q588.7 270.5 589.6 269.7Q590.5 268.9 590.5 267.5L590.5 267.5Q590.5 266.1 589.7 265.3Q588.9 264.5 587.0 263.8L587.0 263.8L585.8 263.4Q583.5 264.7 583.5 267.4L583.5 267.4Q583.5 268.8 584.5 269.7Q585.4 270.5 587.1 270.5L587.1 270.5ZM602.7 259.7L599.2 259.7L598.5 250.2L603.4 250.2L602.7 259.7ZM609.5 259.7L606.0 259.7L605.4 250.2L610.2 250.2L609.5 259.7Z M624.0 260.3Q625.2 260.3 626.1 261.2Q627.0 262.1 627.0 263.3L627.0 263.3Q627.0 264.6 626.1 265.5Q625.2 266.4 624.0 266.4L624.0 266.4Q622.7 266.4 621.8 265.5Q620.9 264.6 620.9 263.3L620.9 263.3Q620.9 262.1 621.8 261.2Q622.7 260.3 624.0 260.3L624.0 260.3Z M645.9 249.7Q648.5 249.7 650.5 250.4Q652.5 251.1 654.0 252.7L654.0 252.7L651.5 255.7Q649.0 253.7 646.3 253.7L646.3 253.7Q644.8 253.7 644.0 254.3Q643.1 254.9 643.1 256.0L643.1 256.0Q643.1 256.8 643.5 257.3Q643.9 257.8 644.8 258.3Q645.8 258.7 647.7 259.3L647.7 259.3Q651.3 260.5 653.0 262.1Q654.7 263.8 654.7 266.9L654.7 266.9Q654.7 269.1 653.6 270.8Q652.5 272.5 650.3 273.4Q648.2 274.4 645.3 274.4L645.3 274.4Q642.5 274.4 640.2 273.5Q638 272.5 636.4 271.0L636.4 271.0L639.2 267.9Q640.6 269.1 642.0 269.6Q643.5 270.2 645.2 270.2L645.2 270.2Q646.9 270.2 647.9 269.5Q648.9 268.7 648.9 267.3L648.9 267.3Q648.9 266.4 648.5 265.9Q648.2 265.3 647.2 264.8Q646.3 264.3 644.6 263.8L644.6 263.8Q640.7 262.6 639.0 260.8Q637.4 259.1 637.4 256.5L637.4 256.5Q637.4 254.4 638.5 252.9Q639.6 251.3 641.5 250.5Q643.4 249.7 645.9 249.7L645.9 249.7ZM668.2 255.2Q670.6 255.2 671.9 256.6Q673.2 258.0 673.2 260.6L673.2 260.6L673.2 273.8L667.9 273.8L667.9 261.5Q667.9 260.2 667.4 259.6Q667.0 259.1 666.2 259.1L666.2 259.1Q664.5 259.1 663.0 261.4L663.0 261.4L663.0 273.8L657.7 273.8L657.7 255.7L662.3 255.7L662.7 257.9Q663.9 256.5 665.2 255.8Q666.6 255.2 668.2 255.2L668.2 255.2ZM685.1 255.2Q689.2 255.2 691.6 257.7Q693.9 260.2 693.9 264.8L693.9 264.8Q693.9 267.7 692.9 269.8Q691.8 272.0 689.8 273.2Q687.8 274.4 685.1 274.4L685.1 274.4Q681.0 274.4 678.6 271.8Q676.3 269.3 676.3 264.7L676.3 264.7Q676.3 261.9 677.3 259.7Q678.4 257.5 680.4 256.3Q682.4 255.2 685.1 255.2L685.1 255.2ZM685.1 259.1Q683.5 259.1 682.6 260.5Q681.8 261.9 681.8 264.7L681.8 264.7Q681.8 267.7 682.6 269.1Q683.4 270.4 685.1 270.4L685.1 270.4Q686.7 270.4 687.5 269.0Q688.4 267.7 688.4 264.8L688.4 264.8Q688.4 261.8 687.6 260.5Q686.8 259.1 685.1 259.1L685.1 259.1ZM715.2 255.7L720.3 255.7L716.6 273.8L710.1 273.8L707.7 260.5L705.4 273.8L699.0 273.8L695.2 255.7L700.6 255.7L702.5 269.8L705.3 255.7L710.5 255.7L713.0 269.8L715.2 255.7Z M745.0 268.6Q745.0 269.6 745.3 270.1Q745.6 270.5 746.2 270.8L746.2 270.8L745.1 274.3Q743.4 274.1 742.4 273.5Q741.3 272.9 740.7 271.6L740.7 271.6Q739.0 274.4 735.3 274.4L735.3 274.4Q732.6 274.4 731.0 272.8Q729.4 271.2 729.4 268.7L729.4 268.7Q729.4 265.8 731.6 264.2Q733.8 262.6 737.9 262.6L737.9 262.6L739.7 262.6L739.7 261.9Q739.7 260.3 739.0 259.7Q738.4 259.1 736.7 259.1L736.7 259.1Q735.8 259.1 734.5 259.3Q733.3 259.6 731.9 260.0L731.9 260.0L730.7 256.5Q732.4 255.8 734.2 255.5Q736.0 255.2 737.5 255.2L737.5 255.2Q741.4 255.2 743.2 256.8Q745.0 258.4 745.0 261.6L745.0 261.6L745.0 268.6ZM736.9 270.5Q738.7 270.5 739.7 268.8L739.7 268.8L739.7 265.6L738.4 265.6Q736.6 265.6 735.7 266.2Q734.8 266.9 734.8 268.2L734.8 268.2Q734.8 269.3 735.3 269.9Q735.9 270.5 736.9 270.5L736.9 270.5ZM758.8 269.5L760.6 272.9Q759.6 273.6 758.3 274.0Q757.0 274.4 755.7 274.4L755.7 274.4Q749.8 274.3 749.8 267.8L749.8 267.8L749.8 259.5L747.2 259.5L747.2 255.7L749.8 255.7L749.8 251.8L755.2 251.2L755.2 255.7L759.3 255.7L758.7 259.5L755.2 259.5L755.2 267.8Q755.2 269.0 755.6 269.6Q756.0 270.1 756.9 270.1L756.9 270.1Q757.8 270.1 758.8 269.5L758.8 269.5Z M784.3 264.8L786.9 264.8L786.9 268.8L784.3 268.8L784.3 273.8L779.0 273.8L779.0 268.8L769.3 268.8L769.3 265.3L775.8 250.2L780.4 251.9L774.9 264.8L779.1 264.8L779.6 259.4L784.3 259.4L784.3 264.8ZM804.0 268.6Q804.0 269.6 804.3 270.1Q804.6 270.5 805.2 270.8L805.2 270.8L804.1 274.3Q802.5 274.1 801.4 273.5Q800.4 272.9 799.8 271.6L799.8 271.6Q798.0 274.4 794.3 274.4L794.3 274.4Q791.6 274.4 790.0 272.8Q788.5 271.2 788.5 268.7L788.5 268.7Q788.5 265.8 790.6 264.2Q792.8 262.6 796.9 262.6L796.9 262.6L798.8 262.6L798.8 261.9Q798.8 260.3 798.1 259.7Q797.4 259.1 795.7 259.1L795.7 259.1Q794.8 259.1 793.6 259.3Q792.3 259.6 791.0 260.0L791.0 260.0L789.7 256.5Q791.4 255.8 793.2 255.5Q795.0 255.2 796.5 255.2L796.5 255.2Q800.4 255.2 802.2 256.8Q804.0 258.4 804.0 261.6L804.0 261.6L804.0 268.6ZM795.9 270.5Q797.7 270.5 798.8 268.8L798.8 268.8L798.8 265.6L797.4 265.6Q795.6 265.6 794.7 266.2Q793.8 266.9 793.8 268.2L793.8 268.2Q793.8 269.3 794.3 269.9Q794.9 270.5 795.9 270.5L795.9 270.5ZM828.3 255.2Q830.4 255.2 831.7 256.6Q833.0 258.0 833.0 260.6L833.0 260.6L833.0 273.8L827.6 273.8L827.6 261.5Q827.6 259.1 826.1 259.1L826.1 259.1Q825.2 259.1 824.6 259.7Q823.9 260.3 823.3 261.4L823.3 261.4L823.3 273.8L818.0 273.8L818.0 261.5Q818.0 259.1 816.4 259.1L816.4 259.1Q815.6 259.1 815.0 259.7Q814.3 260.3 813.7 261.4L813.7 261.4L813.7 273.8L808.3 273.8L808.3 255.7L813.0 255.7L813.4 257.8Q814.4 256.5 815.7 255.8Q817.0 255.2 818.6 255.2L818.6 255.2Q820.1 255.2 821.2 255.9Q822.3 256.7 822.9 258.0L822.9 258.0Q823.9 256.6 825.3 255.9Q826.6 255.2 828.3 255.2L828.3 255.2Z M847.1 260.3Q848.3 260.3 849.2 261.2Q850.1 262.1 850.1 263.3L850.1 263.3Q850.1 264.6 849.2 265.5Q848.3 266.4 847.1 266.4L847.1 266.4Q845.8 266.4 844.9 265.5Q844.0 264.6 844.0 263.3L844.0 263.3Q844.0 262.1 844.9 261.2Q845.8 260.3 847.1 260.3L847.1 260.3Z M869.2 250.3Q873.4 250.3 875.6 253.4Q877.8 256.5 877.8 262.3L877.8 262.3Q877.8 268.1 875.6 271.2Q873.4 274.4 869.2 274.4L869.2 274.4Q864.9 274.4 862.7 271.2Q860.5 268.1 860.5 262.3L860.5 262.3Q860.5 256.5 862.7 253.4Q864.9 250.3 869.2 250.3L869.2 250.3ZM869.2 254.3Q868.0 254.3 867.3 255.1Q866.6 255.8 866.3 257.5Q866.0 259.3 866.0 262.3L866.0 262.3Q866.0 265.4 866.3 267.1Q866.6 268.9 867.3 269.6Q868.0 270.4 869.2 270.4L869.2 270.4Q870.3 270.4 871.0 269.7Q871.7 268.9 872.0 267.2Q872.3 265.4 872.3 262.3L872.3 262.3Q872.3 259.2 872.0 257.5Q871.7 255.7 871.0 255.0Q870.3 254.3 869.2 254.3L869.2 254.3ZM883.2 268.2Q884.4 268.2 885.3 269.1Q886.2 270.0 886.2 271.3L886.2 271.3Q886.2 272.6 885.3 273.5Q884.4 274.4 883.2 274.4L883.2 274.4Q881.9 274.4 881.0 273.5Q880.1 272.6 880.1 271.3L880.1 271.3Q880.1 270.0 881.0 269.1Q881.9 268.2 883.2 268.2L883.2 268.2ZM895.4 250.3Q897.8 250.3 899.5 251.1Q901.2 251.9 902.1 253.2Q903.0 254.5 903.0 256.2L903.0 256.2Q903.0 258.3 901.9 259.6Q900.7 261.0 898.5 261.7L898.5 261.7Q900.9 261.9 902.3 263.3Q903.8 264.7 903.8 267.3L903.8 267.3Q903.8 269.2 902.8 270.8Q901.7 272.5 899.7 273.4Q897.8 274.4 895.0 274.4L895.0 274.4Q890.0 274.4 887.1 270.9L887.1 270.9L890.0 268.1Q891.2 269.2 892.3 269.8Q893.4 270.3 894.7 270.3L894.7 270.3Q896.3 270.3 897.3 269.4Q898.3 268.5 898.3 267.0L898.3 267.0Q898.3 265.2 897.3 264.4Q896.4 263.7 894.5 263.7L894.5 263.7L892.6 263.7L893.2 260.0L894.5 260.0Q896.1 260.0 896.9 259.2Q897.8 258.4 897.8 257.0L897.8 257.0Q897.8 255.7 897.0 255.0Q896.2 254.3 894.8 254.3L894.8 254.3Q892.4 254.3 890.3 256.3L890.3 256.3L887.6 253.4Q890.9 250.3 895.4 250.3L895.4 250.3ZM910.7 259.7L907.2 259.7L906.6 250.2L911.4 250.2L910.7 259.7ZM917.6 259.7L914.0 259.7L913.4 250.2L918.3 250.2L917.6 259.7Z "/><defs><clipPath id="satori_bc-id-1-1"><rect x="40" y="295" width="880" height="164"/></clipPath></defs><mask id="satori_om-id-1-1"><rect x="40" y="295" width="880" height="162" fill="#fff"/><path width="880" height="164" fill="none" stroke="#000" stroke-width="4" d="M920,459 A0,0 0 0 1 920,459 h-880 A0,0 0 0 1 40,459"/></mask><path width="880" height="164" clip-path="url(#satori_bc-id-1-1)" fill="none" stroke="#000" stroke-width="4" d="M920,459 A0,0 0 0 1 920,459 h-880 A0,0 0 0 1 40,459"/><clipPath id="satori_cp-id-1-1-0"><rect x="40" y="295" width="880" height="164"/></clipPath><mask id="satori_om-id-1-1-0"><rect x="40" y="295" width="880" height="164" fill="#fff"/></mask><image x="40" y="295" width="880" height="164" href="data:image/svg+xml;utf8,%3Csvg  xmlns=%22http://www.w3.org/2000/svg%22 width=%22Infinity%22 height=%22NaN%22%3E%3Crect x=%220%22 y=%22154%22 width=%2236.666666666666664%22 height=%228%22 fill=%22%23ccc%22 shape-rendering=%22crispEdges%22%3E%3C/rect%3E%3Crect x=%2236.666666666666664%22 y=%22154%22 width=%2236.666666666666664%22 height=%228%22 fill=%22%23ccc%22 shape-rendering=%22crispEdges%22%3E%3C/rect%3E%3Crect x=%2273.33333333333333%22 y=%22146%22 width=%2236.666666666666664%22 height=%2216%22 fill=%22%23ccc%22 shape-rendering=%22crispEdges%22%3E%3C/rect%3E%3Crect x=%22110%22 y=%22138%22 width=%2236.666666666666664%22 height=%2224%22 fill=%22%23ccc%22 shape-rendering=%22crispEdges%22%3E%3C/rect%3E%3Crect x=%22146.66666666666666%22 y=%22122%22 width=%2236.666666666666664%22 height=%2240%22 fill=%22%23ccc%22 shape-rendering=%22crispEdges%22%3E%3C/rect%3E%3Crect x=%22183.33333333333331%22 y=%2298%22 width=%2236.666666666666664%22 height=%2264%22 fill=%22%23ccc%22 shape-rendering=%22crispEdges%22%3E%3C/rect%3E%3Crect x=%22220%22 y=%2274%22 width=%2236.666666666666664%22 height=%2288%22 fill=%22%23ccc%22 shape-rendering=%22crispEdges%22%3E%3C/rect%3E%3Crect x=%22256.66666666666663%22 y=%2250%22 width=%2236.666666666666664%22 height=%22112%22 fill=%22%23ccc%22 shape-rendering=%22crispEdges%22%3E%3C/rect%3E%3Crect x=%22293.3333333333333%22 y=%2242%22 width=%2236.666666666666664%22 height=%22120%22 fill=%22%23ccc%22 shape-rendering=%22crispEdges%22%3E%3C/rect%3E%3Crect x=%22330%22 y=%2258%22 width=%2236.666666666666664%22 height=%22104%22 fill=%22%23ccc%22 shape-rendering=%22crispEdges%22%3E%3C/rect%3E%3Crect x=%22366.66666666666663%22 y=%2282%22 width=%2236.666666666666664%22 height=%2280%22 fill=%22%23ccc%22 shape-rendering=%22crispEdges%22%3E%3C/rect%3E%3Crect x=%22403.3333333333333%22 y=%22106%22 width=%2236.666666666666664%22 height=%2256%22 fill=%22%23ccc%22 shape-rendering=%22crispEdges%22%3E%3C/rect%3E%3Crect x=%22440%22 y=%22122%22 width=%2236.666666666666664%22 height=%2240%22 fill=%22%23ccc%22 shape-rendering=%22crispEdges%22%3E%3C/rect%3E%3Crect x=%22476.66666666666663%22 y=%22130%22 width=%2236.666666666666664%22 height=%2232%22 fill=%22%23ccc%22 shape-rendering=%22crispEdges%22%3E%3C/rect%3E%3Crect x=%22513.3333333333333%22 y=%22138%22 width=%2236.666666666666664%22 height=%2224%22 fill=%22%23ccc%22 shape-rendering=%22crispEdges%22%3E%3C/rect%3E%3Crect x=%22550%22 y=%22146%22 width=%2236.666666666666664%22 height=%2216%22 fill=%22%23ccc%22 shape-rendering=%22crispEdges%22%3E%3C/rect%3E%3Crect x=%22586.6666666666666%22 y=%22146%22 width=%2236.666666666666664%22 height=%2216%22 fill=%22%23ccc%22 shape-rendering=%22crispEdges%22%3E%3C/rect%3E%3Crect x=%22623.3333333333333%22 y=%22138%22 width=%2236.666666666666664%22 height=%2224%22 fill=%22%23ccc%22 shape-rendering=%22crispEdges%22%3E%3C/rect%3E%3Crect x=%22660%22 y=%22130%22 width=%2236.666666666666664%22 height=%2232%22 fill=%22%23ccc%22 shape-rendering=%22crispEdges%22%3E%3C/rect%3E%3Crect x=%22696.6666666666666%22 y=%22138%22 width=%2236.666666666666664%22 height=%2224%22 fill=%22%23ccc%22 shape-rendering=%22crispEdges%22%3E%3C/rect%3E%3Crect x=%22733.3333333333333%22 y=%22146%22 width=%2236.666666666666664%22 height=%2216%22 fill=%22%23ccc%22 shape-rendering=%22crispEdges%22%3E%3C/rect%3E%3Crect x=%22770%22 y=%22154%22 width=%2236.666666666666664%22 height=%228%22 fill=%22%23ccc%22 shape-rendering=%22crispEdges%22%3E%3C/rect%3E%3Crect x=%22806.6666666666666%22 y=%22154%22 width=%2236.666666666666664%22 height=%228%22 fill=%22%23ccc%22 shape-rendering=%22crispEdges%22%3E%3C/rect%3E%3Crect x=%22843.3333333333333%22 y=%22154%22 width=%2236.666666666666664%22 height=%228%22 fill=%22%23ccc%22 shape-rendering=%22crispEdges%22%3E%3C/rect%3E%3Crect x=%22513.3333333333333%22 y=%22154%22 width=%2236.666666666666664%22 height=%228%22 fill=%22%23666%22 shape-rendering=%22crispEdges%22%3E%3C/rect%3E%3Crect x=%22550%22 y=%22146%22 width=%2236.666666666666664%22 height=%2216%22 fill=%22%23666%22 shape-rendering=%22crispEdges%22%3E%3C/rect%3E%3Crect x=%22586.6666666666666%22 y=%22130%22 width=%2236.666666666666664%22 height=%2232%22 fill=%22%23666%22 shape-rendering=%22crispEdges%22%3E%3C/rect%3E%3Crect x=%22623.3333333333333%22 y=%22114%22 width=%2236.666666666666664%22 height=%2248%22 fill=%22%23666%22 shape-rendering=%22crispEdges%22%3E%3C/rect%3E%3Crect x=%22660%22 y=%22122%22 width=%2236.666666666666664%22 height=%2240%22 fill=%22%23666%22 shape-rendering=%22crispEdges%22%3E%3C/rect%3E%3Crect x=%22696.6666666666666%22 y=%22138%22 width=%2236.666666666666664%22 height=%2224%22 fill=%22%23666%22 shape-rendering=%22crispEdges%22%3E%3C/rect%3E%3Crect x=%22733.3333333333333%22 y=%22146%22 width=%2236.666666666666664%22 height=%2216%22 fill=%22%23666%22 shape-rendering=%22crispEdges%22%3E%3C/rect%3E%3Crect x=%22770%22 y=%22154%22 width=%2236.666666666666664%22 height=%228%22 fill=%22%23666%22 shape-rendering=%22crispEdges%22%3E%3C/rect%3E%3C/svg%3E" preserveAspectRatio="none" clip-path="url(#satori_cp-id-1-1-0)" mask="url(#satori_om-id-1-1-0)"/><mask id="satori_om-id-1-1-0-0"><rect x="40" y="295" width="0" height="164" fill="#fff"/></mask><mask id="satori_om-id-1-1-0-1"><rect x="40" y="295" width="0" height="164" fill="#fff"/></mask><mask id="satori_om-id-1-1-0-2"><rect x="40" y="295" width="0" height="164" fill="#fff"/></mask><mask id="satori_om-id-1-1-0-3"><rect x="40" y="295" width="0" height="164" fill="#fff"/></mask><mask id="satori_om-id-1-1-0-4"><rect x="40" y="295" width="0" height="164" fill="#fff"/></mask><mask id="satori_om-id-1-1-0-5"><rect x="40" y="295" width="0" height="164" fill="#fff"/></mask><mask id="satori_om-id-1-1-0-6"><rect x="40" y="295" width="0" height="164" fill="#fff"/></mask><mask id="satori_om-id-1-1-0-7"><rect x="40" y="295" width="0" height="164" fill="#fff"/></mask><mask id="satori_om-id-1-1-0-8"><rect x="40" y="295" width="0" height="164" fill="#fff"/></mask><mask id="satori_om-id-1-1-0-9"><rect x="40" y="295" width="0" height="164" fill="#fff"/></mask><mask id="satori_om-id-1-1-0-10"><rect x="40" y="295" width="0" height="164" fill="#fff"/></mask><mask id="satori_om-id-1-1-0-11"><rect x="40" y="295" width="0" height="164" fill="#fff"/></mask><mask id="satori_om-id-1-1-0-12"><rect x="40" y="295" width="0" height="164" fill="#fff"/></mask><mask id="satori_om-id-1-1-0-13"><rect x="40" y="295" width="0" height="164" fill="#fff"/></mask><mask id="satori_om-id-1-1-0-14"><rect x="40" y="295" width="0" height="164" fill="#fff"/></mask><mask id="satori_om-id-1-1-0-15"><rect x="40" y="295" width="0" height="164" fill="#fff"/></mask><mask id="satori_om-id-1-1-0-16"><rect x="40" y="295" width="0" height="164" fill="#fff"/></mask><mask id="satori_om-id-1-1-0-17"><rect x="40" y="295" width="0" height="164" fill="#fff"/></mask><mask id="satori_om-id-1-1-0-18"><rect x="40" y="295" width="0" height="164" fill="#fff"/></mask><mask id="satori_om-id-1-1-0-19"><rect x="40" y="295" width="0" height="164" fill="#fff"/></mask><mask id="satori_om-id-1-1-0-20"><rect x="40" y="295" width="0" height="164" fill="#fff"/></mask><mask id="satori_om-id-1-1-0-21"><rect x="40" y="295" width="0" height="164" fill="#fff"/></mask><mask id="satori_om-id-1-1-0-22"><rect x="40" y="295" width="0" height="164" fill="#fff"/></mask><mask id="satori_om-id-1-1-0-23"><rect x="40" y="295" width="0" height="164" fill="#fff"/></mask><mask id="satori_om-id-1-1-0-24"><rect x="40" y="295" width="0" height="164" fill="#fff"/></mask><mask id="satori_om-id-1-1-0-25"><rect x="40" y="295" width="0" height="164" fill="#fff"/></mask><mask id="satori_om-id-1-1-0-26"><rect x="40" y="295" width="0" height="164" fill="#fff"/></mask><mask id="satori_om-id-1-1-0-27"><rect x="40" y="295" width="0" height="164" fill="#fff"/></mask><mask id="satori_om-id-1-1-0-28"><rect x="40" y="295" width="0" height="164" fill="#fff"/></mask><mask id="satori_om-id-1-1-0-29"><rect x="40" y="295" width="0" height="164" fill="#fff"/></mask><mask id="satori_om-id-1-1-0-30"><rect x="40" y="295" width="0" height="164" fill="#fff"/></mask><mask id="satori_om-id-1-1-0-31"><rect x="40" y="295" width="0" height="164" fill="#fff"/></mask><mask id="satori_om-id-1-2"><rect x="40" y="463" width="880" height="22" fill="#fff"/></mask><mask id="satori_om-id-1-2-0"><rect x="143" y="463" width="50" height="29" fill="#fff"/></mask><path fill="#333" d="M169.3 474.5Q170.6 474.5 171.7 475.2Q172.7 475.8 173.3 477.0Q173.9 478.2 173.9 479.9L173.9 479.9Q173.9 481.6 173.2 482.9Q172.5 484.3 171.2 485.1Q169.8 485.8 168.1 485.8L168.1 485.8Q164.9 485.8 163.4 483.8Q161.9 481.7 161.9 478.0L161.9 478.0Q161.9 475.3 162.8 473.2Q163.6 471.2 165.2 470.0Q166.8 468.9 169.0 468.9L169.0 468.9Q171.1 468.9 172.7 470.0L172.7 470.0L171.3 472.2Q170.2 471.6 169.1 471.6L169.1 471.6Q167.7 471.6 166.9 472.7Q166.0 473.9 165.8 476.0L165.8 476.0Q167.3 474.5 169.3 474.5L169.3 474.5ZM168.1 483.1Q169.1 483.1 169.6 482.3Q170.1 481.4 170.1 479.9L170.1 479.9Q170.1 478.4 169.7 477.8Q169.2 477.1 168.2 477.1L168.2 477.1Q166.9 477.1 165.8 478.4L165.8 478.4Q165.9 481.0 166.4 482.1Q166.9 483.1 168.1 483.1L168.1 483.1Z "/><mask id="satori_om-id-1-2-1"><rect x="363" y="463" width="50" height="29" fill="#fff"/></mask><path fill="#333" d="M381.8 469.2L385.2 469.2L385.2 485.4L381.4 485.4L381.4 472.9L378.0 475.0L376.3 472.5L381.8 469.2ZM392.8 468.9Q394.6 468.9 395.9 469.5Q397.1 470.1 397.8 471.2Q398.4 472.2 398.4 473.5L398.4 473.5Q398.4 474.8 397.9 476.0Q397.4 477.2 396.0 478.7Q394.7 480.2 392.1 482.5L392.1 482.5L398.8 482.5L398.4 485.4L387.8 485.4L387.8 482.8Q390.8 479.8 392.1 478.4Q393.5 476.9 394.0 475.9Q394.6 474.9 394.6 473.9L394.6 473.9Q394.6 472.9 394.0 472.3Q393.4 471.8 392.5 471.8L392.5 471.8Q391.6 471.8 390.9 472.2Q390.3 472.6 389.5 473.5L389.5 473.5L387.3 471.7Q388.3 470.4 389.7 469.6Q391.1 468.9 392.8 468.9L392.8 468.9Z "/><mask id="satori_om-id-1-2-2"><rect x="583" y="463" width="50" height="29" fill="#fff"/></mask><path fill="#333" d="M609.3 474.5Q610.6 474.5 611.7 475.2Q612.7 475.8 613.3 477.0Q613.9 478.2 613.9 479.9L613.9 479.9Q613.9 481.6 613.2 482.9Q612.5 484.3 611.2 485.1Q609.8 485.8 608.1 485.8L608.1 485.8Q604.9 485.8 603.4 483.8Q601.9 481.7 601.9 478.0L601.9 478.0Q601.9 475.3 602.8 473.2Q603.6 471.2 605.2 470.0Q606.8 468.9 609.0 468.9L609.0 468.9Q611.1 468.9 612.7 470.0L612.7 470.0L611.3 472.2Q610.2 471.6 609.1 471.6L609.1 471.6Q607.7 471.6 606.9 472.7Q606.0 473.9 605.8 476.0L605.8 476.0Q607.3 474.5 609.3 474.5L609.3 474.5ZM608.1 483.1Q609.1 483.1 609.6 482.3Q610.1 481.4 610.1 479.9L610.1 479.9Q610.1 478.4 609.7 477.8Q609.2 477.1 608.2 477.1L608.2 477.1Q606.9 477.1 605.8 478.4L605.8 478.4Q605.9 481.0 606.4 482.1Q606.9 483.1 608.1 483.1L608.1 483.1Z "/><mask id="satori_om-id-1-2-3"><rect x="803" y="463" width="50" height="29" fill="#fff"/></mask><path fill="#333" d="M821.8 469.2L825.2 469.2L825.2 485.4L821.4 485.4L821.4 472.9L818.0 475.0L816.3 472.5L821.8 469.2ZM832.8 468.9Q834.6 468.9 835.9 469.5Q837.1 470.1 837.8 471.2Q838.4 472.2 838.4 473.5L838.4 473.5Q838.4 474.8 837.9 476.0Q837.4 477.2 836.0 478.7Q834.7 480.2 832.1 482.5L832.1 482.5L838.8 482.5L838.4 485.4L827.8 485.4L827.8 482.8Q830.8 479.8 832.1 478.4Q833.5 476.9 834.0 475.9Q834.6 474.9 834.6 473.9L834.6 473.9Q834.6 472.9 834.0 472.3Q833.4 471.8 832.5 471.8L832.5 471.8Q831.6 471.8 830.9 472.2Q830.3 472.6 829.5 473.5L829.5 473.5L827.3 471.7Q828.3 470.4 829.7 469.6Q831.1 468.9 832.8 468.9L832.8 468.9Z "/><mask id="satori_om-id-2"><rect x="0" y="485" width="960" height="28" fill="#fff"/></mask><mask id="satori_om-id-2-0"><rect x="40" y="495" width="880" height="0" fill="#fff"/></mask></svg>