<svg width="960" height="540" viewBox="0 0 960 540" xmlns="http://www.w3.org/2000/svg"><mask id="satori_om-id"><rect x="0" y="0" width="960" height="540" fill="#fff"/></mask><rect x="0" y="0" width="960" height="540" fill="#fff"/><mask id="satori_om-id-0"><rect x="0" y="0" width="960" height="257" fill="#fff"/></mask><mask id="satori_om-id-0-0"><rect x="40" y="28" width="180" height="180" fill="#fff"/></mask><mask id="satori_om-id-0-0-0"><rect x="45" y="57" width="171" height="122" fill="#fff"/></mask><path fill="#000" d="M45 132.0L45 132.0Q45 140.6 49.2 147.9Q53.4 155.1 60.6 159.3Q67.8 163.5 76.3 163.5L76.3 163.5L145.1 163.5Q153.7 163.5 160.9 159.3Q168.2 155.1 172.4 147.9Q176.7 140.6 176.7 132.0L176.7 132.0Q176.7 125.7 174.0 119.3L174.0 119.3Q181.2 110.5 181.2 98.3L181.2 98.3Q181.2 91.5 178.6 85.4Q176.0 79.2 171.5 74.7Q167.1 70.3 160.9 67.6Q154.7 65.0 147.9 65.0L147.9 65.0Q133.8 65.0 123.3 76.1L123.3 76.1Q115.9 71.9 106.1 71.9L106.1 71.9Q92.7 71.9 82.4 80.2Q72.1 88.5 69.2 101.5L69.2 101.5Q58.5 104.0 51.8 112.5Q45 121.0 45 132.0ZM55.8 132.0L55.8 132.0Q55.8 124.0 61.2 118.3Q66.5 112.5 74.5 111.5L74.5 111.5L77.7 111.4Q78.9 111.4 78.9 110.2L78.9 110.2L79.3 106.8Q80.6 96.5 88.2 89.5Q95.9 82.6 106.1 82.6L106.1 82.6Q116.6 82.6 124.4 89.6Q132.2 96.5 133.1 106.8L133.1 106.8L133.6 110.5Q133.8 111.5 134.9 111.5L134.9 111.5L145.1 111.5Q153.5 111.5 159.6 117.6Q165.7 123.7 165.7 132.0L165.7 132.0Q165.7 140.7 159.6 146.8Q153.6 152.9 145.1 152.9L145.1 152.9L76.3 152.9Q68.0 152.9 61.9 146.7Q55.8 140.5 55.8 132.0ZM98.4 54.1L98.4 54.1Q98.4 56.4 100.0 58.0L100.0 58.0L104.2 62.1Q106.5 63.9 108.2 63.7L108.2 63.7Q110.2 63.7 111.7 62.1Q113.3 60.4 113.3 58.1Q113.3 55.8 111.6 54.3L111.6 54.3L107.8 50.2Q106.1 48.6 104.0 48.6L104.0 48.6Q101.7 48.6 100.0 50.2Q98.4 51.8 98.4 54.1ZM132.4 82.2L132.4 82.2Q139.0 75.8 147.9 75.8L147.9 75.8Q157.3 75.8 163.9 82.3Q170.5 88.9 170.5 98.3L170.5 98.3Q170.5 104.3 167.3 110.0L167.3 110.0Q158.1 100.9 145.1 100.9L145.1 100.9L143.1 100.9Q140.7 90.5 132.4 82.2ZM142.7 35.6L142.7 48.6Q142.7 51.1 144.2 52.6Q145.7 54.1 147.9 54.1L147.9 54.1Q150.4 54.1 151.9 52.6Q153.4 51.1 153.4 48.6L153.4 48.6L153.4 35.6Q153.4 33.4 151.8 31.9Q150.3 30.4 147.9 30.4L147.9 30.4Q145.7 30.4 144.2 31.9Q142.7 33.4 142.7 35.6L142.7 35.6ZM177.8 63.2L177.8 63.2Q177.8 65.7 179.2 67.2L179.2 67.2Q181.2 68.7 183.1 68.7L183.1 68.7Q184.9 68.7 186.9 67.2L186.9 67.2L196.0 58.0Q197.6 56.3 197.6 54.0L197.6 54.0Q197.6 51.7 196.0 50.2Q194.5 48.6 192.3 48.6L192.3 48.6Q190.0 48.6 188.6 50.2L188.6 50.2L179.2 59.3Q177.8 61.0 177.8 63.2ZM184.4 134.6Q182.8 136.1 182.8 138.4Q182.8 140.7 184.5 142.4L184.5 142.4L188.6 146.4Q190.0 147.9 192.3 147.9Q194.5 147.9 196.0 146.4Q197.6 144.8 197.6 142.4L197.6 142.4Q197.6 140.2 196.0 138.7L196.0 138.7L191.9 134.6Q190.4 133.0 188.3 133.0L188.3 133.0Q186.0 133.0 184.4 134.6ZM193.8 94.5Q192.1 96.1 192.1 98.3Q192.1 100.5 193.8 102.0L193.8 102.0Q195.4 103.6 197.7 103.6L197.7 103.6L210.7 103.6Q212.9 103.6 214.3 102.1Q215.8 100.6 215.8 98.3Q215.8 96.0 214.3 94.5Q212.9 92.9 210.7 92.9L210.7 92.9L197.7 92.9Q195.4 92.9 193.8 94.5Z "/><mask id="satori_om-id-0-1"><rect x="248" y="28" width="672" height="217" fill="#fff"/></mask><mask id="satori_om-id-0-1-0"><rect x="248" y="28" width="672" height="162" fill="#fff"/></mask><mask id="satori_om-id-0-1-0-0"><rect x="248" y="28" width="272" height="162" fill="#fff"/></mask><path fill="#000" d="M250.3 47.6L329 47.6L329 66.9L284.4 172.2L258.6 163.5L299.5 69.0L250.3 69.0L250.3 47.6ZM375.1 45.1Q388.2 45.1 397.7 49.8Q407.1 54.5 412.1 62.4Q417.0 70.3 417.0 79.8L417.0 79.8Q417.0 89.6 413.1 98.4Q409.1 107.2 399.0 118.6Q388.9 130.1 369.7 147.5L369.7 147.5L419.5 147.5L416.7 169.3L337.5 169.3L337.5 149.1Q359.6 127.4 369.7 116.3Q379.8 105.2 383.8 97.8Q387.9 90.5 387.9 82.7L387.9 82.7Q387.9 75.3 383.6 71.1Q379.4 66.9 372.2 66.9L372.2 66.9Q365.7 66.9 360.7 69.9Q355.6 72.8 350.1 79.5L350.1 79.5L333.3 66.2Q340.9 56.3 351.4 50.7Q361.9 45.1 375.1 45.1L375.1 45.1ZM464.5 102.9Q456.4 102.9 449.1 99.1Q441.7 95.3 437 88.2Q432.3 81.1 432.3 71.9L432.3 71.9Q432.3 62.7 436.9 55.8Q441.5 48.9 449.0 45.2Q456.4 41.5 464.5 41.5L464.5 41.5Q472.6 41.5 480.0 45.2Q487.4 48.9 492.0 55.8Q496.6 62.7 496.6 71.9L496.6 71.9Q496.6 81.3 492.0 88.3Q487.4 95.3 480.0 99.1Q472.6 102.9 464.5 102.9L464.5 102.9ZM464.5 86.1Q470.1 86.1 473.5 82.3Q477.0 78.4 477.0 71.9L477.0 71.9Q477.0 65.4 473.6 61.7Q470.3 57.9 464.5 57.9L464.5 57.9Q458.8 57.9 455.4 61.7Q451.9 65.4 451.9 71.9L451.9 71.9Q451.9 78.4 455.4 82.3Q458.8 86.1 464.5 86.1L464.5 86.1Z "/><mask id="satori_om-id-0-1-0-1"><rect x="734" y="52" width="186" height="108" fill="#fff"/></mask><mask id="satori_om-id-0-1-0-1-0"><rect x="734" y="74" width="64" height="64" fill="#fff"/></mask><clipPath id="satori_cp-id-0-1-0-1-0-0"><rect x="734" y="74" width="64" height="64"/></clipPath><mask id="satori_om-id-0-1-0-1-0-0"><rect x="734" y="74" width="64" height="64" fill="#fff"/></mask><image x="734" y="74" width="64" height="64" href="data:image/svg+xml;utf8,%3Csvg  xmlns=%22http://www.w3.org/2000/svg%22 width=%22Infinity%22 height=%22NaN%22%3E%3Ccircle cx=%2232%22 cy=%2232%22 r=%2219.2%22 stroke=%22%23000%22 stroke-width=%223%22 fill=%22%23fff%22%3E%3C/circle%3E%3Cline x1=%2255.04%22 y1=%2232%22 x2=%2262.72%22 y2=%2232%22 stroke=%22%23000%22 stroke-width=%223%22 stroke-linecap=%22round%22%3E%3C/line%3E%3Cline x1=%2248.291740238538054%22 y1=%2248.291740238538054%22 x2=%2253.72232031805074%22 y2=%2253.722320318050734%22 stroke=%22%23000%22 stroke-width=%223%22 stroke-linecap=%22round%22%3E%3C/line%3E%3Cline x1=%2232%22 y1=%2255.04%22 x2=%2232%22 y2=%2262.72%22 stroke=%22%23000%22 stroke-width=%223%22 stroke-linecap=%22round%22%3E%3C/line%3E%3Cline x1=%2215.708259761461946%22 y1=%2248.291740238538054%22 x2=%2210.277679681949262%22 y2=%2253.72232031805074%22 stroke=%22%23000%22 stroke-width=%223%22 stroke-linecap=%22round%22%3E%3C/line%3E%3Cline x1=%228.96%22 y1=%2232%22 x2=%221.2800000000000011%22 y2=%2232.00000000000001%22 stroke=%22%23000%22 stroke-width=%223%22 stroke-linecap=%22round%22%3E%3C/line%3E%3Cline x1=%2215.708259761461942%22 y1=%2215.708259761461946%22 x2=%2210.277679681949255%22 y2=%2210.277679681949262%22 stroke=%22%23000%22 stroke-width=%223%22 stroke-linecap=%22round%22%3E%3C/line%3E%3Cline x1=%2231.999999999999996%22 y1=%228.96%22 x2=%2231.999999999999993%22 y2=%221.2800000000000011%22 stroke=%22%23000%22 stroke-width=%223%22 stroke-linecap=%22round%22%3E%3C/line%3E%3Cline x1=%2248.291740238538054%22 y1=%2215.708259761461942%22 x2=%2253.722320318050734%22 y2=%2210.277679681949255%22 stroke=%22%23000%22 stroke-width=%223%22 stroke-linecap=%22round%22%3E%3C/line%3E%3C/svg%3E" preserveAspectRatio="none" clip-path="url(#satori_cp-id-0-1-0-1-0-0)" mask="url(#satori_om-id-0-1-0-1-0-0)"/><mask id="satori_om-id-0-1-0-1-0-0-0"><rect x="734" y="74" width="0" height="64" fill="#fff"/></mask><mask id="satori_om-id-0-1-0-1-0-0-1"><rect x="734" y="74" width="0" height="64" fill="#fff"/></mask><mask id="satori_om-id-0-1-0-1-0-0-2"><rect x="734" y="74" width="0" height="64" fill="#fff"/></mask><mask id="satori_om-id-0-1-0-1-0-0-3"><rect x="734" y="74" width="0" height="64" fill="#fff"/></mask><mask id="satori_om-id-0-1-0-1-0-0-4"><rect x="734" y="74" width="0" height="64" fill="#fff"/></mask><mask id="satori_om-id-0-1-0-1-0-0-5"><rect x="734" y="74" width="0" height="64" fill="#fff"/></mask><mask id="satori_om-id-0-1-0-1-0-0-6"><rect x="734" y="74" width="0" height="64" fill="#fff"/></mask><mask id="satori_om-id-0-1-0-1-0-0-7"><rect x="734" y="74" width="0" height="64" fill="#fff"/></mask><mask id="satori_om-id-0-1-0-1-0-0-8"><rect x="734" y="74" width="0" height="64" fill="#fff"/></mask><mask id="satori_om-id-0-1-0-1-0-1"><rect x="754" y="97" width="24" height="19" fill="#fff"/></mask><path fill="#000" d="M765.3 99.7L765.3 108.5Q765.3 109.8 764.7 110.9Q764.2 112.0 763.0 112.6Q761.8 113.2 760.2 113.2L760.2 113.2Q757.7 113.2 756.4 111.9Q755.0 110.6 755.0 108.5L755.0 108.5L755.0 99.7L758.2 99.7L758.2 108.4Q758.2 109.6 758.6 110.3Q759.1 110.9 760.2 110.9L760.2 110.9Q761.2 110.9 761.7 110.3Q762.2 109.6 762.2 108.4L762.2 108.4L762.2 99.7L765.3 99.7ZM774.3 99.7L777.5 99.7L773.8 112.9L769.9 112.9L766.1 99.7L769.4 99.7L771.9 110.4L774.3 99.7Z "/><mask id="satori_om-id-0-1-0-1-1"><rect x="810" y="52" width="68" height="108" fill="#fff"/></mask><path fill="#000" d="M851.4 91.6Q858.1 91.6 863.4 94.8Q868.7 98.0 871.7 104.0Q874.7 110.1 874.7 118.5L874.7 118.5Q874.7 126.8 871.1 133.5Q867.5 140.3 860.8 144.3Q854.2 148.2 845.3 148.2L845.3 148.2Q829.7 148.2 822.1 137.8Q814.6 127.4 814.6 109.1L814.6 109.1Q814.6 95.4 818.8 85.1Q823.1 74.8 831.1 69.1Q839.0 63.4 849.8 63.4L849.8 63.4Q860.3 63.4 868.3 68.8L868.3 68.8L861.4 80.1Q856.0 77.0 850.3 77.0L850.3 77.0Q843.5 77.0 839.3 82.7Q835.1 88.5 834.2 99.0L834.2 99.0Q841.6 91.6 851.4 91.6L851.4 91.6ZM845.5 134.7Q850.6 134.7 853.1 130.4Q855.7 126.2 855.7 118.7L855.7 118.7Q855.7 111.2 853.3 107.9Q850.9 104.7 846.1 104.7L846.1 104.7Q839.6 104.7 834.2 111.0L834.2 111.0Q834.5 123.9 837 129.3Q839.5 134.7 845.5 134.7L845.5 134.7Z "/><mask id="satori_om-id-0-1-0-1-2"><rect x="888" y="81" width="32" height="50" fill="#fff"/></mask><path fill="#333" d="M903.5 86.3Q910.3 86.3 914.0 90.3Q917.6 94.3 917.6 101.0L917.6 101.0Q917.6 108.7 915.1 113.7Q912.6 118.7 907.5 121.8Q902.3 124.8 894.0 126.5L894.0 126.5L892.3 120.4Q899.6 118.6 903.3 115.9Q907.0 113.1 908.1 108.2L908.1 108.2Q905.1 111.9 900.3 111.9L900.3 111.9Q897.3 111.9 894.8 110.3Q892.4 108.8 890.9 106.0Q889.5 103.1 889.5 99.4L889.5 99.4Q889.5 95.5 891.3 92.5Q893.2 89.6 896.4 87.9Q899.6 86.3 903.5 86.3L903.5 86.3ZM903.0 105.6Q904.6 105.6 906.1 104.8Q907.5 103.9 908.6 102.3L908.6 102.3Q908.7 97.0 907.5 94.8Q906.3 92.6 903.5 92.6L903.5 92.6Q901.1 92.6 899.7 94.3Q898.4 96.0 898.4 99.1L898.4 99.1Q898.4 102.6 899.6 104.1Q900.9 105.6 903.0 105.6L903.0 105.6Z "/><mask id="satori_om-id-0-1-1"><rect x="248" y="204" width="672" height="41" fill="#fff"/></mask><mask id="satori_om-id-0-1-1-0"><rect x="248" y="204" width="84" height="41" fill="#fff"/></mask><path fill="#333" d="M267.7 235.8L264.5 235.8L264.5 224.8L254.6 224.8L254.6 235.8L251.4 235.8L251.4 212.4L254.6 212.4L254.6 222.2L264.5 222.2L264.5 212.4L267.7 212.4L267.7 235.8Z M281.0 213.0L294.2 213.0L294.2 215.4L285.7 236.1L282.9 235.2L291.0 215.6L281.0 215.6L281.0 213.0ZM307.6 223.6Q312.4 225.5 312.4 229.7L312.4 229.7Q312.4 231.6 311.4 233.1Q310.4 234.5 308.6 235.4Q306.8 236.2 304.5 236.2L304.5 236.2Q302.2 236.2 300.5 235.4Q298.7 234.6 297.7 233.1Q296.8 231.6 296.8 229.8L296.8 229.8Q296.8 227.7 297.9 226.2Q299.0 224.8 301.2 223.9L301.2 223.9Q299.4 222.9 298.6 221.6Q297.7 220.3 297.7 218.6L297.7 218.6Q297.7 216.7 298.7 215.4Q299.6 214.1 301.2 213.4Q302.8 212.7 304.6 212.7L304.6 212.7Q306.4 212.7 308.0 213.3Q309.5 214.0 310.5 215.3Q311.5 216.6 311.5 218.4L311.5 218.4Q311.5 220.1 310.6 221.4Q309.6 222.6 307.6 223.6L307.6 223.6ZM304.6 215.0Q302.8 215.0 301.8 216.0Q300.8 216.9 300.8 218.6L300.8 218.6Q300.8 220.2 301.8 221.1Q302.8 221.9 305.0 222.6L305.0 222.6L305.6 222.8Q307.1 222.0 307.8 221.0Q308.5 220.0 308.5 218.6L308.5 218.6Q308.5 217.0 307.4 216.0Q306.4 215.0 304.6 215.0L304.6 215.0ZM304.6 233.7Q306.7 233.7 307.9 232.6Q309.2 231.5 309.2 229.7L309.2 229.7Q309.2 228.5 308.7 227.7Q308.2 226.8 307.2 226.2Q306.1 225.6 304.2 224.9L304.2 224.9L303.4 224.6Q301.7 225.5 300.8 226.7Q300.0 227.9 300.0 229.8L300.0 229.8Q300.0 231.6 301.2 232.7Q302.5 233.7 304.6 233.7L304.6 233.7ZM321.4 222.8Q319.9 222.8 318.7 222.2Q317.4 221.5 316.6 220.3Q315.8 219.1 315.8 217.4L315.8 217.4Q315.8 215.7 316.6 214.5Q317.4 213.2 318.7 212.6Q319.9 212.0 321.4 212.0L321.4 212.0Q322.9 212.0 324.1 212.6Q325.4 213.2 326.2 214.5Q327.0 215.8 327.0 217.4L327.0 217.4Q327.0 219.1 326.2 220.3Q325.4 221.6 324.1 222.2Q322.9 222.8 321.4 222.8L321.4 222.8ZM321.4 220.7Q322.7 220.7 323.5 219.9Q324.4 219.0 324.4 217.4L324.4 217.4Q324.4 215.8 323.5 215.0Q322.7 214.1 321.4 214.1L321.4 214.1Q320.1 214.1 319.3 214.9Q318.4 215.8 318.4 217.4L318.4 217.4Q318.4 219.0 319.3 219.9Q320.2 220.7 321.4 220.7L321.4 220.7Z "/><mask id="satori_om-id-0-1-1-1"><rect x="360" y="204" width="77" height="41" fill="#fff"/></mask><path fill="#333" d="M363.4 212.4L366.6 212.4L366.6 233.0L376.3 233.0L375.9 235.8L363.4 235.8L363.4 212.4Z M396.4 220.8Q398.1 220.8 399.6 221.6Q401.0 222.5 401.9 224.1Q402.7 225.7 402.7 228.1L402.7 228.1Q402.7 230.5 401.7 232.3Q400.8 234.2 399.1 235.2Q397.5 236.2 395.5 236.2L395.5 236.2Q391.5 236.2 389.6 233.3Q387.8 230.3 387.8 225.1L387.8 225.1Q387.8 221.4 388.8 218.6Q389.9 215.8 391.8 214.3Q393.8 212.7 396.4 212.7L396.4 212.7Q399.0 212.7 401.1 214.1L401.1 214.1L399.9 216.2Q398.3 215.2 396.4 215.2L396.4 215.2Q393.9 215.2 392.5 217.5Q391.1 219.9 390.9 223.8L390.9 223.8Q393.0 220.8 396.4 220.8L396.4 220.8ZM395.5 233.7Q397.4 233.7 398.5 232.2Q399.5 230.7 399.5 228.2L399.5 228.2Q399.5 223.3 395.9 223.3L395.9 223.3Q394.4 223.3 393.1 224.1Q391.9 225.0 391.0 226.4L391.0 226.4Q391.1 230.2 392.1 231.9Q393.2 233.7 395.5 233.7L395.5 233.7ZM412.3 213.0L415.0 213.0L415.0 235.8L411.9 235.8L411.9 216.4L406.6 219.6L405.3 217.4L412.3 213.0ZM426.2 222.8Q424.8 222.8 423.5 222.2Q422.2 221.5 421.4 220.3Q420.7 219.1 420.7 217.4L420.7 217.4Q420.7 215.7 421.4 214.5Q422.2 213.2 423.5 212.6Q424.8 212.0 426.2 212.0L426.2 212.0Q427.7 212.0 429.0 212.6Q430.2 213.2 431.0 214.5Q431.8 215.8 431.8 217.4L431.8 217.4Q431.8 219.1 431.0 220.3Q430.2 221.6 429.0 222.2Q427.7 222.8 426.2 222.8L426.2 222.8ZM426.2 220.7Q427.5 220.7 428.3 219.9Q429.2 219.0 429.2 217.4L429.2 217.4Q429.2 215.8 428.3 215.0Q427.5 214.1 426.2 214.1L426.2 214.1Q425.0 214.1 424.1 214.9Q423.3 215.8 423.3 217.4L423.3 217.4Q423.3 219.0 424.1 219.9Q425.0 220.7 426.2 220.7L426.2 220.7Z "/><mask id="satori_om-id-1"><rect x="0" y="257" width="960" height="223" fill="#fff"/></mask><mask id="satori_om-id-1-0"><rect x="40" y="275" width="880" height="21" fill="#fff"/></mask><mask id="satori_om-id-1-0-0"><rect x="40" y="275" width="165" height="21" fill="#fff"/></mask><path fill="#333" d="M44.3 279.4Q45.6 279.4 46.5 279.9Q47.5 280.3 48.0 281.1Q48.5 281.9 48.5 282.9L48.5 282.9Q48.5 283.9 48.1 284.7Q47.7 285.6 46.7 286.8Q45.7 287.9 43.7 289.7L43.7 289.7L48.7 289.7L48.4 291.8L40.5 291.8L40.5 289.8Q42.7 287.6 43.7 286.5Q44.8 285.4 45.2 284.7Q45.6 283.9 45.6 283.2L45.6 283.2Q45.6 282.4 45.1 282.0Q44.7 281.6 44.0 281.6L44.0 281.6Q43.3 281.6 42.8 281.9Q42.3 282.2 41.8 282.8L41.8 282.8L40.1 281.5Q40.9 280.5 41.9 280.0Q43.0 279.4 44.3 279.4L44.3 279.4ZM59.7 287.1L61.1 287.1L61.1 289.2L59.7 289.2L59.7 291.8L57.0 291.8L56.9 289.2L51.8 289.2L51.8 287.3L55.3 279.4L57.7 280.3L54.7 287.1L57.0 287.1L57.3 284.2L59.7 284.2L59.7 287.1ZM70.0 287.3L64.3 287.3L64.3 285.1L70.0 285.1L70.0 287.3ZM83.6 291.8L80.7 291.8L80.7 286.5L76.9 286.5L76.9 291.8L74.0 291.8L74.0 279.4L76.9 279.4L76.9 284.2L80.7 284.2L80.7 279.4L83.6 279.4L83.6 291.8ZM93 279.0Q95.7 279.0 97.1 280.8Q98.6 282.5 98.6 285.6L98.6 285.6Q98.6 287.6 98.0 289.1Q97.3 290.6 96.0 291.4Q94.7 292.1 93 292.1L93 292.1Q91.3 292.1 90.0 291.4Q88.7 290.6 88.1 289.1Q87.4 287.7 87.4 285.6L87.4 285.6Q87.4 283.6 88.1 282.1Q88.7 280.6 90.0 279.8Q91.3 279.0 93 279.0L93 279.0ZM93 281.2Q91.7 281.2 91.1 282.2Q90.5 283.3 90.5 285.6L90.5 285.6Q90.5 287.9 91.1 288.9Q91.7 290.0 93 290.0L93 290.0Q94.3 290.0 94.9 288.9Q95.5 287.9 95.5 285.6L95.5 285.6Q95.5 283.3 94.9 282.2Q94.3 281.2 93 281.2L93 281.2ZM112.0 279.4L112.0 287.7Q112.0 289.0 111.4 290.0Q110.9 291.0 109.8 291.6Q108.7 292.1 107.1 292.1L107.1 292.1Q104.7 292.1 103.5 290.9Q102.2 289.7 102.2 287.7L102.2 287.7L102.2 279.4L105.2 279.4L105.2 287.6Q105.2 288.8 105.6 289.4Q106.1 289.9 107.1 289.9L107.1 289.9Q108.1 289.9 108.5 289.4Q109.0 288.8 109.0 287.6L109.0 287.6L109.0 279.4L112.0 279.4ZM122.8 291.8L120.2 287.1L119.1 287.1L119.1 291.8L116.1 291.8L116.1 279.4L120.2 279.4Q122.8 279.4 124.0 280.3Q125.3 281.2 125.3 283.2L125.3 283.2Q125.3 284.4 124.8 285.2Q124.2 286.0 122.9 286.5L122.9 286.5L126.1 291.8L122.8 291.8ZM119.1 281.4L119.1 285.0L120.3 285.0Q121.3 285.0 121.8 284.6Q122.3 284.1 122.3 283.2L122.3 283.2Q122.3 282.3 121.8 281.8Q121.2 281.4 120.1 281.4L120.1 281.4L119.1 281.4Z M142.1 291.8L139.6 287.1L138.4 287.1L138.4 291.8L135.5 291.8L135.5 279.4L139.6 279.4Q142.1 279.4 143.4 280.3Q144.7 281.2 144.7 283.2L144.7 283.2Q144.7 284.4 144.1 285.2Q143.6 286.0 142.3 286.5L142.3 286.5L145.5 291.8L142.1 291.8ZM138.4 281.4L138.4 285.0L139.7 285.0Q140.7 285.0 141.2 284.6Q141.7 284.1 141.7 283.2L141.7 283.2Q141.7 282.3 141.1 281.8Q140.6 281.4 139.5 281.4L139.5 281.4L138.4 281.4ZM158.3 291.8L155.2 291.8L154.5 289.1L150.9 289.1L150.3 291.8L147.2 291.8L151.0 279.4L154.5 279.4L158.3 291.8ZM152.7 281.5L151.4 287.0L154.0 287.0L152.7 281.5ZM161.2 279.4L164.2 279.4L164.2 291.8L161.2 291.8L161.2 279.4ZM178.1 279.4L178.1 291.8L174.3 291.8L170.7 282.2Q170.9 283.6 171.0 284.7Q171.1 285.8 171.1 287.3L171.1 287.3L171.1 291.8L168.5 291.8L168.5 279.4L172.2 279.4L175.9 289.0Q175.5 286.6 175.5 284.4L175.5 284.4L175.5 279.4L178.1 279.4Z M190.2 291.4L198.6 278.9L200.3 280.0L192.0 292.6L190.2 291.4ZM191.2 279.4Q192.1 279.4 192.9 279.8Q193.6 280.2 194.0 280.9Q194.4 281.7 194.4 282.6L194.4 282.6Q194.4 283.6 194.0 284.4Q193.6 285.1 192.9 285.5Q192.1 285.9 191.2 285.9L191.2 285.9Q190.3 285.9 189.6 285.5Q188.9 285.1 188.5 284.4Q188.0 283.6 188.0 282.6L188.0 282.6Q188.0 281.7 188.5 280.9Q188.9 280.2 189.6 279.8Q190.3 279.4 191.2 279.4L191.2 279.4ZM191.2 281.1Q190.1 281.1 190.1 282.6L190.1 282.6Q190.1 283.3 190.3 283.7Q190.6 284.2 191.2 284.2L191.2 284.2Q192.4 284.2 192.4 282.6L192.4 282.6Q192.4 281.1 191.2 281.1L191.2 281.1ZM199.3 285.7Q200.2 285.7 200.9 286.1Q201.6 286.5 202.0 287.2Q202.5 287.9 202.5 288.9L202.5 288.9Q202.5 289.9 202.0 290.6Q201.6 291.3 200.9 291.7Q200.2 292.1 199.3 292.1L199.3 292.1Q198.4 292.1 197.6 291.7Q196.9 291.3 196.5 290.6Q196.0 289.9 196.0 288.9L196.0 288.9Q196.0 287.9 196.5 287.2Q196.9 286.5 197.6 286.1Q198.4 285.7 199.3 285.7L199.3 285.7ZM199.3 287.4Q198.1 287.4 198.1 288.9L198.1 288.9Q198.1 289.6 198.3 290.0Q198.6 290.4 199.3 290.4L199.3 290.4Q200.4 290.4 200.4 288.9L200.4 288.9Q200.4 287.4 199.3 287.4L199.3 287.4Z "/><defs><clipPath id="satori_bc-id-1-1"><rect x="40" y="305" width="880" height="150"/></clipPath></defs><mask id="satori_om-id-1-1"><rect x="40" y="305" width="880" height="148" fill="#fff"/><path width="880" height="150" fill="none" stroke="#000" stroke-width="4" d="M920,455 A0,0 0 0 1 920,455 h-880 A0,0 0 0 1 40,455"/></mask><path width="880" height="150" clip-path="url(#satori_bc-id-1-1)" fill="none" stroke="#000" stroke-width="4" d="M920,455 A0,0 0 0 1 920,455 h-880 A0,0 0 0 1 40,455"/><clipPath id="satori_cp-id-1-1-0"><rect x="40" y="305" width="880" height="150"/></clipPath><mask id="satori_om-id-1-1-0"><rect x="40" y="305" width="880" height="150" fill="#fff"/></mask><image x="40" y="305" width="880" height="150" href="data:image/svg+xml;utf8,%3Csvg  xmlns=%22http://www.w3.org/2000/svg%22 width=%22Infinity%22 height=%22NaN%22%3E%3Cpolygon points=%220,140.75 38.26086956521739,140.75 76.52173913043478,133.5 114.78260869565217,126.25 153.04347826086956,111.75 191.30434782608694,90 229.56521739130434,68.25 267.82608695652175,46.5 306.0869565217391,39.25 344.34782608695656,53.75 382.6086956521739,75.5 420.8695652173913,97.25 459.1304347826087,111.75 497.39130434782606,119 535.6521739130435,126.25 573.9130434782609,133.5 612.1739130434783,133.5 650.4347826086956,126.25 688.6956521739131,119 726.9565217391305,126.25 765.2173913043478,133.5 803.4782608695651,140.75 841.7391304347826,140.75 880,140.75 880,150 0,150%22 fill=%22%23ccc%22 shape-rendering=%22crispEdges%22%3E%3C/polygon%3E%3Cpolyline points=%220,140.75 38.26086956521739,140.75 76.52173913043478,133.5 114.78260869565217,126.25 153.04347826086956,111.75 191.30434782608694,90 229.56521739130434,68.25 267.82608695652175,46.5 306.0869565217391,39.25 344.34782608695656,53.75 382.6086956521739,75.5 420.8695652173913,97.25 459.1304347826087,111.75 497.39130434782606,119 535.6521739130435,126.25 573.9130434782609,133.5 612.1739130434783,133.5 650.4347826086956,126.25 688.6956521739131,119 726.9565217391305,126.25 765.2173913043478,133.5 803.4782608695651,140.75 841.7391304347826,140.75 880,140.75%22 stroke=%22%23000%22 stroke-width=%223%22 fill=%22none%22%3E%3C/polyline%3E%3C/svg%3E" preserveAspectRatio="none" clip-path="url(#satori_cp-id-1-1-0)" mask="url(#satori_om-id-1-1-0)"/><mask id="satori_om-id-1-1-0-0"><rect x="40" y="305" width="0" height="150" fill="#fff"/></mask><mask id="satori_om-id-1-1-0-1"><rect x="40" y="305" width="0" height="150" fill="#fff"/></mask><mask id="satori_om-id-1-2"><rect x="40" y="459" width="880" height="22" fill="#fff"/></mask><mask id="satori_om-id-1-2-0"><rect x="143" y="459" width="50" height="21" fill="#fff"/></mask><path fill="#333" d="M163.9 467.2Q164.8 467.2 165.6 467.6Q166.3 468.1 166.7 468.9Q167.2 469.8 167.2 471.0L167.2 471.0Q167.2 472.1 166.7 473.1Q166.1 474.1 165.2 474.6Q164.3 475.2 163.0 475.2L163.0 475.2Q160.8 475.2 159.7 473.7Q158.6 472.2 158.6 469.6L158.6 469.6Q158.6 467.7 159.2 466.2Q159.9 464.8 161.0 464.0Q162.1 463.2 163.6 463.2L163.6 463.2Q165.1 463.2 166.3 463.9L166.3 463.9L165.3 465.5Q164.5 465.1 163.7 465.1L163.7 465.1Q162.7 465.1 162.1 465.9Q161.6 466.7 161.4 468.2L161.4 468.2Q162.5 467.2 163.9 467.2L163.9 467.2ZM163.0 473.3Q163.7 473.3 164.1 472.7Q164.5 472.1 164.5 471.0L164.5 471.0Q164.5 469.9 164.1 469.5Q163.8 469.0 163.1 469.0L163.1 469.0Q162.2 469.0 161.4 469.9L161.4 469.9Q161.5 471.7 161.8 472.5Q162.2 473.3 163.0 473.3L163.0 473.3ZM173.7 465.6Q175.4 465.6 176.3 466.8Q177.1 468.1 177.1 470.4L177.1 470.4Q177.1 471.8 176.7 472.8Q176.2 473.9 175.4 474.6Q174.6 475.2 173.5 475.2L173.5 475.2Q172.2 475.2 171.3 474.2L171.3 474.2L171.3 478.4L168.6 478.7L168.6 465.9L171.0 465.9L171.1 466.9Q171.7 466.2 172.3 465.9Q173.0 465.6 173.7 465.6L173.7 465.6ZM172.7 473.2Q174.3 473.2 174.3 470.4L174.3 470.4Q174.3 468.8 174.0 468.2Q173.6 467.6 172.9 467.6L172.9 467.6Q172.4 467.6 172.0 467.8Q171.6 468.1 171.3 468.6L171.3 468.6L171.3 472.4Q171.9 473.2 172.7 473.2L172.7 473.2Z "/><mask id="satori_om-id-1-2-1"><rect x="363" y="459" width="50" height="21" fill="#fff"/></mask><path fill="#333" d="M379.1 463.4L381.5 463.4L381.5 474.9L378.9 474.9L378.9 466.0L376.4 467.5L375.2 465.7L379.1 463.4ZM386.9 463.2Q388.2 463.2 389.1 463.6Q390.0 464.0 390.4 464.8Q390.9 465.5 390.9 466.4L390.9 466.4Q390.9 467.4 390.5 468.2Q390.1 469.0 389.2 470.1Q388.2 471.2 386.4 472.8L386.4 472.8L391.1 472.8L390.9 474.9L383.4 474.9L383.4 473.0Q385.5 470.9 386.4 469.9Q387.4 468.8 387.8 468.1Q388.1 467.4 388.1 466.7L388.1 466.7Q388.1 466.0 387.7 465.6Q387.3 465.2 386.7 465.2L386.7 465.2Q386.0 465.2 385.6 465.5Q385.1 465.8 384.6 466.4L384.6 466.4L383.0 465.2Q383.7 464.2 384.7 463.7Q385.7 463.2 386.9 463.2L386.9 463.2ZM399.9 472.3Q399.9 472.8 400.0 473.0Q400.2 473.3 400.5 473.4L400.5 473.4L400.0 475.1Q399.1 475.1 398.6 474.8Q398.1 474.5 397.8 473.8L397.8 473.8Q396.9 475.2 395.1 475.2L395.1 475.2Q393.7 475.2 392.9 474.4Q392.1 473.6 392.1 472.4L392.1 472.4Q392.1 470.9 393.2 470.1Q394.3 469.3 396.4 469.3L396.4 469.3L397.3 469.3L397.3 468.9Q397.3 468.1 396.9 467.8Q396.6 467.5 395.7 467.5L395.7 467.5Q395.3 467.5 394.7 467.7Q394.0 467.8 393.4 468.0L393.4 468.0L392.8 466.2Q393.6 465.9 394.5 465.7Q395.4 465.6 396.2 465.6L396.2 465.6Q398.1 465.6 399.0 466.4Q399.9 467.2 399.9 468.8L399.9 468.8L399.9 472.3ZM395.8 473.3Q396.8 473.3 397.3 472.4L397.3 472.4L397.3 470.8L396.6 470.8Q395.7 470.8 395.2 471.1Q394.8 471.4 394.8 472.1L394.8 472.1Q394.8 472.7 395.1 473.0Q395.3 473.3 395.8 473.3L395.8 473.3Z "/><mask id="satori_om-id-1-2-2"><rect x="583" y="459" width="50" height="21" fill="#fff"/></mask><path fill="#333" d="M603.9 467.2Q604.8 467.2 605.6 467.6Q606.3 468.1 606.7 468.9Q607.2 469.8 607.2 471.0L607.2 471.0Q607.2 472.1 606.7 473.1Q606.1 474.1 605.2 474.6Q604.3 475.2 603.0 475.2L603.0 475.2Q600.8 475.2 599.7 473.7Q598.6 472.2 598.6 469.6L598.6 469.6Q598.6 467.7 599.2 466.2Q599.9 464.8 601.0 464.0Q602.1 463.2 603.6 463.2L603.6 463.2Q605.1 463.2 606.3 463.9L606.3 463.9L605.3 465.5Q604.5 465.1 603.7 465.1L603.7 465.1Q602.7 465.1 602.1 465.9Q601.6 466.7 601.4 468.2L601.4 468.2Q602.5 467.2 603.9 467.2L603.9 467.2ZM603.0 473.3Q603.7 473.3 604.1 472.7Q604.5 472.1 604.5 471.0L604.5 471.0Q604.5 469.9 604.1 469.5Q603.8 469.0 603.1 469.0L603.1 469.0Q602.2 469.0 601.4 469.9L601.4 469.9Q601.5 471.7 601.8 472.5Q602.2 473.3 603.0 473.3L603.0 473.3ZM615.8 472.3Q615.8 472.8 616.0 473.0Q616.1 473.3 616.4 473.4L616.4 473.4L615.9 475.1Q615.0 475.1 614.5 474.8Q614.0 474.5 613.7 473.8L613.7 473.8Q612.8 475.2 611.0 475.2L611.0 475.2Q609.6 475.2 608.8 474.4Q608.0 473.6 608.0 472.4L608.0 472.4Q608.0 470.9 609.1 470.1Q610.2 469.3 612.3 469.3L612.3 469.3L613.2 469.3L613.2 468.9Q613.2 468.1 612.8 467.8Q612.5 467.5 611.7 467.5L611.7 467.5Q611.2 467.5 610.6 467.7Q610.0 467.8 609.3 468.0L609.3 468.0L608.7 466.2Q609.5 465.9 610.4 465.7Q611.3 465.6 612.1 465.6L612.1 465.6Q614.0 465.6 614.9 466.4Q615.8 467.2 615.8 468.8L615.8 468.8L615.8 472.3ZM611.8 473.3Q612.7 473.3 613.2 472.4L613.2 472.4L613.2 470.8L612.5 470.8Q611.6 470.8 611.1 471.1Q610.7 471.4 610.7 472.1L610.7 472.1Q610.7 472.7 611.0 473.0Q611.3 473.3 611.8 473.3L611.8 473.3Z "/><mask id="satori_om-id-1-2-3"><rect x="803" y="459" width="50" height="21" fill="#fff"/></mask><path fill="#333" d="M818.1 463.4L820.5 463.4L820.5 474.9L817.9 474.9L817.9 466.0L815.4 467.5L814.2 465.7L818.1 463.4ZM825.9 463.2Q827.2 463.2 828.1 463.6Q829.0 464.0 829.4 464.8Q829.9 465.5 829.9 466.4L829.9 466.4Q829.9 467.4 829.5 468.2Q829.1 469.0 828.2 470.1Q827.2 471.2 825.4 472.8L825.4 472.8L830.1 472.8L829.9 474.9L822.4 474.9L822.4 473.0Q824.5 470.9 825.4 469.9Q826.4 468.8 826.8 468.1Q827.1 467.4 827.1 466.7L827.1 466.7Q827.1 466.0 826.7 465.6Q826.3 465.2 825.7 465.2L825.7 465.2Q825.1 465.2 824.6 465.5Q824.1 465.8 823.6 466.4L823.6 466.4L822.0 465.2Q822.7 464.2 823.7 463.7Q824.7 463.2 825.9 463.2L825.9 463.2ZM836.8 465.6Q838.5 465.6 839.4 466.8Q840.2 468.1 840.2 470.4L840.2 470.4Q840.2 471.8 839.8 472.8Q839.3 473.9 838.5 474.6Q837.7 475.2 836.6 475.2L836.6 475.2Q835.3 475.2 834.4 474.2L834.4 474.2L834.4 478.4L831.7 478.7L831.7 465.9L834.1 465.9L834.2 466.9Q834.8 466.2 835.4 465.9Q836.1 465.6 836.8 465.6L836.8 465.6ZM835.8 473.2Q837.4 473.2 837.4 470.4L837.4 470.4Q837.4 468.8 837.1 468.2Q836.7 467.6 836.0 467.6L836.0 467.6Q835.5 467.6 835.1 467.8Q834.7 468.1 834.4 468.6L834.4 468.6L834.4 472.4Q835.0 473.2 835.8 473.2L835.8 473.2Z "/><mask id="satori_om-id-2"><rect x="0" y="480" width="960" height="70" fill="#fff"/></mask><mask id="satori_om-id-2-0"><rect x="40" y="494" width="291" height="32" fill="#fff"/></mask><mask id="satori_om-id-2-0-0"><rect x="40" y="494" width="134" height="32" fill="#fff"/></mask><path fill="#000" d="M50.5 518.3L50.5 504.2Q49.9 505.3 48.9 506.2L48.9 506.2L45.0 509.8L43.6 508.2L51.7 500.9L59.8 508.2L58.4 509.8L54.5 506.2Q53.5 505.3 52.9 504.2L52.9 504.2L52.9 518.3L50.5 518.3Z M77.5 500.7Q80.4 500.7 81.9 503.0Q83.4 505.3 83.4 509.6L83.4 509.6Q83.4 514.0 81.9 516.3Q80.4 518.6 77.5 518.6L77.5 518.6Q74.7 518.6 73.2 516.3Q71.7 514.0 71.7 509.6L71.7 509.6Q71.7 505.3 73.2 503.0Q74.7 500.7 77.5 500.7L77.5 500.7ZM77.5 502.6Q75.9 502.6 75.0 504.2Q74.2 505.9 74.2 509.6L74.2 509.6Q74.2 513.4 75.0 515.0Q75.9 516.7 77.5 516.7L77.5 516.7Q79.2 516.7 80.0 515.0Q80.9 513.4 80.9 509.6L80.9 509.6Q80.9 505.9 80.0 504.2Q79.2 502.6 77.5 502.6L77.5 502.6ZM92.8 506.9Q94.1 506.9 95.2 507.5Q96.3 508.1 97.0 509.4Q97.6 510.6 97.6 512.4L97.6 512.4Q97.6 514.3 96.9 515.7Q96.1 517.1 94.9 517.9Q93.6 518.6 92.1 518.6L92.1 518.6Q89.0 518.6 87.6 516.4Q86.2 514.1 86.2 510.1L86.2 510.1Q86.2 507.3 87.0 505.2Q87.8 503.0 89.3 501.8Q90.8 500.7 92.8 500.7L92.8 500.7Q94.8 500.7 96.4 501.7L96.4 501.7L95.5 503.3Q94.2 502.6 92.8 502.6L92.8 502.6Q90.9 502.6 89.8 504.3Q88.7 506.1 88.6 509.2L88.6 509.2Q90.2 506.9 92.8 506.9L92.8 506.9ZM92.1 516.7Q93.6 516.7 94.4 515.6Q95.2 514.4 95.2 512.5L95.2 512.5Q95.2 508.8 92.4 508.8L92.4 508.8Q91.2 508.8 90.3 509.4Q89.3 510.0 88.6 511.2L88.6 511.2Q88.7 514.0 89.5 515.4Q90.4 516.7 92.1 516.7L92.1 516.7ZM101.8 515.0Q102.5 515.0 103.1 515.5Q103.6 516.0 103.6 516.8L103.6 516.8Q103.6 517.6 103.1 518.1Q102.5 518.6 101.8 518.6L101.8 518.6Q101.0 518.6 100.5 518.1Q100.0 517.6 100.0 516.8L100.0 516.8Q100.0 516.0 100.5 515.5Q101.0 515.0 101.8 515.0L101.8 515.0ZM101.8 505.4Q102.5 505.4 103.1 506.0Q103.6 506.5 103.6 507.2L103.6 507.2Q103.6 508.0 103.1 508.5Q102.5 509.1 101.8 509.1L101.8 509.1Q101.0 509.1 100.5 508.5Q100.0 508.0 100.0 507.2L100.0 507.2Q100.0 506.5 100.5 506.0Q101.0 505.4 101.8 505.4L101.8 505.4ZM115.7 512.1L117.9 512.1L117.9 514.0L115.7 514.0L115.7 518.3L113.4 518.3L113.4 514.0L105.9 514.0L105.9 512.3L111.2 500.7L113.2 501.5L108.5 512.1L113.4 512.1L113.6 507.4L115.7 507.4L115.7 512.1ZM130.0 500.9L129.6 502.8L122.9 502.8L122.9 507.9Q124.2 507.2 125.6 507.2L125.6 507.2Q127.9 507.2 129.2 508.7Q130.6 510.2 130.6 512.7L130.6 512.7Q130.6 514.5 129.8 515.8Q129.1 517.1 127.7 517.9Q126.3 518.6 124.6 518.6L124.6 518.6Q123.0 518.6 121.7 518.1Q120.5 517.5 119.4 516.4L119.4 516.4L120.8 515.0Q121.6 515.9 122.5 516.3Q123.4 516.7 124.5 516.7L124.5 516.7Q126.2 516.7 127.1 515.6Q128.1 514.6 128.1 512.7L128.1 512.7Q128.1 510.8 127.2 509.9Q126.4 509.1 124.9 509.1L124.9 509.1Q124.2 509.1 123.7 509.2Q123.1 509.4 122.4 509.7L122.4 509.7L120.6 509.7L120.6 500.9L130.0 500.9Z M153.4 518.3L150.8 518.3L149.4 513.8L142.6 513.8L141.3 518.3L138.8 518.3L144.5 500.4L147.7 500.4L153.4 518.3ZM146.1 502.4L143.2 511.8L148.8 511.8L146.1 502.4ZM170.7 500.4L172.2 518.3L169.8 518.3L169.1 510.2Q168.8 505.5 168.7 502.9L168.7 502.9L164.8 516.3L162.5 516.3L158.4 502.9Q158.4 506.1 158.1 510.4L158.1 510.4L157.5 518.3L155.2 518.3L156.6 500.4L160.0 500.4L163.7 513.4L167.3 500.4L170.7 500.4Z "/><mask id="satori_om-id-2-0-1"><rect x="198" y="494" width="133" height="32" fill="#fff"/></mask><path fill="#000" d="M210.9 501.8L210.9 515.9Q211.5 514.8 212.5 513.9L212.5 513.9L216.4 510.3L217.8 511.9L209.7 519.2L201.6 511.9L203.0 510.3L206.9 513.9Q207.9 514.8 208.5 515.9L208.5 515.9L208.5 501.8L210.9 501.8Z M235.5 500.7Q238.4 500.7 239.9 503.0Q241.4 505.3 241.4 509.6L241.4 509.6Q241.4 514.0 239.9 516.3Q238.4 518.6 235.5 518.6L235.5 518.6Q232.7 518.6 231.2 516.3Q229.7 514.0 229.7 509.6L229.7 509.6Q229.7 505.3 231.2 503.0Q232.7 500.7 235.5 500.7L235.5 500.7ZM235.5 502.6Q233.9 502.6 233.0 504.2Q232.2 505.9 232.2 509.6L232.2 509.6Q232.2 513.4 233.0 515.0Q233.9 516.7 235.5 516.7L235.5 516.7Q237.2 516.7 238.0 515.0Q238.9 513.4 238.9 509.6L238.9 509.6Q238.9 505.9 238.0 504.2Q237.2 502.6 235.5 502.6L235.5 502.6ZM243.4 500.9L253.6 500.9L253.6 502.7L247.1 518.6L244.9 517.8L251.1 502.9L243.4 502.9L243.4 500.9ZM257.4 515.0Q258.2 515.0 258.7 515.5Q259.3 516.0 259.3 516.8L259.3 516.8Q259.3 517.6 258.7 518.1Q258.2 518.6 257.4 518.6L257.4 518.6Q256.7 518.6 256.2 518.1Q255.6 517.6 255.6 516.8L255.6 516.8Q255.6 516.0 256.2 515.5Q256.7 515.0 257.4 515.0L257.4 515.0ZM257.4 505.4Q258.2 505.4 258.7 506.0Q259.3 506.5 259.3 507.2L259.3 507.2Q259.3 508.0 258.7 508.5Q258.2 509.1 257.4 509.1L257.4 509.1Q256.7 509.1 256.2 508.5Q255.6 508.0 255.6 507.2L255.6 507.2Q255.6 506.5 256.2 506.0Q256.7 505.4 257.4 505.4L257.4 505.4ZM266.5 500.7Q268.1 500.7 269.3 501.3Q270.4 501.9 271.1 503.0Q271.7 504.1 271.7 505.4L271.7 505.4Q271.7 507.0 271.0 508.5Q270.3 509.9 268.8 511.6Q267.3 513.3 264.3 516.3L264.3 516.3L272.2 516.3L271.9 518.3L261.6 518.3L261.6 516.4Q265.1 512.8 266.5 511.1Q268.0 509.4 268.6 508.2Q269.2 506.9 269.2 505.5L269.2 505.5Q269.2 504.2 268.5 503.4Q267.7 502.6 266.4 502.6L266.4 502.6Q265.3 502.6 264.5 503.1Q263.7 503.5 262.8 504.5L262.8 504.5L261.2 503.3Q262.3 502.0 263.6 501.3Q264.9 500.7 266.5 500.7L266.5 500.7ZM282.9 509.0Q286.6 510.5 286.6 513.7L286.6 513.7Q286.6 515.1 285.8 516.2Q285.1 517.3 283.7 518.0Q282.3 518.6 280.6 518.6L280.6 518.6Q278.8 518.6 277.5 518.0Q276.1 517.4 275.4 516.3Q274.6 515.1 274.6 513.7L274.6 513.7Q274.6 512.1 275.5 511.0Q276.4 509.9 278.1 509.2L278.1 509.2Q276.7 508.5 276.0 507.5Q275.4 506.5 275.4 505.1L275.4 505.1Q275.4 503.7 276.1 502.7Q276.8 501.7 278.0 501.2Q279.3 500.7 280.6 500.7L280.6 500.7Q282.0 500.7 283.2 501.1Q284.4 501.6 285.2 502.6Q285.9 503.6 285.9 505.0L285.9 505.0Q285.9 506.3 285.2 507.3Q284.5 508.2 282.9 509.0L282.9 509.0ZM280.6 502.4Q279.3 502.4 278.5 503.2Q277.7 503.9 277.7 505.2L277.7 505.2Q277.7 506.4 278.5 507.1Q279.2 507.7 280.9 508.2L280.9 508.2L281.4 508.4Q282.5 507.7 283.0 507.0Q283.6 506.2 283.6 505.1L283.6 505.1Q283.6 503.9 282.8 503.2Q282.0 502.4 280.6 502.4L280.6 502.4ZM280.6 516.7Q282.2 516.7 283.2 515.9Q284.1 515.1 284.1 513.7L284.1 513.7Q284.1 512.7 283.7 512.1Q283.4 511.5 282.6 511.0Q281.8 510.5 280.3 510.0L280.3 510.0L279.7 509.8Q278.4 510.4 277.7 511.4Q277.1 512.3 277.1 513.7L277.1 513.7Q277.1 515.1 278.1 515.9Q279.0 516.7 280.6 516.7L280.6 516.7Z M302.0 500.4Q305.3 500.4 307.1 501.8Q308.9 503.2 308.9 505.9L308.9 505.9Q308.9 508.9 307.0 510.3Q305.1 511.7 302 511.7L302 511.7L299.7 511.7L299.7 518.3L297.3 518.3L297.3 500.4L302.0 500.4ZM301.9 509.8Q304.1 509.8 305.2 508.9Q306.3 508.1 306.3 506.0L306.3 506.0Q306.3 504.0 305.2 503.2Q304.1 502.3 301.9 502.3L301.9 502.3L299.7 502.3L299.7 509.8L301.9 509.8ZM326.9 500.4L328.4 518.3L326.0 518.3L325.4 510.2Q325.0 505.5 324.9 502.9L324.9 502.9L321.1 516.3L318.7 516.3L314.7 502.9Q314.7 506.1 314.3 510.4L314.3 510.4L313.7 518.3L311.4 518.3L312.9 500.4L316.2 500.4L320.0 513.4L323.6 500.4L326.9 500.4Z "/><mask id="satori_om-id-2-1"><rect x="331" y="494" width="589" height="0" fill="#fff"/></mask></svg>