<svg width="960" height="540" viewBox="0 0 960 540" xmlns="http://www.w3.org/2000/svg"><mask id="satori_om-id"><rect x="0" y="0" width="960" height="540" fill="#fff"/></mask><rect x="0" y="0" width="960" height="540" fill="#fff"/><mask id="satori_om-id-0"><rect x="0" y="0" width="960" height="218" fill="#fff"/></mask><mask id="satori_om-id-0-0"><rect x="40" y="32" width="180" height="180" fill="#fff"/></mask><mask id="satori_om-id-0-0-0"><rect x="45" y="75" width="171" height="122" fill="#fff"/></mask><g  ><path fill="#000" d="M45 149.5L45 149.5Q45 158.1 49.2 165.4Q53.4 172.7 60.6 176.9Q67.8 181.1 76.3 181.1L76.3 181.1L145.1 181.1Q153.7 181.1 160.9 176.9Q168.2 172.7 172.4 165.4Q176.7 158.1 176.7 149.5L176.7 149.5Q176.7 143.2 174.0 136.9L174.0 136.9Q181.2 128.0 181.2 115.8L181.2 115.8Q181.2 109.0 178.6 102.9Q176.0 96.7 171.5 92.2Q167.1 87.8 160.9 85.2Q154.7 82.5 147.9 82.5L147.9 82.5Q133.8 82.5 123.3 93.6L123.3 93.6Q115.9 89.4 106.1 89.4L106.1 89.4Q92.7 89.4 82.4 97.8Q72.1 106.1 69.2 119.0L69.2 119.0Q58.5 121.5 51.8 130.0Q45 138.5 45 149.5ZM55.8 149.5L55.8 149.5Q55.8 141.6 61.2 135.8Q66.5 130.0 74.5 129.1L74.5 129.1L77.7 128.9Q78.9 128.9 78.9 127.7L78.9 127.7L79.3 124.3Q80.6 114.0 88.2 107.0Q95.9 100.1 106.1 100.1L106.1 100.1Q116.6 100.1 124.4 107.1Q132.2 114.0 133.1 124.3L133.1 124.3L133.6 128.0Q133.8 129.1 134.9 129.1L134.9 129.1L145.1 129.1Q153.5 129.1 159.6 135.1Q165.7 141.2 165.7 149.5L165.7 149.5Q165.7 158.2 159.6 164.3Q153.6 170.4 145.1 170.4L145.1 170.4L76.3 170.4Q68.0 170.4 61.9 164.2Q55.8 158.1 55.8 149.5ZM98.4 71.6L98.4 71.6Q98.4 73.9 100.0 75.6L100.0 75.6L104.2 79.6Q106.5 81.4 108.2 81.2L108.2 81.2Q110.2 81.2 111.7 79.6Q113.3 77.9 113.3 75.6Q113.3 73.3 111.6 71.9L111.6 71.9L107.8 67.7Q106.1 66.1 104.0 66.1L104.0 66.1Q101.7 66.1 100.0 67.7Q98.4 69.3 98.4 71.6ZM132.4 99.7L132.4 99.7Q139.0 93.3 147.9 93.3L147.9 93.3Q157.3 93.3 163.9 99.9Q170.5 106.4 170.5 115.8L170.5 115.8Q170.5 121.8 167.3 127.5L167.3 127.5Q158.1 118.4 145.1 118.4L145.1 118.4L143.1 118.4Q140.7 108.0 132.4 99.7ZM142.7 53.2L142.7 66.1Q142.7 68.6 144.2 70.1Q145.7 71.6 147.9 71.6L147.9 71.6Q150.4 71.6 151.9 70.1Q153.4 68.6 153.4 66.1L153.4 66.1L153.4 53.2Q153.4 50.9 151.8 49.4Q150.3 47.9 147.9 47.9L147.9 47.9Q145.7 47.9 144.2 49.4Q142.7 50.9 142.7 53.2L142.7 53.2ZM177.8 80.7L177.8 80.7Q177.8 83.2 179.2 84.7L179.2 84.7Q181.2 86.2 183.1 86.2L183.1 86.2Q184.9 86.2 186.9 84.7L186.9 84.7L196.0 75.6Q197.6 73.8 197.6 71.5L197.6 71.5Q197.6 69.2 196.0 67.7Q194.5 66.1 192.3 66.1L192.3 66.1Q190.0 66.1 188.6 67.7L188.6 67.7L179.2 76.8Q177.8 78.5 177.8 80.7ZM184.4 152.1Q182.8 153.7 182.8 155.9Q182.8 158.2 184.5 159.9L184.5 159.9L188.6 163.9Q190.0 165.5 192.3 165.5Q194.5 165.5 196.0 163.9Q197.6 162.3 197.6 159.9L197.6 159.9Q197.6 157.8 196.0 156.2L196.0 156.2L191.9 152.1Q190.4 150.6 188.3 150.6L188.3 150.6Q186.0 150.6 184.4 152.1ZM193.8 112.0Q192.1 113.6 192.1 115.8Q192.1 118.0 193.8 119.5L193.8 119.5Q195.4 121.1 197.7 121.1L197.7 121.1L210.7 121.1Q212.9 121.1 214.3 119.6Q215.8 118.1 215.8 115.8Q215.8 113.6 214.3 112.0Q212.9 110.4 210.7 110.4L210.7 110.4L197.7 110.4Q195.4 110.4 193.8 112.0Z "/></g><mask id="satori_om-id-0-1"><rect x="248" y="32" width="672" height="162" fill="#fff"/></mask><mask id="satori_om-id-0-1-0"><rect x="248" y="32" width="272" height="162" fill="#fff"/></mask><g  ><path fill="#000" d="M250.3 51.3L329 51.3L329 70.6L284.4 175.9L258.6 167.2L299.5 72.7L250.3 72.7L250.3 51.3ZM375.1 48.8Q388.2 48.8 397.7 53.5Q407.1 58.2 412.1 66.1Q417.0 74 417.0 83.5L417.0 83.5Q417.0 93.3 413.1 102.1Q409.1 110.9 399.0 122.3Q388.9 133.8 369.7 151.2L369.7 151.2L419.5 151.2L416.7 173L337.5 173L337.5 152.8Q359.6 131.1 369.7 120.0Q379.8 108.9 383.8 101.5Q387.9 94.2 387.9 86.4L387.9 86.4Q387.9 79.0 383.6 74.8Q379.4 70.6 372.2 70.6L372.2 70.6Q365.7 70.6 360.7 73.5Q355.6 76.5 350.1 83.2L350.1 83.2L333.3 69.9Q340.9 60.0 351.4 54.4Q361.9 48.8 375.1 48.8L375.1 48.8ZM464.5 106.6Q456.4 106.6 449.1 102.8Q441.7 99.0 437 91.9Q432.3 84.8 432.3 75.6L432.3 75.6Q432.3 66.4 436.9 59.5Q441.5 52.6 449.0 48.9Q456.4 45.2 464.5 45.2L464.5 45.2Q472.6 45.2 480.0 48.9Q487.4 52.6 492.0 59.5Q496.6 66.4 496.6 75.6L496.6 75.6Q496.6 85.0 492.0 92Q487.4 99.0 480.0 102.8Q472.6 106.6 464.5 106.6L464.5 106.6ZM464.5 89.8Q470.1 89.8 473.5 86.0Q477.0 82.1 477.0 75.6L477.0 75.6Q477.0 69.1 473.6 65.4Q470.3 61.6 464.5 61.6L464.5 61.6Q458.8 61.6 455.4 65.4Q451.9 69.1 451.9 75.6L451.9 75.6Q451.9 82.1 455.4 86.0Q458.8 89.8 464.5 89.8L464.5 89.8Z "/></g><mask id="satori_om-id-0-1-1"><rect x="540" y="55" width="119" height="116" fill="#fff"/></mask><mask id="satori_om-id-0-1-1-0"><rect x="540" y="55" width="119" height="58" fill="#fff"/></mask><g  ><path fill="#333" d="M568.8 100L561.0 100L561.0 85.7L551.0 85.7L551.0 100L543.1 100L543.1 66.7L551.0 66.7L551.0 79.6L561.0 79.6L561.0 66.7L568.8 66.7L568.8 100Z M584.0 67.6L604.9 67.6L604.9 72.7L593.0 100.8L586.2 98.5L597.1 73.3L584.0 73.3L584.0 67.6ZM625.8 82.6Q629.1 84.2 630.7 86.3Q632.3 88.4 632.3 91.2L632.3 91.2Q632.3 93.9 630.7 96.0Q629.2 98.2 626.4 99.5Q623.5 100.8 619.6 100.8L619.6 100.8Q615.8 100.8 613.0 99.5Q610.2 98.3 608.7 96.1Q607.2 94 607.2 91.4L607.2 91.4Q607.2 85.9 613.2 83.3L613.2 83.3Q608.5 80.5 608.5 75.6L608.5 75.6Q608.5 73.0 609.9 71.1Q611.4 69.1 613.9 68.0Q616.5 66.9 619.8 66.9L619.8 66.9Q624.7 66.9 627.9 69.1Q631.0 71.3 631.0 75.2L631.0 75.2Q631.0 77.4 629.7 79.3Q628.5 81.2 625.8 82.6L625.8 82.6ZM619.8 72.0Q618.0 72.0 616.9 73.0Q615.8 73.9 615.8 75.7L615.8 75.7Q615.8 77.3 616.8 78.4Q617.7 79.4 619.8 80.3L619.8 80.3L620.8 80.7Q622.4 79.6 623.0 78.4Q623.7 77.2 623.7 75.6L623.7 75.6Q623.7 74.0 622.7 73Q621.7 72.0 619.8 72.0L619.8 72.0ZM619.8 95.4Q622.1 95.4 623.4 94.2Q624.7 93.0 624.7 91.2L624.7 91.2Q624.7 89.2 623.6 88.1Q622.5 86.9 619.7 85.9L619.7 85.9L618.1 85.4Q614.8 87.2 614.8 91.0L614.8 91.0Q614.8 93.0 616.2 94.2Q617.5 95.4 619.8 95.4L619.8 95.4ZM644.2 82.3Q642.0 82.3 640.0 81.3Q638.1 80.3 636.8 78.4Q635.6 76.5 635.6 74.0L635.6 74.0Q635.6 71.6 636.8 69.7Q638.0 67.9 640.0 66.9Q642.0 65.9 644.2 65.9L644.2 65.9Q646.3 65.9 648.3 66.9Q650.3 67.9 651.5 69.7Q652.7 71.6 652.7 74.0L652.7 74.0Q652.7 76.5 651.5 78.4Q650.3 80.3 648.3 81.3Q646.3 82.3 644.2 82.3L644.2 82.3ZM644.2 77.8Q645.6 77.8 646.6 76.8Q647.5 75.8 647.5 74.0L647.5 74.0Q647.5 72.3 646.6 71.3Q645.7 70.3 644.2 70.3L644.2 70.3Q642.6 70.3 641.7 71.3Q640.8 72.3 640.8 74.0L640.8 74.0Q640.8 75.8 641.7 76.8Q642.6 77.8 644.2 77.8L644.2 77.8Z "/></g><mask id="satori_om-id-0-1-1-1"><rect x="540" y="113" width="119" height="58" fill="#fff"/></mask><g  ><path fill="#333" d="M543.1 124.7L551.0 124.7L551.0 151.8L564.0 151.8L563.1 158L543.1 158L543.1 124.7Z M592.6 136.2Q595.2 136.2 597.4 137.4Q599.5 138.7 600.7 141.1Q601.9 143.6 601.9 146.9L601.9 146.9Q601.9 150.2 600.4 152.9Q599.0 155.6 596.3 157.2Q593.7 158.8 590.1 158.8L590.1 158.8Q583.9 158.8 580.8 154.6Q577.8 150.5 577.8 143.2L577.8 143.2Q577.8 137.7 579.5 133.6Q581.2 129.4 584.4 127.2Q587.6 124.9 591.9 124.9L591.9 124.9Q596.1 124.9 599.3 127.0L599.3 127.0L596.5 131.6Q594.4 130.3 592.1 130.3L592.1 130.3Q589.4 130.3 587.7 132.6Q586.0 134.9 585.7 139.1L585.7 139.1Q588.6 136.2 592.6 136.2L592.6 136.2ZM590.2 153.4Q592.2 153.4 593.3 151.7Q594.3 150.0 594.3 147.0L594.3 147.0Q594.3 144.0 593.3 142.7Q592.4 141.4 590.4 141.4L590.4 141.4Q587.9 141.4 585.7 143.9L585.7 143.9Q585.8 149.1 586.8 151.2Q587.8 153.4 590.2 153.4L590.2 153.4ZM614.6 125.6L621.4 125.6L621.4 158L614.0 158L614.0 132.9L607.0 137.2L603.7 132.2L614.6 125.6ZM635.8 140.3Q633.6 140.3 631.7 139.3Q629.7 138.3 628.5 136.4Q627.2 134.5 627.2 132.0L627.2 132.0Q627.2 129.6 628.4 127.7Q629.7 125.9 631.7 124.9Q633.6 123.9 635.8 123.9L635.8 123.9Q638.0 123.9 639.9 124.9Q641.9 125.9 643.1 127.7Q644.4 129.6 644.4 132.0L644.4 132.0Q644.4 134.5 643.1 136.4Q641.9 138.3 639.9 139.3Q638.0 140.3 635.8 140.3L635.8 140.3ZM635.8 135.8Q637.3 135.8 638.2 134.8Q639.1 133.8 639.1 132.0L639.1 132.0Q639.1 130.3 638.2 129.3Q637.3 128.3 635.8 128.3L635.8 128.3Q634.3 128.3 633.4 129.3Q632.4 130.3 632.4 132.0L632.4 132.0Q632.4 133.8 633.4 134.8Q634.3 135.8 635.8 135.8L635.8 135.8Z "/></g><mask id="satori_om-id-0-1-2"><rect x="734" y="56" width="186" height="108" fill="#fff"/></mask><mask id="satori_om-id-0-1-2-0"><rect x="734" y="78" width="64" height="64" fill="#fff"/></mask><clipPath id="satori_cp-id-0-1-2-0-0"><rect x="734" y="78" width="64" height="64"/></clipPath><mask id="satori_om-id-0-1-2-0-0"><rect x="734" y="78" width="64" height="64" fill="#fff"/></mask><image x="734" y="78" width="64" height="64" href="data:image/svg+xml;utf8,%3Csvg  xmlns=%22http://www.w3.org/2000/svg%22 width=%22Infinity%22 height=%22NaN%22%3E%3Ccircle cx=%2232%22 cy=%2232%22 r=%2219.2%22 stroke=%22%23000%22 stroke-width=%223%22 fill=%22%23fff%22%3E%3C/circle%3E%3Cline x1=%2255.04%22 y1=%2232%22 x2=%2262.72%22 y2=%2232%22 stroke=%22%23000%22 stroke-width=%223%22 stroke-linecap=%22round%22%3E%3C/line%3E%3Cline x1=%2248.291740238538054%22 y1=%2248.291740238538054%22 x2=%2253.72232031805074%22 y2=%2253.722320318050734%22 stroke=%22%23000%22 stroke-width=%223%22 stroke-linecap=%22round%22%3E%3C/line%3E%3Cline x1=%2232%22 y1=%2255.04%22 x2=%2232%22 y2=%2262.72%22 stroke=%22%23000%22 stroke-width=%223%22 stroke-linecap=%22round%22%3E%3C/line%3E%3Cline x1=%2215.708259761461946%22 y1=%2248.291740238538054%22 x2=%2210.277679681949262%22 y2=%2253.72232031805074%22 stroke=%22%23000%22 stroke-width=%223%22 stroke-linecap=%22round%22%3E%3C/line%3E%3Cline x1=%228.96%22 y1=%2232%22 x2=%221.2800000000000011%22 y2=%2232.00000000000001%22 stroke=%22%23000%22 stroke-width=%223%22 stroke-linecap=%22round%22%3E%3C/line%3E%3Cline x1=%2215.708259761461942%22 y1=%2215.708259761461946%22 x2=%2210.277679681949255%22 y2=%2210.277679681949262%22 stroke=%22%23000%22 stroke-width=%223%22 stroke-linecap=%22round%22%3E%3C/line%3E%3Cline x1=%2231.999999999999996%22 y1=%228.96%22 x2=%2231.999999999999993%22 y2=%221.2800000000000011%22 stroke=%22%23000%22 stroke-width=%223%22 stroke-linecap=%22round%22%3E%3C/line%3E%3Cline x1=%2248.291740238538054%22 y1=%2215.708259761461942%22 x2=%2253.722320318050734%22 y2=%2210.277679681949255%22 stroke=%22%23000%22 stroke-width=%223%22 stroke-linecap=%22round%22%3E%3C/line%3E%3C/svg%3E" preserveAspectRatio="none" clip-path="url(#satori_cp-id-0-1-2-0-0)" mask="url(#satori_om-id-0-1-2-0-0)"/><mask id="satori_om-id-0-1-2-0-0-0"><rect x="734" y="78" width="0" height="64" fill="#fff"/></mask><mask id="satori_om-id-0-1-2-0-0-1"><rect x="734" y="78" width="0" height="64" fill="#fff"/></mask><mask id="satori_om-id-0-1-2-0-0-2"><rect x="734" y="78" width="0" height="64" fill="#fff"/></mask><mask id="satori_om-id-0-1-2-0-0-3"><rect x="734" y="78" width="0" height="64" fill="#fff"/></mask><mask id="satori_om-id-0-1-2-0-0-4"><rect x="734" y="78" width="0" height="64" fill="#fff"/></mask><mask id="satori_om-id-0-1-2-0-0-5"><rect x="734" y="78" width="0" height="64" fill="#fff"/></mask><mask id="satori_om-id-0-1-2-0-0-6"><rect x="734" y="78" width="0" height="64" fill="#fff"/></mask><mask id="satori_om-id-0-1-2-0-0-7"><rect x="734" y="78" width="0" height="64" fill="#fff"/></mask><mask id="satori_om-id-0-1-2-0-0-8"><rect x="734" y="78" width="0" height="64" fill="#fff"/></mask><mask id="satori_om-id-0-1-2-0-1"><rect x="754" y="101" width="24" height="19" fill="#fff"/></mask><g  ><path fill="#000" d="M765.3 103.8L765.3 112.6Q765.3 114.0 764.7 115.0Q764.2 116.1 763.0 116.7Q761.8 117.3 760.2 117.3L760.2 117.3Q757.7 117.3 756.4 116.0Q755.0 114.8 755.0 112.6L755.0 112.6L755.0 103.8L758.2 103.8L758.2 112.5Q758.2 113.8 758.6 114.4Q759.1 115.0 760.2 115.0L760.2 115.0Q761.2 115.0 761.7 114.4Q762.2 113.8 762.2 112.5L762.2 112.5L762.2 103.8L765.3 103.8ZM774.3 103.8L777.5 103.8L773.8 117L769.9 117L766.1 103.8L769.4 103.8L771.9 114.6L774.3 103.8Z "/></g><mask id="satori_om-id-0-1-2-1"><rect x="810" y="56" width="68" height="108" fill="#fff"/></mask><g  ><path fill="#000" d="M851.4 95.4Q858.1 95.4 863.4 98.6Q868.7 101.8 871.7 107.8Q874.7 113.9 874.7 122.3L874.7 122.3Q874.7 130.6 871.1 137.3Q867.5 144.1 860.8 148.1Q854.2 152.0 845.3 152.0L845.3 152.0Q829.7 152.0 822.1 141.6Q814.6 131.2 814.6 112.9L814.6 112.9Q814.6 99.2 818.8 88.9Q823.1 78.6 831.1 72.9Q839.0 67.2 849.8 67.2L849.8 67.2Q860.3 67.2 868.3 72.6L868.3 72.6L861.4 83.9Q856.0 80.8 850.3 80.8L850.3 80.8Q843.5 80.8 839.3 86.5Q835.1 92.3 834.2 102.8L834.2 102.8Q841.6 95.4 851.4 95.4L851.4 95.4ZM845.5 138.5Q850.6 138.5 853.1 134.2Q855.7 130.0 855.7 122.5L855.7 122.5Q855.7 115.0 853.3 111.7Q850.9 108.5 846.1 108.5L846.1 108.5Q839.6 108.5 834.2 114.8L834.2 114.8Q834.5 127.7 837 133.1Q839.5 138.5 845.5 138.5L845.5 138.5Z "/></g><mask id="satori_om-id-0-1-2-2"><rect x="888" y="85" width="32" height="50" fill="#fff"/></mask><g  ><path fill="#333" d="M903.5 90.4Q910.3 90.4 914.0 94.4Q917.6 98.4 917.6 105.0L917.6 105.0Q917.6 112.7 915.1 117.7Q912.6 122.8 907.5 125.8Q902.3 128.9 894.0 130.6L894.0 130.6L892.3 124.4Q899.6 122.6 903.3 119.9Q907.0 117.2 908.1 112.3L908.1 112.3Q905.1 115.9 900.3 115.9L900.3 115.9Q897.3 115.9 894.8 114.4Q892.4 112.9 890.9 110.0Q889.5 107.2 889.5 103.4L889.5 103.4Q889.5 99.5 891.3 96.6Q893.2 93.6 896.4 92.0Q899.6 90.4 903.5 90.4L903.5 90.4ZM903.0 109.7Q904.6 109.7 906.1 108.8Q907.5 107.9 908.6 106.3L908.6 106.3Q908.7 101.1 907.5 98.9Q906.3 96.7 903.5 96.7L903.5 96.7Q901.1 96.7 899.7 98.3Q898.4 100.0 898.4 103.1L898.4 103.1Q898.4 106.6 899.6 108.1Q900.9 109.7 903.0 109.7L903.0 109.7Z "/></g><mask id="satori_om-id-1"><rect x="0" y="218" width="960" height="286" fill="#fff"/></mask><mask id="satori_om-id-1-0"><rect x="40" y="228" width="880" height="50" fill="#fff"/></mask><mask id="satori_om-id-1-0-0"><rect x="340" y="228" width="580" height="50" fill="#fff"/></mask><g  ><path fill="#333" d="M358.3 267L352.3 255.9L349.6 255.9L349.6 267L342.7 267L342.7 237.9L352.3 237.9Q358.2 237.9 361.2 240.1Q364.2 242.3 364.2 246.8L364.2 246.8Q364.2 249.6 362.9 251.4Q361.5 253.3 358.6 254.6L358.6 254.6L366.0 267L358.3 267ZM349.6 242.7L349.6 251.1L352.5 251.1Q354.8 251.1 356.0 250.1Q357.1 249.0 357.1 246.8L357.1 246.8Q357.1 244.7 355.9 243.7Q354.7 242.7 352.1 242.7L352.1 242.7L349.6 242.7ZM386.2 260.5Q386.2 261.8 386.6 262.4Q387.0 263.0 387.8 263.3L387.8 263.3L386.4 267.6Q384.3 267.4 383.0 266.7Q381.7 265.9 381.0 264.4L381.0 264.4Q378.8 267.7 374.3 267.7L374.3 267.7Q371.0 267.7 369.0 265.8Q367.0 263.9 367.0 260.7L367.0 260.7Q367.0 257.1 369.7 255.2Q372.4 253.2 377.5 253.2L377.5 253.2L379.7 253.2L379.7 252.3Q379.7 250.3 378.9 249.5Q378.1 248.8 376.0 248.8L376.0 248.8Q374.9 248.8 373.3 249.1Q371.8 249.4 370.1 250.0L370.1 250.0L368.6 245.6Q370.7 244.8 372.9 244.4Q375.1 244.0 377.0 244.0L377.0 244.0Q381.8 244.0 384.0 246.0Q386.2 247.9 386.2 251.9L386.2 251.9L386.2 260.5ZM376.2 263.0Q378.5 263.0 379.7 260.8L379.7 260.8L379.7 256.9L378.1 256.9Q375.8 256.9 374.7 257.7Q373.6 258.5 373.6 260.2L373.6 260.2Q373.6 261.5 374.3 262.2Q375.0 263.0 376.2 263.0L376.2 263.0ZM391.5 244.7L398.2 244.7L398.2 267L391.5 267L391.5 244.7ZM394.8 232.9Q396.5 232.9 397.6 234.0Q398.8 235.1 398.8 236.7L398.8 236.7Q398.8 238.4 397.6 239.4Q396.5 240.5 394.8 240.5L394.8 240.5Q393.1 240.5 392.0 239.4Q390.9 238.4 390.9 236.7L390.9 236.7Q390.9 235.1 392.0 234.0Q393.1 232.9 394.8 232.9L394.8 232.9ZM416.4 244.0Q419.3 244.0 421.0 245.7Q422.6 247.5 422.6 250.7L422.6 250.7L422.6 267L416.0 267L416.0 251.8Q416.0 250.2 415.5 249.5Q414.9 248.9 413.9 248.9L413.9 248.9Q411.9 248.9 410.0 251.8L410.0 251.8L410.0 267L403.4 267L403.4 244.7L409.2 244.7L409.6 247.3Q411.1 245.7 412.7 244.8Q414.4 244.0 416.4 244.0L416.4 244.0Z M449.3 261.8L451.6 265.9Q450.3 266.8 448.7 267.3Q447.1 267.7 445.5 267.7L445.5 267.7Q438.2 267.7 438.2 259.6L438.2 259.6L438.2 249.3L435.0 249.3L435.0 244.7L438.2 244.7L438.2 239.9L444.8 239.1L444.8 244.7L450.0 244.7L449.2 249.3L444.8 249.3L444.8 259.6Q444.8 261.1 445.3 261.8Q445.8 262.5 446.9 262.5L446.9 262.5Q448.1 262.5 449.3 261.8L449.3 261.8ZM466.8 244.0Q469.7 244.0 471.4 245.7Q473.0 247.5 473.0 250.7L473.0 250.7L473.0 267L466.4 267L466.4 251.8Q466.4 250.2 465.8 249.5Q465.3 248.9 464.3 248.9L464.3 248.9Q462.3 248.9 460.4 251.7L460.4 251.7L460.4 267L453.8 267L453.8 235.8L460.4 235.2L460.4 247.1Q461.8 245.5 463.4 244.8Q464.9 244.0 466.8 244.0L466.8 244.0ZM478.0 244.7L484.6 244.7L484.6 267L478.0 267L478.0 244.7ZM481.3 232.9Q483.0 232.9 484.1 234.0Q485.2 235.1 485.2 236.7L485.2 236.7Q485.2 238.4 484.1 239.4Q483.0 240.5 481.3 240.5L481.3 240.5Q479.6 240.5 478.5 239.4Q477.4 238.4 477.4 236.7L477.4 236.7Q477.4 235.1 478.5 234.0Q479.6 232.9 481.3 232.9L481.3 232.9ZM497.7 244.0Q500.1 244.0 502.2 244.7Q504.3 245.4 505.9 246.7L505.9 246.7L503.5 250.5Q500.7 248.7 498.0 248.7L498.0 248.7Q496.7 248.7 496.0 249.2Q495.3 249.6 495.3 250.4L495.3 250.4Q495.3 251.0 495.6 251.4Q495.9 251.8 496.9 252.3Q497.8 252.7 499.9 253.3L499.9 253.3Q503.3 254.3 505.0 255.9Q506.7 257.5 506.7 260.4L506.7 260.4Q506.7 262.6 505.4 264.3Q504.1 265.9 501.9 266.8Q499.6 267.7 496.8 267.7L496.8 267.7Q494.0 267.7 491.6 266.8Q489.2 265.9 487.5 264.4L487.5 264.4L490.7 260.8Q493.6 263.0 496.7 263.0L496.7 263.0Q498.2 263.0 499.0 262.4Q499.9 261.9 499.9 260.9L499.9 260.9Q499.9 260.1 499.6 259.6Q499.2 259.1 498.3 258.7Q497.3 258.3 495.2 257.8L495.2 257.8Q491.9 256.8 490.2 255.1Q488.6 253.3 488.6 250.8L488.6 250.8Q488.6 248.9 489.7 247.3Q490.8 245.8 492.9 244.9Q495.0 244.0 497.7 244.0L497.7 244.0Z M539.5 255.4Q539.5 256.8 539.4 257.8L539.4 257.8L525.6 257.8Q525.9 260.6 527.2 261.8Q528.5 262.9 530.7 262.9L530.7 262.9Q532.0 262.9 533.3 262.4Q534.5 261.9 536.0 260.9L536.0 260.9L538.7 264.6Q534.8 267.7 530.0 267.7L530.0 267.7Q524.6 267.7 521.7 264.5Q518.8 261.3 518.8 256.0L518.8 256.0Q518.8 252.6 520.1 249.8Q521.3 247.1 523.6 245.6Q526.0 244.0 529.3 244.0L529.3 244.0Q534.1 244.0 536.8 247.0Q539.5 250.0 539.5 255.4L539.5 255.4ZM533.0 253.8L533.0 253.5Q532.9 248.4 529.4 248.4L529.4 248.4Q527.7 248.4 526.8 249.7Q525.8 250.9 525.6 253.8L525.6 253.8L533.0 253.8ZM555.7 244.7L562.5 244.7L555.5 267L547.6 267L540.4 244.7L547.6 244.7L551.6 262.0L555.7 244.7ZM584.3 255.4Q584.3 256.8 584.1 257.8L584.1 257.8L570.3 257.8Q570.7 260.6 571.9 261.8Q573.2 262.9 575.4 262.9L575.4 262.9Q576.8 262.9 578.0 262.4Q579.3 261.9 580.7 260.9L580.7 260.9L583.5 264.6Q579.6 267.7 574.8 267.7L574.8 267.7Q569.4 267.7 566.5 264.5Q563.6 261.3 563.6 256.0L563.6 256.0Q563.6 252.6 564.8 249.8Q566.0 247.1 568.4 245.6Q570.7 244.0 574.0 244.0L574.0 244.0Q578.8 244.0 581.5 247.0Q584.3 250.0 584.3 255.4L584.3 255.4ZM577.8 253.8L577.8 253.5Q577.7 248.4 574.1 248.4L574.1 248.4Q572.4 248.4 571.5 249.7Q570.5 250.9 570.3 253.8L570.3 253.8L577.8 253.8ZM601.1 244.0Q604.0 244.0 605.6 245.7Q607.2 247.5 607.2 250.7L607.2 250.7L607.2 267L600.6 267L600.6 251.8Q600.6 250.2 600.1 249.5Q599.6 248.9 598.5 248.9L598.5 248.9Q596.5 248.9 594.6 251.8L594.6 251.8L594.6 267L588.0 267L588.0 244.7L593.8 244.7L594.3 247.3Q595.7 245.7 597.4 244.8Q599.0 244.0 601.1 244.0L601.1 244.0ZM612.2 244.7L618.9 244.7L618.9 267L612.2 267L612.2 244.7ZM615.5 232.9Q617.2 232.9 618.4 234.0Q619.5 235.1 619.5 236.7L619.5 236.7Q619.5 238.4 618.4 239.4Q617.2 240.5 615.5 240.5L615.5 240.5Q613.8 240.5 612.7 239.4Q611.6 238.4 611.6 236.7L611.6 236.7Q611.6 235.1 612.7 234.0Q613.8 232.9 615.5 232.9L615.5 232.9ZM637.2 244.0Q640.0 244.0 641.7 245.7Q643.3 247.5 643.3 250.7L643.3 250.7L643.3 267L636.7 267L636.7 251.8Q636.7 250.2 636.2 249.5Q635.6 248.9 634.6 248.9L634.6 248.9Q632.6 248.9 630.7 251.8L630.7 251.8L630.7 267L624.1 267L624.1 244.7L629.9 244.7L630.3 247.3Q631.8 245.7 633.4 244.8Q635.1 244.0 637.2 244.0L637.2 244.0ZM667.3 241.1L668.9 246Q666.7 246.9 662.4 246.9L662.4 246.9Q664.6 247.8 665.6 249.2Q666.6 250.5 666.6 252.6L666.6 252.6Q666.6 254.8 665.5 256.5Q664.4 258.2 662.2 259.1Q660.1 260.1 657.3 260.1L657.3 260.1Q655.9 260.1 654.7 259.9L654.7 259.9Q654.4 260.0 654.2 260.4Q654.0 260.7 654.0 261.1L654.0 261.1Q654.0 261.8 654.5 262.1Q655.0 262.5 656.4 262.5L656.4 262.5L659.8 262.5Q662.4 262.5 664.3 263.3Q666.2 264.1 667.3 265.6Q668.3 267.1 668.3 268.9L668.3 268.9Q668.3 272.4 665.3 274.4Q662.3 276.3 656.6 276.3L656.6 276.3Q652.6 276.3 650.2 275.5Q647.9 274.6 646.9 273.0Q646.0 271.5 646.0 269.1L646.0 269.1L651.9 269.1Q651.9 270.1 652.3 270.7Q652.7 271.3 653.8 271.6Q654.8 271.9 656.8 271.9L656.8 271.9Q659.5 271.9 660.6 271.3Q661.6 270.6 661.6 269.4L661.6 269.4Q661.6 268.4 660.8 267.8Q660.0 267.2 658.4 267.2L658.4 267.2L655.2 267.2Q651.8 267.2 650.1 266.0Q648.4 264.7 648.4 262.8L648.4 262.8Q648.4 261.6 649.1 260.4Q649.8 259.3 651.0 258.5L651.0 258.5Q648.9 257.4 648.0 255.8Q647.0 254.3 647.0 252.1L647.0 252.1Q647.0 248.4 649.7 246.2Q652.4 244.0 656.8 244.0L656.8 244.0Q660.2 244.1 662.5 243.3Q664.8 242.6 667.3 241.1L667.3 241.1ZM657.0 248.4Q655.4 248.4 654.5 249.3Q653.6 250.3 653.6 252.0L653.6 252.0Q653.6 253.9 654.5 254.8Q655.4 255.8 657.0 255.8L657.0 255.8Q658.6 255.8 659.5 254.9Q660.3 253.9 660.3 252.0L660.3 252.0Q660.3 248.4 657.0 248.4L657.0 248.4Z M683.9 250.3Q685.4 250.3 686.5 251.4Q687.6 252.5 687.6 254.1L687.6 254.1Q687.6 255.7 686.5 256.8Q685.4 257.9 683.9 257.9L683.9 257.9Q682.3 257.9 681.1 256.8Q680.0 255.7 680.0 254.1L680.0 254.1Q680.0 252.5 681.1 251.4Q682.3 250.3 683.9 250.3L683.9 250.3Z M711.2 238.0Q716.4 238.0 719.1 241.8Q721.9 245.7 721.9 252.8L721.9 252.8Q721.9 260.0 719.1 263.9Q716.4 267.7 711.2 267.7L711.2 267.7Q705.9 267.7 703.2 263.9Q700.4 260.0 700.4 252.8L700.4 252.8Q700.4 245.7 703.2 241.8Q705.9 238.0 711.2 238.0L711.2 238.0ZM711.2 242.9Q709.7 242.9 708.9 243.9Q708.0 244.8 707.6 246.9Q707.2 249.1 707.2 252.8L707.2 252.8Q707.2 256.6 707.6 258.8Q708.0 261.0 708.9 261.9Q709.7 262.8 711.2 262.8L711.2 262.8Q712.6 262.8 713.4 261.9Q714.3 261.0 714.7 258.8Q715.1 256.7 715.1 252.8L715.1 252.8Q715.1 249.0 714.7 246.9Q714.3 244.7 713.4 243.8Q712.6 242.9 711.2 242.9L711.2 242.9ZM728.5 260.1Q730.0 260.1 731.1 261.2Q732.2 262.3 732.2 263.9L732.2 263.9Q732.2 265.5 731.1 266.6Q730.0 267.7 728.5 267.7L728.5 267.7Q726.9 267.7 725.7 266.6Q724.6 265.5 724.6 263.9L724.6 263.9Q724.6 262.3 725.7 261.2Q726.9 260.1 728.5 260.1L728.5 260.1ZM745.8 238.0Q751.0 238.0 753.8 241.8Q756.5 245.7 756.5 252.8L756.5 252.8Q756.5 260.0 753.8 263.9Q751.0 267.7 745.8 267.7L745.8 267.7Q740.6 267.7 737.8 263.9Q735.1 260.0 735.1 252.8L735.1 252.8Q735.1 245.7 737.8 241.8Q740.6 238.0 745.8 238.0L745.8 238.0ZM745.8 242.9Q744.4 242.9 743.5 243.9Q742.7 244.8 742.3 246.9Q741.9 249.1 741.9 252.8L741.9 252.8Q741.9 256.6 742.3 258.8Q742.7 261.0 743.5 261.9Q744.4 262.8 745.8 262.8L745.8 262.8Q747.2 262.8 748.1 261.9Q748.9 261.0 749.3 258.8Q749.7 256.7 749.7 252.8L749.7 252.8Q749.7 249.0 749.3 246.9Q748.9 244.7 748.1 243.8Q747.2 242.9 745.8 242.9L745.8 242.9ZM768.1 238.0Q771.1 238.0 773.2 239.0Q775.3 240.0 776.4 241.6Q777.6 243.2 777.6 245.2L777.6 245.2Q777.6 247.8 776.1 249.5Q774.7 251.3 772.0 252.0L772.0 252.0Q774.9 252.3 776.7 254.0Q778.5 255.8 778.5 259.0L778.5 259.0Q778.5 261.4 777.2 263.4Q776.0 265.4 773.5 266.5Q771.0 267.7 767.6 267.7L767.6 267.7Q761.4 267.7 757.9 263.4L757.9 263.4L761.5 259.9Q762.9 261.4 764.3 262.0Q765.6 262.7 767.3 262.7L767.3 262.7Q769.2 262.7 770.5 261.6Q771.7 260.5 771.7 258.6L771.7 258.6Q771.7 256.4 770.5 255.4Q769.4 254.5 767.1 254.5L767.1 254.5L764.7 254.5L765.4 249.9L767.1 249.9Q768.9 249.9 770.0 248.9Q771.1 248.0 771.1 246.2L771.1 246.2Q771.1 244.7 770.1 243.8Q769.1 242.9 767.4 242.9L767.4 242.9Q764.4 242.9 761.8 245.4L761.8 245.4L758.5 241.8Q762.6 238.0 768.1 238.0L768.1 238.0ZM787.1 249.6L782.7 249.6L781.9 237.9L787.9 237.9L787.1 249.6ZM795.5 249.6L791.2 249.6L790.4 237.9L796.4 237.9L795.5 249.6Z M822.7 261.8L824.9 265.9Q823.7 266.8 822.1 267.3Q820.4 267.7 818.8 267.7L818.8 267.7Q811.5 267.7 811.5 259.6L811.5 259.6L811.5 249.3L808.4 249.3L808.4 244.7L811.5 244.7L811.5 239.9L818.2 239.1L818.2 244.7L823.3 244.7L822.6 249.3L818.2 249.3L818.2 259.6Q818.2 261.1 818.7 261.8Q819.2 262.5 820.3 262.5L820.3 262.5Q821.4 262.5 822.7 261.8L822.7 261.8ZM836.8 244.0Q841.9 244.0 844.8 247.1Q847.7 250.2 847.7 255.9L847.7 255.9Q847.7 259.4 846.4 262.1Q845.1 264.8 842.6 266.2Q840.1 267.7 836.8 267.7L836.8 267.7Q831.7 267.7 828.8 264.6Q825.9 261.5 825.9 255.8L825.9 255.8Q825.9 252.3 827.2 249.6Q828.5 246.9 831.0 245.5Q833.4 244.0 836.8 244.0L836.8 244.0ZM836.8 248.9Q834.8 248.9 833.8 250.6Q832.7 252.3 832.7 255.8L832.7 255.8Q832.7 259.5 833.7 261.2Q834.7 262.8 836.8 262.8L836.8 262.8Q838.8 262.8 839.8 261.1Q840.8 259.4 840.8 255.9L840.8 255.9Q840.8 252.2 839.8 250.5Q838.8 248.9 836.8 248.9L836.8 248.9ZM865.0 235.1L871.6 235.8L871.6 267L865.8 267L865.4 264.4Q863.1 267.7 859.1 267.7L859.1 267.7Q854.9 267.7 852.8 264.5Q850.6 261.3 850.6 255.8L850.6 255.8Q850.6 252.4 851.7 249.7Q852.9 247.0 854.9 245.5Q857.0 244.0 859.7 244.0L859.7 244.0Q862.9 244.0 865.0 246.1L865.0 246.1L865.0 235.1ZM861.1 262.8Q863.4 262.8 865.0 260.3L865.0 260.3L865.0 250.7Q864.2 249.7 863.4 249.3Q862.6 248.8 861.5 248.8L861.5 248.8Q859.7 248.8 858.6 250.5Q857.5 252.3 857.5 255.8L857.5 255.8Q857.5 259.7 858.4 261.3Q859.4 262.8 861.1 262.8L861.1 262.8ZM894.6 260.5Q894.6 261.8 894.9 262.4Q895.3 263.0 896.1 263.3L896.1 263.3L894.7 267.6Q892.6 267.4 891.3 266.7Q890.0 265.9 889.3 264.4L889.3 264.4Q887.1 267.7 882.6 267.7L882.6 267.7Q879.3 267.7 877.3 265.8Q875.3 263.9 875.3 260.7L875.3 260.7Q875.3 257.1 878.0 255.2Q880.7 253.2 885.8 253.2L885.8 253.2L888.1 253.2L888.1 252.3Q888.1 250.3 887.2 249.5Q886.4 248.8 884.3 248.8L884.3 248.8Q883.2 248.8 881.6 249.1Q880.1 249.4 878.4 250.0L878.4 250.0L876.9 245.6Q879.0 244.8 881.2 244.4Q883.4 244.0 885.3 244.0L885.3 244.0Q890.1 244.0 892.3 246.0Q894.6 247.9 894.6 251.9L894.6 251.9L894.6 260.5ZM884.5 263.0Q886.8 263.0 888.1 260.8L888.1 260.8L888.1 256.9L886.4 256.9Q884.2 256.9 883.0 257.7Q881.9 258.5 881.9 260.2L881.9 260.2Q881.9 261.5 882.6 262.2Q883.3 263.0 884.5 263.0L884.5 263.0ZM919.3 244.7L912.2 267.0Q910.8 271.4 907.8 273.7Q904.7 276.0 899.6 276.3L899.6 276.3L898.9 271.7Q902.1 271.2 903.6 270.2Q905.2 269.2 906.1 267L906.1 267L903.8 267L897.0 244.7L904.1 244.7L908.1 262.8L912.4 244.7L919.3 244.7Z "/></g><defs><clipPath id="satori_bc-id-1-1"><rect x="40" y="310" width="880" height="164"/></clipPath></defs><mask id="satori_om-id-1-1"><rect x="40" y="310" width="880" height="162" fill="#fff"/><path width="880" height="164" fill="none" stroke="#000" stroke-width="4" d="M920,474 A0,0 0 0 1 920,474 h-880 A0,0 0 0 1 40,474"/></mask><path width="880" height="164" clip-path="url(#satori_bc-id-1-1)" fill="none" stroke="#000" stroke-width="4" d="M920,474 A0,0 0 0 1 920,474 h-880 A0,0 0 0 1 40,474"/><clipPath id="satori_cp-id-1-1-0"><rect x="40" y="310" width="880" height="164"/></clipPath><mask id="satori_om-id-1-1-0"><rect x="40" y="310" width="880" height="164" fill="#fff"/></mask><image x="40" y="310" width="880" height="164" href="data:image/svg+xml;utf8,%3Csvg  xmlns=%22http://www.w3.org/2000/svg%22 width=%22Infinity%22 height=%22NaN%22%3E%3Cline x1=%2238.26086956521739%22 y1=%222%22 x2=%2238.26086956521739%22 y2=%22162%22 stroke=%22%23999%22 stroke-width=%221%22 shape-rendering=%22crispEdges%22%3E%3C/line%3E%3Cline x1=%22153.04347826086956%22 y1=%222%22 x2=%22153.04347826086956%22 y2=%22162%22 stroke=%22%23999%22 stroke-width=%221%22 shape-rendering=%22crispEdges%22%3E%3C/line%3E%3Cline x1=%22267.82608695652175%22 y1=%222%22 x2=%22267.82608695652175%22 y2=%22162%22 stroke=%22%23999%22 stroke-width=%221%22 shape-rendering=%22crispEdges%22%3E%3C/line%3E%3Cline x1=%22382.6086956521739%22 y1=%222%22 x2=%22382.6086956521739%22 y2=%22162%22 stroke=%22%23888%22 stroke-width=%221%22 shape-rendering=%22crispEdges%22%3E%3C/line%3E%3Cline x1=%22497.39130434782606%22 y1=%222%22 x2=%22497.39130434782606%22 y2=%22162%22 stroke=%22%23999%22 stroke-width=%221%22 shape-rendering=%22crispEdges%22%3E%3C/line%3E%3Cline x1=%22612.1739130434783%22 y1=%222%22 x2=%22612.1739130434783%22 y2=%22162%22 stroke=%22%23999%22 stroke-width=%221%22 shape-rendering=%22crispEdges%22%3E%3C/line%3E%3Cline x1=%22726.9565217391304%22 y1=%222%22 x2=%22726.9565217391304%22 y2=%22162%22 stroke=%22%23999%22 stroke-width=%221%22 shape-rendering=%22crispEdges%22%3E%3C/line%3E%3Cline x1=%22841.7391304347826%22 y1=%222%22 x2=%22841.7391304347826%22 y2=%22162%22 stroke=%22%23888%22 stroke-width=%221%22 shape-rendering=%22crispEdges%22%3E%3C/line%3E%3Cline x1=%220%22 y1=%22162%22 x2=%22880%22 y2=%22162%22 stroke=%22%23999%22 stroke-width=%221%22 shape-rendering=%22crispEdges%22%3E%3C/line%3E%3Cline x1=%220%22 y1=%2282%22 x2=%22880%22 y2=%2282%22 stroke=%22%23999%22 stroke-width=%221%22 shape-rendering=%22crispEdges%22%3E%3C/line%3E%3Cline x1=%220%22 y1=%222%22 x2=%22880%22 y2=%222%22 stroke=%22%23999%22 stroke-width=%221%22 shape-rendering=%22crispEdges%22%3E%3C/line%3E%3Crect x=%220%22 y=%22154%22 width=%2236.666666666666664%22 height=%228%22 fill=%22%23ccc%22 shape-rendering=%22crispEdges%22%3E%3C/rect%3E%3Crect x=%2236.666666666666664%22 y=%22154%22 width=%2236.666666666666664%22 height=%228%22 fill=%22%23ccc%22 shape-rendering=%22crispEdges%22%3E%3C/rect%3E%3Crect x=%2273.33333333333333%22 y=%22146%22 width=%2236.666666666666664%22 height=%2216%22 fill=%22%23ccc%22 shape-rendering=%22crispEdges%22%3E%3C/rect%3E%3Crect x=%22110%22 y=%22138%22 width=%2236.666666666666664%22 height=%2224%22 fill=%22%23ccc%22 shape-rendering=%22crispEdges%22%3E%3C/rect%3E%3Crect x=%22146.66666666666666%22 y=%22122%22 width=%2236.666666666666664%22 height=%2240%22 fill=%22%23ccc%22 shape-rendering=%22crispEdges%22%3E%3C/rect%3E%3Crect x=%22183.33333333333331%22 y=%2298%22 width=%2236.666666666666664%22 height=%2264%22 fill=%22%23ccc%22 shape-rendering=%22crispEdges%22%3E%3C/rect%3E%3Crect x=%22220%22 y=%2274%22 width=%2236.666666666666664%22 height=%2288%22 fill=%22%23ccc%22 shape-rendering=%22crispEdges%22%3E%3C/rect%3E%3Crect x=%22256.66666666666663%22 y=%2250%22 width=%2236.666666666666664%22 height=%22112%22 fill=%22%23ccc%22 shape-rendering=%22crispEdges%22%3E%3C/rect%3E%3Crect x=%22293.3333333333333%22 y=%2242%22 width=%2236.666666666666664%22 height=%22120%22 fill=%22%23ccc%22 shape-rendering=%22crispEdges%22%3E%3C/rect%3E%3Crect x=%22330%22 y=%2258%22 width=%2236.666666666666664%22 height=%22104%22 fill=%22%23ccc%22 shape-rendering=%22crispEdges%22%3E%3C/rect%3E%3Crect x=%22366.66666666666663%22 y=%2282%22 width=%2236.666666666666664%22 height=%2280%22 fill=%22%23ccc%22 shape-rendering=%22crispEdges%22%3E%3C/rect%3E%3Crect x=%22403.3333333333333%22 y=%22106%22 width=%2236.666666666666664%22 height=%2256%22 fill=%22%23ccc%22 shape-rendering=%22crispEdges%22%3E%3C/rect%3E%3Crect x=%22440%22 y=%22122%22 width=%2236.666666666666664%22 height=%2240%22 fill=%22%23ccc%22 shape-rendering=%22crispEdges%22%3E%3C/rect%3E%3Crect x=%22476.66666666666663%22 y=%22130%22 width=%2236.666666666666664%22 height=%2232%22 fill=%22%23ccc%22 shape-rendering=%22crispEdges%22%3E%3C/rect%3E%3Crect x=%22513.3333333333333%22 y=%22138%22 width=%2236.666666666666664%22 height=%2224%22 fill=%22%23ccc%22 shape-rendering=%22crispEdges%22%3E%3C/rect%3E%3Crect x=%22550%22 y=%22146%22 width=%2236.666666666666664%22 height=%2216%22 fill=%22%23ccc%22 shape-rendering=%22crispEdges%22%3E%3C/rect%3E%3Crect x=%22586.6666666666666%22 y=%22146%22 width=%2236.666666666666664%22 height=%2216%22 fill=%22%23ccc%22 shape-rendering=%22crispEdges%22%3E%3C/rect%3E%3Crect x=%22623.3333333333333%22 y=%22138%22 width=%2236.666666666666664%22 height=%2224%22 fill=%22%23ccc%22 shape-rendering=%22crispEdges%22%3E%3C/rect%3E%3Crect x=%22660%22 y=%22130%22 width=%2236.666666666666664%22 height=%2232%22 fill=%22%23ccc%22 shape-rendering=%22crispEdges%22%3E%3C/rect%3E%3Crect x=%22696.6666666666666%22 y=%22138%22 width=%2236.666666666666664%22 height=%2224%22 fill=%22%23ccc%22 shape-rendering=%22crispEdges%22%3E%3C/rect%3E%3Crect x=%22733.3333333333333%22 y=%22146%22 width=%2236.666666666666664%22 height=%2216%22 fill=%22%23ccc%22 shape-rendering=%22crispEdges%22%3E%3C/rect%3E%3Crect x=%22770%22 y=%22154%22 width=%2236.666666666666664%22 height=%228%22 fill=%22%23ccc%22 shape-rendering=%22crispEdges%22%3E%3C/rect%3E%3Crect x=%22806.6666666666666%22 y=%22154%22 width=%2236.666666666666664%22 height=%228%22 fill=%22%23ccc%22 shape-rendering=%22crispEdges%22%3E%3C/rect%3E%3Crect x=%22843.3333333333333%22 y=%22154%22 width=%2236.666666666666664%22 height=%228%22 fill=%22%23ccc%22 shape-rendering=%22crispEdges%22%3E%3C/rect%3E%3Cpolyline points=%220,66 38.26086956521739,58 76.52173913043478,42 114.78260869565217,26 153.04347826086956,18 191.30434782608694,18 229.56521739130434,26 267.82608695652175,42 306.0869565217391,58 344.34782608695656,74 382.6086956521739,90 420.8695652173913,106 459.1304347826087,122 497.39130434782606,130 535.6521739130435,138 573.9130434782609,146 612.1739130434783,154 650.4347826086956,154 688.6956521739131,146 726.9565217391305,138 765.2173913043478,122 803.4782608695651,106 841.7391304347826,90 880,74%22 stroke=%22%23000%22 stroke-width=%223%22 fill=%22none%22%3E%3C/polyline%3E%3C/svg%3E" preserveAspectRatio="none" clip-path="url(#satori_cp-id-1-1-0)" mask="url(#satori_om-id-1-1-0)"/><mask id="satori_om-id-1-1-0-0"><rect x="40" y="310" width="0" height="164" fill="#fff"/></mask><mask id="satori_om-id-1-1-0-1"><rect x="40" y="310" width="0" height="164" fill="#fff"/></mask><mask id="satori_om-id-1-1-0-2"><rect x="40" y="310" width="0" height="164" fill="#fff"/></mask><mask id="satori_om-id-1-1-0-3"><rect x="40" y="310" width="0" height="164" fill="#fff"/></mask><mask id="satori_om-id-1-1-0-4"><rect x="40" y="310" width="0" height="164" fill="#fff"/></mask><mask id="satori_om-id-1-1-0-5"><rect x="40" y="310" width="0" height="164" fill="#fff"/></mask><mask id="satori_om-id-1-1-0-6"><rect x="40" y="310" width="0" height="164" fill="#fff"/></mask><mask id="satori_om-id-1-1-0-7"><rect x="40" y="310" width="0" height="164" fill="#fff"/></mask><mask id="satori_om-id-1-1-0-8"><rect x="40" y="310" width="0" height="164" fill="#fff"/></mask><mask id="satori_om-id-1-1-0-9"><rect x="40" y="310" width="0" height="164" fill="#fff"/></mask><mask id="satori_om-id-1-1-0-10"><rect x="40" y="310" width="0" height="164" fill="#fff"/></mask><mask id="satori_om-id-1-1-0-11"><rect x="40" y="310" width="0" height="164" fill="#fff"/></mask><mask id="satori_om-id-1-1-0-12"><rect x="40" y="310" width="0" height="164" fill="#fff"/></mask><mask id="satori_om-id-1-1-0-13"><rect x="40" y="310" width="0" height="164" fill="#fff"/></mask><mask id="satori_om-id-1-1-0-14"><rect x="40" y="310" width="0" height="164" fill="#fff"/></mask><mask id="satori_om-id-1-1-0-15"><rect x="40" y="310" width="0" height="164" fill="#fff"/></mask><mask id="satori_om-id-1-1-0-16"><rect x="40" y="310" width="0" height="164" fill="#fff"/></mask><mask id="satori_om-id-1-1-0-17"><rect x="40" y="310" width="0" height="164" fill="#fff"/></mask><mask id="satori_om-id-1-1-0-18"><rect x="40" y="310" width="0" height="164" fill="#fff"/></mask><mask id="satori_om-id-1-1-0-19"><rect x="40" y="310" width="0" height="164" fill="#fff"/></mask><mask id="satori_om-id-1-1-0-20"><rect x="40" y="310" width="0" height="164" fill="#fff"/></mask><mask id="satori_om-id-1-1-0-21"><rect x="40" y="310" width="0" height="164" fill="#fff"/></mask><mask id="satori_om-id-1-1-0-22"><rect x="40" y="310" width="0" height="164" fill="#fff"/></mask><mask id="satori_om-id-1-1-0-23"><rect x="40" y="310" width="0" height="164" fill="#fff"/></mask><mask id="satori_om-id-1-1-0-24"><rect x="40" y="310" width="0" height="164" fill="#fff"/></mask><mask id="satori_om-id-1-1-0-25"><rect x="40" y="310" width="0" height="164" fill="#fff"/></mask><mask id="satori_om-id-1-1-0-26"><rect x="40" y="310" width="0" height="164" fill="#fff"/></mask><mask id="satori_om-id-1-1-0-27"><rect x="40" y="310" width="0" height="164" fill="#fff"/></mask><mask id="satori_om-id-1-1-0-28"><rect x="40" y="310" width="0" height="164" fill="#fff"/></mask><mask id="satori_om-id-1-1-0-29"><rect x="40" y="310" width="0" height="164" fill="#fff"/></mask><mask id="satori_om-id-1-1-0-30"><rect x="40" y="310" width="0" height="164" fill="#fff"/></mask><mask id="satori_om-id-1-1-0-31"><rect x="40" y="310" width="0" height="164" fill="#fff"/></mask><mask id="satori_om-id-1-1-0-32"><rect x="40" y="310" width="0" height="164" fill="#fff"/></mask><mask id="satori_om-id-1-1-0-33"><rect x="40" y="310" width="0" height="164" fill="#fff"/></mask><mask id="satori_om-id-1-1-0-34"><rect x="40" y="310" width="0" height="164" fill="#fff"/></mask><mask id="satori_om-id-1-1-0-35"><rect x="40" y="310" width="0" height="164" fill="#fff"/></mask><mask id="satori_om-id-1-1-1"><rect x="48" y="380" width="60" height="24" fill="#fff"/></mask><g  ><path fill="#000" d="M68.3 385.5L77 385.5L77 387.6L72.0 399.3L69.2 398.4L73.7 387.9L68.3 387.9L68.3 385.5ZM82.1 385.2Q83.6 385.2 84.6 385.7Q85.6 386.1 86.1 386.9Q86.6 387.7 86.6 388.6L86.6 388.6Q86.6 389.9 86.0 390.7Q85.3 391.5 84 391.9L84 391.9Q85.4 392 86.2 392.8Q87.1 393.7 87.1 395.2L87.1 395.2Q87.1 396.3 86.5 397.3Q85.9 398.2 84.7 398.8Q83.5 399.3 81.9 399.3L81.9 399.3Q79.0 399.3 77.3 397.3L77.3 397.3L79.0 395.6Q79.7 396.3 80.3 396.6Q81.0 396.9 81.7 396.9L81.7 396.9Q82.7 396.9 83.3 396.4Q83.8 395.9 83.8 395.0L83.8 395.0Q83.8 393.9 83.3 393.5Q82.7 393.0 81.6 393.0L81.6 393.0L80.5 393.0L80.9 390.9L81.6 390.9Q82.5 390.9 83.1 390.4Q83.6 389.9 83.6 389.1L83.6 389.1Q83.6 388.4 83.1 387.9Q82.6 387.5 81.8 387.5L81.8 387.5Q80.4 387.5 79.1 388.7L79.1 388.7L77.6 387.0Q79.5 385.2 82.1 385.2L82.1 385.2Z "/></g><mask id="satori_om-id-1-1-2"><rect x="163" y="340" width="60" height="24" fill="#fff"/></mask><g  ><path fill="#000" d="M182.3 345.5L191 345.5L191 347.6L186.0 359.3L183.2 358.4L187.7 347.9L182.3 347.9L182.3 345.5ZM199.7 351.7Q201.1 352.4 201.7 353.3Q202.4 354.2 202.4 355.3L202.4 355.3Q202.4 356.4 201.8 357.4Q201.1 358.3 199.9 358.8Q198.7 359.3 197.1 359.3L197.1 359.3Q195.5 359.3 194.4 358.8Q193.2 358.3 192.6 357.4Q191.9 356.5 191.9 355.4L191.9 355.4Q191.9 353.1 194.5 352.0L194.5 352.0Q192.5 350.9 192.5 348.8L192.5 348.8Q192.5 347.8 193.1 346.9Q193.7 346.1 194.8 345.7Q195.8 345.2 197.2 345.2L197.2 345.2Q199.2 345.2 200.6 346.1Q201.9 347.1 201.9 348.7L201.9 348.7Q201.9 349.6 201.3 350.4Q200.8 351.2 199.7 351.7L199.7 351.7ZM197.2 347.3Q196.4 347.3 196.0 347.7Q195.5 348.1 195.5 348.9L195.5 348.9Q195.5 349.6 195.9 350.0Q196.3 350.4 197.2 350.8L197.2 350.8L197.6 350.9Q198.3 350.5 198.5 350.0Q198.8 349.5 198.8 348.8L198.8 348.8Q198.8 348.2 198.4 347.8Q198.0 347.3 197.2 347.3L197.2 347.3ZM197.2 357.1Q198.2 357.1 198.7 356.6Q199.2 356.1 199.2 355.3L199.2 355.3Q199.2 354.5 198.8 354.0Q198.3 353.6 197.1 353.1L197.1 353.1L196.5 352.9Q195.1 353.7 195.1 355.2L195.1 355.2Q195.1 356.1 195.7 356.6Q196.2 357.1 197.2 357.1L197.2 357.1Z "/></g><mask id="satori_om-id-1-1-3"><rect x="278" y="364" width="60" height="24" fill="#fff"/></mask><g  ><path fill="#000" d="M297.3 369.5L306 369.5L306 371.6L301.0 383.3L298.2 382.4L302.7 371.9L297.3 371.9L297.3 369.5ZM315.8 369.5L315.4 371.7L310.5 371.7L310.5 374.6Q311.5 374.1 312.5 374.1L312.5 374.1Q313.7 374.1 314.5 374.7Q315.4 375.2 315.9 376.2Q316.4 377.2 316.4 378.5L316.4 378.5Q316.4 380.0 315.8 381.1Q315.1 382.1 313.9 382.7Q312.7 383.3 311.1 383.3L311.1 383.3Q308.4 383.3 306.6 381.3L306.6 381.3L308.4 379.7Q309.5 381.0 311 381.0L311 381.0Q312.0 381.0 312.6 380.3Q313.2 379.7 313.2 378.6L313.2 378.6Q313.2 376.3 311.3 376.3L311.3 376.3Q310.9 376.3 310.5 376.4Q310.1 376.5 309.7 376.8L309.7 376.8L307.5 376.8L307.5 369.5L315.8 369.5Z "/></g><mask id="satori_om-id-1-1-4"><rect x="393" y="368" width="60" height="24" fill="#fff"/></mask><g  ><path fill="#000" d="M417.9 377.9Q419.0 377.9 419.9 378.4Q420.8 379.0 421.3 380.0Q421.8 381.0 421.8 382.4L421.8 382.4Q421.8 383.8 421.2 384.9Q420.6 386.0 419.5 386.7Q418.4 387.3 416.9 387.3L416.9 387.3Q414.3 387.3 413.0 385.6Q411.8 383.9 411.8 380.8L411.8 380.8Q411.8 378.5 412.5 376.8Q413.2 375.1 414.5 374.1Q415.8 373.2 417.6 373.2L417.6 373.2Q419.4 373.2 420.7 374.1L420.7 374.1L419.6 376.0Q418.7 375.5 417.7 375.5L417.7 375.5Q416.6 375.5 415.9 376.4Q415.2 377.4 415.0 379.1L415.0 379.1Q416.3 377.9 417.9 377.9L417.9 377.9ZM416.9 385.1Q417.8 385.1 418.2 384.4Q418.6 383.7 418.6 382.4L418.6 382.4Q418.6 381.2 418.2 380.6Q417.8 380.1 417.0 380.1L417.0 380.1Q415.9 380.1 415.0 381.1L415.0 381.1Q415.1 383.3 415.5 384.2Q415.9 385.1 416.9 385.1L416.9 385.1ZM427.8 373.2Q430.3 373.2 431.6 374.6Q432.9 376.1 432.9 378.4L432.9 378.4Q432.9 381.2 432.0 383.0Q431.1 384.8 429.2 385.9Q427.4 387.0 424.4 387.6L424.4 387.6L423.8 385.4Q426.4 384.7 427.7 383.8Q429.1 382.8 429.5 381.0L429.5 381.0Q428.4 382.3 426.7 382.3L426.7 382.3Q425.6 382.3 424.7 381.8Q423.8 381.2 423.3 380.2Q422.8 379.2 422.8 377.9L422.8 377.9Q422.8 376.5 423.5 375.4Q424.1 374.4 425.3 373.8Q426.4 373.2 427.8 373.2L427.8 373.2ZM427.6 380.1Q428.2 380.1 428.7 379.8Q429.2 379.5 429.6 378.9L429.6 378.9Q429.7 377.0 429.2 376.2Q428.8 375.5 427.8 375.5L427.8 375.5Q427.0 375.5 426.5 376.1Q426.0 376.6 426.0 377.8L426.0 377.8Q426.0 379 426.4 379.6Q426.9 380.1 427.6 380.1L427.6 380.1Z "/></g><mask id="satori_om-id-1-1-5"><rect x="507" y="408" width="60" height="24" fill="#fff"/></mask><g  ><path fill="#000" d="M531.9 417.9Q533.0 417.9 533.9 418.4Q534.8 419.0 535.3 420.0Q535.8 421.0 535.8 422.4L535.8 422.4Q535.8 423.8 535.2 424.9Q534.6 426.0 533.5 426.7Q532.4 427.3 530.9 427.3L530.9 427.3Q528.3 427.3 527.0 425.6Q525.8 423.9 525.8 420.8L525.8 420.8Q525.8 418.5 526.5 416.8Q527.2 415.1 528.5 414.1Q529.8 413.2 531.6 413.2L531.6 413.2Q533.4 413.2 534.7 414.1L534.7 414.1L533.6 416.0Q532.7 415.5 531.7 415.5L531.7 415.5Q530.6 415.5 529.9 416.4Q529.2 417.4 529.0 419.1L529.0 419.1Q530.3 417.9 531.9 417.9L531.9 417.9ZM530.9 425.1Q531.8 425.1 532.2 424.4Q532.6 423.7 532.6 422.4L532.6 422.4Q532.6 421.2 532.2 420.6Q531.8 420.1 531.0 420.1L531.0 420.1Q529.9 420.1 529.0 421.1L529.0 421.1Q529.1 423.3 529.5 424.2Q529.9 425.1 530.9 425.1L530.9 425.1ZM545.6 421.7L547.2 421.7L547.2 424.1L545.6 424.1L545.6 427L542.6 427L542.5 424.1L536.8 424.1L536.8 422.0L540.7 413.1L543.4 414.1L540.1 421.7L542.6 421.7L542.9 418.5L545.6 418.5L545.6 421.7Z "/></g><mask id="satori_om-id-1-1-6"><rect x="622" y="432" width="60" height="24" fill="#fff"/></mask><g  ><path fill="#000" d="M647.9 441.9Q649.0 441.9 649.9 442.4Q650.8 443.0 651.3 444.0Q651.8 445.0 651.8 446.4L651.8 446.4Q651.8 447.8 651.2 448.9Q650.6 450.0 649.5 450.7Q648.4 451.3 646.9 451.3L646.9 451.3Q644.3 451.3 643.0 449.6Q641.8 447.9 641.8 444.8L641.8 444.8Q641.8 442.5 642.5 440.8Q643.2 439.1 644.5 438.1Q645.8 437.2 647.6 437.2L647.6 437.2Q649.4 437.2 650.7 438.1L650.7 438.1L649.6 440.0Q648.7 439.5 647.7 439.5L647.7 439.5Q646.6 439.5 645.9 440.4Q645.2 441.4 645.0 443.1L645.0 443.1Q646.3 441.9 647.9 441.9L647.9 441.9ZM646.9 449.1Q647.8 449.1 648.2 448.4Q648.6 447.7 648.6 446.4L648.6 446.4Q648.6 445.2 648.2 444.6Q647.8 444.1 647.0 444.1L647.0 444.1Q645.9 444.1 645.0 445.1L645.0 445.1Q645.1 447.3 645.5 448.2Q645.9 449.1 646.9 449.1L646.9 449.1ZM657.1 437.5L659.9 437.5L659.9 451L656.8 451L656.8 440.6L653.9 442.3L652.5 440.2L657.1 437.5Z "/></g><mask id="satori_om-id-1-1-7"><rect x="737" y="416" width="60" height="24" fill="#fff"/></mask><g  ><path fill="#000" d="M762.9 425.9Q764.0 425.9 764.9 426.4Q765.8 427.0 766.3 428.0Q766.8 429.0 766.8 430.4L766.8 430.4Q766.8 431.8 766.2 432.9Q765.6 434.0 764.5 434.7Q763.4 435.3 761.9 435.3L761.9 435.3Q759.3 435.3 758.0 433.6Q756.8 431.9 756.8 428.8L756.8 428.8Q756.8 426.5 757.5 424.8Q758.2 423.1 759.5 422.1Q760.8 421.2 762.6 421.2L762.6 421.2Q764.4 421.2 765.7 422.1L765.7 422.1L764.6 424.0Q763.7 423.5 762.7 423.5L762.7 423.5Q761.6 423.5 760.9 424.4Q760.2 425.4 760.0 427.1L760.0 427.1Q761.3 425.9 762.9 425.9L762.9 425.9ZM761.9 433.1Q762.8 433.1 763.2 432.4Q763.6 431.7 763.6 430.4L763.6 430.4Q763.6 429.2 763.2 428.6Q762.8 428.1 762.0 428.1L762.0 428.1Q760.9 428.1 760.0 429.1L760.0 429.1Q760.1 431.3 760.5 432.2Q760.9 433.1 761.9 433.1L761.9 433.1ZM772.1 421.2Q773.5 421.2 774.5 421.7Q775.5 422.1 776.0 422.9Q776.6 423.7 776.6 424.6L776.6 424.6Q776.6 425.9 775.9 426.7Q775.2 427.5 773.9 427.9L773.9 427.9Q775.3 428 776.1 428.8Q777 429.7 777 431.2L777 431.2Q777 432.3 776.4 433.3Q775.8 434.2 774.6 434.8Q773.5 435.3 771.8 435.3L771.8 435.3Q768.9 435.3 767.2 433.3L767.2 433.3L768.9 431.6Q769.6 432.3 770.2 432.6Q770.9 432.9 771.7 432.9L771.7 432.9Q772.6 432.9 773.2 432.4Q773.8 431.9 773.8 431.0L773.8 431.0Q773.8 429.9 773.2 429.5Q772.7 429.0 771.6 429.0L771.6 429.0L770.4 429.0L770.8 426.9L771.6 426.9Q772.5 426.9 773.0 426.4Q773.5 425.9 773.5 425.1L773.5 425.1Q773.5 424.4 773.0 423.9Q772.5 423.5 771.7 423.5L771.7 423.5Q770.3 423.5 769.1 424.7L769.1 424.7L767.5 423.0Q769.4 421.2 772.1 421.2L772.1 421.2Z "/></g><mask id="satori_om-id-1-1-8"><rect x="852" y="368" width="60" height="24" fill="#fff"/></mask><g  ><path fill="#000" d="M876.9 377.9Q878.0 377.9 878.9 378.4Q879.8 379.0 880.3 380.0Q880.8 381.0 880.8 382.4L880.8 382.4Q880.8 383.8 880.2 384.9Q879.6 386.0 878.5 386.7Q877.4 387.3 875.9 387.3L875.9 387.3Q873.3 387.3 872.0 385.6Q870.8 383.9 870.8 380.8L870.8 380.8Q870.8 378.5 871.5 376.8Q872.2 375.1 873.5 374.1Q874.8 373.2 876.6 373.2L876.6 373.2Q878.4 373.2 879.7 374.1L879.7 374.1L878.6 376.0Q877.7 375.5 876.7 375.5L876.7 375.5Q875.6 375.5 874.9 376.4Q874.2 377.4 874.0 379.1L874.0 379.1Q875.3 377.9 876.9 377.9L876.9 377.9ZM875.9 385.1Q876.8 385.1 877.2 384.4Q877.6 383.7 877.6 382.4L877.6 382.4Q877.6 381.2 877.2 380.6Q876.8 380.1 876.0 380.1L876.0 380.1Q874.9 380.1 874.0 381.1L874.0 381.1Q874.1 383.3 874.5 384.2Q874.9 385.1 875.9 385.1L875.9 385.1ZM886.8 373.2Q889.3 373.2 890.6 374.6Q891.9 376.1 891.9 378.4L891.9 378.4Q891.9 381.2 891.0 383.0Q890.1 384.8 888.2 385.9Q886.4 387.0 883.4 387.6L883.4 387.6L882.8 385.4Q885.4 384.7 886.7 383.8Q888.1 382.8 888.5 381.0L888.5 381.0Q887.4 382.3 885.7 382.3L885.7 382.3Q884.6 382.3 883.7 381.8Q882.8 381.2 882.3 380.2Q881.8 379.2 881.8 377.9L881.8 377.9Q881.8 376.5 882.5 375.4Q883.1 374.4 884.3 373.8Q885.4 373.2 886.8 373.2L886.8 373.2ZM886.6 380.1Q887.2 380.1 887.7 379.8Q888.2 379.5 888.6 378.9L888.6 378.9Q888.7 377.0 888.2 376.2Q887.8 375.5 886.8 375.5L886.8 375.5Q886.0 375.5 885.5 376.1Q885.0 376.6 885.0 377.8L885.0 377.8Q885.0 379 885.4 379.6Q885.9 380.1 886.6 380.1L886.6 380.1Z "/></g><mask id="satori_om-id-1-2"><rect x="40" y="482" width="880" height="22" fill="#fff"/></mask><mask id="satori_om-id-1-2-0"><rect x="53" y="482" width="50" height="29" fill="#fff"/></mask><g  ><path fill="#333" d="M76.7 487.4Q78.4 487.4 79.7 488.0Q80.9 488.5 81.5 489.5Q82.1 490.4 82.1 491.6L82.1 491.6Q82.1 493.0 81.3 494.0Q80.5 495 79.0 495.4L79.0 495.4Q80.6 495.6 81.6 496.6Q82.7 497.6 82.7 499.4L82.7 499.4Q82.7 500.8 81.9 501.9Q81.2 503.1 79.8 503.7Q78.4 504.4 76.5 504.4L76.5 504.4Q72.9 504.4 70.9 502.0L70.9 502.0L72.9 500.0Q73.8 500.8 74.5 501.2Q75.3 501.5 76.3 501.5L76.3 501.5Q77.4 501.5 78.1 500.9Q78.8 500.3 78.8 499.2L78.8 499.2Q78.8 497.9 78.1 497.4Q77.5 496.8 76.1 496.8L76.1 496.8L74.8 496.8L75.2 494.2L76.1 494.2Q77.2 494.2 77.8 493.7Q78.5 493.1 78.5 492.1L78.5 492.1Q78.5 491.2 77.9 490.7Q77.3 490.2 76.3 490.2L76.3 490.2Q74.6 490.2 73.1 491.7L73.1 491.7L71.3 489.6Q73.6 487.4 76.7 487.4L76.7 487.4Z "/></g><mask id="satori_om-id-1-2-1"><rect x="168" y="482" width="50" height="29" fill="#fff"/></mask><g  ><path fill="#333" d="M194.3 493.1Q195.6 493.1 196.7 493.7Q197.7 494.4 198.3 495.6Q198.9 496.8 198.9 498.5L198.9 498.5Q198.9 500.1 198.2 501.5Q197.5 502.8 196.2 503.6Q194.8 504.4 193.1 504.4L193.1 504.4Q189.9 504.4 188.4 502.3Q186.9 500.2 186.9 496.6L186.9 496.6Q186.9 493.8 187.8 491.8Q188.6 489.7 190.2 488.6Q191.8 487.4 194.0 487.4L194.0 487.4Q196.1 487.4 197.7 488.5L197.7 488.5L196.3 490.8Q195.2 490.2 194.1 490.2L194.1 490.2Q192.7 490.2 191.9 491.3Q191.0 492.5 190.8 494.6L190.8 494.6Q192.3 493.1 194.3 493.1L194.3 493.1ZM193.1 501.7Q194.1 501.7 194.6 500.8Q195.1 500.0 195.1 498.5L195.1 498.5Q195.1 497.0 194.7 496.3Q194.2 495.7 193.2 495.7L193.2 495.7Q191.9 495.7 190.8 497.0L190.8 497.0Q190.9 499.5 191.4 500.6Q191.9 501.7 193.1 501.7L193.1 501.7Z "/></g><mask id="satori_om-id-1-2-2"><rect x="283" y="482" width="50" height="29" fill="#fff"/></mask><g  ><path fill="#333" d="M307.6 487.4Q310.6 487.4 312.1 489.2Q313.7 490.9 313.7 493.7L313.7 493.7Q313.7 497.0 312.6 499.2Q311.6 501.3 309.4 502.6Q307.1 504.0 303.6 504.7L303.6 504.7L302.8 502.0Q306.0 501.3 307.6 500.1Q309.1 498.9 309.6 496.8L309.6 496.8Q308.3 498.4 306.3 498.4L306.3 498.4Q305.0 498.4 303.9 497.7Q302.9 497.1 302.2 495.9Q301.6 494.6 301.6 493.0L301.6 493.0Q301.6 491.4 302.4 490.1Q303.2 488.8 304.6 488.1Q306.0 487.4 307.6 487.4L307.6 487.4ZM307.4 495.7Q308.1 495.7 308.7 495.3Q309.4 495.0 309.8 494.3L309.8 494.3Q309.9 492.0 309.4 491.1Q308.8 490.2 307.6 490.2L307.6 490.2Q306.6 490.2 306.0 490.9Q305.4 491.6 305.4 492.9L305.4 492.9Q305.4 494.4 306.0 495.1Q306.5 495.7 307.4 495.7L307.4 495.7Z "/></g><mask id="satori_om-id-1-2-3"><rect x="398" y="482" width="50" height="29" fill="#fff"/></mask><g  ><path fill="#333" d="M415.0 487.4Q418.0 487.4 419.6 489.6Q421.2 491.8 421.2 495.9L421.2 495.9Q421.2 500.0 419.6 502.2Q418.0 504.4 415.0 504.4L415.0 504.4Q412.1 504.4 410.5 502.2Q408.9 500.0 408.9 495.9L408.9 495.9Q408.9 491.8 410.5 489.6Q412.1 487.4 415.0 487.4L415.0 487.4ZM415.0 490.2Q414.2 490.2 413.7 490.8Q413.3 491.3 413.0 492.5Q412.8 493.8 412.8 495.9L412.8 495.9Q412.8 498.1 413.0 499.3Q413.3 500.5 413.7 501.1Q414.2 501.6 415.0 501.6L415.0 501.6Q415.8 501.6 416.3 501.1Q416.8 500.6 417.0 499.3Q417.3 498.1 417.3 495.9L417.3 495.9Q417.3 493.7 417.0 492.5Q416.8 491.3 416.3 490.8Q415.8 490.2 415.0 490.2L415.0 490.2ZM429.1 487.4Q432.0 487.4 433.6 489.6Q435.2 491.8 435.2 495.9L435.2 495.9Q435.2 500.0 433.6 502.2Q432.0 504.4 429.1 504.4L429.1 504.4Q426.1 504.4 424.5 502.2Q423.0 500.0 423.0 495.9L423.0 495.9Q423.0 491.8 424.5 489.6Q426.1 487.4 429.1 487.4L429.1 487.4ZM429.1 490.2Q428.3 490.2 427.8 490.8Q427.3 491.3 427.1 492.5Q426.8 493.8 426.8 495.9L426.8 495.9Q426.8 498.1 427.1 499.3Q427.3 500.5 427.8 501.1Q428.3 501.6 429.1 501.6L429.1 501.6Q429.9 501.6 430.4 501.1Q430.8 500.6 431.1 499.3Q431.3 498.1 431.3 495.9L431.3 495.9Q431.3 493.7 431.1 492.5Q430.8 491.3 430.4 490.8Q429.9 490.2 429.1 490.2L429.1 490.2Z "/></g><mask id="satori_om-id-1-2-4"><rect x="512" y="482" width="50" height="29" fill="#fff"/></mask><g  ><path fill="#333" d="M535.7 487.4Q537.4 487.4 538.7 488.0Q539.9 488.5 540.5 489.5Q541.1 490.4 541.1 491.6L541.1 491.6Q541.1 493.0 540.3 494.0Q539.5 495 538.0 495.4L538.0 495.4Q539.6 495.6 540.6 496.6Q541.7 497.6 541.7 499.4L541.7 499.4Q541.7 500.8 540.9 501.9Q540.2 503.1 538.8 503.7Q537.4 504.4 535.5 504.4L535.5 504.4Q531.9 504.4 529.9 502.0L529.9 502.0L531.9 500.0Q532.8 500.8 533.5 501.2Q534.3 501.5 535.3 501.5L535.3 501.5Q536.4 501.5 537.1 500.9Q537.8 500.3 537.8 499.2L537.8 499.2Q537.8 497.9 537.1 497.4Q536.5 496.8 535.1 496.8L535.1 496.8L533.8 496.8L534.2 494.2L535.1 494.2Q536.2 494.2 536.8 493.7Q537.5 493.1 537.5 492.1L537.5 492.1Q537.5 491.2 536.9 490.7Q536.3 490.2 535.3 490.2L535.3 490.2Q533.6 490.2 532.1 491.7L532.1 491.7L530.3 489.6Q532.6 487.4 535.7 487.4L535.7 487.4Z "/></g><mask id="satori_om-id-1-2-5"><rect x="627" y="482" width="50" height="29" fill="#fff"/></mask><g  ><path fill="#333" d="M653.3 493.1Q654.6 493.1 655.7 493.7Q656.7 494.4 657.3 495.6Q657.9 496.8 657.9 498.5L657.9 498.5Q657.9 500.1 657.2 501.5Q656.5 502.8 655.2 503.6Q653.8 504.4 652.1 504.4L652.1 504.4Q648.9 504.4 647.4 502.3Q645.9 500.2 645.9 496.6L645.9 496.6Q645.9 493.8 646.8 491.8Q647.6 489.7 649.2 488.6Q650.8 487.4 653.0 487.4L653.0 487.4Q655.1 487.4 656.7 488.5L656.7 488.5L655.3 490.8Q654.2 490.2 653.1 490.2L653.1 490.2Q651.7 490.2 650.9 491.3Q650.0 492.5 649.8 494.6L649.8 494.6Q651.3 493.1 653.3 493.1L653.3 493.1ZM652.1 501.7Q653.1 501.7 653.6 500.8Q654.1 500.0 654.1 498.5L654.1 498.5Q654.1 497.0 653.7 496.3Q653.2 495.7 652.2 495.7L652.2 495.7Q650.9 495.7 649.8 497.0L649.8 497.0Q649.9 499.5 650.4 500.6Q650.9 501.7 652.1 501.7L652.1 501.7Z "/></g><mask id="satori_om-id-1-2-6"><rect x="742" y="482" width="50" height="29" fill="#fff"/></mask><g  ><path fill="#333" d="M766.6 487.4Q769.6 487.4 771.1 489.2Q772.7 490.9 772.7 493.7L772.7 493.7Q772.7 497.0 771.6 499.2Q770.6 501.3 768.4 502.6Q766.1 504.0 762.6 504.7L762.6 504.7L761.8 502.0Q765.0 501.3 766.6 500.1Q768.1 498.9 768.6 496.8L768.6 496.8Q767.3 498.4 765.3 498.4L765.3 498.4Q764.0 498.4 762.9 497.7Q761.9 497.1 761.2 495.9Q760.6 494.6 760.6 493.0L760.6 493.0Q760.6 491.4 761.4 490.1Q762.2 488.8 763.6 488.1Q765.0 487.4 766.6 487.4L766.6 487.4ZM766.4 495.7Q767.1 495.7 767.7 495.3Q768.4 495.0 768.8 494.3L768.8 494.3Q768.9 492.0 768.4 491.1Q767.8 490.2 766.6 490.2L766.6 490.2Q765.6 490.2 765.0 490.9Q764.4 491.6 764.4 492.9L764.4 492.9Q764.4 494.4 765.0 495.1Q765.5 495.7 766.4 495.7L766.4 495.7Z "/></g><mask id="satori_om-id-1-2-7"><rect x="857" y="482" width="50" height="29" fill="#fff"/></mask><g  ><path fill="#333" d="M875.8 487.8L879.2 487.8L879.2 504L875.4 504L875.4 491.5L872.0 493.6L870.3 491.1L875.8 487.8ZM886.8 487.4Q888.6 487.4 889.9 488.1Q891.1 488.7 891.8 489.7Q892.4 490.8 892.4 492.1L892.4 492.1Q892.4 493.4 891.9 494.5Q891.4 495.7 890.0 497.2Q888.7 498.8 886.1 501.1L886.1 501.1L892.8 501.1L892.4 504L881.8 504L881.8 501.3Q884.8 498.4 886.1 496.9Q887.5 495.5 888.0 494.5Q888.6 493.5 888.6 492.5L888.6 492.5Q888.6 491.5 888.0 490.9Q887.4 490.3 886.5 490.3L886.5 490.3Q885.6 490.3 884.9 490.7Q884.3 491.1 883.5 492.0L883.5 492.0L881.3 490.2Q882.3 488.9 883.7 488.2Q885.1 487.4 886.8 487.4L886.8 487.4Z "/></g><mask id="satori_om-id-2"><rect x="0" y="504" width="960" height="12" fill="#fff"/></mask><mask id="satori_om-id-2-0"><rect x="40" y="508" width="880" height="0" fill="#fff"/></mask></svg>