<svg width="960" height="540" viewBox="0 0 960 540" xmlns="http://www.w3.org/2000/svg"><mask id="satori_om-id"><rect x="0" y="0" width="960" height="540" fill="#fff"/></mask><rect x="0" y="0" width="960" height="540" fill="#fff"/><mask id="satori_om-id-0"><rect x="0" y="0" width="960" height="264" fill="#fff"/></mask><mask id="satori_om-id-0-0"><rect x="40" y="28" width="180" height="180" fill="#fff"/></mask><mask id="satori_om-id-0-0-0"><rect x="50" y="46" width="160" height="144" fill="#fff"/></mask><path fill="#000" d="M50 117.5L50 117.5Q50 114.7 51.9 112.8L51.9 112.8Q53.9 111.0 56.4 111.0L56.4 111.0L71.7 111.0Q74.3 111.0 76.1 112.9Q77.8 114.8 77.8 117.5Q77.8 120.1 76.1 122.0Q74.3 123.9 71.7 123.9L71.7 123.9L56.4 123.9Q53.8 123.9 51.9 122.0Q50 120.1 50 117.5ZM71.4 169.4L71.4 169.4Q71.4 166.8 73.2 164.9L73.2 164.9L84.2 154.2Q85.9 152.4 88.7 152.4L88.7 152.4Q91.3 152.4 93.1 154.1Q94.9 155.8 94.9 158.4L94.9 158.4Q94.9 161.1 93.1 163.2L93.1 163.2L82.4 173.9Q77.8 177.4 73.2 173.9L73.2 173.9Q71.4 172.0 71.4 169.4ZM71.4 65.6L71.4 65.6Q71.4 63.0 73.2 61.0L73.2 61.0Q75.4 59.2 78.0 59.2L78.0 59.2Q80.4 59.2 82.4 61.0L82.4 61.0L93.1 72.1Q94.9 73.7 94.9 76.5L94.9 76.5Q94.9 79.2 93.1 80.9Q91.3 82.7 88.7 82.7L88.7 82.7Q85.9 82.7 84.2 80.9L84.2 80.9L73.2 70.2Q71.4 68.3 71.4 65.6ZM90.6 117.5L90.6 117.5Q90.6 107.0 95.8 98.0Q101.1 88.9 110.2 83.7Q119.2 78.4 129.7 78.4L129.7 78.4Q137.5 78.4 144.8 81.5Q152.0 84.6 157.3 89.9Q162.5 95.1 165.6 102.4Q168.7 109.6 168.7 117.5L168.7 117.5Q168.7 128.0 163.4 137.0Q158.2 146.0 149.2 151.3Q140.2 156.5 129.7 156.5Q119.1 156.5 110.1 151.3Q101.1 146.0 95.8 137.0Q90.6 128.0 90.6 117.5ZM103.3 117.5L103.3 117.5Q103.3 128.4 111.0 136.2Q118.7 144.0 129.7 144.0Q140.6 144.0 148.4 136.2Q156.2 128.4 156.2 117.5L156.2 117.5Q156.2 106.6 148.4 99.0Q140.6 91.3 129.7 91.3L129.7 91.3Q118.8 91.3 111.0 99.0Q103.3 106.6 103.3 117.5ZM123.3 190.7L123.3 175.8Q123.3 173.1 125.1 171.3Q127.0 169.4 129.7 169.4L129.7 169.4Q132.4 169.4 134.2 171.3Q136.1 173.1 136.1 175.8L136.1 175.8L136.1 190.7Q136.1 193.4 134.2 195.3Q132.3 197.2 129.7 197.2Q127.0 197.2 125.1 195.3Q123.3 193.4 123.3 190.7L123.3 190.7ZM123.3 59.5L123.3 59.5L123.3 44.2Q123.3 41.6 125.2 39.7Q127.1 37.8 129.7 37.8Q132.3 37.8 134.2 39.7Q136.1 41.6 136.1 44.2L136.1 44.2L136.1 59.5Q136.1 62.1 134.2 63.9Q132.3 65.6 129.7 65.6Q127.0 65.6 125.1 63.9Q123.3 62.1 123.3 59.5ZM164.7 158.4L164.7 158.4Q164.7 155.8 166.4 154.2L166.4 154.2Q168.1 152.4 170.6 152.4L170.6 152.4Q173.3 152.4 175.1 154.2L175.1 154.2L186.1 164.9Q187.9 166.8 187.9 169.4Q187.9 172.0 186.1 173.9L186.1 173.9Q181.6 177.4 177.1 173.9L177.1 173.9L166.4 163.2Q164.7 161.3 164.7 158.4ZM164.7 76.5L164.7 76.5Q164.7 73.7 166.4 72.1L166.4 72.1L177.1 61.0Q179.0 59.2 181.5 59.2L181.5 59.2Q184.2 59.2 186.0 61.1Q187.9 63.0 187.9 65.6L187.9 65.6Q187.9 68.4 186.1 70.2L186.1 70.2L175.1 80.9Q173.0 82.7 170.6 82.7L170.6 82.7Q168.1 82.7 166.4 80.9Q164.7 79.2 164.7 76.5ZM183.4 122.0Q181.6 120.1 181.6 117.5Q181.6 114.8 183.5 112.8L183.5 112.8Q185.3 111.0 187.7 111.0L187.7 111.0L202.9 111.0Q205.5 111.0 207.5 112.9Q209.4 114.9 209.4 117.5Q209.4 120.1 207.5 122.0Q205.5 123.9 202.9 123.9L202.9 123.9L187.7 123.9Q185.1 123.9 183.4 122.0Z "/><mask id="satori_om-id-0-1"><rect x="248" y="28" width="672" height="224" fill="#fff"/></mask><mask id="satori_om-id-0-1-0"><rect x="248" y="28" width="672" height="162" fill="#fff"/></mask><mask id="satori_om-id-0-1-0-0"><rect x="248" y="28" width="272" height="162" fill="#fff"/></mask><path fill="#000" d="M250.3 47.6L329 47.6L329 66.9L284.4 172.2L258.6 163.5L299.5 69.0L250.3 69.0L250.3 47.6ZM375.1 45.1Q388.2 45.1 397.7 49.8Q407.1 54.5 412.1 62.4Q417.0 70.3 417.0 79.8L417.0 79.8Q417.0 89.6 413.1 98.4Q409.1 107.2 399.0 118.6Q388.9 130.1 369.7 147.5L369.7 147.5L419.5 147.5L416.7 169.3L337.5 169.3L337.5 149.1Q359.6 127.4 369.7 116.3Q379.8 105.2 383.8 97.8Q387.9 90.5 387.9 82.7L387.9 82.7Q387.9 75.3 383.6 71.1Q379.4 66.9 372.2 66.9L372.2 66.9Q365.7 66.9 360.7 69.9Q355.6 72.8 350.1 79.5L350.1 79.5L333.3 66.2Q340.9 56.3 351.4 50.7Q361.9 45.1 375.1 45.1L375.1 45.1ZM464.5 102.9Q456.4 102.9 449.1 99.1Q441.7 95.3 437 88.2Q432.3 81.1 432.3 71.9L432.3 71.9Q432.3 62.7 436.9 55.8Q441.5 48.9 449.0 45.2Q456.4 41.5 464.5 41.5L464.5 41.5Q472.6 41.5 480.0 45.2Q487.4 48.9 492.0 55.8Q496.6 62.7 496.6 71.9L496.6 71.9Q496.6 81.3 492.0 88.3Q487.4 95.3 480.0 99.1Q472.6 102.9 464.5 102.9L464.5 102.9ZM464.5 86.1Q470.1 86.1 473.5 82.3Q477.0 78.4 477.0 71.9L477.0 71.9Q477.0 65.4 473.6 61.7Q470.3 57.9 464.5 57.9L464.5 57.9Q458.8 57.9 455.4 61.7Q451.9 65.4 451.9 71.9L451.9 71.9Q451.9 78.4 455.4 82.3Q458.8 86.1 464.5 86.1L464.5 86.1Z "/><mask id="satori_om-id-0-1-0-1"><rect x="734" y="52" width="186" height="108" fill="#fff"/></mask><mask id="satori_om-id-0-1-0-1-0"><rect x="734" y="74" width="64" height="64" fill="#fff"/></mask><clipPath id="satori_cp-id-0-1-0-1-0-0"><rect x="734" y="74" width="64" height="64"/></clipPath><mask id="satori_om-id-0-1-0-1-0-0"><rect x="734" y="74" width="64" height="64" fill="#fff"/></mask><image x="734" y="74" width="64" height="64" href="data:image/svg+xml;utf8,%3Csvg  xmlns=%22http://www.w3.org/2000/svg%22 width=%22Infinity%22 height=%22NaN%22%3E%3Ccircle cx=%2232%22 cy=%2232%22 r=%2219.2%22 stroke=%22%23000%22 stroke-width=%223%22 fill=%22%23fff%22%3E%3C/circle%3E%3Cline x1=%2255.04%22 y1=%2232%22 x2=%2262.72%22 y2=%2232%22 stroke=%22%23000%22 stroke-width=%223%22 stroke-linecap=%22round%22%3E%3C/line%3E%3Cline x1=%2248.291740238538054%22 y1=%2248.291740238538054%22 x2=%2253.72232031805074%22 y2=%2253.722320318050734%22 stroke=%22%23000%22 stroke-width=%223%22 stroke-linecap=%22round%22%3E%3C/line%3E%3Cline x1=%2232%22 y1=%2255.04%22 x2=%2232%22 y2=%2262.72%22 stroke=%22%23000%22 stroke-width=%223%22 stroke-linecap=%22round%22%3E%3C/line%3E%3Cline x1=%2215.708259761461946%22 y1=%2248.291740238538054%22 x2=%2210.277679681949262%22 y2=%2253.72232031805074%22 stroke=%22%23000%22 stroke-width=%223%22 stroke-linecap=%22round%22%3E%3C/line%3E%3Cline x1=%228.96%22 y1=%2232%22 x2=%221.2800000000000011%22 y2=%2232.00000000000001%22 stroke=%22%23000%22 stroke-width=%223%22 stroke-linecap=%22round%22%3E%3C/line%3E%3Cline x1=%2215.708259761461942%22 y1=%2215.708259761461946%22 x2=%2210.277679681949255%22 y2=%2210.277679681949262%22 stroke=%22%23000%22 stroke-width=%223%22 stroke-linecap=%22round%22%3E%3C/line%3E%3Cline x1=%2231.999999999999996%22 y1=%228.96%22 x2=%2231.999999999999993%22 y2=%221.2800000000000011%22 stroke=%22%23000%22 stroke-width=%223%22 stroke-linecap=%22round%22%3E%3C/line%3E%3Cline x1=%2248.291740238538054%22 y1=%2215.708259761461942%22 x2=%2253.722320318050734%22 y2=%2210.277679681949255%22 stroke=%22%23000%22 stroke-width=%223%22 stroke-linecap=%22round%22%3E%3C/line%3E%3C/svg%3E" preserveAspectRatio="none" clip-path="url(#satori_cp-id-0-1-0-1-0-0)" mask="url(#satori_om-id-0-1-0-1-0-0)"/><mask id="satori_om-id-0-1-0-1-0-0-0"><rect x="734" y="74" width="0" height="64" fill="#fff"/></mask><mask id="satori_om-id-0-1-0-1-0-0-1"><rect x="734" y="74" width="0" height="64" fill="#fff"/></mask><mask id="satori_om-id-0-1-0-1-0-0-2"><rect x="734" y="74" width="0" height="64" fill="#fff"/></mask><mask id="satori_om-id-0-1-0-1-0-0-3"><rect x="734" y="74" width="0" height="64" fill="#fff"/></mask><mask id="satori_om-id-0-1-0-1-0-0-4"><rect x="734" y="74" width="0" height="64" fill="#fff"/></mask><mask id="satori_om-id-0-1-0-1-0-0-5"><rect x="734" y="74" width="0" height="64" fill="#fff"/></mask><mask id="satori_om-id-0-1-0-1-0-0-6"><rect x="734" y="74" width="0" height="64" fill="#fff"/></mask><mask id="satori_om-id-0-1-0-1-0-0-7"><rect x="734" y="74" width="0" height="64" fill="#fff"/></mask><mask id="satori_om-id-0-1-0-1-0-0-8"><rect x="734" y="74" width="0" height="64" fill="#fff"/></mask><mask id="satori_om-id-0-1-0-1-0-1"><rect x="754" y="97" width="24" height="19" fill="#fff"/></mask><path fill="#000" d="M765.3 99.7L765.3 108.5Q765.3 109.8 764.7 110.9Q764.2 112.0 763.0 112.6Q761.8 113.2 760.2 113.2L760.2 113.2Q757.7 113.2 756.4 111.9Q755.0 110.6 755.0 108.5L755.0 108.5L755.0 99.7L758.2 99.7L758.2 108.4Q758.2 109.6 758.6 110.3Q759.1 110.9 760.2 110.9L760.2 110.9Q761.2 110.9 761.7 110.3Q762.2 109.6 762.2 108.4L762.2 108.4L762.2 99.7L765.3 99.7ZM774.3 99.7L777.5 99.7L773.8 112.9L769.9 112.9L766.1 99.7L769.4 99.7L771.9 110.4L774.3 99.7Z "/><mask id="satori_om-id-0-1-0-1-1"><rect x="810" y="52" width="68" height="108" fill="#fff"/></mask><path fill="#000" d="M851.4 91.6Q858.1 91.6 863.4 94.8Q868.7 98.0 871.7 104.0Q874.7 110.1 874.7 118.5L874.7 118.5Q874.7 126.8 871.1 133.5Q867.5 140.3 860.8 144.3Q854.2 148.2 845.3 148.2L845.3 148.2Q829.7 148.2 822.1 137.8Q814.6 127.4 814.6 109.1L814.6 109.1Q814.6 95.4 818.8 85.1Q823.1 74.8 831.1 69.1Q839.0 63.4 849.8 63.4L849.8 63.4Q860.3 63.4 868.3 68.8L868.3 68.8L861.4 80.1Q856.0 77.0 850.3 77.0L850.3 77.0Q843.5 77.0 839.3 82.7Q835.1 88.5 834.2 99.0L834.2 99.0Q841.6 91.6 851.4 91.6L851.4 91.6ZM845.5 134.7Q850.6 134.7 853.1 130.4Q855.7 126.2 855.7 118.7L855.7 118.7Q855.7 111.2 853.3 107.9Q850.9 104.7 846.1 104.7L846.1 104.7Q839.6 104.7 834.2 111.0L834.2 111.0Q834.5 123.9 837 129.3Q839.5 134.7 845.5 134.7L845.5 134.7Z "/><mask id="satori_om-id-0-1-0-1-2"><rect x="888" y="81" width="32" height="50" fill="#fff"/></mask><path fill="#333" d="M903.5 86.3Q910.3 86.3 914.0 90.3Q917.6 94.3 917.6 101.0L917.6 101.0Q917.6 108.7 915.1 113.7Q912.6 118.7 907.5 121.8Q902.3 124.8 894.0 126.5L894.0 126.5L892.3 120.4Q899.6 118.6 903.3 115.9Q907.0 113.1 908.1 108.2L908.1 108.2Q905.1 111.9 900.3 111.9L900.3 111.9Q897.3 111.9 894.8 110.3Q892.4 108.8 890.9 106.0Q889.5 103.1 889.5 99.4L889.5 99.4Q889.5 95.5 891.3 92.5Q893.2 89.6 896.4 87.9Q899.6 86.3 903.5 86.3L903.5 86.3ZM903.0 105.6Q904.6 105.6 906.1 104.8Q907.5 103.9 908.6 102.3L908.6 102.3Q908.7 97.0 907.5 94.8Q906.3 92.6 903.5 92.6L903.5 92.6Q901.1 92.6 899.7 94.3Q898.4 96.0 898.4 99.1L898.4 99.1Q898.4 102.6 899.6 104.1Q900.9 105.6 903.0 105.6L903.0 105.6Z "/><mask id="satori_om-id-0-1-1"><rect x="248" y="204" width="672" height="48" fill="#fff"/></mask><mask id="satori_om-id-0-1-1-0"><rect x="248" y="204" width="99" height="48" fill="#fff"/></mask><path fill="#333" d="M272.0 241.4L265.5 241.4L265.5 229.5L257.2 229.5L257.2 241.4L250.6 241.4L250.6 213.7L257.2 213.7L257.2 224.4L265.5 224.4L265.5 213.7L272.0 213.7L272.0 241.4Z M284.6 214.4L302.1 214.4L302.1 218.6L292.2 242.0L286.5 240.1L295.6 219.1L284.6 219.1L284.6 214.4ZM319.5 226.9Q322.2 228.2 323.6 230.0Q324.9 231.8 324.9 234.1L324.9 234.1Q324.9 236.3 323.6 238.1Q322.4 239.9 320.0 241Q317.6 242.1 314.3 242.1L314.3 242.1Q311.2 242.1 308.8 241.0Q306.5 240.0 305.2 238.2Q304.0 236.4 304.0 234.2L304.0 234.2Q304.0 229.7 309.0 227.5L309.0 227.5Q305.1 225.2 305.1 221.1L305.1 221.1Q305.1 218.9 306.3 217.3Q307.5 215.6 309.6 214.7Q311.8 213.8 314.5 213.8L314.5 213.8Q318.6 213.8 321.2 215.7Q323.8 217.5 323.8 220.8L323.8 220.8Q323.8 222.6 322.8 224.1Q321.7 225.7 319.5 226.9L319.5 226.9ZM314.5 218.1Q313.0 218.1 312.1 218.9Q311.2 219.7 311.2 221.2L311.2 221.2Q311.2 222.5 312.0 223.4Q312.8 224.2 314.5 225.0L314.5 225.0L315.3 225.3Q316.7 224.4 317.2 223.4Q317.7 222.4 317.7 221.1L317.7 221.1Q317.7 219.7 316.9 218.9Q316.1 218.1 314.5 218.1L314.5 218.1ZM314.5 237.6Q316.4 237.6 317.5 236.6Q318.6 235.6 318.6 234.0L318.6 234.0Q318.6 232.4 317.6 231.5Q316.7 230.5 314.4 229.7L314.4 229.7L313.1 229.2Q310.4 230.7 310.4 233.9L310.4 233.9Q310.4 235.6 311.5 236.6Q312.6 237.6 314.5 237.6L314.5 237.6ZM334.8 226.6Q333.0 226.6 331.4 225.8Q329.7 225.0 328.7 223.4Q327.6 221.8 327.6 219.8L327.6 219.8Q327.6 217.7 328.7 216.2Q329.7 214.6 331.3 213.8Q333.0 213 334.8 213L334.8 213Q336.6 213 338.2 213.8Q339.9 214.6 340.9 216.2Q341.9 217.7 341.9 219.8L341.9 219.8Q341.9 221.8 340.9 223.4Q339.9 225.0 338.2 225.8Q336.6 226.6 334.8 226.6L334.8 226.6ZM334.8 222.9Q336.0 222.9 336.8 222.1Q337.6 221.2 337.6 219.8L337.6 219.8Q337.6 218.3 336.8 217.5Q336.1 216.6 334.8 216.6L334.8 216.6Q333.5 216.6 332.8 217.5Q332.0 218.3 332.0 219.8L332.0 219.8Q332.0 221.2 332.8 222.1Q333.5 222.9 334.8 222.9L334.8 222.9Z "/><mask id="satori_om-id-0-1-1-1"><rect x="375" y="204" width="92" height="48" fill="#fff"/></mask><path fill="#333" d="M377.6 213.7L384.2 213.7L384.2 236.2L395.0 236.2L394.3 241.4L377.6 241.4L377.6 213.7Z M418.8 223.2Q421.0 223.2 422.8 224.3Q424.6 225.3 425.6 227.3Q426.6 229.4 426.6 232.2L426.6 232.2Q426.6 234.9 425.4 237.2Q424.2 239.4 421.9 240.8Q419.7 242.1 416.8 242.1L416.8 242.1Q411.6 242.1 409.0 238.6Q406.5 235.1 406.5 229.0L406.5 229.0Q406.5 224.5 407.9 221.0Q409.4 217.6 412.0 215.7Q414.7 213.8 418.3 213.8L418.3 213.8Q421.8 213.8 424.4 215.6L424.4 215.6L422.1 219.4Q420.3 218.3 418.4 218.3L418.4 218.3Q416.2 218.3 414.8 220.2Q413.4 222.2 413.1 225.7L413.1 225.7Q415.5 223.2 418.8 223.2L418.8 223.2ZM416.8 237.6Q418.5 237.6 419.4 236.1Q420.2 234.7 420.2 232.2L420.2 232.2Q420.2 229.7 419.4 228.6Q418.6 227.6 417.0 227.6L417.0 227.6Q414.9 227.6 413.1 229.7L413.1 229.7Q413.2 234.0 414 235.8Q414.8 237.6 416.8 237.6L416.8 237.6ZM437.2 214.4L442.8 214.4L442.8 241.4L436.6 241.4L436.6 220.5L430.8 224.1L428.1 219.9L437.2 214.4ZM454.8 226.6Q453.0 226.6 451.4 225.8Q449.8 225.0 448.7 223.4Q447.7 221.8 447.7 219.8L447.7 219.8Q447.7 217.7 448.7 216.2Q449.7 214.6 451.4 213.8Q453.0 213 454.8 213L454.8 213Q456.6 213 458.3 213.8Q459.9 214.6 460.9 216.2Q462.0 217.7 462.0 219.8L462.0 219.8Q462.0 221.8 460.9 223.4Q459.9 225.0 458.3 225.8Q456.6 226.6 454.8 226.6L454.8 226.6ZM454.8 222.9Q456.1 222.9 456.8 222.1Q457.6 221.2 457.6 219.8L457.6 219.8Q457.6 218.3 456.9 217.5Q456.1 216.6 454.8 216.6L454.8 216.6Q453.6 216.6 452.8 217.5Q452.0 218.3 452.0 219.8L452.0 219.8Q452.0 221.2 452.8 222.1Q453.6 222.9 454.8 222.9L454.8 222.9Z "/><mask id="satori_om-id-1"><rect x="0" y="264" width="960" height="250" fill="#fff"/></mask><mask id="satori_om-id-1-0"><rect x="40" y="282" width="880" height="34" fill="#fff"/></mask><mask id="satori_om-id-1-0-0"><rect x="40" y="282" width="290" height="34" fill="#fff"/></mask><path fill="#333" d="M45.7 287.9Q47.5 287.9 48.7 288.5Q50.0 289.1 50.6 290.2Q51.3 291.2 51.3 292.5L51.3 292.5Q51.3 293.8 50.8 295.0Q50.2 296.2 48.9 297.7Q47.6 299.2 45.0 301.5L45.0 301.5L51.6 301.5L51.3 304.4L40.7 304.4L40.7 301.8Q43.6 298.8 45.0 297.4Q46.3 295.9 46.9 294.9Q47.4 293.9 47.4 292.9L47.4 292.9Q47.4 291.9 46.9 291.3Q46.3 290.8 45.3 290.8L45.3 290.8Q44.5 290.8 43.8 291.2Q43.1 291.6 42.4 292.5L42.4 292.5L40.1 290.7Q41.2 289.4 42.6 288.6Q44.0 287.9 45.7 287.9L45.7 287.9ZM65.1 298.1L67.0 298.1L67.0 300.9L65.1 300.9L65.1 304.4L61.4 304.4L61.4 300.9L54.6 300.9L54.6 298.4L59.2 287.8L62.4 289.0L58.5 298.1L61.5 298.1L61.9 294.3L65.1 294.3L65.1 298.1ZM77.7 298.4L70.0 298.4L70.0 295.5L77.7 295.5L77.7 298.4ZM94.7 304.4L90.7 304.4L90.7 297.3L85.7 297.3L85.7 304.4L81.8 304.4L81.8 287.8L85.7 287.8L85.7 294.2L90.7 294.2L90.7 287.8L94.7 287.8L94.7 304.4ZM106 287.4Q109.6 287.4 111.5 289.7Q113.5 292.0 113.5 296.1L113.5 296.1Q113.5 298.8 112.6 300.8Q111.7 302.8 110.0 303.8Q108.3 304.8 106 304.8L106 304.8Q103.7 304.8 102.0 303.8Q100.3 302.8 99.4 300.8Q98.5 298.9 98.5 296.1L98.5 296.1Q98.5 293.4 99.4 291.5Q100.3 289.5 102.0 288.4Q103.7 287.4 106 287.4L106 287.4ZM106 290.3Q104.3 290.3 103.5 291.7Q102.6 293.0 102.6 296.1L102.6 296.1Q102.6 299.2 103.5 300.6Q104.3 302.0 106 302.0L106 302.0Q107.7 302.0 108.6 300.6Q109.4 299.2 109.4 296.1L109.4 296.1Q109.4 293.0 108.5 291.6Q107.7 290.3 106 290.3L106 290.3ZM130.1 287.8L130.1 298.9Q130.1 300.6 129.4 302.0Q128.6 303.3 127.2 304.1Q125.7 304.8 123.6 304.8L123.6 304.8Q120.4 304.8 118.8 303.2Q117.1 301.6 117.1 298.9L117.1 298.9L117.1 287.8L121.1 287.8L121.1 298.8Q121.1 300.4 121.7 301.1Q122.3 301.9 123.6 301.9L123.6 301.9Q124.9 301.9 125.6 301.1Q126.2 300.4 126.2 298.8L126.2 298.8L126.2 287.8L130.1 287.8ZM143.4 304.4L140.0 298.1L138.4 298.1L138.4 304.4L134.5 304.4L134.5 287.8L139.9 287.8Q143.3 287.8 145.1 289.1Q146.8 290.3 146.8 292.9L146.8 292.9Q146.8 294.5 146.0 295.5Q145.2 296.6 143.6 297.4L143.6 297.4L147.8 304.4L143.4 304.4ZM138.4 290.6L138.4 295.4L140.1 295.4Q141.4 295.4 142.1 294.8Q142.7 294.2 142.7 292.9L142.7 292.9Q142.7 291.7 142.0 291.1Q141.3 290.6 139.8 290.6L139.8 290.6L138.4 290.6Z M156.6 287.8L169.4 287.8L169.0 290.8L164.9 290.8L164.9 304.4L160.9 304.4L160.9 290.8L156.6 290.8L156.6 287.8ZM172.4 287.8L182.6 287.8L182.2 290.6L176.4 290.6L176.4 294.6L181.5 294.6L181.5 297.4L176.4 297.4L176.4 301.6L182.6 301.6L182.6 304.4L172.4 304.4L172.4 287.8ZM201.8 287.8L203.1 304.4L199.2 304.4L198.9 297.9Q198.8 295.6 198.8 293.8L198.8 293.8Q198.8 292.4 198.9 291.1L198.9 291.1L196.3 302.7L192.6 302.7L189.9 291.1Q190 293.2 190 295.1L190 295.1Q190 296.5 189.9 298.0L189.9 298.0L189.6 304.4L185.8 304.4L187.0 287.8L192.0 287.8L194.5 299.1L196.8 287.8L201.8 287.8ZM212.3 287.8Q215.6 287.8 217.4 289.2Q219.2 290.5 219.2 293.2L219.2 293.2Q219.2 296.0 217.5 297.5Q215.7 298.9 212.7 298.9L212.7 298.9L210.9 298.9L210.9 304.4L206.9 304.4L206.9 287.8L212.3 287.8ZM212.3 296.1Q213.7 296.1 214.5 295.4Q215.2 294.7 215.2 293.2L215.2 293.2Q215.2 290.6 212.3 290.6L212.3 290.6L210.9 290.6L210.9 296.1L212.3 296.1ZM222.8 287.8L233.0 287.8L232.6 290.6L226.8 290.6L226.8 294.6L231.9 294.6L231.9 297.4L226.8 297.4L226.8 301.6L233.0 301.6L233.0 304.4L222.8 304.4L222.8 287.8ZM245.8 304.4L242.4 298.1L240.9 298.1L240.9 304.4L237.0 304.4L237.0 287.8L242.4 287.8Q245.8 287.8 247.5 289.1Q249.2 290.3 249.2 292.9L249.2 292.9Q249.2 294.5 248.5 295.5Q247.7 296.6 246.1 297.4L246.1 297.4L250.3 304.4L245.8 304.4ZM240.9 290.6L240.9 295.4L242.5 295.4Q243.9 295.4 244.5 294.8Q245.2 294.2 245.2 292.9L245.2 292.9Q245.2 291.7 244.5 291.1Q243.8 290.6 242.3 290.6L242.3 290.6L240.9 290.6ZM266.2 304.4L262.0 304.4L261.2 300.9L256.3 300.9L255.5 304.4L251.4 304.4L256.4 287.8L261.2 287.8L266.2 304.4ZM258.7 290.7L257.0 298.0L260.5 298.0L258.7 290.7ZM267.6 287.8L280.3 287.8L279.9 290.8L275.8 290.8L275.8 304.4L271.9 304.4L271.9 290.8L267.6 290.8L267.6 287.8ZM296.1 287.8L296.1 298.9Q296.1 300.6 295.4 302.0Q294.7 303.3 293.2 304.1Q291.7 304.8 289.6 304.8L289.6 304.8Q286.5 304.8 284.8 303.2Q283.1 301.6 283.1 298.9L283.1 298.9L283.1 287.8L287.1 287.8L287.1 298.8Q287.1 300.4 287.7 301.1Q288.3 301.9 289.6 301.9L289.6 301.9Q291.0 301.9 291.6 301.1Q292.2 300.4 292.2 298.8L292.2 298.8L292.2 287.8L296.1 287.8ZM309.4 304.4L306.0 298.1L304.4 298.1L304.4 304.4L300.5 304.4L300.5 287.8L306.0 287.8Q309.4 287.8 311.1 289.1Q312.8 290.3 312.8 292.9L312.8 292.9Q312.8 294.5 312.0 295.5Q311.3 296.6 309.6 297.4L309.6 297.4L313.8 304.4L309.4 304.4ZM304.4 290.6L304.4 295.4L306.1 295.4Q307.4 295.4 308.1 294.8Q308.7 294.2 308.7 292.9L308.7 292.9Q308.7 291.7 308.0 291.1Q307.3 290.6 305.9 290.6L305.9 290.6L304.4 290.6ZM316.8 287.8L327.0 287.8L326.6 290.6L320.8 290.6L320.8 294.6L325.9 294.6L325.9 297.4L320.8 297.4L320.8 301.6L327.0 301.6L327.0 304.4L316.8 304.4L316.8 287.8Z "/><mask id="satori_om-id-1-0-1"><rect x="653" y="282" width="267" height="34" fill="#fff"/></mask><path fill="#333" d="M669.8 288.8L669.8 308.2L663.9 308.2L658.3 293.1Q658.6 295.4 658.8 297.1Q658.9 298.7 658.9 301.1L658.9 301.1L658.9 308.2L654.8 308.2L654.8 288.8L660.5 288.8L666.3 303.8Q665.7 300.0 665.7 296.6L665.7 296.6L665.7 288.8L669.8 288.8ZM679.7 292.8Q683.2 292.8 685.1 294.9Q687.0 297.0 687.0 300.8L687.0 300.8Q687.0 303.1 686.1 304.9Q685.3 306.7 683.6 307.7Q682.0 308.7 679.7 308.7L679.7 308.7Q676.4 308.7 674.4 306.6Q672.5 304.5 672.5 300.7L672.5 300.7Q672.5 298.4 673.3 296.6Q674.2 294.8 675.9 293.8Q677.5 292.8 679.7 292.8L679.7 292.8ZM679.7 296.1Q678.4 296.1 677.7 297.2Q677.1 298.4 677.1 300.7L677.1 300.7Q677.1 303.2 677.7 304.3Q678.4 305.4 679.7 305.4L679.7 305.4Q681.1 305.4 681.8 304.3Q682.4 303.1 682.4 300.8L682.4 300.8Q682.4 298.3 681.8 297.2Q681.1 296.1 679.7 296.1L679.7 296.1Z M708.8 293.3L708.8 308.2L705.0 308.2L704.8 306.3Q703.2 308.7 700.3 308.7L700.3 308.7Q698.2 308.7 697.2 307.4Q696.1 306.2 696.1 304.0L696.1 304.0L696.1 293.3L700.6 293.3L700.6 303.4Q700.6 304.5 700.9 304.9Q701.3 305.4 702 305.4L702 305.4Q703.4 305.4 704.4 303.6L704.4 303.6L704.4 293.3L708.8 293.3ZM728.7 292.8Q730.5 292.8 731.6 294.0Q732.6 295.2 732.6 297.3L732.6 297.3L732.6 308.2L728.2 308.2L728.2 298.1Q728.2 296.1 726.9 296.1L726.9 296.1Q726.2 296.1 725.7 296.6Q725.2 297.0 724.7 298.0L724.7 298.0L724.7 308.2L720.3 308.2L720.3 298.1Q720.3 296.1 719.0 296.1L719.0 296.1Q718.3 296.1 717.8 296.6Q717.2 297.1 716.7 298.0L716.7 298.0L716.7 308.2L712.3 308.2L712.3 293.3L716.2 293.3L716.5 295.0Q717.3 293.9 718.4 293.4Q719.4 292.8 720.8 292.8L720.8 292.8Q722.0 292.8 723.0 293.5Q723.9 294.1 724.3 295.2L724.3 295.2Q725.2 294.0 726.3 293.4Q727.3 292.8 728.7 292.8L728.7 292.8ZM744.4 292.8Q747.1 292.8 748.5 294.9Q749.9 297.0 749.9 300.8L749.9 300.8Q749.9 303.1 749.2 304.8Q748.5 306.6 747.1 307.6Q745.8 308.7 744 308.7L744 308.7Q742.8 308.7 741.8 308.2Q740.8 307.6 740.1 306.8L740.1 306.8L739.9 308.2L736.0 308.2L736.0 287.4L740.4 286.9L740.4 294.8Q741.1 293.9 742.1 293.4Q743.2 292.8 744.4 292.8L744.4 292.8ZM742.7 305.4Q745.3 305.4 745.3 300.8L745.3 300.8Q745.3 298.1 744.7 297.1Q744.1 296.1 742.9 296.1L742.9 296.1Q741.4 296.1 740.4 297.8L740.4 297.8L740.4 304.0Q740.8 304.7 741.4 305.1Q742.0 305.4 742.7 305.4L742.7 305.4ZM760.7 292.9Q761.6 292.9 762.2 293.1L762.2 293.1L761.5 297.4Q760.7 297.2 760.2 297.2L760.2 297.2Q758.9 297.2 758.2 298.1Q757.5 299.0 757.1 300.8L757.1 300.8L757.1 308.2L752.7 308.2L752.7 293.3L756.5 293.3L756.9 296.2Q757.4 294.7 758.4 293.8Q759.5 292.9 760.7 292.9L760.7 292.9ZM776.9 300.5Q776.9 301.4 776.8 302.0L776.8 302.0L767.6 302.0Q767.8 303.9 768.6 304.7Q769.5 305.4 771.0 305.4L771.0 305.4Q771.9 305.4 772.7 305.1Q773.5 304.8 774.5 304.1L774.5 304.1L776.3 306.6Q773.7 308.7 770.5 308.7L770.5 308.7Q766.9 308.7 765.0 306.5Q763.1 304.4 763.1 300.8L763.1 300.8Q763.1 298.5 763.9 296.7Q764.7 294.9 766.3 293.9Q767.8 292.8 770.0 292.8L770.0 292.8Q773.2 292.8 775.1 294.9Q776.9 296.9 776.9 300.5L776.9 300.5ZM772.5 299.4L772.5 299.2Q772.5 295.8 770.1 295.8L770.1 295.8Q769.0 295.8 768.3 296.6Q767.7 297.5 767.6 299.4L767.6 299.4L772.5 299.4ZM783.3 308.7Q781.4 308.7 780.3 307.6Q779.2 306.4 779.2 304.4L779.2 304.4L779.2 287.4L783.6 286.9L783.6 304.2Q783.6 305.2 784.4 305.2L784.4 305.2Q784.8 305.2 785.1 305.0L785.1 305.0L786.0 308.2Q784.8 308.7 783.3 308.7L783.3 308.7ZM791.6 308.7Q789.7 308.7 788.6 307.6Q787.5 306.4 787.5 304.4L787.5 304.4L787.5 287.4L792.0 286.9L792.0 304.2Q792.0 305.2 792.7 305.2L792.7 305.2Q793.1 305.2 793.4 305.0L793.4 305.0L794.3 308.2Q793.1 308.7 791.6 308.7L791.6 308.7ZM807.8 303.9Q807.8 304.7 808.0 305.1Q808.3 305.5 808.8 305.7L808.8 305.7L807.9 308.6Q806.5 308.5 805.7 308.0Q804.8 307.5 804.3 306.4L804.3 306.4Q802.9 308.7 799.8 308.7L799.8 308.7Q797.6 308.7 796.3 307.4Q795.0 306.1 795.0 304.0L795.0 304.0Q795.0 301.6 796.8 300.3Q798.6 299.0 802.0 299.0L802.0 299.0L803.5 299.0L803.5 298.4Q803.5 297.0 802.9 296.5Q802.4 296.1 801.0 296.1L801.0 296.1Q800.2 296.1 799.2 296.3Q798.2 296.5 797.1 296.8L797.1 296.8L796.1 293.9Q797.5 293.4 798.9 293.1Q800.4 292.8 801.7 292.8L801.7 292.8Q804.8 292.8 806.3 294.2Q807.8 295.5 807.8 298.1L807.8 298.1L807.8 303.9ZM801.1 305.5Q802.6 305.5 803.5 304.1L803.5 304.1L803.5 301.4L802.4 301.4Q800.9 301.4 800.1 302.0Q799.4 302.5 799.4 303.6L799.4 303.6Q799.4 304.5 799.8 305.0Q800.3 305.5 801.1 305.5L801.1 305.5Z M826.7 292.8Q828.6 292.8 829.7 294.0Q830.8 295.2 830.8 297.3L830.8 297.3L830.8 308.2L826.4 308.2L826.4 298.1Q826.4 297.0 826.0 296.5Q825.7 296.1 825.0 296.1L825.0 296.1Q823.6 296.1 822.4 298.0L822.4 298.0L822.4 308.2L818.0 308.2L818.0 293.3L821.8 293.3L822.1 295.1Q823.1 294.0 824.2 293.4Q825.3 292.8 826.7 292.8L826.7 292.8ZM847.1 300.5Q847.1 301.4 847.0 302.0L847.0 302.0L837.8 302.0Q838.0 303.9 838.9 304.7Q839.7 305.4 841.2 305.4L841.2 305.4Q842.1 305.4 842.9 305.1Q843.8 304.8 844.7 304.1L844.7 304.1L846.6 306.6Q844.0 308.7 840.8 308.7L840.8 308.7Q837.2 308.7 835.2 306.5Q833.3 304.4 833.3 300.8L833.3 300.8Q833.3 298.5 834.1 296.7Q834.9 294.9 836.5 293.9Q838.1 292.8 840.2 292.8L840.2 292.8Q843.5 292.8 845.3 294.9Q847.1 296.9 847.1 300.5L847.1 300.5ZM842.8 299.4L842.8 299.2Q842.7 295.8 840.3 295.8L840.3 295.8Q839.2 295.8 838.6 296.6Q837.9 297.5 837.8 299.4L837.8 299.4L842.8 299.4ZM862.6 300.5Q862.6 301.4 862.5 302.0L862.5 302.0L853.3 302.0Q853.5 303.9 854.3 304.7Q855.2 305.4 856.6 305.4L856.6 305.4Q857.5 305.4 858.4 305.1Q859.2 304.8 860.2 304.1L860.2 304.1L862.0 306.6Q859.4 308.7 856.2 308.7L856.2 308.7Q852.6 308.7 850.7 306.5Q848.7 304.4 848.7 300.8L848.7 300.8Q848.7 298.5 849.6 296.7Q850.4 294.9 851.9 293.9Q853.5 292.8 855.7 292.8L855.7 292.8Q858.9 292.8 860.7 294.9Q862.6 296.9 862.6 300.5L862.6 300.5ZM858.2 299.4L858.2 299.2Q858.2 295.8 855.8 295.8L855.8 295.8Q854.7 295.8 854.0 296.6Q853.4 297.5 853.3 299.4L853.3 299.4L858.2 299.4ZM873.9 286.9L878.4 287.4L878.4 308.2L874.5 308.2L874.2 306.4Q872.7 308.7 870 308.7L870 308.7Q867.2 308.7 865.8 306.5Q864.3 304.4 864.3 300.7L864.3 300.7Q864.3 298.4 865.1 296.6Q865.9 294.9 867.2 293.8Q868.6 292.8 870.4 292.8L870.4 292.8Q872.5 292.8 873.9 294.2L873.9 294.2L873.9 286.9ZM871.4 305.4Q872.9 305.4 873.9 303.7L873.9 303.7L873.9 297.3Q873.4 296.7 872.9 296.4Q872.3 296.1 871.6 296.1L871.6 296.1Q870.4 296.1 869.7 297.2Q868.9 298.4 868.9 300.7L868.9 300.7Q868.9 303.3 869.6 304.4Q870.2 305.4 871.4 305.4L871.4 305.4ZM894.8 300.5Q894.8 301.4 894.7 302.0L894.7 302.0L885.5 302.0Q885.7 303.9 886.6 304.7Q887.4 305.4 888.9 305.4L888.9 305.4Q889.8 305.4 890.6 305.1Q891.5 304.8 892.5 304.1L892.5 304.1L894.3 306.6Q891.7 308.7 888.5 308.7L888.5 308.7Q884.9 308.7 882.9 306.5Q881.0 304.4 881.0 300.8L881.0 300.8Q881.0 298.5 881.8 296.7Q882.6 294.9 884.2 293.9Q885.8 292.8 887.9 292.8L887.9 292.8Q891.2 292.8 893.0 294.9Q894.8 296.9 894.8 300.5L894.8 300.5ZM890.5 299.4L890.5 299.2Q890.4 295.8 888.1 295.8L888.1 295.8Q886.9 295.8 886.3 296.6Q885.7 297.5 885.5 299.4L885.5 299.4L890.5 299.4ZM906.2 286.9L910.6 287.4L910.6 308.2L906.7 308.2L906.5 306.4Q904.9 308.7 902.3 308.7L902.3 308.7Q899.5 308.7 898.0 306.5Q896.6 304.4 896.6 300.7L896.6 300.7Q896.6 298.4 897.4 296.6Q898.1 294.9 899.5 293.8Q900.9 292.8 902.7 292.8L902.7 292.8Q904.8 292.8 906.2 294.2L906.2 294.2L906.2 286.9ZM903.6 305.4Q905.2 305.4 906.2 303.7L906.2 303.7L906.2 297.3Q905.7 296.7 905.1 296.4Q904.6 296.1 903.9 296.1L903.9 296.1Q902.6 296.1 901.9 297.2Q901.2 298.4 901.2 300.7L901.2 300.7Q901.2 303.3 901.8 304.4Q902.5 305.4 903.6 305.4L903.6 305.4ZM913.4 288.8L918.1 288.8L917.5 301.0L913.9 301.0L913.4 288.8ZM915.7 303.6Q916.8 303.6 917.5 304.3Q918.3 305.1 918.3 306.1L918.3 306.1Q918.3 307.2 917.5 307.9Q916.8 308.7 915.7 308.7L915.7 308.7Q914.7 308.7 913.9 307.9Q913.2 307.2 913.2 306.1L913.2 306.1Q913.2 305.1 913.9 304.3Q914.7 303.6 915.7 303.6L915.7 303.6Z "/><defs><clipPath id="satori_bc-id-1-1"><rect x="40" y="324" width="880" height="164"/></clipPath></defs><mask id="satori_om-id-1-1"><rect x="40" y="324" width="880" height="162" fill="#fff"/><path width="880" height="164" fill="none" stroke="#000" stroke-width="4" d="M920,488 A0,0 0 0 1 920,488 h-880 A0,0 0 0 1 40,488"/></mask><path width="880" height="164" clip-path="url(#satori_bc-id-1-1)" fill="none" stroke="#000" stroke-width="4" d="M920,488 A0,0 0 0 1 920,488 h-880 A0,0 0 0 1 40,488"/><clipPath id="satori_cp-id-1-1-0"><rect x="40" y="324" width="880" height="164"/></clipPath><mask id="satori_om-id-1-1-0"><rect x="40" y="324" width="880" height="164" fill="#fff"/></mask><image x="40" y="324" width="880" height="164" href="data:image/svg+xml;utf8,%3Csvg  xmlns=%22http://www.w3.org/2000/svg%22 width=%22Infinity%22 height=%22NaN%22%3E%3Cpolyline points=%220,64.94117647058823 38.26086956521739,58.11764705882352 76.52173913043478,44.470588235294116 114.78260869565217,30.82352941176471 153.04347826086956,24 191.30434782608694,24 229.56521739130434,30.82352941176471 267.82608695652175,44.470588235294116 306.0869565217391,58.11764705882352 344.34782608695656,71.76470588235294 382.6086956521739,85.41176470588235 420.8695652173913,99.05882352941177 459.1304347826087,112.70588235294117 497.39130434782606,119.52941176470588 535.6521739130435,126.3529411764706 573.9130434782609,133.1764705882353 612.1739130434783,140 650.4347826086956,140 688.6956521739131,133.1764705882353 726.9565217391305,126.3529411764706 765.2173913043478,112.70588235294117 803.4782608695651,99.05882352941177 841.7391304347826,85.41176470588235 880,71.76470588235294%22 stroke=%22%23000%22 stroke-width=%223%22 fill=%22none%22%3E%3C/polyline%3E%3C/svg%3E" preserveAspectRatio="none" clip-path="url(#satori_cp-id-1-1-0)" mask="url(#satori_om-id-1-1-0)"/><mask id="satori_om-id-1-1-0-0"><rect x="40" y="324" width="0" height="164" fill="#fff"/></mask><mask id="satori_om-id-1-1-1"><rect x="182" y="360" width="60" height="24" fill="#fff"/></mask><path fill="#000" d="M196.3 365.2L205 365.2L205 367.3L200.0 379.0L197.2 378.1L201.7 367.6L196.3 367.6L196.3 365.2ZM213.7 371.4Q215.1 372.1 215.7 373.0Q216.4 373.9 216.4 375.0L216.4 375.0Q216.4 376.1 215.8 377.1Q215.1 378.0 213.9 378.5Q212.7 379.0 211.1 379.0L211.1 379.0Q209.5 379.0 208.4 378.5Q207.2 378.0 206.6 377.1Q205.9 376.2 205.9 375.1L205.9 375.1Q205.9 372.8 208.5 371.7L208.5 371.7Q206.5 370.6 206.5 368.5L206.5 368.5Q206.5 367.5 207.1 366.6Q207.7 365.8 208.8 365.4Q209.8 364.9 211.2 364.9L211.2 364.9Q213.2 364.9 214.6 365.8Q215.9 366.8 215.9 368.4L215.9 368.4Q215.9 369.3 215.3 370.1Q214.8 370.9 213.7 371.4L213.7 371.4ZM211.2 367.0Q210.4 367.0 210.0 367.4Q209.5 367.8 209.5 368.6L209.5 368.6Q209.5 369.3 209.9 369.7Q210.3 370.1 211.2 370.5L211.2 370.5L211.6 370.6Q212.3 370.2 212.5 369.7Q212.8 369.2 212.8 368.5L212.8 368.5Q212.8 367.9 212.4 367.4Q212.0 367.0 211.2 367.0L211.2 367.0ZM211.2 376.8Q212.2 376.8 212.7 376.3Q213.2 375.8 213.2 375.0L213.2 375.0Q213.2 374.2 212.8 373.7Q212.3 373.3 211.1 372.8L211.1 372.8L210.5 372.6Q209.1 373.4 209.1 374.9L209.1 374.9Q209.1 375.8 209.7 376.3Q210.2 376.8 211.2 376.8L211.2 376.8ZM221.3 371.3Q220.4 371.3 219.6 370.9Q218.8 370.5 218.3 369.7Q217.8 368.9 217.8 367.9L217.8 367.9Q217.8 366.9 218.3 366.1Q218.8 365.3 219.6 364.9Q220.4 364.5 221.3 364.5L221.3 364.5Q222.2 364.5 223.1 364.9Q223.9 365.3 224.4 366.1Q224.9 366.9 224.9 367.9L224.9 367.9Q224.9 368.9 224.4 369.7Q223.9 370.5 223.1 370.9Q222.2 371.3 221.3 371.3L221.3 371.3ZM221.3 369.5Q222.0 369.5 222.3 369.0Q222.7 368.6 222.7 367.9L222.7 367.9Q222.7 367.2 222.4 366.7Q222.0 366.3 221.3 366.3L221.3 366.3Q220.7 366.3 220.3 366.7Q219.9 367.2 219.9 367.9L219.9 367.9Q219.9 368.6 220.3 369.0Q220.7 369.5 221.3 369.5L221.3 369.5Z "/><mask id="satori_om-id-1-1-2"><rect x="641" y="432" width="60" height="24" fill="#fff"/></mask><path fill="#333" d="M661.9 441.6Q663.0 441.6 663.9 442.1Q664.8 442.7 665.3 443.7Q665.8 444.7 665.8 446.1L665.8 446.1Q665.8 447.5 665.2 448.6Q664.6 449.7 663.5 450.4Q662.4 451.0 660.9 451.0L660.9 451.0Q658.3 451.0 657.0 449.3Q655.8 447.6 655.8 444.5L655.8 444.5Q655.8 442.2 656.5 440.5Q657.2 438.8 658.5 437.8Q659.8 436.9 661.6 436.9L661.6 436.9Q663.4 436.9 664.7 437.8L664.7 437.8L663.6 439.7Q662.7 439.2 661.7 439.2L661.7 439.2Q660.6 439.2 659.9 440.1Q659.2 441.1 659.0 442.8L659.0 442.8Q660.3 441.6 661.9 441.6L661.9 441.6ZM660.9 448.8Q661.8 448.8 662.2 448.1Q662.6 447.4 662.6 446.1L662.6 446.1Q662.6 444.9 662.2 444.3Q661.8 443.8 661.0 443.8L661.0 443.8Q659.9 443.8 659.0 444.8L659.0 444.8Q659.1 447.0 659.5 447.9Q659.9 448.8 660.9 448.8L660.9 448.8ZM671.1 437.2L673.9 437.2L673.9 450.7L670.8 450.7L670.8 440.3L667.9 442.0L666.5 439.9L671.1 437.2ZM679.9 443.3Q679.0 443.3 678.2 442.9Q677.4 442.5 676.9 441.7Q676.3 440.9 676.3 439.9L676.3 439.9Q676.3 438.9 676.8 438.1Q677.4 437.3 678.2 436.9Q679.0 436.5 679.9 436.5L679.9 436.5Q680.8 436.5 681.6 436.9Q682.5 437.3 683.0 438.1Q683.5 438.9 683.5 439.9L683.5 439.9Q683.5 440.9 683.0 441.7Q682.5 442.5 681.6 442.9Q680.8 443.3 679.9 443.3L679.9 443.3ZM679.9 441.5Q680.5 441.5 680.9 441.0Q681.3 440.6 681.3 439.9L681.3 439.9Q681.3 439.2 680.9 438.7Q680.6 438.3 679.9 438.3L679.9 438.3Q679.3 438.3 678.9 438.7Q678.5 439.2 678.5 439.9L678.5 439.9Q678.5 440.6 678.9 441.0Q679.3 441.5 679.9 441.5L679.9 441.5Z "/><mask id="satori_om-id-1-2"><rect x="40" y="492" width="880" height="22" fill="#fff"/></mask><mask id="satori_om-id-1-2-0"><rect x="143" y="492" width="50" height="28" fill="#fff"/></mask><path fill="#333" d="M169.3 503.5Q170.6 503.5 171.7 504.2Q172.7 504.8 173.3 506.0Q173.9 507.2 173.9 508.9L173.9 508.9Q173.9 510.6 173.2 511.9Q172.5 513.3 171.2 514.1Q169.8 514.8 168.1 514.8L168.1 514.8Q164.9 514.8 163.4 512.8Q161.9 510.7 161.9 507.0L161.9 507.0Q161.9 504.3 162.8 502.2Q163.6 500.2 165.2 499.0Q166.8 497.9 169.0 497.9L169.0 497.9Q171.1 497.9 172.7 499.0L172.7 499.0L171.3 501.2Q170.2 500.6 169.1 500.6L169.1 500.6Q167.7 500.6 166.9 501.7Q166.0 502.9 165.8 505.0L165.8 505.0Q167.3 503.5 169.3 503.5L169.3 503.5ZM168.1 512.1Q169.1 512.1 169.6 511.3Q170.1 510.4 170.1 508.9L170.1 508.9Q170.1 507.4 169.7 506.8Q169.2 506.1 168.2 506.1L168.2 506.1Q166.9 506.1 165.8 507.4L165.8 507.4Q165.9 510.0 166.4 511.1Q166.9 512.1 168.1 512.1L168.1 512.1Z "/><mask id="satori_om-id-1-2-1"><rect x="363" y="492" width="50" height="28" fill="#fff"/></mask><path fill="#333" d="M381.8 498.2L385.2 498.2L385.2 514.4L381.4 514.4L381.4 501.9L378.0 504.0L376.3 501.5L381.8 498.2ZM392.8 497.9Q394.6 497.9 395.9 498.5Q397.1 499.1 397.8 500.2Q398.4 501.2 398.4 502.5L398.4 502.5Q398.4 503.8 397.9 505.0Q397.4 506.2 396.0 507.7Q394.7 509.2 392.1 511.5L392.1 511.5L398.8 511.5L398.4 514.4L387.8 514.4L387.8 511.8Q390.8 508.8 392.1 507.4Q393.5 505.9 394.0 504.9Q394.6 503.9 394.6 502.9L394.6 502.9Q394.6 501.9 394.0 501.3Q393.4 500.8 392.5 500.8L392.5 500.8Q391.6 500.8 390.9 501.2Q390.3 501.6 389.5 502.5L389.5 502.5L387.3 500.7Q388.3 499.4 389.7 498.6Q391.1 497.9 392.8 497.9L392.8 497.9Z "/><mask id="satori_om-id-1-2-2"><rect x="583" y="492" width="50" height="28" fill="#fff"/></mask><path fill="#333" d="M609.3 503.5Q610.6 503.5 611.7 504.2Q612.7 504.8 613.3 506.0Q613.9 507.2 613.9 508.9L613.9 508.9Q613.9 510.6 613.2 511.9Q612.5 513.3 611.2 514.1Q609.8 514.8 608.1 514.8L608.1 514.8Q604.9 514.8 603.4 512.8Q601.9 510.7 601.9 507.0L601.9 507.0Q601.9 504.3 602.8 502.2Q603.6 500.2 605.2 499.0Q606.8 497.9 609.0 497.9L609.0 497.9Q611.1 497.9 612.7 499.0L612.7 499.0L611.3 501.2Q610.2 500.6 609.1 500.6L609.1 500.6Q607.7 500.6 606.9 501.7Q606.0 502.9 605.8 505.0L605.8 505.0Q607.3 503.5 609.3 503.5L609.3 503.5ZM608.1 512.1Q609.1 512.1 609.6 511.3Q610.1 510.4 610.1 508.9L610.1 508.9Q610.1 507.4 609.7 506.8Q609.2 506.1 608.2 506.1L608.2 506.1Q606.9 506.1 605.8 507.4L605.8 507.4Q605.9 510.0 606.4 511.1Q606.9 512.1 608.1 512.1L608.1 512.1Z "/><mask id="satori_om-id-1-2-3"><rect x="803" y="492" width="50" height="28" fill="#fff"/></mask><path fill="#333" d="M821.8 498.2L825.2 498.2L825.2 514.4L821.4 514.4L821.4 501.9L818.0 504.0L816.3 501.5L821.8 498.2ZM832.8 497.9Q834.6 497.9 835.9 498.5Q837.1 499.1 837.8 500.2Q838.4 501.2 838.4 502.5L838.4 502.5Q838.4 503.8 837.9 505.0Q837.4 506.2 836.0 507.7Q834.7 509.2 832.1 511.5L832.1 511.5L838.8 511.5L838.4 514.4L827.8 514.4L827.8 511.8Q830.8 508.8 832.1 507.4Q833.5 505.9 834.0 504.9Q834.6 503.9 834.6 502.9L834.6 502.9Q834.6 501.9 834.0 501.3Q833.4 500.8 832.5 500.8L832.5 500.8Q831.6 500.8 830.9 501.2Q830.3 501.6 829.5 502.5L829.5 502.5L827.3 500.7Q828.3 499.4 829.7 498.6Q831.1 497.9 832.8 497.9L832.8 497.9Z "/><mask id="satori_om-id-2"><rect x="0" y="514" width="960" height="18" fill="#fff"/></mask><mask id="satori_om-id-2-0"><rect x="40" y="520" width="880" height="0" fill="#fff"/></mask></svg>