<svg width="960" height="540" viewBox="0 0 960 540" xmlns="http://www.w3.org/2000/svg"><mask id="satori_om-id"><rect x="0" y="0" width="960" height="540" fill="#fff"/></mask><rect x="0" y="0" width="960" height="540" fill="#fff"/><mask id="satori_om-id-0"><rect x="60" y="40" width="375" height="77" fill="#fff"/></mask><g  ><path fill="#000" d="M76.5 55.6Q86.9 55.6 93.2 60.4Q99.6 65.1 99.6 77.6L99.6 77.6Q99.6 90.0 93.4 95.0Q87.3 100 77.5 100L77.5 100L64.2 100L64.2 55.6L76.5 55.6ZM78.0 63.3L74.7 63.3L74.7 92.4L78.1 92.4Q83.3 92.4 86.0 89.2Q88.7 85.9 88.7 77.6L88.7 77.6Q88.7 71.9 87.3 68.8Q86.0 65.6 83.7 64.4Q81.4 63.3 78.0 63.3L78.0 63.3ZM135.3 82.3Q135.3 84.4 135.1 86.0L135.1 86.0L114.0 86.0Q114.5 90.3 116.4 92Q118.4 93.7 121.8 93.7L121.8 93.7Q123.8 93.7 125.7 93.0Q127.6 92.3 129.9 90.7L129.9 90.7L134.0 96.4Q128.1 101.1 120.8 101.1L120.8 101.1Q112.5 101.1 108.1 96.2Q103.7 91.4 103.7 83.2L103.7 83.2Q103.7 78.0 105.6 73.9Q107.4 69.7 111.0 67.3Q114.6 64.9 119.6 64.9L119.6 64.9Q126.9 64.9 131.1 69.5Q135.3 74.1 135.3 82.3L135.3 82.3ZM125.3 79.9L125.3 79.5Q125.2 71.6 119.8 71.6L119.8 71.6Q117.2 71.6 115.8 73.6Q114.3 75.5 114.0 79.9L114.0 79.9L125.3 79.9ZM159.9 66.0L170.2 66.0L159.5 100L147.6 100L136.6 66.0L147.6 66.0L153.6 92.3L159.9 66.0ZM173.8 66.0L183.9 66.0L183.9 100L173.8 100L173.8 66.0ZM178.8 48.1Q181.4 48.1 183.1 49.7Q184.8 51.4 184.8 53.9L184.8 53.9Q184.8 56.4 183.1 58.0Q181.4 59.6 178.8 59.6L178.8 59.6Q176.2 59.6 174.5 58.0Q172.8 56.4 172.8 53.9L172.8 53.9Q172.8 51.4 174.5 49.7Q176.2 48.1 178.8 48.1L178.8 48.1ZM206.6 64.9Q210.1 64.9 212.9 66.0Q215.7 67.0 218.2 69.1L218.2 69.1L213.9 75.1Q210.7 72.7 207.4 72.7L207.4 72.7Q204 72.7 202.3 75.2Q200.5 77.7 200.5 83.2L200.5 83.2Q200.5 88.6 202.3 90.8Q204 93.1 207.3 93.1L207.3 93.1Q209.0 93.1 210.4 92.5Q211.8 92 213.8 90.8L213.8 90.8L218.2 97.1Q213.2 101.1 206.8 101.1L206.8 101.1Q201.6 101.1 197.8 98.9Q194.0 96.7 192.0 92.7Q189.9 88.7 189.9 83.3L189.9 83.3Q189.9 77.9 192.0 73.8Q194.0 69.6 197.8 67.3Q201.6 64.9 206.6 64.9L206.6 64.9ZM252.1 82.3Q252.1 84.4 251.9 86.0L251.9 86.0L230.9 86.0Q231.4 90.3 233.3 92Q235.2 93.7 238.6 93.7L238.6 93.7Q240.7 93.7 242.6 93.0Q244.5 92.3 246.8 90.7L246.8 90.7L250.9 96.4Q245.0 101.1 237.7 101.1L237.7 101.1Q229.4 101.1 225.0 96.2Q220.6 91.4 220.6 83.2L220.6 83.2Q220.6 78.0 222.4 73.9Q224.3 69.7 227.9 67.3Q231.5 64.9 236.4 64.9L236.4 64.9Q243.8 64.9 248.0 69.5Q252.1 74.1 252.1 82.3L252.1 82.3ZM242.2 79.9L242.2 79.5Q242.1 71.6 236.7 71.6L236.7 71.6Q234.1 71.6 232.6 73.6Q231.2 75.5 230.9 79.9L230.9 79.9L242.2 79.9Z M285.0 64.9Q288.6 64.9 291.8 66.0Q295.0 67.1 297.4 69.1L297.4 69.1L293.7 74.8Q289.6 72.2 285.3 72.2L285.3 72.2Q283.4 72.2 282.3 72.8Q281.2 73.5 281.2 74.7L281.2 74.7Q281.2 75.7 281.7 76.3Q282.2 76.9 283.7 77.5Q285.2 78.2 288.2 79.1L288.2 79.1Q293.5 80.6 296.1 83.1Q298.7 85.5 298.7 89.9L298.7 89.9Q298.7 93.3 296.7 95.9Q294.8 98.4 291.3 99.7Q287.8 101.1 283.6 101.1L283.6 101.1Q279.3 101.1 275.6 99.7Q272.0 98.4 269.4 96.0L269.4 96.0L274.3 90.5Q278.6 93.9 283.4 93.9L283.4 93.9Q285.7 93.9 287.0 93.0Q288.3 92.2 288.3 90.7L288.3 90.7Q288.3 89.4 287.8 88.7Q287.3 88.0 285.8 87.4Q284.3 86.8 281.1 85.9L281.1 85.9Q276.1 84.4 273.6 81.8Q271.1 79.2 271.1 75.3L271.1 75.3Q271.1 72.4 272.8 70.0Q274.5 67.7 277.6 66.3Q280.8 64.9 285.0 64.9L285.0 64.9ZM333.5 82.3Q333.5 84.4 333.3 86.0L333.3 86.0L312.3 86.0Q312.8 90.3 314.7 92Q316.6 93.7 320.0 93.7L320.0 93.7Q322.1 93.7 324 93.0Q325.9 92.3 328.2 90.7L328.2 90.7L332.3 96.4Q326.4 101.1 319.1 101.1L319.1 101.1Q310.8 101.1 306.4 96.2Q302.0 91.4 302.0 83.2L302.0 83.2Q302.0 78.0 303.8 73.9Q305.7 69.7 309.3 67.3Q312.9 64.9 317.9 64.9L317.9 64.9Q325.2 64.9 329.4 69.5Q333.5 74.1 333.5 82.3L333.5 82.3ZM323.6 79.9L323.6 79.5Q323.5 71.6 318.1 71.6L318.1 71.6Q315.5 71.6 314.0 73.6Q312.6 75.5 312.3 79.9L312.3 79.9L323.6 79.9ZM357.2 92L360.5 98.4Q358.7 99.7 356.2 100.4Q353.8 101.1 351.3 101.1L351.3 101.1Q340.2 101.0 340.2 88.8L340.2 88.8L340.2 73.1L335.4 73.1L335.4 66.0L340.2 66.0L340.2 58.7L350.3 57.5L350.3 66.0L358.1 66.0L357.0 73.1L350.3 73.1L350.3 88.7Q350.3 91.0 351.1 92.1Q351.8 93.1 353.5 93.1L353.5 93.1Q355.2 93.1 357.2 92L357.2 92ZM392.6 66.0L392.6 100L383.8 100L383.4 95.7Q379.7 101.1 373.1 101.1L373.1 101.1Q368.4 101.1 366.0 98.3Q363.6 95.5 363.6 90.4L363.6 90.4L363.6 66.0L373.7 66.0L373.7 89.1Q373.7 91.6 374.5 92.6Q375.3 93.6 377.0 93.6L377.0 93.6Q380.2 93.6 382.5 89.6L382.5 89.6L382.5 66.0L392.6 66.0ZM419.7 64.9Q426.1 64.9 429.3 69.7Q432.4 74.4 432.4 82.9L432.4 82.9Q432.4 88.2 430.8 92.3Q429.2 96.4 426.1 98.8Q423.0 101.1 418.9 101.1L418.9 101.1Q413.8 101.1 410.7 97.6L410.7 97.6L410.7 113.1L400.5 114.2L400.5 66.0L409.4 66.0L410.0 69.8Q411.9 67.3 414.5 66.1Q417.1 64.9 419.7 64.9L419.7 64.9ZM415.8 93.7Q421.9 93.7 421.9 83.0L421.9 83.0Q421.9 77.0 420.6 74.7Q419.2 72.4 416.5 72.4L416.5 72.4Q414.8 72.4 413.3 73.4Q411.8 74.4 410.7 76.3L410.7 76.3L410.7 90.7Q412.7 93.7 415.8 93.7L415.8 93.7Z "/></g><mask id="satori_om-id-1"><rect x="60" y="124" width="840" height="3" fill="#fff"/></mask><rect x="60" y="124" width="840" height="3" fill="#333"/><mask id="satori_om-id-2"><rect x="60" y="175" width="560" height="238" fill="#fff"/></mask><mask id="satori_om-id-2-0"><rect x="60" y="175" width="560" height="40" fill="#fff"/></mask><mask id="satori_om-id-2-0-0"><rect x="60" y="175" width="38" height="38" fill="#fff"/></mask><g  ><path fill="#000" d="M67.7 183.4L72.2 183.4L72.2 205L67.3 205L67.3 188.3L62.6 191.1L60.4 187.8L67.7 183.4ZM78.7 199.8Q79.9 199.8 80.7 200.6Q81.6 201.4 81.6 202.6L81.6 202.6Q81.6 203.8 80.7 204.7Q79.9 205.5 78.7 205.5L78.7 205.5Q77.5 205.5 76.6 204.7Q75.8 203.8 75.8 202.6L75.8 202.6Q75.8 201.4 76.6 200.6Q77.5 199.8 78.7 199.8L78.7 199.8Z "/></g><mask id="satori_om-id-2-0-1"><rect x="98" y="175" width="522" height="40" fill="#fff"/></mask><g  ><path fill="#000" d="M117.1 183.8L117.1 198.6Q117.1 200.9 116.1 202.7Q115.1 204.5 113.2 205.5Q111.2 206.5 108.4 206.5L108.4 206.5Q104.2 206.5 102.0 204.4Q99.8 202.3 99.8 198.6L99.8 198.6L99.8 183.8L105.0 183.8L105.0 198.4Q105.0 200.6 105.8 201.6Q106.6 202.6 108.4 202.6L108.4 202.6Q110.2 202.6 111.0 201.6Q111.8 200.6 111.8 198.4L111.8 198.4L111.8 183.8L117.1 183.8ZM130.8 188.5Q133.0 188.5 134.2 189.8Q135.5 191.2 135.5 193.6L135.5 193.6L135.5 206L130.4 206L130.4 194.4Q130.4 193.2 130.0 192.7Q129.6 192.2 128.8 192.2L128.8 192.2Q127.3 192.2 125.9 194.4L125.9 194.4L125.9 206L120.8 206L120.8 189.0L125.2 189.0L125.6 191.0Q126.7 189.7 127.9 189.1Q129.2 188.5 130.8 188.5L130.8 188.5ZM143.8 206.5Q141.6 206.5 140.4 205.3Q139.1 204.0 139.1 201.7L139.1 201.7L139.1 182.3L144.2 181.7L144.2 201.5Q144.2 202.5 145.0 202.5L145.0 202.5Q145.5 202.5 145.9 202.4L145.9 202.4L146.9 206.0Q145.5 206.5 143.8 206.5L143.8 206.5ZM156.1 188.5Q160.0 188.5 162.3 190.8Q164.5 193.2 164.5 197.5L164.5 197.5Q164.5 200.2 163.5 202.3Q162.4 204.3 160.6 205.4Q158.7 206.5 156.1 206.5L156.1 206.5Q152.3 206.5 150.0 204.2Q147.8 201.8 147.8 197.5L147.8 197.5Q147.8 194.8 148.8 192.7Q149.8 190.7 151.7 189.6Q153.6 188.5 156.1 188.5L156.1 188.5ZM156.1 192.2Q154.6 192.2 153.8 193.5Q153.1 194.8 153.1 197.5L153.1 197.5Q153.1 200.3 153.8 201.6Q154.6 202.8 156.1 202.8L156.1 202.8Q157.7 202.8 158.4 201.5Q159.2 200.2 159.2 197.5L159.2 197.5Q159.2 194.7 158.5 193.5Q157.7 192.2 156.1 192.2L156.1 192.2ZM174.8 188.5Q176.6 188.5 178.0 189.0Q179.4 189.5 180.7 190.5L180.7 190.5L178.5 193.6Q176.9 192.3 175.2 192.3L175.2 192.3Q173.6 192.3 172.7 193.6Q171.8 194.8 171.8 197.6L171.8 197.6Q171.8 200.3 172.7 201.4Q173.6 202.5 175.2 202.5L175.2 202.5Q176.0 202.5 176.8 202.3Q177.5 202 178.4 201.4L178.4 201.4L180.7 204.5Q178.1 206.5 174.9 206.5L174.9 206.5Q172.3 206.5 170.4 205.4Q168.6 204.3 167.5 202.3Q166.5 200.3 166.5 197.6L166.5 197.6Q166.5 195.0 167.5 192.9Q168.6 190.8 170.4 189.6Q172.3 188.5 174.8 188.5L174.8 188.5ZM182.8 182.3L187.9 181.7L187.9 206L182.8 206L182.8 182.3ZM193.2 189.0L198.4 189.0L193.2 196.5L198.8 206L193.1 206L188.0 196.7L193.2 189.0Z M222.8 189.0L217.4 206.0Q216.4 209.3 214.1 211.1Q211.8 212.9 207.9 213.1L207.9 213.1L207.3 209.6Q209.7 209.2 210.9 208.5Q212.1 207.7 212.8 206L212.8 206L211.1 206L205.9 189.0L211.2 189.0L214.3 202.8L217.6 189.0L222.8 189.0ZM232.0 188.5Q235.9 188.5 238.1 190.8Q240.3 193.2 240.3 197.5L240.3 197.5Q240.3 200.2 239.3 202.3Q238.3 204.3 236.4 205.4Q234.5 206.5 232.0 206.5L232.0 206.5Q228.1 206.5 225.9 204.2Q223.7 201.8 223.7 197.5L223.7 197.5Q223.7 194.8 224.7 192.7Q225.7 190.7 227.6 189.6Q229.4 188.5 232.0 188.5L232.0 188.5ZM232.0 192.2Q230.4 192.2 229.7 193.5Q228.9 194.8 228.9 197.5L228.9 197.5Q228.9 200.3 229.7 201.6Q230.4 202.8 232.0 202.8L232.0 202.8Q233.5 202.8 234.3 201.5Q235.1 200.2 235.1 197.5L235.1 197.5Q235.1 194.7 234.3 193.5Q233.6 192.2 232.0 192.2L232.0 192.2ZM257.6 189.0L257.6 206L253.3 206L253.0 203.9Q251.2 206.5 247.9 206.5L247.9 206.5Q245.6 206.5 244.4 205.1Q243.2 203.7 243.2 201.2L243.2 201.2L243.2 189.0L248.2 189.0L248.2 200.6Q248.2 201.8 248.6 202.3Q249.0 202.8 249.8 202.8L249.8 202.8Q251.4 202.8 252.6 200.8L252.6 200.8L252.6 189.0L257.6 189.0ZM270.8 188.5Q271.8 188.5 272.5 188.8L272.5 188.8L271.7 193.6Q270.8 193.4 270.2 193.4L270.2 193.4Q268.7 193.4 267.9 194.5Q267.1 195.5 266.7 197.6L266.7 197.6L266.7 206L261.6 206L261.6 189.0L266.0 189.0L266.4 192.3Q267.0 190.5 268.2 189.5Q269.4 188.5 270.8 188.5L270.8 188.5Z M291.6 188.5Q294.8 188.5 296.4 190.8Q298.0 193.2 298.0 197.5L298.0 197.5Q298.0 200.1 297.2 202.1Q296.3 204.2 294.8 205.4Q293.3 206.5 291.2 206.5L291.2 206.5Q288.7 206.5 287.1 204.8L287.1 204.8L287.1 212.6L282.0 213.1L282.0 189.0L286.5 189.0L286.7 190.9Q287.7 189.6 289.0 189.1Q290.3 188.5 291.6 188.5L291.6 188.5ZM289.7 202.8Q292.7 202.8 292.7 197.5L292.7 197.5Q292.7 194.5 292.0 193.3Q291.4 192.2 290.0 192.2L290.0 192.2Q289.2 192.2 288.4 192.7Q287.7 193.2 287.1 194.2L287.1 194.2L287.1 201.3Q288.1 202.8 289.7 202.8L289.7 202.8ZM311.1 188.5Q313.3 188.5 314.5 189.8Q315.8 191.2 315.8 193.6L315.8 193.6L315.8 206L310.7 206L310.7 194.4Q310.7 193.2 310.3 192.7Q309.9 192.2 309.1 192.2L309.1 192.2Q307.6 192.2 306.2 194.4L306.2 194.4L306.2 206L301.1 206L301.1 182.3L306.2 181.7L306.2 190.8Q307.2 189.6 308.4 189.1Q309.6 188.5 311.1 188.5L311.1 188.5ZM327.0 188.5Q330.9 188.5 333.1 190.8Q335.3 193.2 335.3 197.5L335.3 197.5Q335.3 200.2 334.3 202.3Q333.3 204.3 331.4 205.4Q329.5 206.5 327.0 206.5L327.0 206.5Q323.1 206.5 320.9 204.2Q318.6 201.8 318.6 197.5L318.6 197.5Q318.6 194.8 319.6 192.7Q320.7 190.7 322.5 189.6Q324.4 188.5 327.0 188.5L327.0 188.5ZM327.0 192.2Q325.4 192.2 324.7 193.5Q323.9 194.8 323.9 197.5L323.9 197.5Q323.9 200.3 324.6 201.6Q325.4 202.8 327.0 202.8L327.0 202.8Q328.5 202.8 329.3 201.5Q330.0 200.2 330.0 197.5L330.0 197.5Q330.0 194.7 329.3 193.5Q328.5 192.2 327.0 192.2L327.0 192.2ZM348.2 188.5Q350.4 188.5 351.7 189.8Q352.9 191.2 352.9 193.6L352.9 193.6L352.9 206L347.9 206L347.9 194.4Q347.9 193.2 347.5 192.7Q347.1 192.2 346.3 192.2L346.3 192.2Q344.8 192.2 343.3 194.4L343.3 194.4L343.3 206L338.3 206L338.3 189.0L342.7 189.0L343.1 191.0Q344.1 189.7 345.4 189.1Q346.7 188.5 348.2 188.5L348.2 188.5ZM371.6 197.2Q371.6 198.2 371.5 199.0L371.5 199.0L360.9 199.0Q361.2 201.1 362.2 202Q363.1 202.9 364.8 202.9L364.8 202.9Q365.8 202.9 366.8 202.5Q367.8 202.1 368.9 201.4L368.9 201.4L371.0 204.2Q368.0 206.5 364.3 206.5L364.3 206.5Q360.2 206.5 358 204.1Q355.8 201.7 355.8 197.6L355.8 197.6Q355.8 195.0 356.7 192.9Q357.6 190.9 359.4 189.7Q361.2 188.5 363.7 188.5L363.7 188.5Q367.4 188.5 369.5 190.8Q371.6 193.1 371.6 197.2L371.6 197.2ZM366.6 196.0L366.6 195.7Q366.5 191.8 363.9 191.8L363.9 191.8Q362.5 191.8 361.8 192.8Q361.1 193.7 360.9 196.0L360.9 196.0L366.6 196.0Z "/></g><mask id="satori_om-id-2-1"><rect x="60" y="241" width="560" height="80" fill="#fff"/></mask><mask id="satori_om-id-2-1-0"><rect x="60" y="241" width="38" height="38" fill="#fff"/></mask><g  ><path fill="#000" d="M67.6 248.9Q70.0 248.9 71.6 249.8Q73.3 250.6 74.2 252.0Q75.1 253.4 75.1 255.1L75.1 255.1Q75.1 256.8 74.4 258.4Q73.7 260.0 71.9 262.0Q70.1 264.0 66.7 267.1L66.7 267.1L75.5 267.1L75.0 271L60.9 271L60.9 267.4Q64.9 263.5 66.7 261.6Q68.4 259.6 69.2 258.3Q69.9 257.0 69.9 255.6L69.9 255.6Q69.9 254.3 69.1 253.5Q68.4 252.8 67.1 252.8L67.1 252.8Q66.0 252.8 65.1 253.3Q64.2 253.8 63.2 255.0L63.2 255.0L60.2 252.7Q61.5 250.9 63.4 249.9Q65.3 248.9 67.6 248.9L67.6 248.9ZM80.4 265.8Q81.6 265.8 82.4 266.6Q83.3 267.4 83.3 268.6L83.3 268.6Q83.3 269.8 82.4 270.7Q81.6 271.5 80.4 271.5L80.4 271.5Q79.2 271.5 78.3 270.7Q77.5 269.8 77.5 268.6L77.5 268.6Q77.5 267.4 78.3 266.6Q79.2 265.8 80.4 265.8L80.4 265.8Z "/></g><mask id="satori_om-id-2-1-1"><rect x="98" y="241" width="522" height="80" fill="#fff"/></mask><g  ><path fill="#000" d="M107.2 249.3Q109.7 249.3 111.6 250.0Q113.4 250.7 114.9 252.1L114.9 252.1L112.5 255.0Q110.2 253.1 107.6 253.1L107.6 253.1Q106.2 253.1 105.4 253.7Q104.6 254.2 104.6 255.3L104.6 255.3Q104.6 256.0 105.0 256.5Q105.3 257.0 106.2 257.4Q107.1 257.8 108.9 258.4L108.9 258.4Q112.3 259.5 113.9 261.0Q115.5 262.6 115.5 265.5L115.5 265.5Q115.5 267.6 114.4 269.2Q113.4 270.8 111.4 271.7Q109.4 272.5 106.7 272.5L106.7 272.5Q104.0 272.5 101.9 271.7Q99.8 270.8 98.3 269.4L98.3 269.4L100.9 266.5Q102.2 267.6 103.6 268.1Q104.9 268.6 106.5 268.6L106.5 268.6Q108.2 268.6 109.1 267.9Q110.1 267.2 110.1 265.9L110.1 265.9Q110.1 265.1 109.7 264.5Q109.4 264.0 108.5 263.5Q107.6 263.1 106 262.6L106 262.6Q102.3 261.4 100.8 259.8Q99.2 258.2 99.2 255.7L99.2 255.7Q99.2 253.8 100.2 252.3Q101.3 250.8 103.1 250.1Q104.9 249.3 107.2 249.3L107.2 249.3ZM125.6 254.5Q127.4 254.5 128.8 255.0Q130.2 255.5 131.5 256.5L131.5 256.5L129.3 259.6Q127.7 258.3 126.1 258.3L126.1 258.3Q124.4 258.3 123.5 259.6Q122.6 260.8 122.6 263.6L122.6 263.6Q122.6 266.3 123.5 267.4Q124.4 268.5 126 268.5L126 268.5Q126.9 268.5 127.6 268.3Q128.3 268 129.3 267.4L129.3 267.4L131.5 270.5Q128.9 272.5 125.7 272.5L125.7 272.5Q123.2 272.5 121.3 271.4Q119.4 270.3 118.4 268.3Q117.3 266.3 117.3 263.6L117.3 263.6Q117.3 261.0 118.4 258.9Q119.4 256.8 121.3 255.6Q123.2 254.5 125.6 254.5L125.6 254.5ZM147.1 267.1Q147.1 268.0 147.4 268.5Q147.7 268.9 148.3 269.2L148.3 269.2L147.2 272.4Q145.6 272.3 144.7 271.8Q143.7 271.2 143.1 270.0L143.1 270.0Q141.5 272.5 138 272.5L138 272.5Q135.5 272.5 134.0 271.1Q132.5 269.6 132.5 267.2L132.5 267.2Q132.5 264.4 134.5 263.0Q136.6 261.5 140.4 261.5L140.4 261.5L142.2 261.5L142.2 260.8Q142.2 259.3 141.5 258.7Q140.9 258.1 139.3 258.1L139.3 258.1Q138.4 258.1 137.3 258.4Q136.1 258.6 134.8 259.0L134.8 259.0L133.7 255.7Q135.3 255.1 137.0 254.8Q138.6 254.5 140.1 254.5L140.1 254.5Q143.7 254.5 145.4 256.0Q147.1 257.5 147.1 260.5L147.1 260.5L147.1 267.1ZM139.5 268.9Q141.2 268.9 142.2 267.3L142.2 267.3L142.2 264.3L140.9 264.3Q139.2 264.3 138.3 264.9Q137.5 265.5 137.5 266.8L137.5 266.8Q137.5 267.8 138.0 268.4Q138.5 268.9 139.5 268.9L139.5 268.9ZM161.1 254.5Q163.3 254.5 164.6 255.8Q165.8 257.2 165.8 259.6L165.8 259.6L165.8 272L160.8 272L160.8 260.4Q160.8 259.2 160.4 258.7Q160.0 258.2 159.2 258.2L159.2 258.2Q157.6 258.2 156.2 260.4L156.2 260.4L156.2 272L151.2 272L151.2 255.0L155.6 255.0L155.9 257.0Q157.0 255.7 158.3 255.1Q159.5 254.5 161.1 254.5L161.1 254.5Z M185.9 268L187.6 271.2Q186.7 271.8 185.5 272.2Q184.2 272.5 183.0 272.5L183.0 272.5Q177.5 272.5 177.5 266.4L177.5 266.4L177.5 258.5L175.1 258.5L175.1 255.0L177.5 255.0L177.5 251.3L182.5 250.8L182.5 255.0L186.4 255.0L185.9 258.5L182.5 258.5L182.5 266.3Q182.5 267.5 182.9 268.0Q183.3 268.5 184.1 268.5L184.1 268.5Q185.0 268.5 185.9 268L185.9 268ZM199.3 254.5Q201.5 254.5 202.7 255.8Q204.0 257.2 204.0 259.6L204.0 259.6L204.0 272L198.9 272L198.9 260.4Q198.9 259.2 198.5 258.7Q198.1 258.2 197.3 258.2L197.3 258.2Q195.8 258.2 194.4 260.4L194.4 260.4L194.4 272L189.3 272L189.3 248.3L194.4 247.7L194.4 256.8Q195.4 255.6 196.6 255.1Q197.8 254.5 199.3 254.5L199.3 254.5ZM222.6 263.2Q222.6 264.2 222.5 265.0L222.5 265.0L212.0 265.0Q212.2 267.1 213.2 268Q214.2 268.9 215.9 268.9L215.9 268.9Q216.9 268.9 217.8 268.5Q218.8 268.1 219.9 267.4L219.9 267.4L222.0 270.2Q219.0 272.5 215.4 272.5L215.4 272.5Q211.3 272.5 209.0 270.1Q206.8 267.7 206.8 263.6L206.8 263.6Q206.8 261.0 207.8 258.9Q208.7 256.9 210.5 255.7Q212.3 254.5 214.8 254.5L214.8 254.5Q218.5 254.5 220.5 256.8Q222.6 259.1 222.6 263.2L222.6 263.2ZM217.7 262.0L217.7 261.7Q217.6 257.8 214.9 257.8L214.9 257.8Q213.6 257.8 212.9 258.8Q212.2 259.7 212.0 262.0L212.0 262.0L217.7 262.0Z M246.8 270.6Q248.9 270.6 250.5 271.1Q252.0 271.6 253.4 272.6L253.4 272.6L250.2 276.7Q248.4 274.7 246.5 273.6Q244.6 272.4 241.7 272.4L241.7 272.4Q238.7 272.4 236.6 271.1Q234.4 269.7 233.2 267.1Q232.1 264.5 232.1 260.9L232.1 260.9Q232.1 257.3 233.3 254.7Q234.5 252.1 236.7 250.7Q238.9 249.3 242.0 249.3L242.0 249.3Q246.8 249.3 249.4 252.3Q252.1 255.4 252.1 260.9L252.1 260.9Q252.1 267.7 246.8 270.6L246.8 270.6ZM237.6 260.9Q237.6 265.0 238.7 266.8Q239.8 268.7 242.0 268.7L242.0 268.7Q244.3 268.7 245.4 266.9Q246.6 265.0 246.6 260.9L246.6 260.9Q246.6 256.8 245.4 254.9Q244.3 253.1 242.0 253.1L242.0 253.1Q239.8 253.1 238.7 255.0Q237.6 256.8 237.6 260.9L237.6 260.9ZM267 272L262.5 263.5L260.4 263.5L260.4 272L255.2 272L255.2 249.8L262.4 249.8Q267.0 249.8 269.3 251.5Q271.5 253.2 271.5 256.6L271.5 256.6Q271.5 258.7 270.5 260.1Q269.5 261.6 267.3 262.6L267.3 262.6L272.9 272L267 272ZM260.4 253.5L260.4 259.9L262.6 259.9Q264.4 259.9 265.3 259.1Q266.1 258.3 266.1 256.6L266.1 256.6Q266.1 255.0 265.2 254.2Q264.2 253.5 262.3 253.5L262.3 253.5L260.4 253.5Z M290.3 254.5Q292.1 254.5 293.5 255.0Q294.9 255.5 296.2 256.5L296.2 256.5L294.0 259.6Q292.4 258.3 290.8 258.3L290.8 258.3Q289.1 258.3 288.2 259.6Q287.3 260.8 287.3 263.6L287.3 263.6Q287.3 266.3 288.2 267.4Q289.1 268.5 290.7 268.5L290.7 268.5Q291.6 268.5 292.3 268.3Q293.0 268 294.0 267.4L294.0 267.4L296.2 270.5Q293.6 272.5 290.4 272.5L290.4 272.5Q287.8 272.5 286.0 271.4Q284.1 270.3 283.0 268.3Q282.0 266.3 282.0 263.6L282.0 263.6Q282.0 261.0 283.0 258.9Q284.1 256.8 286.0 255.6Q287.8 254.5 290.3 254.5L290.3 254.5ZM305.7 254.5Q309.6 254.5 311.8 256.8Q314.0 259.2 314.0 263.5L314.0 263.5Q314.0 266.2 313.0 268.3Q312.0 270.3 310.1 271.4Q308.2 272.5 305.7 272.5L305.7 272.5Q301.8 272.5 299.6 270.2Q297.4 267.8 297.4 263.5L297.4 263.5Q297.4 260.8 298.4 258.7Q299.4 256.7 301.2 255.6Q303.1 254.5 305.7 254.5L305.7 254.5ZM305.7 258.2Q304.1 258.2 303.4 259.5Q302.6 260.8 302.6 263.5L302.6 263.5Q302.6 266.3 303.4 267.6Q304.1 268.8 305.7 268.8L305.7 268.8Q307.2 268.8 308.0 267.5Q308.7 266.2 308.7 263.5L308.7 263.5Q308.7 260.7 308.0 259.5Q307.2 258.2 305.7 258.2L305.7 258.2ZM327.2 247.7L332.2 248.3L332.2 272L327.8 272L327.5 270.0Q325.7 272.5 322.7 272.5L322.7 272.5Q319.5 272.5 317.8 270.1Q316.2 267.7 316.2 263.5L316.2 263.5Q316.2 260.9 317.1 258.8Q317.9 256.8 319.5 255.6Q321.1 254.5 323.1 254.5L323.1 254.5Q325.6 254.5 327.2 256.1L327.2 256.1L327.2 247.7ZM324.2 268.8Q326.0 268.8 327.2 266.9L327.2 266.9L327.2 259.6Q326.6 258.8 325.9 258.5Q325.3 258.1 324.5 258.1L324.5 258.1Q323.1 258.1 322.3 259.5Q321.4 260.8 321.4 263.5L321.4 263.5Q321.4 266.5 322.2 267.6Q322.9 268.8 324.2 268.8L324.2 268.8ZM351.0 263.2Q351.0 264.2 350.9 265.0L350.9 265.0L340.4 265.0Q340.6 267.1 341.6 268Q342.6 268.9 344.3 268.9L344.3 268.9Q345.3 268.9 346.2 268.5Q347.2 268.1 348.3 267.4L348.3 267.4L350.4 270.2Q347.4 272.5 343.8 272.5L343.8 272.5Q339.7 272.5 337.4 270.1Q335.2 267.7 335.2 263.6L335.2 263.6Q335.2 261.0 336.2 258.9Q337.1 256.9 338.9 255.7Q340.7 254.5 343.2 254.5L343.2 254.5Q346.9 254.5 348.9 256.8Q351.0 259.1 351.0 263.2L351.0 263.2ZM346.1 262.0L346.1 261.7Q346.0 257.8 343.3 257.8L343.3 257.8Q342.0 257.8 341.3 258.8Q340.6 259.7 340.4 262.0L340.4 262.0L346.1 262.0Z M374.5 267.1Q374.5 268.0 374.8 268.5Q375.0 268.9 375.6 269.2L375.6 269.2L374.6 272.4Q373.0 272.3 372.0 271.8Q371.0 271.2 370.5 270.0L370.5 270.0Q368.8 272.5 365.4 272.5L365.4 272.5Q362.8 272.5 361.3 271.1Q359.8 269.6 359.8 267.2L359.8 267.2Q359.8 264.4 361.9 263.0Q363.9 261.5 367.8 261.5L367.8 261.5L369.5 261.5L369.5 260.8Q369.5 259.3 368.9 258.7Q368.2 258.1 366.6 258.1L366.6 258.1Q365.8 258.1 364.6 258.4Q363.4 258.6 362.2 259.0L362.2 259.0L361.0 255.7Q362.6 255.1 364.3 254.8Q366.0 254.5 367.4 254.5L367.4 254.5Q371.1 254.5 372.8 256.0Q374.5 257.5 374.5 260.5L374.5 260.5L374.5 267.1ZM366.8 268.9Q368.6 268.9 369.5 267.3L369.5 267.3L369.5 264.3L368.3 264.3Q366.6 264.3 365.7 264.9Q364.9 265.5 364.9 266.8L364.9 266.8Q364.9 267.8 365.4 268.4Q365.9 268.9 366.8 268.9L366.8 268.9ZM388.5 254.5Q390.7 254.5 391.9 255.8Q393.2 257.2 393.2 259.6L393.2 259.6L393.2 272L388.1 272L388.1 260.4Q388.1 259.2 387.7 258.7Q387.3 258.2 386.5 258.2L386.5 258.2Q385.0 258.2 383.6 260.4L383.6 260.4L383.6 272L378.5 272L378.5 255.0L382.9 255.0L383.3 257.0Q384.4 255.7 385.6 255.1Q386.9 254.5 388.5 254.5L388.5 254.5ZM407.2 247.7L412.2 248.3L412.2 272L407.7 272L407.5 270.0Q405.7 272.5 402.6 272.5L402.6 272.5Q399.5 272.5 397.8 270.1Q396.2 267.7 396.2 263.5L396.2 263.5Q396.2 260.9 397.0 258.8Q397.9 256.8 399.5 255.6Q401.1 254.5 403.1 254.5L403.1 254.5Q405.6 254.5 407.2 256.1L407.2 256.1L407.2 247.7ZM404.2 268.8Q406.0 268.8 407.2 266.9L407.2 266.9L407.2 259.6Q406.6 258.8 405.9 258.5Q405.3 258.1 404.5 258.1L404.5 258.1Q403.1 258.1 402.3 259.5Q401.4 260.8 401.4 263.5L401.4 263.5Q401.4 266.5 402.2 267.6Q402.9 268.8 404.2 268.8L404.2 268.8Z M429.0 255.0L429.0 270.1Q429.0 272.7 428.2 274.5Q427.3 276.2 425.9 277.2Q424.4 278.3 422.2 279.1L422.2 279.1L420.5 275.4Q421.7 274.8 422.4 274.3Q423.2 273.7 423.6 272.8Q424.0 271.9 424.0 270.4L424.0 270.4L424.0 255.0L429.0 255.0ZM426.5 246.0Q427.8 246.0 428.6 246.9Q429.5 247.7 429.5 248.9L429.5 248.9Q429.5 250.2 428.6 251.0Q427.8 251.8 426.5 251.8L426.5 251.8Q425.2 251.8 424.3 251.0Q423.5 250.2 423.5 248.9L423.5 248.9Q423.5 247.7 424.3 246.9Q425.2 246.0 426.5 246.0L426.5 246.0ZM440.3 254.5Q444.2 254.5 446.4 256.8Q448.7 259.2 448.7 263.5L448.7 263.5Q448.7 266.2 447.6 268.3Q446.6 270.3 444.8 271.4Q442.9 272.5 440.3 272.5L440.3 272.5Q436.5 272.5 434.2 270.2Q432.0 267.8 432.0 263.5L432.0 263.5Q432.0 260.8 433.0 258.7Q434.0 256.7 435.9 255.6Q437.8 254.5 440.3 254.5L440.3 254.5ZM440.3 258.2Q438.8 258.2 438.0 259.5Q437.3 260.8 437.3 263.5L437.3 263.5Q437.3 266.3 438.0 267.6Q438.8 268.8 440.3 268.8L440.3 268.8Q441.9 268.8 442.6 267.5Q443.4 266.2 443.4 263.5L443.4 263.5Q443.4 260.7 442.7 259.5Q441.9 258.2 440.3 258.2L440.3 258.2ZM451.7 255.0L456.7 255.0L456.7 272L451.7 272L451.7 255.0ZM454.2 246.0Q455.5 246.0 456.3 246.9Q457.2 247.7 457.2 248.9L457.2 248.9Q457.2 250.2 456.3 251.0Q455.5 251.8 454.2 251.8L454.2 251.8Q452.8 251.8 452.0 251.0Q451.2 250.2 451.2 248.9L451.2 248.9Q451.2 247.7 452.0 246.9Q452.8 246.0 454.2 246.0L454.2 246.0ZM470.6 254.5Q472.8 254.5 474.1 255.8Q475.3 257.2 475.3 259.6L475.3 259.6L475.3 272L470.3 272L470.3 260.4Q470.3 259.2 469.9 258.7Q469.5 258.2 468.7 258.2L468.7 258.2Q467.2 258.2 465.7 260.4L465.7 260.4L465.7 272L460.7 272L460.7 255.0L465.1 255.0L465.5 257.0Q466.5 255.7 467.8 255.1Q469.1 254.5 470.6 254.5L470.6 254.5Z M495.9 268L497.6 271.2Q496.7 271.8 495.5 272.2Q494.2 272.5 493.0 272.5L493.0 272.5Q487.5 272.5 487.5 266.4L487.5 266.4L487.5 258.5L485.1 258.5L485.1 255.0L487.5 255.0L487.5 251.3L492.5 250.8L492.5 255.0L496.4 255.0L495.9 258.5L492.5 258.5L492.5 266.3Q492.5 267.5 492.9 268.0Q493.3 268.5 494.1 268.5L494.1 268.5Q495.0 268.5 495.9 268L495.9 268ZM509.3 254.5Q511.5 254.5 512.7 255.8Q514.0 257.2 514.0 259.6L514.0 259.6L514.0 272L508.9 272L508.9 260.4Q508.9 259.2 508.5 258.7Q508.1 258.2 507.3 258.2L507.3 258.2Q505.8 258.2 504.4 260.4L504.4 260.4L504.4 272L499.3 272L499.3 248.3L504.4 247.7L504.4 256.8Q505.4 255.6 506.6 255.1Q507.8 254.5 509.3 254.5L509.3 254.5ZM532.6 263.2Q532.6 264.2 532.5 265.0L532.5 265.0L522.0 265.0Q522.2 267.1 523.2 268Q524.2 268.9 525.9 268.9L525.9 268.9Q526.9 268.9 527.8 268.5Q528.8 268.1 529.9 267.4L529.9 267.4L532.0 270.2Q529.0 272.5 525.4 272.5L525.4 272.5Q521.3 272.5 519.0 270.1Q516.8 267.7 516.8 263.6L516.8 263.6Q516.8 261.0 517.8 258.9Q518.7 256.9 520.5 255.7Q522.3 254.5 524.8 254.5L524.8 254.5Q528.5 254.5 530.5 256.8Q532.6 259.1 532.6 263.2L532.6 263.2ZM527.7 262.0L527.7 261.7Q527.6 257.8 524.9 257.8L524.9 257.8Q523.6 257.8 522.9 258.8Q522.2 259.7 522.0 262.0L522.0 262.0L527.7 262.0Z M562.8 249.8L567.8 249.8L564.1 272L557.3 272L554.5 255.1L551.6 272L544.9 272L541.3 249.8L546.5 249.8L548.7 268.0L551.8 249.8L557.3 249.8L560.2 268.0L562.8 249.8ZM570.1 255.0L575.1 255.0L575.1 272L570.1 272L570.1 255.0ZM572.6 246.0Q573.9 246.0 574.7 246.9Q575.6 247.7 575.6 248.9L575.6 248.9Q575.6 250.2 574.7 251.0Q573.9 251.8 572.6 251.8L572.6 251.8Q571.3 251.8 570.4 251.0Q569.6 250.2 569.6 248.9L569.6 248.9Q569.6 247.7 570.4 246.9Q571.3 246.0 572.6 246.0L572.6 246.0ZM584.5 272L579.2 272L579.2 249.8L592.4 249.8L591.9 253.6L584.5 253.6L584.5 259.5L590.9 259.5L590.9 263.2L584.5 263.2L584.5 272ZM594.7 255.0L599.8 255.0L599.8 272L594.7 272L594.7 255.0ZM597.2 246.0Q598.5 246.0 599.4 246.9Q600.2 247.7 600.2 248.9L600.2 248.9Q600.2 250.2 599.4 251.0Q598.5 251.8 597.2 251.8L597.2 251.8Q595.9 251.8 595.0 251.0Q594.2 250.2 594.2 248.9L594.2 248.9Q594.2 247.7 595.0 246.9Q595.9 246.0 597.2 246.0L597.2 246.0Z M109.9 294.5Q112.1 294.5 113.4 295.8Q114.6 297.2 114.6 299.6L114.6 299.6L114.6 312L109.6 312L109.6 300.4Q109.6 299.2 109.2 298.7Q108.8 298.2 108.0 298.2L108.0 298.2Q106.4 298.2 105.0 300.4L105.0 300.4L105.0 312L100.0 312L100.0 295.0L104.4 295.0L104.8 297.0Q105.8 295.7 107.1 295.1Q108.4 294.5 109.9 294.5L109.9 294.5ZM133.3 303.2Q133.3 304.2 133.2 305.0L133.2 305.0L122.6 305.0Q122.9 307.1 123.9 308Q124.8 308.9 126.5 308.9L126.5 308.9Q127.5 308.9 128.5 308.5Q129.5 308.1 130.6 307.4L130.6 307.4L132.7 310.2Q129.7 312.5 126.0 312.5L126.0 312.5Q121.9 312.5 119.7 310.1Q117.5 307.7 117.5 303.6L117.5 303.6Q117.5 301.0 118.4 298.9Q119.3 296.9 121.1 295.7Q122.9 294.5 125.4 294.5L125.4 294.5Q129.1 294.5 131.2 296.8Q133.3 299.1 133.3 303.2L133.3 303.2ZM128.3 302.0L128.3 301.7Q128.2 297.8 125.6 297.8L125.6 297.8Q124.2 297.8 123.5 298.8Q122.8 299.7 122.6 302.0L122.6 302.0L128.3 302.0ZM145.1 308L146.8 311.2Q145.8 311.8 144.6 312.2Q143.4 312.5 142.2 312.5L142.2 312.5Q136.6 312.5 136.6 306.4L136.6 306.4L136.6 298.5L134.2 298.5L134.2 295.0L136.6 295.0L136.6 291.3L141.6 290.8L141.6 295.0L145.6 295.0L145.0 298.5L141.6 298.5L141.6 306.3Q141.6 307.5 142.0 308.0Q142.4 308.5 143.2 308.5L143.2 308.5Q144.1 308.5 145.1 308L145.1 308ZM165.5 295.0L170.3 295.0L166.8 312L160.7 312L158.4 299.5L156.2 312L150.2 312L146.6 295.0L151.7 295.0L153.5 308.2L156.1 295.0L161.1 295.0L163.4 308.2L165.5 295.0ZM179.8 294.5Q183.7 294.5 185.9 296.8Q188.1 299.2 188.1 303.5L188.1 303.5Q188.1 306.2 187.1 308.3Q186.1 310.3 184.2 311.4Q182.4 312.5 179.8 312.5L179.8 312.5Q175.9 312.5 173.7 310.2Q171.5 307.8 171.5 303.5L171.5 303.5Q171.5 300.8 172.5 298.7Q173.5 296.7 175.4 295.6Q177.2 294.5 179.8 294.5L179.8 294.5ZM179.8 298.2Q178.3 298.2 177.5 299.5Q176.7 300.8 176.7 303.5L176.7 303.5Q176.7 306.3 177.5 307.6Q178.2 308.8 179.8 308.8L179.8 308.8Q181.3 308.8 182.1 307.5Q182.9 306.2 182.9 303.5L182.9 303.5Q182.9 300.7 182.1 299.5Q181.4 298.2 179.8 298.2L179.8 298.2ZM200.3 294.5Q201.3 294.5 202.0 294.8L202.0 294.8L201.2 299.6Q200.3 299.4 199.7 299.4L199.7 299.4Q198.2 299.4 197.4 300.5Q196.6 301.5 196.2 303.6L196.2 303.6L196.2 312L191.1 312L191.1 295.0L195.5 295.0L196.0 298.3Q196.5 296.5 197.7 295.5Q198.9 294.5 200.3 294.5L200.3 294.5ZM204.0 288.3L209.0 287.7L209.0 312L204.0 312L204.0 288.3ZM214.4 295.0L219.5 295.0L214.4 302.5L219.9 312L214.2 312L209.2 302.7L214.4 295.0Z "/></g><mask id="satori_om-id-2-2"><rect x="60" y="347" width="560" height="40" fill="#fff"/></mask><mask id="satori_om-id-2-2-0"><rect x="60" y="347" width="38" height="38" fill="#fff"/></mask><g  ><path fill="#000" d="M67.6 354.9Q69.9 354.9 71.5 355.7Q73.2 356.4 74 357.6Q74.8 358.9 74.8 360.4L74.8 360.4Q74.8 362.4 73.7 363.7Q72.6 365 70.6 365.6L70.6 365.6Q72.8 365.8 74.2 367.1Q75.6 368.5 75.6 370.9L75.6 370.9Q75.6 372.7 74.6 374.2Q73.6 375.8 71.8 376.6Q69.9 377.5 67.3 377.5L67.3 377.5Q62.6 377.5 59.9 374.3L59.9 374.3L62.6 371.6Q63.7 372.7 64.7 373.2Q65.8 373.7 67.0 373.7L67.0 373.7Q68.5 373.7 69.4 372.9Q70.4 372.0 70.4 370.6L70.4 370.6Q70.4 368.9 69.5 368.2Q68.6 367.5 66.8 367.5L66.8 367.5L65.1 367.5L65.6 364.0L66.8 364.0Q68.3 364.0 69.1 363.2Q70.0 362.5 70.0 361.2L70.0 361.2Q70.0 360.0 69.2 359.3Q68.4 358.7 67.1 358.7L67.1 358.7Q64.8 358.7 62.8 360.6L62.8 360.6L60.4 357.8Q63.4 354.9 67.6 354.9L67.6 354.9ZM80.5 371.8Q81.7 371.8 82.5 372.6Q83.4 373.4 83.4 374.6L83.4 374.6Q83.4 375.8 82.5 376.7Q81.7 377.5 80.5 377.5L80.5 377.5Q79.3 377.5 78.4 376.7Q77.6 375.8 77.6 374.6L77.6 374.6Q77.6 373.4 78.4 372.6Q79.3 371.8 80.5 371.8L80.5 371.8Z "/></g><mask id="satori_om-id-2-2-1"><rect x="98" y="347" width="522" height="40" fill="#fff"/></mask><g  ><path fill="#000" d="M105.3 378L100.1 378L100.1 355.8L113.3 355.8L112.8 359.6L105.3 359.6L105.3 365.5L111.8 365.5L111.8 369.2L105.3 369.2L105.3 378ZM115.6 361.0L120.6 361.0L120.6 378L115.6 378L115.6 361.0ZM118.1 352.0Q119.4 352.0 120.2 352.9Q121.1 353.7 121.1 354.9L121.1 354.9Q121.1 356.2 120.2 357.0Q119.4 357.8 118.1 357.8L118.1 357.8Q116.8 357.8 115.9 357.0Q115.1 356.2 115.1 354.9L115.1 354.9Q115.1 353.7 115.9 352.9Q116.8 352.0 118.1 352.0L118.1 352.0ZM129.1 378.5Q126.9 378.5 125.7 377.3Q124.4 376.0 124.4 373.7L124.4 373.7L124.4 354.3L129.5 353.7L129.5 373.5Q129.5 374.5 130.4 374.5L130.4 374.5Q130.8 374.5 131.2 374.4L131.2 374.4L132.2 378.0Q130.8 378.5 129.1 378.5L129.1 378.5ZM138.6 378.5Q136.4 378.5 135.2 377.3Q133.9 376.0 133.9 373.7L133.9 373.7L133.9 354.3L139.0 353.7L139.0 373.5Q139.0 374.5 139.9 374.5L139.9 374.5Q140.3 374.5 140.7 374.4L140.7 374.4L141.7 378.0Q140.3 378.5 138.6 378.5L138.6 378.5Z M151.2 361.0L156.2 361.0L156.2 378L151.2 378L151.2 361.0ZM153.7 352.0Q155.0 352.0 155.8 352.9Q156.7 353.7 156.7 354.9L156.7 354.9Q156.7 356.2 155.8 357.0Q155.0 357.8 153.7 357.8L153.7 357.8Q152.4 357.8 151.5 357.0Q150.7 356.2 150.7 354.9L150.7 354.9Q150.7 353.7 151.5 352.9Q152.4 352.0 153.7 352.0L153.7 352.0ZM170.2 360.5Q172.4 360.5 173.6 361.8Q174.9 363.2 174.9 365.6L174.9 365.6L174.9 378L169.8 378L169.8 366.4Q169.8 365.2 169.4 364.7Q169.0 364.2 168.2 364.2L168.2 364.2Q166.7 364.2 165.3 366.4L165.3 366.4L165.3 378L160.2 378L160.2 361.0L164.6 361.0L165.0 363.0Q166.1 361.7 167.3 361.1Q168.6 360.5 170.2 360.5L170.2 360.5Z M195.2 374L196.9 377.2Q196.0 377.8 194.8 378.2Q193.5 378.5 192.3 378.5L192.3 378.5Q186.7 378.5 186.7 372.4L186.7 372.4L186.7 364.5L184.3 364.5L184.3 361.0L186.7 361.0L186.7 357.3L191.8 356.8L191.8 361.0L195.7 361.0L195.2 364.5L191.8 364.5L191.8 372.3Q191.8 373.5 192.2 374.0Q192.6 374.5 193.4 374.5L193.4 374.5Q194.3 374.5 195.2 374L195.2 374ZM208.6 360.5Q210.8 360.5 212.0 361.8Q213.3 363.2 213.3 365.6L213.3 365.6L213.3 378L208.2 378L208.2 366.4Q208.2 365.2 207.8 364.7Q207.4 364.2 206.6 364.2L206.6 364.2Q205.1 364.2 203.7 366.4L203.7 366.4L203.7 378L198.6 378L198.6 354.3L203.7 353.7L203.7 362.8Q204.7 361.6 205.9 361.1Q207.1 360.5 208.6 360.5L208.6 360.5ZM231.9 369.2Q231.9 370.2 231.8 371.0L231.8 371.0L221.3 371.0Q221.5 373.1 222.5 374Q223.4 374.9 225.1 374.9L225.1 374.9Q226.2 374.9 227.1 374.5Q228.1 374.1 229.2 373.4L229.2 373.4L231.3 376.2Q228.3 378.5 224.7 378.5L224.7 378.5Q220.5 378.5 218.3 376.1Q216.1 373.7 216.1 369.6L216.1 369.6Q216.1 367.0 217.0 364.9Q218.0 362.9 219.8 361.7Q221.6 360.5 224.0 360.5L224.0 360.5Q227.7 360.5 229.8 362.8Q231.9 365.1 231.9 369.2L231.9 369.2ZM226.9 368.0L226.9 367.7Q226.9 363.8 224.2 363.8L224.2 363.8Q222.9 363.8 222.1 364.8Q221.4 365.7 221.3 368.0L221.3 368.0L226.9 368.0Z M248.3 360.5Q250.1 360.5 251.7 361.0Q253.3 361.6 254.5 362.5L254.5 362.5L252.7 365.4Q250.6 364.1 248.5 364.1L248.5 364.1Q247.5 364.1 247.0 364.4Q246.4 364.8 246.4 365.4L246.4 365.4Q246.4 365.8 246.7 366.1Q246.9 366.4 247.7 366.8Q248.4 367.1 249.9 367.5L249.9 367.5Q252.6 368.3 253.9 369.5Q255.2 370.8 255.2 372.9L255.2 372.9Q255.2 374.7 254.2 375.9Q253.2 377.2 251.5 377.9Q249.7 378.5 247.6 378.5L247.6 378.5Q245.5 378.5 243.6 377.9Q241.8 377.2 240.5 376.0L240.5 376.0L243.0 373.3Q245.1 374.9 247.5 374.9L247.5 374.9Q248.7 374.9 249.3 374.5Q250.0 374.1 250.0 373.3L250.0 373.3Q250.0 372.7 249.7 372.4Q249.5 372.0 248.7 371.7Q248.0 371.4 246.4 371.0L246.4 371.0Q243.9 370.2 242.6 368.9Q241.4 367.6 241.4 365.6L241.4 365.6Q241.4 364.2 242.2 363.0Q243.1 361.8 244.6 361.2Q246.2 360.5 248.3 360.5L248.3 360.5ZM272.6 369.2Q272.6 370.2 272.5 371.0L272.5 371.0L262.0 371.0Q262.2 373.1 263.2 374Q264.1 374.9 265.8 374.9L265.8 374.9Q266.9 374.9 267.8 374.5Q268.8 374.1 269.9 373.4L269.9 373.4L272.0 376.2Q269.0 378.5 265.4 378.5L265.4 378.5Q261.2 378.5 259.0 376.1Q256.8 373.7 256.8 369.6L256.8 369.6Q256.8 367.0 257.7 364.9Q258.7 362.9 260.5 361.7Q262.3 360.5 264.8 360.5L264.8 360.5Q268.4 360.5 270.5 362.8Q272.6 365.1 272.6 369.2L272.6 369.2ZM267.6 368.0L267.6 367.7Q267.6 363.8 264.9 363.8L264.9 363.8Q263.6 363.8 262.8 364.8Q262.1 365.7 262.0 368.0L262.0 368.0L267.6 368.0ZM284.4 374L286.1 377.2Q285.2 377.8 283.9 378.2Q282.7 378.5 281.5 378.5L281.5 378.5Q275.9 378.5 275.9 372.4L275.9 372.4L275.9 364.5L273.5 364.5L273.5 361.0L275.9 361.0L275.9 357.3L281.0 356.8L281.0 361.0L284.9 361.0L284.3 364.5L281.0 364.5L281.0 372.3Q281.0 373.5 281.4 374.0Q281.7 374.5 282.6 374.5L282.6 374.5Q283.4 374.5 284.4 374L284.4 374ZM302.1 361.0L302.1 378L297.7 378L297.5 375.9Q295.7 378.5 292.4 378.5L292.4 378.5Q290.0 378.5 288.8 377.1Q287.6 375.7 287.6 373.2L287.6 373.2L287.6 361.0L292.7 361.0L292.7 372.6Q292.7 373.8 293.1 374.3Q293.5 374.8 294.3 374.8L294.3 374.8Q295.9 374.8 297.1 372.8L297.1 372.8L297.1 361.0L302.1 361.0ZM315.7 360.5Q318.9 360.5 320.5 362.8Q322.0 365.2 322.0 369.5L322.0 369.5Q322.0 372.1 321.2 374.1Q320.4 376.2 318.9 377.4Q317.3 378.5 315.3 378.5L315.3 378.5Q312.7 378.5 311.2 376.8L311.2 376.8L311.2 384.6L306.1 385.1L306.1 361.0L310.5 361.0L310.8 362.9Q311.8 361.6 313.1 361.1Q314.4 360.5 315.7 360.5L315.7 360.5ZM313.7 374.8Q316.8 374.8 316.8 369.5L316.8 369.5Q316.8 366.5 316.1 365.3Q315.4 364.2 314.1 364.2L314.1 364.2Q313.2 364.2 312.5 364.7Q311.7 365.2 311.2 366.2L311.2 366.2L311.2 373.3Q312.2 374.8 313.7 374.8L313.7 374.8Z M340.6 357.5Q339.5 357.5 339.0 358.0Q338.5 358.5 338.5 359.7L338.5 359.7L338.5 361.0L342.5 361.0L342.0 364.5L338.5 364.5L338.5 378L333.5 378L333.5 364.5L330.9 364.5L330.9 361.0L333.5 361.0L333.5 359.5Q333.5 356.9 335.1 355.3Q336.8 353.7 340.0 353.7L340.0 353.7Q342.5 353.7 344.6 354.8L344.6 354.8L343.2 358.1Q341.9 357.5 340.6 357.5L340.6 357.5ZM351.5 360.5Q355.4 360.5 357.6 362.8Q359.9 365.2 359.9 369.5L359.9 369.5Q359.9 372.2 358.8 374.3Q357.8 376.3 356.0 377.4Q354.1 378.5 351.5 378.5L351.5 378.5Q347.7 378.5 345.4 376.2Q343.2 373.8 343.2 369.5L343.2 369.5Q343.2 366.8 344.2 364.7Q345.2 362.7 347.1 361.6Q349.0 360.5 351.5 360.5L351.5 360.5ZM351.5 364.2Q350 364.2 349.2 365.5Q348.5 366.8 348.5 369.5L348.5 369.5Q348.5 372.3 349.2 373.6Q350.0 374.8 351.5 374.8L351.5 374.8Q353.1 374.8 353.8 373.5Q354.6 372.2 354.6 369.5L354.6 369.5Q354.6 366.7 353.9 365.5Q353.1 364.2 351.5 364.2L351.5 364.2ZM372.1 360.5Q373.0 360.5 373.8 360.8L373.8 360.8L373.0 365.6Q372.0 365.4 371.4 365.4L371.4 365.4Q369.9 365.4 369.2 366.5Q368.4 367.5 367.9 369.6L367.9 369.6L367.9 378L362.9 378L362.9 361.0L367.3 361.0L367.7 364.3Q368.3 362.5 369.4 361.5Q370.6 360.5 372.1 360.5L372.1 360.5ZM394.5 360.5Q396.5 360.5 397.7 361.8Q398.9 363.2 398.9 365.6L398.9 365.6L398.9 378L393.9 378L393.9 366.4Q393.9 364.2 392.4 364.2L392.4 364.2Q391.6 364.2 391.0 364.7Q390.4 365.3 389.8 366.4L389.8 366.4L389.8 378L384.8 378L384.8 366.4Q384.8 364.2 383.3 364.2L383.3 364.2Q382.6 364.2 382.0 364.7Q381.3 365.3 380.8 366.4L380.8 366.4L380.8 378L375.7 378L375.7 361.0L380.1 361.0L380.5 363.0Q381.5 361.7 382.7 361.1Q383.9 360.5 385.4 360.5L385.4 360.5Q386.8 360.5 387.9 361.2Q388.9 361.9 389.4 363.2L389.4 363.2Q390.4 361.8 391.6 361.1Q392.9 360.5 394.5 360.5L394.5 360.5Z M417.7 360.5Q421.6 360.5 423.8 362.8Q426 365.2 426 369.5L426 369.5Q426 372.2 425.0 374.3Q424.0 376.3 422.1 377.4Q420.2 378.5 417.7 378.5L417.7 378.5Q413.8 378.5 411.6 376.2Q409.4 373.8 409.4 369.5L409.4 369.5Q409.4 366.8 410.4 364.7Q411.4 362.7 413.2 361.6Q415.1 360.5 417.7 360.5L417.7 360.5ZM417.7 364.2Q416.1 364.2 415.4 365.5Q414.6 366.8 414.6 369.5L414.6 369.5Q414.6 372.3 415.4 373.6Q416.1 374.8 417.7 374.8L417.7 374.8Q419.2 374.8 420.0 373.5Q420.8 372.2 420.8 369.5L420.8 369.5Q420.8 366.7 420 365.5Q419.2 364.2 417.7 364.2L417.7 364.2ZM439.0 360.5Q441.2 360.5 442.4 361.8Q443.7 363.2 443.7 365.6L443.7 365.6L443.7 378L438.6 378L438.6 366.4Q438.6 365.2 438.2 364.7Q437.8 364.2 437.0 364.2L437.0 364.2Q435.5 364.2 434.1 366.4L434.1 366.4L434.1 378L429.0 378L429.0 361.0L433.4 361.0L433.8 363.0Q434.9 361.7 436.1 361.1Q437.4 360.5 439.0 360.5L439.0 360.5Z M469.8 361.0L464.4 378.0Q463.4 381.3 461.1 383.1Q458.8 384.9 454.9 385.1L454.9 385.1L454.3 381.6Q456.8 381.2 457.9 380.5Q459.1 379.7 459.8 378L459.8 378L458.1 378L452.9 361.0L458.3 361.0L461.3 374.8L464.6 361.0L469.8 361.0ZM479.0 360.5Q482.9 360.5 485.1 362.8Q487.3 365.2 487.3 369.5L487.3 369.5Q487.3 372.2 486.3 374.3Q485.3 376.3 483.4 377.4Q481.6 378.5 479.0 378.5L479.0 378.5Q475.1 378.5 472.9 376.2Q470.7 373.8 470.7 369.5L470.7 369.5Q470.7 366.8 471.7 364.7Q472.7 362.7 474.6 361.6Q476.4 360.5 479.0 360.5L479.0 360.5ZM479.0 364.2Q477.5 364.2 476.7 365.5Q475.9 366.8 475.9 369.5L475.9 369.5Q475.9 372.3 476.7 373.6Q477.4 374.8 479.0 374.8L479.0 374.8Q480.5 374.8 481.3 373.5Q482.1 372.2 482.1 369.5L482.1 369.5Q482.1 366.7 481.3 365.5Q480.6 364.2 479.0 364.2L479.0 364.2ZM504.7 361.0L504.7 378L500.3 378L500.0 375.9Q498.2 378.5 494.9 378.5L494.9 378.5Q492.6 378.5 491.4 377.1Q490.2 375.7 490.2 373.2L490.2 373.2L490.2 361.0L495.2 361.0L495.2 372.6Q495.2 373.8 495.6 374.3Q496.0 374.8 496.8 374.8L496.8 374.8Q498.4 374.8 499.6 372.8L499.6 372.8L499.6 361.0L504.7 361.0ZM517.8 360.5Q518.8 360.5 519.5 360.8L519.5 360.8L518.7 365.6Q517.8 365.4 517.2 365.4L517.2 365.4Q515.7 365.4 514.9 366.5Q514.1 367.5 513.7 369.6L513.7 369.6L513.7 378L508.6 378L508.6 361.0L513.0 361.0L513.5 364.3Q514.0 362.5 515.2 361.5Q516.4 360.5 517.8 360.5L517.8 360.5Z M538.6 360.5Q541.8 360.5 543.4 362.8Q545.0 365.2 545.0 369.5L545.0 369.5Q545.0 372.1 544.2 374.1Q543.3 376.2 541.8 377.4Q540.3 378.5 538.2 378.5L538.2 378.5Q535.7 378.5 534.1 376.8L534.1 376.8L534.1 384.6L529.0 385.1L529.0 361.0L533.5 361.0L533.7 362.9Q534.7 361.6 536.0 361.1Q537.3 360.5 538.6 360.5L538.6 360.5ZM536.7 374.8Q539.7 374.8 539.7 369.5L539.7 369.5Q539.7 366.5 539.1 365.3Q538.4 364.2 537.0 364.2L537.0 364.2Q536.2 364.2 535.4 364.7Q534.7 365.2 534.1 366.2L534.1 366.2L534.1 373.3Q535.1 374.8 536.7 374.8L536.7 374.8ZM558.1 360.5Q560.3 360.5 561.6 361.8Q562.8 363.2 562.8 365.6L562.8 365.6L562.8 378L557.7 378L557.7 366.4Q557.7 365.2 557.3 364.7Q556.9 364.2 556.1 364.2L556.1 364.2Q554.6 364.2 553.2 366.4L553.2 366.4L553.2 378L548.1 378L548.1 354.3L553.2 353.7L553.2 362.8Q554.3 361.6 555.4 361.1Q556.6 360.5 558.1 360.5L558.1 360.5ZM574.0 360.5Q577.9 360.5 580.1 362.8Q582.3 365.2 582.3 369.5L582.3 369.5Q582.3 372.2 581.3 374.3Q580.3 376.3 578.4 377.4Q576.5 378.5 574.0 378.5L574.0 378.5Q570.1 378.5 567.9 376.2Q565.6 373.8 565.6 369.5L565.6 369.5Q565.6 366.8 566.7 364.7Q567.7 362.7 569.5 361.6Q571.4 360.5 574.0 360.5L574.0 360.5ZM574.0 364.2Q572.4 364.2 571.7 365.5Q570.9 366.8 570.9 369.5L570.9 369.5Q570.9 372.3 571.6 373.6Q572.4 374.8 574.0 374.8L574.0 374.8Q575.5 374.8 576.3 373.5Q577.0 372.2 577.0 369.5L577.0 369.5Q577.0 366.7 576.3 365.5Q575.5 364.2 574.0 364.2L574.0 364.2ZM595.2 360.5Q597.5 360.5 598.7 361.8Q600.0 363.2 600.0 365.6L600.0 365.6L600.0 378L594.9 378L594.9 366.4Q594.9 365.2 594.5 364.7Q594.1 364.2 593.3 364.2L593.3 364.2Q591.8 364.2 590.4 366.4L590.4 366.4L590.4 378L585.3 378L585.3 361.0L589.7 361.0L590.1 363.0Q591.2 361.7 592.4 361.1Q593.7 360.5 595.2 360.5L595.2 360.5ZM618.6 369.2Q618.6 370.2 618.5 371.0L618.5 371.0L608.0 371.0Q608.2 373.1 609.2 374Q610.1 374.9 611.8 374.9L611.8 374.9Q612.8 374.9 613.8 374.5Q614.8 374.1 615.9 373.4L615.9 373.4L618.0 376.2Q615.0 378.5 611.3 378.5L611.3 378.5Q607.2 378.5 605.0 376.1Q602.8 373.7 602.8 369.6L602.8 369.6Q602.8 367.0 603.7 364.9Q604.7 362.9 606.4 361.7Q608.2 360.5 610.7 360.5L610.7 360.5Q614.4 360.5 616.5 362.8Q618.6 365.1 618.6 369.2L618.6 369.2ZM613.6 368.0L613.6 367.7Q613.6 363.8 610.9 363.8L610.9 363.8Q609.6 363.8 608.8 364.8Q608.1 365.7 608.0 368.0L608.0 368.0L613.6 368.0Z "/></g></svg>