<svg width="960" height="540" viewBox="0 0 960 540" xmlns="http://www.w3.org/2000/svg"><mask id="satori_om-id"><rect x="0" y="0" width="960" height="540" fill="#fff"/></mask><rect x="0" y="0" width="960" height="540" fill="#fff"/><mask id="satori_om-id-0"><rect x="0" y="0" width="960" height="110" fill="#fff"/></mask><mask id="satori_om-id-0-0"><rect x="104" y="30" width="753" height="80" fill="#fff"/></mask><g  ><path fill="#000" d="M158.5 41.6L171.0 41.6L161.7 97L144.6 97L137.8 54.7L130.5 97L113.8 97L104.7 41.6L117.8 41.6L123.4 87.1L131.0 41.6L144.8 41.6L152 87.1L158.5 41.6ZM201.6 53.2Q207.1 53.2 210.2 56.5Q213.4 59.9 213.4 66.0L213.4 66.0L213.4 97L200.7 97L200.7 68.1Q200.7 64.9 199.7 63.7Q198.6 62.4 196.7 62.4L196.7 62.4Q192.9 62.4 189.4 67.9L189.4 67.9L189.4 97L176.7 97L176.7 37.6L189.4 36.4L189.4 59.1Q192 56.1 195.0 54.6Q197.9 53.2 201.6 53.2L201.6 53.2ZM256.6 84.7Q256.6 87.1 257.3 88.2Q258 89.3 259.5 89.9L259.5 89.9L256.9 98.1Q253.0 97.8 250.5 96.4Q248 95 246.6 92.0L246.6 92.0Q242.5 98.4 233.8 98.4L233.8 98.4Q227.5 98.4 223.8 94.7Q220 91 220 85.1L220 85.1Q220 78.1 225.1 74.4Q230.2 70.8 239.9 70.8L239.9 70.8L244.2 70.8L244.2 68.9Q244.2 65.2 242.6 63.8Q241.0 62.4 237.0 62.4L237.0 62.4Q235.0 62.4 232 63.0Q229.0 63.6 225.9 64.6L225.9 64.6L223.0 56.3Q227.0 54.8 231.2 54.0Q235.4 53.2 239.0 53.2L239.0 53.2Q248.2 53.2 252.4 56.9Q256.6 60.7 256.6 68.2L256.6 68.2L256.6 84.7ZM237.5 89.3Q241.8 89.3 244.2 85.2L244.2 85.2L244.2 77.7L241.1 77.7Q236.8 77.7 234.7 79.2Q232.6 80.8 232.6 84.0L232.6 84.0Q232.6 86.5 233.9 87.9Q235.2 89.3 237.5 89.3L237.5 89.3ZM289.1 87L293.4 95Q291.0 96.6 288.0 97.5Q284.9 98.4 281.8 98.4L281.8 98.4Q267.9 98.3 267.9 83L267.9 83L267.9 63.3L261.9 63.3L261.9 54.5L267.9 54.5L267.9 45.3L280.6 43.9L280.6 54.5L290.3 54.5L289.0 63.3L280.6 63.3L280.6 82.8Q280.6 85.8 281.5 87.1Q282.5 88.4 284.6 88.4L284.6 88.4Q286.7 88.4 289.1 87L289.1 87ZM306.3 63.9L298 63.9L296.5 41.6L307.9 41.6L306.3 63.9ZM331.6 53.2Q336.2 53.2 340.2 54.5Q344.2 55.9 347.2 58.4L347.2 58.4L342.6 65.5Q337.4 62.2 332.1 62.2L332.1 62.2Q329.6 62.2 328.3 63.0Q327.0 63.9 327.0 65.4L327.0 65.4Q327.0 66.6 327.6 67.4Q328.2 68.1 330 68.9Q331.8 69.7 335.7 70.8L335.7 70.8Q342.3 72.8 345.6 75.8Q348.8 78.9 348.8 84.4L348.8 84.4Q348.8 88.7 346.3 91.8Q343.8 95 339.5 96.7Q335.2 98.4 329.9 98.4L329.9 98.4Q324.6 98.4 320.0 96.7Q315.4 95 312.2 92.0L312.2 92.0L318.3 85.2Q323.7 89.3 329.6 89.3L329.6 89.3Q332.5 89.3 334.1 88.3Q335.8 87.2 335.8 85.3L335.8 85.3Q335.8 83.8 335.1 82.9Q334.5 82.0 332.6 81.3Q330.8 80.5 326.8 79.4L326.8 79.4Q320.5 77.6 317.4 74.3Q314.2 71 314.2 66.1L314.2 66.1Q314.2 62.4 316.4 59.5Q318.5 56.6 322.4 54.9Q326.4 53.2 331.6 53.2L331.6 53.2Z M396.6 87L400.9 95Q398.6 96.6 395.5 97.5Q392.4 98.4 389.4 98.4L389.4 98.4Q375.4 98.3 375.4 83L375.4 83L375.4 63.3L369.4 63.3L369.4 54.5L375.4 54.5L375.4 45.3L388.1 43.9L388.1 54.5L397.8 54.5L396.5 63.3L388.1 63.3L388.1 82.8Q388.1 85.8 389.0 87.1Q390 88.4 392.1 88.4L392.1 88.4Q394.2 88.4 396.6 87L396.6 87ZM430.0 53.2Q435.5 53.2 438.6 56.5Q441.8 59.9 441.8 66.0L441.8 66.0L441.8 97L429.1 97L429.1 68.1Q429.1 64.9 428.1 63.7Q427.0 62.4 425.1 62.4L425.1 62.4Q421.3 62.4 417.8 67.9L417.8 67.9L417.8 97L405.1 97L405.1 37.6L417.8 36.4L417.8 59.1Q420.4 56.1 423.4 54.6Q426.3 53.2 430.0 53.2L430.0 53.2ZM488.3 74.9Q488.3 77.6 488.1 79.5L488.1 79.5L461.8 79.5Q462.4 84.8 464.8 87Q467.2 89.2 471.4 89.2L471.4 89.2Q474 89.2 476.4 88.2Q478.8 87.3 481.6 85.4L481.6 85.4L486.8 92.4Q479.4 98.4 470.2 98.4L470.2 98.4Q459.9 98.4 454.4 92.3Q448.9 86.2 448.9 76.0L448.9 76.0Q448.9 69.5 451.2 64.3Q453.5 59.2 458 56.2Q462.5 53.2 468.7 53.2L468.7 53.2Q477.9 53.2 483.1 58.9Q488.3 64.7 488.3 74.9L488.3 74.9ZM475.9 71.9L475.9 71.3Q475.8 61.6 469.0 61.6L469.0 61.6Q465.8 61.6 464.0 64.0Q462.2 66.4 461.8 71.9L461.8 71.9L475.9 71.9Z M563.9 41.6L576.4 41.6L567.1 97L550.1 97L543.2 54.7L535.9 97L519.3 97L510.2 41.6L523.3 41.6L528.8 87.1L536.5 41.6L550.2 41.6L557.4 87.1L563.9 41.6ZM619.2 74.9Q619.2 77.6 619.0 79.5L619.0 79.5L592.6 79.5Q593.3 84.8 595.7 87Q598.1 89.2 602.3 89.2L602.3 89.2Q604.9 89.2 607.3 88.2Q609.7 87.3 612.5 85.4L612.5 85.4L617.7 92.4Q610.2 98.4 601.1 98.4L601.1 98.4Q590.8 98.4 585.3 92.3Q579.8 86.2 579.8 76.0L579.8 76.0Q579.8 69.5 582.1 64.3Q584.4 59.2 588.9 56.2Q593.4 53.2 599.6 53.2L599.6 53.2Q608.8 53.2 614 58.9Q619.2 64.7 619.2 74.9L619.2 74.9ZM606.8 71.9L606.8 71.3Q606.6 61.6 599.9 61.6L599.9 61.6Q596.6 61.6 594.8 64.0Q593.0 66.4 592.6 71.9L592.6 71.9L606.8 71.9ZM660.1 84.7Q660.1 87.1 660.8 88.2Q661.4 89.3 663.0 89.9L663.0 89.9L660.3 98.1Q656.4 97.8 653.9 96.4Q651.4 95 650.1 92.0L650.1 92.0Q645.9 98.4 637.3 98.4L637.3 98.4Q631.0 98.4 627.2 94.7Q623.4 91 623.4 85.1L623.4 85.1Q623.4 78.1 628.6 74.4Q633.7 70.8 643.4 70.8L643.4 70.8L647.7 70.8L647.7 68.9Q647.7 65.2 646.1 63.8Q644.5 62.4 640.5 62.4L640.5 62.4Q638.4 62.4 635.4 63.0Q632.5 63.6 629.4 64.6L629.4 64.6L626.5 56.3Q630.5 54.8 634.7 54.0Q638.9 53.2 642.5 53.2L642.5 53.2Q651.6 53.2 655.8 56.9Q660.1 60.7 660.1 68.2L660.1 68.2L660.1 84.7ZM641.0 89.3Q645.3 89.3 647.7 85.2L647.7 85.2L647.7 77.7L644.6 77.7Q640.2 77.7 638.1 79.2Q636 80.8 636 84.0L636 84.0Q636 86.5 637.3 87.9Q638.6 89.3 641.0 89.3L641.0 89.3ZM692.6 87L696.8 95Q694.5 96.6 691.4 97.5Q688.3 98.4 685.3 98.4L685.3 98.4Q671.4 98.3 671.4 83L671.4 83L671.4 63.3L665.4 63.3L665.4 54.5L671.4 54.5L671.4 45.3L684 43.9L684 54.5L693.8 54.5L692.4 63.3L684 63.3L684 82.8Q684 85.8 685.0 87.1Q685.9 88.4 688 88.4L688 88.4Q690.2 88.4 692.6 87L692.6 87ZM725.9 53.2Q731.4 53.2 734.6 56.5Q737.7 59.9 737.7 66.0L737.7 66.0L737.7 97L725.0 97L725.0 68.1Q725.0 64.9 724 63.7Q723.0 62.4 721.0 62.4L721.0 62.4Q717.2 62.4 713.7 67.9L713.7 67.9L713.7 97L701.0 97L701.0 37.6L713.7 36.4L713.7 59.1Q716.3 56.1 719.3 54.6Q722.2 53.2 725.9 53.2L725.9 53.2ZM784.2 74.9Q784.2 77.6 784 79.5L784 79.5L757.7 79.5Q758.3 84.8 760.7 87Q763.1 89.2 767.4 89.2L767.4 89.2Q769.9 89.2 772.3 88.2Q774.7 87.3 777.5 85.4L777.5 85.4L782.7 92.4Q775.3 98.4 766.2 98.4L766.2 98.4Q755.8 98.4 750.3 92.3Q744.8 86.2 744.8 76.0L744.8 76.0Q744.8 69.5 747.1 64.3Q749.4 59.2 753.9 56.2Q758.4 53.2 764.6 53.2L764.6 53.2Q773.8 53.2 779.0 58.9Q784.2 64.7 784.2 74.9L784.2 74.9ZM771.8 71.9L771.8 71.3Q771.7 61.6 765.0 61.6L765.0 61.6Q761.7 61.6 759.9 64.0Q758.1 66.4 757.7 71.9L757.7 71.9L771.8 71.9ZM814.4 53.3Q816.7 53.3 818.6 53.9L818.6 53.9L816.6 66.1Q814.2 65.6 812.8 65.6L812.8 65.6Q809.0 65.6 807.1 68.2Q805.1 70.8 804 76.0L804 76.0L804 97L791.4 97L791.4 54.5L802.4 54.5L803.4 62.8Q804.9 58.4 807.8 55.8Q810.7 53.3 814.4 53.3L814.4 53.3ZM838.3 40.2Q843.9 40.2 847.9 42Q851.8 43.8 853.8 46.8Q855.8 49.9 855.8 53.6L855.8 53.6Q855.8 56.8 854.7 59.2Q853.5 61.5 851.9 62.9Q850.3 64.4 847.7 66.3L847.7 66.3Q844.5 68.4 843.0 70.2Q841.4 71.9 841.4 74.6L841.4 74.6L841.4 76.6L829.9 76.6L829.9 74.1Q829.9 70.4 831.1 67.8Q832.2 65.2 833.9 63.7Q835.5 62.2 838 60.4L838 60.4Q840.4 58.8 841.5 57.6Q842.6 56.4 842.6 54.7L842.6 54.7Q842.6 52.5 841.2 51.3Q839.7 50.1 837.0 50.1L837.0 50.1Q832 50.1 827.7 55L827.7 55L819.6 48.8Q826.9 40.2 838.3 40.2L838.3 40.2ZM835.8 83.9Q838.8 83.9 840.9 86Q843.0 88.1 843.0 91.1L843.0 91.1Q843.0 94.1 840.9 96.2Q838.8 98.4 835.8 98.4L835.8 98.4Q832.9 98.4 830.8 96.2Q828.6 94.1 828.6 91.1L828.6 91.1Q828.6 88.1 830.8 86Q832.9 83.9 835.8 83.9L835.8 83.9Z "/></g><mask id="satori_om-id-1"><rect x="0" y="110" width="960" height="100" fill="#fff"/></mask><mask id="satori_om-id-1-0"><rect x="90" y="130" width="780" height="60" fill="#fff"/></mask><mask id="satori_om-id-1-0-0"><rect x="90" y="132" width="62" height="56" fill="#fff"/></mask><g  ><path fill="#333" d="M90 159.9L90 159.9Q90 158.9 90.7 158.1L90.7 158.1Q91.5 157.4 92.5 157.4L92.5 157.4L98.4 157.4Q99.5 157.4 100.1 158.1Q100.8 158.9 100.8 159.9Q100.8 161.0 100.1 161.7Q99.5 162.4 98.4 162.4L98.4 162.4L92.5 162.4Q91.5 162.4 90.7 161.7Q90 160.9 90 159.9ZM98.3 180.1L98.3 180.1Q98.3 179.1 99.0 178.3L99.0 178.3L103.3 174.2Q104.0 173.5 105.0 173.5L105.0 173.5Q106.1 173.5 106.8 174.2Q107.5 174.8 107.5 175.8L107.5 175.8Q107.5 176.9 106.8 177.7L106.8 177.7L102.6 181.8Q100.8 183.2 99.0 181.8L99.0 181.8Q98.3 181.1 98.3 180.1ZM98.3 139.7L98.3 139.7Q98.3 138.7 99.0 138.0L99.0 138.0Q99.9 137.3 100.9 137.3L100.9 137.3Q101.8 137.3 102.6 138.0L102.6 138.0L106.8 142.3Q107.5 142.9 107.5 144.0L107.5 144.0Q107.5 145.0 106.8 145.7Q106.1 146.4 105.0 146.4L105.0 146.4Q104.0 146.4 103.3 145.7L103.3 145.7L99.0 141.5Q98.3 140.8 98.3 139.7ZM105.8 159.9L105.8 159.9Q105.8 155.8 107.8 152.3Q109.9 148.8 113.4 146.8Q116.9 144.7 121.0 144.7L121.0 144.7Q124.0 144.7 126.9 145.9Q129.7 147.1 131.7 149.2Q133.8 151.2 135.0 154.0Q136.2 156.9 136.2 159.9L136.2 159.9Q136.2 164.0 134.1 167.5Q132.1 171.0 128.6 173.1Q125.1 175.1 121.0 175.1Q116.9 175.1 113.4 173.1Q109.9 171.0 107.8 167.5Q105.8 164.0 105.8 159.9ZM110.7 159.9L110.7 159.9Q110.7 164.2 113.7 167.2Q116.7 170.2 121.0 170.2Q125.2 170.2 128.3 167.2Q131.3 164.2 131.3 159.9L131.3 159.9Q131.3 155.7 128.3 152.7Q125.2 149.7 121.0 149.7L121.0 149.7Q116.7 149.7 113.7 152.7Q110.7 155.7 110.7 159.9ZM118.5 188.4L118.5 182.6Q118.5 181.5 119.2 180.8Q119.9 180.1 121.0 180.1L121.0 180.1Q122.0 180.1 122.8 180.8Q123.5 181.5 123.5 182.6L123.5 182.6L123.5 188.4Q123.5 189.4 122.7 190.2Q122.0 190.9 121.0 190.9Q119.9 190.9 119.2 190.2Q118.5 189.4 118.5 188.4L118.5 188.4ZM118.5 137.4L118.5 137.4L118.5 131.4Q118.5 130.4 119.2 129.7Q120.0 128.9 121.0 128.9Q122.0 128.9 122.7 129.7Q123.5 130.4 123.5 131.4L123.5 131.4L123.5 137.4Q123.5 138.4 122.7 139.1Q122.0 139.7 121.0 139.7Q119.9 139.7 119.2 139.1Q118.5 138.4 118.5 137.4ZM134.6 175.8L134.6 175.8Q134.6 174.8 135.3 174.2L135.3 174.2Q135.9 173.5 136.9 173.5L136.9 173.5Q138.0 173.5 138.6 174.2L138.6 174.2L142.9 178.3Q143.6 179.1 143.6 180.1Q143.6 181.1 142.9 181.8L142.9 181.8Q141.2 183.2 139.4 181.8L139.4 181.8L135.3 177.7Q134.6 177.0 134.6 175.8ZM134.6 144.0L134.6 144.0Q134.6 142.9 135.3 142.3L135.3 142.3L139.4 138.0Q140.2 137.3 141.1 137.3L141.1 137.3Q142.2 137.3 142.9 138.0Q143.6 138.7 143.6 139.7L143.6 139.7Q143.6 140.8 142.9 141.5L142.9 141.5L138.6 145.7Q137.9 146.4 136.9 146.4L136.9 146.4Q135.9 146.4 135.3 145.7Q134.6 145.0 134.6 144.0ZM141.9 161.7Q141.2 161.0 141.2 159.9Q141.2 158.9 141.9 158.1L141.9 158.1Q142.6 157.4 143.6 157.4L143.6 157.4L149.5 157.4Q150.5 157.4 151.2 158.2Q152.0 158.9 152.0 159.9Q152.0 160.9 151.2 161.7Q150.5 162.4 149.5 162.4L149.5 162.4L143.6 162.4Q142.6 162.4 141.9 161.7Z "/></g><mask id="satori_om-id-1-0-1"><rect x="230" y="132" width="79" height="56" fill="#fff"/></mask><g  ><path fill="#333" d="M230 166.6L230 166.6Q230 170.5 231.9 173.8Q233.9 177.2 237.2 179.1Q240.5 181.0 244.4 181.0L244.4 181.0L276.0 181.0Q279.9 181.0 283.2 179.1Q286.5 177.2 288.5 173.8Q290.4 170.5 290.4 166.6L290.4 166.6Q290.4 163.7 289.2 160.7L289.2 160.7Q292.5 156.7 292.5 151.1L292.5 151.1Q292.5 148.0 291.3 145.1Q290.1 142.3 288.1 140.3Q286.0 138.2 283.2 137.0Q280.4 135.8 277.3 135.8L277.3 135.8Q270.8 135.8 265.9 140.9L265.9 140.9Q262.5 139.0 258.1 139.0L258.1 139.0Q251.9 139.0 247.2 142.8Q242.4 146.6 241.1 152.6L241.1 152.6Q236.2 153.7 233.1 157.6Q230 161.5 230 166.6ZM235.0 166.6L235.0 166.6Q235.0 162.9 237.4 160.2Q239.9 157.6 243.6 157.2L243.6 157.2L245.0 157.1Q245.6 157.1 245.6 156.6L245.6 156.6L245.8 155.0Q246.4 150.2 249.9 147.1Q253.4 143.9 258.1 143.9L258.1 143.9Q262.9 143.9 266.4 147.1Q270.0 150.3 270.4 155.0L270.4 155.0L270.7 156.7Q270.8 157.2 271.3 157.2L271.3 157.2L276.0 157.2Q279.8 157.2 282.6 159.9Q285.4 162.7 285.4 166.6L285.4 166.6Q285.4 170.5 282.6 173.3Q279.8 176.1 276.0 176.1L276.0 176.1L244.4 176.1Q240.6 176.1 237.8 173.3Q235.0 170.5 235.0 166.6ZM254.5 130.8L254.5 130.8Q254.5 131.8 255.2 132.6L255.2 132.6L257.2 134.5Q258.2 135.3 259.0 135.2L259.0 135.2Q259.9 135.2 260.6 134.4Q261.3 133.7 261.3 132.6Q261.3 131.6 260.6 130.9L260.6 130.9L258.8 129.0Q258.1 128.3 257.1 128.3L257.1 128.3Q256.0 128.3 255.3 129.0Q254.5 129.7 254.5 130.8ZM270.1 143.7L270.1 143.7Q273.1 140.8 277.3 140.8L277.3 140.8Q281.6 140.8 284.6 143.8Q287.6 146.8 287.6 151.1L287.6 151.1Q287.6 153.8 286.1 156.4L286.1 156.4Q281.9 152.3 276.0 152.3L276.0 152.3L275.0 152.3Q273.9 147.5 270.1 143.7ZM274.8 122.3L274.8 128.3Q274.8 129.4 275.5 130.1Q276.2 130.8 277.3 130.8L277.3 130.8Q278.4 130.8 279.1 130.1Q279.7 129.4 279.7 128.3L279.7 128.3L279.7 122.3Q279.7 121.3 279.0 120.6Q278.3 119.9 277.3 119.9L277.3 119.9Q276.2 119.9 275.5 120.6Q274.8 121.3 274.8 122.3L274.8 122.3ZM290.9 135.0L290.9 135.0Q290.9 136.1 291.6 136.8L291.6 136.8Q292.5 137.5 293.4 137.5L293.4 137.5Q294.2 137.5 295.1 136.8L295.1 136.8L299.3 132.6Q300.0 131.8 300.0 130.7L300.0 130.7Q300.0 129.7 299.3 129.0Q298.6 128.3 297.6 128.3L297.6 128.3Q296.6 128.3 295.9 129.0L295.9 129.0L291.6 133.2Q290.9 134.0 290.9 135.0ZM294.0 167.7Q293.3 168.4 293.3 169.5Q293.3 170.5 294.0 171.3L294.0 171.3L295.9 173.2Q296.6 173.9 297.6 173.9Q298.6 173.9 299.3 173.1Q300.0 172.4 300.0 171.3L300.0 171.3Q300.0 170.3 299.3 169.6L299.3 169.6L297.4 167.7Q296.7 167.0 295.8 167.0L295.8 167.0Q294.7 167.0 294.0 167.7ZM298.3 149.3Q297.5 150.1 297.5 151.1Q297.5 152.1 298.3 152.8L298.3 152.8Q299.0 153.5 300.1 153.5L300.1 153.5L306.0 153.5Q307.1 153.5 307.7 152.8Q308.4 152.1 308.4 151.1Q308.4 150.0 307.7 149.3Q307.1 148.6 306.0 148.6L306.0 148.6L300.1 148.6Q299.0 148.6 298.3 149.3Z "/></g><mask id="satori_om-id-1-0-2"><rect x="387" y="132" width="65" height="56" fill="#fff"/></mask><g  ><path fill="#333" d="M387 168.6L387 168.6Q387 164.2 389.7 160.9Q392.4 157.5 396.7 156.5L396.7 156.5Q397.8 151.4 401.8 148.1Q405.9 144.9 411.2 144.9L411.2 144.9Q416.4 144.9 420.5 148.0Q424.5 151.2 425.7 156.2L425.7 156.2L426.5 156.2Q431.7 156.2 435.3 159.8Q438.9 163.4 438.9 168.6Q438.9 173.7 435.3 177.4Q431.7 181.0 426.5 181.0L426.5 181.0L399.4 181.0Q396.9 181.0 394.6 180.0Q392.3 179.1 390.6 177.4Q389.0 175.7 388.0 173.4Q387 171.1 387 168.6ZM391.2 168.6L391.2 168.6Q391.2 171.9 393.6 174.3Q396.1 176.7 399.4 176.7L399.4 176.7L426.5 176.7Q429.9 176.7 432.3 174.3Q434.7 171.9 434.7 168.6Q434.7 165.3 432.3 162.9Q429.9 160.5 426.5 160.5L426.5 160.5L422.5 160.5Q422.0 160.5 422.0 160.1L422.0 160.1L421.8 158.6Q421.4 154.5 418.4 151.8Q415.4 149.1 411.2 149.1Q407.1 149.1 404.0 151.8Q401 154.5 400.6 158.6L400.6 158.6L400.4 159.9Q400.4 160.3 400.0 160.3L400.0 160.3L398.6 160.5Q395.5 160.8 393.4 163.1Q391.2 165.4 391.2 168.6ZM417.1 143.2L417.1 143.2Q416.6 143.6 417.3 143.8L417.3 143.8Q419.2 144.6 420.4 145.4L420.4 145.4Q420.9 145.5 421.1 145.3L421.1 145.3Q423.7 142.8 427.3 142.8Q430.8 142.8 433.4 145.1Q435.9 147.5 436.2 151.0L436.2 151.0L436.5 152.8L440.6 152.8Q443.5 152.8 445.5 154.9Q447.6 156.9 447.6 159.7L447.6 159.7Q447.6 162.4 445.8 164.3Q444.0 166.2 441.3 166.5L441.3 166.5Q440.9 166.5 440.9 167L440.9 167L440.9 170.3Q440.9 170.8 441.3 170.8L441.3 170.8Q445.7 170.5 448.8 167.3Q451.8 164.1 451.8 159.7L451.8 159.7Q451.8 155.1 448.5 151.8Q445.3 148.6 440.6 148.6L440.6 148.6L440.2 148.6Q439.1 144.2 435.4 141.4Q431.8 138.5 427.3 138.5L427.3 138.5Q421.1 138.5 417.1 143.2Z "/></g><mask id="satori_om-id-1-0-3"><rect x="531" y="132" width="61" height="56" fill="#fff"/></mask><g  ><path fill="#333" d="M531 166.6L531 166.6Q531 161.6 534.1 157.6Q537.3 153.7 542.1 152.6L542.1 152.6Q543.5 146.6 548.3 142.8Q553.0 139.0 559.2 139.0L559.2 139.0Q565.2 139.0 569.9 142.7Q574.6 146.4 576.1 152.3L576.1 152.3L577.0 152.3Q580.9 152.3 584.2 154.2Q587.6 156.1 589.5 159.4Q591.5 162.7 591.5 166.6L591.5 166.6Q591.5 170.4 589.6 173.7Q587.8 177.0 584.6 179.0Q581.4 180.9 577.6 181.1L577.6 181.1Q577.0 181.1 577.0 180.6L577.0 180.6L577.0 176.7Q577.0 176.2 577.6 176.2L577.6 176.2Q581.3 176.0 583.9 173.2Q586.6 170.4 586.6 166.6Q586.6 162.8 583.7 160.0Q580.9 157.2 577.0 157.2L577.0 157.2L572.3 157.2Q571.8 157.2 571.8 156.7L571.8 156.7L571.6 155.0Q571.1 150.3 567.5 147.1Q563.9 143.9 559.2 143.9L559.2 143.9Q554.4 143.9 550.9 147.1Q547.3 150.3 546.9 155.0L546.9 155.0L546.7 156.6Q546.7 157.1 546.1 157.1L546.1 157.1L544.6 157.2Q540.9 157.6 538.5 160.3Q536.0 163.0 536.0 166.6L536.0 166.6Q536.0 170.4 538.6 173.2Q541.2 176.0 545.0 176.2L545.0 176.2Q545.5 176.2 545.5 176.7L545.5 176.7L545.5 180.6Q545.5 181.1 545.0 181.1L545.0 181.1Q539.1 180.8 535.1 176.6Q531 172.4 531 166.6ZM546.6 186.1L546.6 186.1Q546.6 185.9 546.7 185.5L546.7 185.5L551.5 168.7Q551.8 167.8 552.4 167.4Q553.1 167.0 553.8 167.0L553.8 167.0Q554.1 167.0 554.5 167.1L554.5 167.1Q555.5 167.2 556.1 168.1Q556.6 169.0 556.3 170.1L556.3 170.1L551.5 186.8Q551.0 188.6 549.1 188.6L549.1 188.6Q549.0 188.6 548.8 188.6L548.8 188.6Q548.6 188.5 548.5 188.5L548.5 188.5Q547.5 188.2 547.1 187.5Q546.6 186.8 546.6 186.1ZM554.3 194.3L554.3 194.3L561.4 168.7Q561.6 167.8 562.3 167.4Q562.9 167.0 563.7 167.0L563.7 167.0Q564.1 167.0 564.5 167.1L564.5 167.1Q565.4 167.3 565.9 168.2Q566.4 169.1 566.1 170.1L566.1 170.1L559 195.7Q558.8 196.4 558.2 196.9Q557.5 197.5 556.7 197.5L556.7 197.5Q556.3 197.5 555.9 197.3L555.9 197.3Q555.1 197.1 554.4 196.2L554.4 196.2Q553.9 195.4 554.3 194.3ZM566.3 186.2L566.3 186.2Q566.3 186.0 566.4 185.5L566.4 185.5L571.2 168.7Q571.4 167.8 572.1 167.4Q572.7 167.0 573.4 167.0L573.4 167.0Q573.8 167.0 574.2 167.1L574.2 167.1Q575.1 167.3 575.5 168.0Q576.0 168.6 576.0 169.3L576.0 169.3Q576.0 169.5 575.9 169.7Q575.9 170.0 575.9 170.1L575.9 170.1L571.1 186.8Q570.9 187.6 570.3 188.1Q569.6 188.6 568.8 188.6L568.8 188.6L568.1 188.5Q567.2 188.2 566.8 187.5Q566.3 186.9 566.3 186.2Z "/></g><mask id="satori_om-id-1-0-4"><rect x="670" y="132" width="61" height="56" fill="#fff"/></mask><g  ><path fill="#333" d="M670 166.6L670 166.6Q670 171.4 672.9 175.3Q675.8 179.1 680.4 180.5L680.4 180.5L678.5 185.4Q678.4 186.0 678.9 186.0L678.9 186.0L685.1 186.0L682.3 198.6L683.1 198.6L694.5 181.8Q694.7 181.6 694.5 181.4Q694.4 181.2 694.1 181.2L694.1 181.2L687.8 181.2L695.0 167.7Q695.3 167.0 694.6 167.0L694.6 167.0L686.0 167.0Q685.6 167.0 685.3 167.5L685.3 167.5L682.2 175.8Q679.1 175.0 677.0 172.4Q675.0 169.8 675.0 166.6L675.0 166.6Q675.0 163.0 677.5 160.3Q679.9 157.6 683.6 157.2L683.6 157.2L685.1 157.0Q685.7 157.0 685.7 156.4L685.7 156.4L685.9 155.0Q686.4 150.2 689.9 147.0Q693.4 143.8 698.2 143.8L698.2 143.8Q703.0 143.8 706.5 147.0Q710.1 150.2 710.6 155.0L710.6 155.0L710.8 156.7Q710.8 157.2 711.3 157.2L711.3 157.2L716.0 157.2Q720.0 157.2 722.8 159.9Q725.6 162.7 725.6 166.6L725.6 166.6Q725.6 170.3 723.0 173.0Q720.4 175.8 716.6 176.1L716.6 176.1Q716.0 176.1 716.0 176.6L716.0 176.6L716.0 180.6Q716.0 181.1 716.6 181.1L716.6 181.1Q722.4 180.9 726.5 176.7Q730.5 172.4 730.5 166.6L730.5 166.6Q730.5 162.7 728.6 159.3Q726.7 156.0 723.3 154.1Q720.0 152.2 716.0 152.2L716.0 152.2L715.1 152.2Q713.7 146.3 709.0 142.6Q704.2 138.9 698.2 138.9L698.2 138.9Q692.0 138.9 687.3 142.8Q682.5 146.6 681.1 152.6L681.1 152.6Q676.3 153.7 673.1 157.6Q670 161.5 670 166.6ZM693.8 194.9L693.8 194.9Q693.8 196.6 695.5 197.2L695.5 197.2Q695.5 197.2 695.8 197.2Q696.1 197.2 696.2 197.2L696.2 197.2Q696.9 197.2 697.6 196.8Q698.3 196.4 698.6 195.4L698.6 195.4L705.1 170.1Q705.4 169.0 704.9 168.2Q704.5 167.3 703.5 167.0L703.5 167.0Q702.8 166.9 702.7 166.9L702.7 166.9Q702.0 166.9 701.3 167.4Q700.7 167.8 700.4 168.7L700.4 168.7L693.8 194.1Q693.8 194.5 693.8 194.9ZM705.9 186.0L705.9 186.0Q705.9 186.6 706.2 187.1L706.2 187.1Q706.8 188.0 707.7 188.4L707.7 188.4Q708.1 188.5 708.5 188.5Q708.9 188.5 709.5 188.3L709.5 188.3Q710.4 187.9 710.7 186.6L710.7 186.6L714.9 170.1Q715.0 169.4 715.0 169.3L715.0 169.3Q715.0 168.6 714.6 168.0Q714.1 167.3 713.2 167.0L713.2 167.0Q712.5 166.9 712.5 166.9L712.5 166.9Q711.7 166.9 711.1 167.4Q710.5 167.8 710.2 168.7L710.2 168.7L706.0 185.3Q706.0 185.4 705.9 185.6Q705.9 185.9 705.9 186.0Z "/></g><mask id="satori_om-id-1-0-5"><rect x="809" y="132" width="61" height="56" fill="#fff"/></mask><g  ><path fill="#333" d="M809 166.7L809 166.7Q809 161.6 812.1 157.7Q815.2 153.8 820.1 152.6L820.1 152.6Q821.5 146.6 826.2 142.8Q831.0 139.0 837.2 139.0L837.2 139.0Q843.2 139.0 847.9 142.7Q852.6 146.4 854.1 152.3L854.1 152.3L855.0 152.3Q858.9 152.3 862.2 154.2Q865.6 156.1 867.5 159.5Q869.5 162.8 869.5 166.7L869.5 166.7Q869.5 172.5 865.4 176.7Q861.4 180.9 855.6 181.1L855.6 181.1Q855.0 181.1 855.0 180.6L855.0 180.6L855.0 176.7Q855.0 176.2 855.6 176.2L855.6 176.2Q859.3 176.0 861.9 173.2Q864.6 170.4 864.6 166.7L864.6 166.7Q864.6 162.8 861.7 160Q858.9 157.2 855.0 157.2L855.0 157.2L850.3 157.2Q849.8 157.2 849.8 156.7L849.8 156.7L849.6 155.0Q849.1 150.3 845.5 147.1Q841.9 143.9 837.2 143.9L837.2 143.9Q832.4 143.9 828.8 147.1Q825.3 150.3 824.8 155.1L824.8 155.1L824.7 156.6Q824.7 157.1 824.1 157.1L824.1 157.1L822.6 157.3Q818.9 157.6 816.5 160.3Q814.0 163.0 814.0 166.7L814.0 166.7Q814.0 170.4 816.6 173.2Q819.3 176.0 823.0 176.2L823.0 176.2Q823.5 176.2 823.5 176.7L823.5 176.7L823.5 180.6Q823.5 181.1 823.0 181.1L823.0 181.1Q817.1 180.9 813.1 176.7Q809 172.5 809 166.7ZM827.6 178.6L827.6 178.6Q827.6 177.6 828.3 176.9Q829.0 176.2 830.0 176.2Q831.0 176.2 831.7 176.9Q832.4 177.6 832.4 178.6L832.4 178.6Q832.4 179.6 831.7 180.3Q831.0 181.1 830.0 181.1Q829.0 181.1 828.3 180.3Q827.6 179.6 827.6 178.6ZM828.3 190.9Q827.6 190.2 827.6 189.1Q827.6 188.1 828.3 187.4L828.3 187.4Q829.0 186.7 830.0 186.7Q831.0 186.7 831.7 187.4Q832.4 188.1 832.4 189.1Q832.4 190.2 831.7 190.9Q831.0 191.6 830.0 191.6Q829.0 191.6 828.3 190.9ZM837.6 185.9Q836.9 185.2 836.9 184.2Q836.9 183.2 837.6 182.4L837.6 182.4Q838.3 181.7 839.3 181.7L839.3 181.7Q840.3 181.7 841.0 182.4Q841.8 183.2 841.8 184.2Q841.8 185.2 841.0 185.9Q840.3 186.7 839.3 186.7L839.3 186.7Q838.3 186.7 837.6 185.9ZM837.6 175.4Q836.9 174.7 836.9 173.6Q836.9 172.6 837.6 171.9L837.6 171.9Q838.4 171.2 839.3 171.2L839.3 171.2Q840.3 171.2 841.0 171.9Q841.8 172.6 841.8 173.6Q841.8 174.7 841.0 175.4Q840.3 176.1 839.3 176.1L839.3 176.1Q838.3 176.1 837.6 175.4ZM836.9 194.9L836.9 194.9Q836.9 193.9 837.6 193.1L837.6 193.1Q838.3 192.4 839.3 192.4L839.3 192.4Q840.3 192.4 841.0 193.1Q841.8 193.9 841.8 194.9Q841.8 195.9 841.0 196.6Q840.3 197.3 839.3 197.3L839.3 197.3Q838.3 197.3 837.6 196.6Q836.9 195.9 836.9 194.9ZM846.3 178.6L846.3 178.6Q846.3 177.6 847.0 176.9Q847.7 176.2 848.8 176.2Q849.8 176.2 850.5 176.9Q851.2 177.6 851.2 178.6L851.2 178.6Q851.2 179.6 850.5 180.3Q849.8 181.1 848.8 181.1L848.8 181.1Q847.7 181.1 847.0 180.3Q846.3 179.6 846.3 178.6ZM846.3 189.1L846.3 189.1Q846.3 188.2 847.0 187.4L847.0 187.4Q847.7 186.7 848.8 186.7Q849.8 186.7 850.5 187.4Q851.2 188.1 851.2 189.1Q851.2 190.2 850.5 190.9Q849.8 191.6 848.8 191.6Q847.7 191.6 847.0 190.9Q846.3 190.2 846.3 189.1Z "/></g><mask id="satori_om-id-2"><rect x="0" y="210" width="960" height="330" fill="#fff"/></mask><mask id="satori_om-id-2-0"><rect x="60" y="285" width="560" height="181" fill="#fff"/></mask><mask id="satori_om-id-2-0-0"><rect x="60" y="285" width="560" height="35" fill="#fff"/></mask><g  ><path fill="#333" d="M69.2 290.3Q71.7 290.3 73.6 291.0Q75.4 291.7 76.9 293.1L76.9 293.1L74.5 296.0Q72.2 294.1 69.6 294.1L69.6 294.1Q68.2 294.1 67.4 294.7Q66.6 295.2 66.6 296.3L66.6 296.3Q66.6 297.0 67.0 297.5Q67.3 298.0 68.2 298.4Q69.1 298.8 70.9 299.4L70.9 299.4Q74.3 300.5 75.9 302.0Q77.5 303.6 77.5 306.5L77.5 306.5Q77.5 308.6 76.4 310.2Q75.4 311.8 73.4 312.7Q71.4 313.5 68.7 313.5L68.7 313.5Q66.0 313.5 63.9 312.7Q61.8 311.8 60.3 310.4L60.3 310.4L62.9 307.5Q64.2 308.6 65.6 309.1Q66.9 309.6 68.5 309.6L68.5 309.6Q70.2 309.6 71.1 308.9Q72.1 308.2 72.1 306.9L72.1 306.9Q72.1 306.1 71.7 305.5Q71.4 305.0 70.5 304.5Q69.6 304.1 68 303.6L68 303.6Q64.3 302.4 62.8 300.8Q61.2 299.2 61.2 296.7L61.2 296.7Q61.2 294.8 62.2 293.3Q63.3 291.8 65.1 291.1Q66.9 290.3 69.2 290.3L69.2 290.3ZM95.1 304.2Q95.1 305.2 95.0 306.0L95.0 306.0L84.5 306.0Q84.7 308.1 85.7 309Q86.7 309.9 88.4 309.9L88.4 309.9Q89.4 309.9 90.3 309.5Q91.3 309.1 92.4 308.4L92.4 308.4L94.5 311.2Q91.5 313.5 87.9 313.5L87.9 313.5Q83.7 313.5 81.5 311.1Q79.3 308.7 79.3 304.6L79.3 304.6Q79.3 302.0 80.3 299.9Q81.2 297.9 83.0 296.7Q84.8 295.5 87.3 295.5L87.3 295.5Q90.9 295.5 93.0 297.8Q95.1 300.1 95.1 304.2L95.1 304.2ZM90.1 303.0L90.1 302.7Q90.1 298.8 87.4 298.8L87.4 298.8Q86.1 298.8 85.4 299.8Q84.6 300.7 84.5 303.0L84.5 303.0L90.1 303.0ZM106.9 309L108.6 312.2Q107.7 312.8 106.4 313.2Q105.2 313.5 104 313.5L104 313.5Q98.4 313.5 98.4 307.4L98.4 307.4L98.4 299.5L96.0 299.5L96.0 296.0L98.4 296.0L98.4 292.3L103.5 291.8L103.5 296.0L107.4 296.0L106.8 299.5L103.5 299.5L103.5 307.3Q103.5 308.5 103.9 309.0Q104.3 309.5 105.1 309.5L105.1 309.5Q106.0 309.5 106.9 309L106.9 309ZM124.6 296.0L124.6 313L120.3 313L120.0 310.9Q118.2 313.5 114.9 313.5L114.9 313.5Q112.5 313.5 111.3 312.1Q110.1 310.7 110.1 308.2L110.1 308.2L110.1 296.0L115.2 296.0L115.2 307.6Q115.2 308.8 115.6 309.3Q116 309.8 116.8 309.8L116.8 309.8Q118.4 309.8 119.6 307.8L119.6 307.8L119.6 296.0L124.6 296.0ZM138.2 295.5Q141.4 295.5 143.0 297.8Q144.5 300.2 144.5 304.5L144.5 304.5Q144.5 307.1 143.7 309.1Q142.9 311.2 141.4 312.4Q139.8 313.5 137.8 313.5L137.8 313.5Q135.2 313.5 133.7 311.8L133.7 311.8L133.7 319.6L128.6 320.1L128.6 296.0L133.1 296.0L133.3 297.9Q134.3 296.6 135.6 296.1Q136.9 295.5 138.2 295.5L138.2 295.5ZM136.3 309.8Q139.3 309.8 139.3 304.5L139.3 304.5Q139.3 301.5 138.6 300.3Q138.0 299.2 136.6 299.2L136.6 299.2Q135.7 299.2 135.0 299.7Q134.2 300.2 133.7 301.2L133.7 301.2L133.7 308.3Q134.7 309.8 136.3 309.8L136.3 309.8Z M164.5 295.5Q165.4 295.5 166.2 295.8L166.2 295.8L165.4 300.6Q164.4 300.4 163.9 300.4L163.9 300.4Q162.4 300.4 161.6 301.5Q160.8 302.5 160.4 304.6L160.4 304.6L160.4 313L155.3 313L155.3 296.0L159.7 296.0L160.1 299.3Q160.7 297.5 161.9 296.5Q163.0 295.5 164.5 295.5L164.5 295.5ZM182.9 304.2Q182.9 305.2 182.8 306.0L182.8 306.0L172.3 306.0Q172.6 308.1 173.5 309Q174.5 309.9 176.2 309.9L176.2 309.9Q177.2 309.9 178.2 309.5Q179.1 309.1 180.3 308.4L180.3 308.4L182.3 311.2Q179.4 313.5 175.7 313.5L175.7 313.5Q171.6 313.5 169.4 311.1Q167.2 308.7 167.2 304.6L167.2 304.6Q167.2 302.0 168.1 299.9Q169.0 297.9 170.8 296.7Q172.6 295.5 175.1 295.5L175.1 295.5Q178.8 295.5 180.9 297.8Q182.9 300.1 182.9 304.2L182.9 304.2ZM178.0 303.0L178.0 302.7Q177.9 298.8 175.2 298.8L175.2 298.8Q173.9 298.8 173.2 299.8Q172.5 300.7 172.3 303.0L172.3 303.0L178.0 303.0ZM196.6 296.0L201.0 296.0L201.0 320.1L196.0 319.6L196.0 311.4Q194.3 313.5 191.5 313.5L191.5 313.5Q188.3 313.5 186.6 311.1Q185.0 308.7 185.0 304.5L185.0 304.5Q185.0 301.8 185.9 299.8Q186.7 297.8 188.3 296.6Q189.9 295.5 192.0 295.5L192.0 295.5Q194.6 295.5 196.4 297.5L196.4 297.5L196.6 296.0ZM193.0 309.8Q194.8 309.8 196.0 307.9L196.0 307.9L196.0 300.6Q195.4 299.8 194.8 299.5Q194.1 299.1 193.3 299.1L193.3 299.1Q191.9 299.1 191.1 300.4Q190.2 301.7 190.2 304.5L190.2 304.5Q190.2 307.5 191.0 308.6Q191.7 309.8 193.0 309.8L193.0 309.8ZM219.3 296.0L219.3 313L214.9 313L214.7 310.9Q212.9 313.5 209.6 313.5L209.6 313.5Q207.2 313.5 206.0 312.1Q204.8 310.7 204.8 308.2L204.8 308.2L204.8 296.0L209.9 296.0L209.9 307.6Q209.9 308.8 210.3 309.3Q210.7 309.8 211.5 309.8L211.5 309.8Q213.1 309.8 214.3 307.8L214.3 307.8L214.3 296.0L219.3 296.0ZM223.3 296.0L228.4 296.0L228.4 313L223.3 313L223.3 296.0ZM225.8 287.0Q227.1 287.0 228.0 287.9Q228.8 288.7 228.8 289.9L228.8 289.9Q228.8 291.2 228.0 292.0Q227.1 292.8 225.8 292.8L225.8 292.8Q224.5 292.8 223.6 292.0Q222.8 291.2 222.8 289.9L222.8 289.9Q222.8 288.7 223.6 287.9Q224.5 287.0 225.8 287.0L225.8 287.0ZM241.5 295.5Q242.5 295.5 243.2 295.8L243.2 295.8L242.4 300.6Q241.5 300.4 240.9 300.4L240.9 300.4Q239.4 300.4 238.6 301.5Q237.8 302.5 237.4 304.6L237.4 304.6L237.4 313L232.3 313L232.3 296.0L236.7 296.0L237.2 299.3Q237.7 297.5 238.9 296.5Q240.1 295.5 241.5 295.5L241.5 295.5ZM260.0 304.2Q260.0 305.2 259.9 306.0L259.9 306.0L249.3 306.0Q249.6 308.1 250.6 309Q251.5 309.9 253.2 309.9L253.2 309.9Q254.2 309.9 255.2 309.5Q256.2 309.1 257.3 308.4L257.3 308.4L259.4 311.2Q256.4 313.5 252.7 313.5L252.7 313.5Q248.6 313.5 246.4 311.1Q244.2 308.7 244.2 304.6L244.2 304.6Q244.2 302.0 245.1 299.9Q246.0 297.9 247.8 296.7Q249.6 295.5 252.1 295.5L252.1 295.5Q255.8 295.5 257.9 297.8Q260.0 300.1 260.0 304.2L260.0 304.2ZM255.0 303.0L255.0 302.7Q254.9 298.8 252.3 298.8L252.3 298.8Q250.9 298.8 250.2 299.8Q249.5 300.7 249.3 303.0L249.3 303.0L255.0 303.0ZM273.0 288.7L278.0 289.3L278.0 313L273.6 313L273.3 311.0Q271.5 313.5 268.5 313.5L268.5 313.5Q265.3 313.5 263.7 311.1Q262.0 308.7 262.0 304.5L262.0 304.5Q262.0 301.9 262.9 299.8Q263.7 297.8 265.3 296.6Q266.9 295.5 269.0 295.5L269.0 295.5Q271.4 295.5 273.0 297.1L273.0 297.1L273.0 288.7ZM270.0 309.8Q271.8 309.8 273.0 307.9L273.0 307.9L273.0 300.6Q272.4 299.8 271.8 299.5Q271.1 299.1 270.3 299.1L270.3 299.1Q268.9 299.1 268.1 300.5Q267.3 301.8 267.3 304.5L267.3 304.5Q267.3 307.5 268.0 308.6Q268.7 309.8 270.0 309.8L270.0 309.8ZM283.9 307.8Q285.1 307.8 285.9 308.6Q286.8 309.4 286.8 310.6L286.8 310.6Q286.8 311.8 285.9 312.7Q285.1 313.5 283.9 313.5L283.9 313.5Q282.7 313.5 281.8 312.7Q281.0 311.8 281.0 310.6L281.0 310.6Q281.0 309.4 281.8 308.6Q282.7 307.8 283.9 307.8L283.9 307.8ZM283.9 296.7Q285.1 296.7 285.9 297.5Q286.8 298.4 286.8 299.6L286.8 299.6Q286.8 300.8 285.9 301.6Q285.1 302.5 283.9 302.5L283.9 302.5Q282.7 302.5 281.8 301.6Q281.0 300.8 281.0 299.6L281.0 299.6Q281.0 298.4 281.8 297.5Q282.7 296.7 283.9 296.7L283.9 296.7Z "/></g><mask id="satori_om-id-2-0-1"><rect x="60" y="334" width="560" height="40" fill="#fff"/></mask><g  ><path fill="#000" d="M67.7 343.4L72.2 343.4L72.2 365L67.3 365L67.3 348.3L62.6 351.1L60.4 347.8L67.7 343.4ZM78.7 359.8Q79.9 359.8 80.7 360.6Q81.6 361.4 81.6 362.6L81.6 362.6Q81.6 363.8 80.7 364.7Q79.9 365.5 78.7 365.5L78.7 365.5Q77.5 365.5 76.6 364.7Q75.8 363.8 75.8 362.6L75.8 362.6Q75.8 361.4 76.6 360.6Q77.5 359.8 78.7 359.8L78.7 359.8Z M92.2 342.8L105.8 342.8L105.2 346.6L97.4 346.6L97.4 351.9L104.3 351.9L104.3 355.6L97.4 355.6L97.4 361.2L105.8 361.2L105.8 365L92.2 365L92.2 342.8ZM118.9 347.5Q121.1 347.5 122.3 348.8Q123.6 350.2 123.6 352.6L123.6 352.6L123.6 365L118.5 365L118.5 353.4Q118.5 352.2 118.1 351.7Q117.7 351.2 116.9 351.2L116.9 351.2Q115.4 351.2 114.0 353.4L114.0 353.4L114.0 365L108.9 365L108.9 348.0L113.3 348.0L113.7 350.0Q114.8 348.7 116.0 348.1Q117.3 347.5 118.9 347.5L118.9 347.5ZM133.4 347.5Q135.2 347.5 136.8 348.0Q138.4 348.6 139.6 349.5L139.6 349.5L137.8 352.4Q135.7 351.1 133.6 351.1L133.6 351.1Q132.6 351.1 132.0 351.4Q131.5 351.8 131.5 352.4L131.5 352.4Q131.5 352.8 131.8 353.1Q132.0 353.4 132.7 353.8Q133.5 354.1 135.0 354.5L135.0 354.5Q137.7 355.3 139.0 356.5Q140.3 357.8 140.3 359.9L140.3 359.9Q140.3 361.7 139.3 362.9Q138.3 364.2 136.5 364.9Q134.8 365.5 132.7 365.5L132.7 365.5Q130.6 365.5 128.7 364.9Q126.9 364.2 125.6 363.0L125.6 363.0L128.1 360.3Q130.2 361.9 132.6 361.9L132.6 361.9Q133.7 361.9 134.4 361.5Q135.0 361.1 135.0 360.3L135.0 360.3Q135.0 359.7 134.8 359.4Q134.5 359.0 133.8 358.7Q133.1 358.4 131.5 358.0L131.5 358.0Q128.9 357.2 127.7 355.9Q126.4 354.6 126.4 352.6L126.4 352.6Q126.4 351.2 127.3 350.0Q128.1 348.8 129.7 348.2Q131.3 347.5 133.4 347.5L133.4 347.5ZM157.2 348.0L157.2 365L152.8 365L152.6 362.9Q150.7 365.5 147.4 365.5L147.4 365.5Q145.1 365.5 143.9 364.1Q142.7 362.7 142.7 360.2L142.7 360.2L142.7 348.0L147.7 348.0L147.7 359.6Q147.7 360.8 148.1 361.3Q148.5 361.8 149.4 361.8L149.4 361.8Q151.0 361.8 152.1 359.8L152.1 359.8L152.1 348.0L157.2 348.0ZM170.4 347.5Q171.3 347.5 172.1 347.8L172.1 347.8L171.3 352.6Q170.3 352.4 169.7 352.4L169.7 352.4Q168.2 352.4 167.4 353.5Q166.7 354.5 166.2 356.6L166.2 356.6L166.2 365L161.2 365L161.2 348.0L165.6 348.0L166.0 351.3Q166.6 349.5 167.7 348.5Q168.9 347.5 170.4 347.5L170.4 347.5ZM188.8 356.2Q188.8 357.2 188.7 358.0L188.7 358.0L178.2 358.0Q178.4 360.1 179.4 361Q180.4 361.9 182.0 361.9L182.0 361.9Q183.1 361.9 184.0 361.5Q185.0 361.1 186.1 360.4L186.1 360.4L188.2 363.2Q185.2 365.5 181.6 365.5L181.6 365.5Q177.4 365.5 175.2 363.1Q173.0 360.7 173.0 356.6L173.0 356.6Q173.0 354.0 174.0 351.9Q174.9 349.9 176.7 348.7Q178.5 347.5 181.0 347.5L181.0 347.5Q184.6 347.5 186.7 349.8Q188.8 352.1 188.8 356.2L188.8 356.2ZM183.8 355.0L183.8 354.7Q183.8 350.8 181.1 350.8L181.1 350.8Q179.8 350.8 179.1 351.8Q178.3 352.7 178.2 355.0L178.2 355.0L183.8 355.0Z M209.4 340.7L214.5 341.3L214.5 365L210.0 365L209.7 363.0Q207.9 365.5 204.9 365.5L204.9 365.5Q201.7 365.5 200.1 363.1Q198.4 360.7 198.4 356.5L198.4 356.5Q198.4 353.9 199.3 351.8Q200.2 349.8 201.7 348.6Q203.3 347.5 205.4 347.5L205.4 347.5Q207.8 347.5 209.4 349.1L209.4 349.1L209.4 340.7ZM206.5 361.8Q208.2 361.8 209.4 359.9L209.4 359.9L209.4 352.6Q208.8 351.8 208.2 351.5Q207.6 351.1 206.8 351.1L206.8 351.1Q205.3 351.1 204.5 352.5Q203.7 353.8 203.7 356.5L203.7 356.5Q203.7 359.5 204.4 360.6Q205.1 361.8 206.5 361.8L206.5 361.8ZM233.2 356.2Q233.2 357.2 233.2 358.0L233.2 358.0L222.6 358.0Q222.9 360.1 223.8 361Q224.8 361.9 226.5 361.9L226.5 361.9Q227.5 361.9 228.5 361.5Q229.4 361.1 230.6 360.4L230.6 360.4L232.6 363.2Q229.7 365.5 226.0 365.5L226.0 365.5Q221.9 365.5 219.7 363.1Q217.5 360.7 217.5 356.6L217.5 356.6Q217.5 354.0 218.4 351.9Q219.3 349.9 221.1 348.7Q222.9 347.5 225.4 347.5L225.4 347.5Q229.1 347.5 231.2 349.8Q233.2 352.1 233.2 356.2L233.2 356.2ZM228.3 355.0L228.3 354.7Q228.2 350.8 225.5 350.8L225.5 350.8Q224.2 350.8 223.5 351.8Q222.8 352.7 222.6 355.0L222.6 355.0L228.3 355.0ZM245.6 348.0L250.7 348.0L245.4 365L239.4 365L233.9 348.0L239.4 348.0L242.4 361.2L245.6 348.0ZM252.5 348.0L257.6 348.0L257.6 365L252.5 365L252.5 348.0ZM255.0 339.0Q256.3 339.0 257.2 339.9Q258.0 340.7 258.0 341.9L258.0 341.9Q258.0 343.2 257.2 344.0Q256.3 344.8 255.0 344.8L255.0 344.8Q253.7 344.8 252.9 344.0Q252.0 343.2 252.0 341.9L252.0 341.9Q252.0 340.7 252.9 339.9Q253.7 339.0 255.0 339.0L255.0 339.0ZM268.9 347.5Q270.7 347.5 272.1 348.0Q273.5 348.5 274.7 349.5L274.7 349.5L272.5 352.6Q270.9 351.3 269.3 351.3L269.3 351.3Q267.6 351.3 266.8 352.6Q265.9 353.8 265.9 356.6L265.9 356.6Q265.9 359.3 266.8 360.4Q267.6 361.5 269.2 361.5L269.2 361.5Q270.1 361.5 270.8 361.3Q271.5 361 272.5 360.4L272.5 360.4L274.7 363.5Q272.2 365.5 269.0 365.5L269.0 365.5Q266.4 365.5 264.5 364.4Q262.6 363.3 261.6 361.3Q260.6 359.3 260.6 356.6L260.6 356.6Q260.6 354.0 261.6 351.9Q262.6 349.8 264.5 348.6Q266.4 347.5 268.9 347.5L268.9 347.5ZM291.7 356.2Q291.7 357.2 291.6 358.0L291.6 358.0L281.1 358.0Q281.3 360.1 282.3 361Q283.2 361.9 284.9 361.9L284.9 361.9Q286.0 361.9 286.9 361.5Q287.9 361.1 289.0 360.4L289.0 360.4L291.1 363.2Q288.1 365.5 284.4 365.5L284.4 365.5Q280.3 365.5 278.1 363.1Q275.9 360.7 275.9 356.6L275.9 356.6Q275.9 354.0 276.8 351.9Q277.8 349.9 279.6 348.7Q281.3 347.5 283.8 347.5L283.8 347.5Q287.5 347.5 289.6 349.8Q291.7 352.1 291.7 356.2L291.7 356.2ZM286.7 355.0L286.7 354.7Q286.7 350.8 284.0 350.8L284.0 350.8Q282.7 350.8 281.9 351.8Q281.2 352.7 281.1 355.0L281.1 355.0L286.7 355.0Z M302.1 348.0L307.2 348.0L307.2 365L302.1 365L302.1 348.0ZM304.6 339.0Q305.9 339.0 306.8 339.9Q307.6 340.7 307.6 341.9L307.6 341.9Q307.6 343.2 306.8 344.0Q305.9 344.8 304.6 344.8L304.6 344.8Q303.3 344.8 302.5 344.0Q301.6 343.2 301.6 341.9L301.6 341.9Q301.6 340.7 302.5 339.9Q303.3 339.0 304.6 339.0L304.6 339.0ZM317.1 347.5Q318.9 347.5 320.5 348.0Q322.1 348.6 323.4 349.5L323.4 349.5L321.5 352.4Q319.4 351.1 317.3 351.1L317.3 351.1Q316.3 351.1 315.8 351.4Q315.3 351.8 315.3 352.4L315.3 352.4Q315.3 352.8 315.5 353.1Q315.7 353.4 316.5 353.8Q317.2 354.1 318.8 354.5L318.8 354.5Q321.4 355.3 322.7 356.5Q324.0 357.8 324.0 359.9L324.0 359.9Q324.0 361.7 323.0 362.9Q322.0 364.2 320.3 364.9Q318.6 365.5 316.4 365.5L316.4 365.5Q314.3 365.5 312.5 364.9Q310.6 364.2 309.3 363.0L309.3 363.0L311.8 360.3Q314.0 361.9 316.3 361.9L316.3 361.9Q317.5 361.9 318.1 361.5Q318.8 361.1 318.8 360.3L318.8 360.3Q318.8 359.7 318.5 359.4Q318.3 359.0 317.5 358.7Q316.8 358.4 315.2 358.0L315.2 358.0Q312.7 357.2 311.4 355.9Q310.2 354.6 310.2 352.6L310.2 352.6Q310.2 351.2 311.0 350.0Q311.9 348.8 313.5 348.2Q315.0 347.5 317.1 347.5L317.1 347.5Z M341.5 347.5Q343.3 347.5 344.7 348.0Q346.1 348.5 347.4 349.5L347.4 349.5L345.2 352.6Q343.6 351.3 342.0 351.3L342.0 351.3Q340.3 351.3 339.4 352.6Q338.5 353.8 338.5 356.6L338.5 356.6Q338.5 359.3 339.4 360.4Q340.3 361.5 341.9 361.5L341.9 361.5Q342.8 361.5 343.5 361.3Q344.2 361 345.2 360.4L345.2 360.4L347.4 363.5Q344.8 365.5 341.6 365.5L341.6 365.5Q339.0 365.5 337.2 364.4Q335.3 363.3 334.2 361.3Q333.2 359.3 333.2 356.6L333.2 356.6Q333.2 354.0 334.2 351.9Q335.3 349.8 337.2 348.6Q339.0 347.5 341.5 347.5L341.5 347.5ZM359.5 347.5Q361.7 347.5 362.9 348.8Q364.2 350.2 364.2 352.6L364.2 352.6L364.2 365L359.1 365L359.1 353.4Q359.1 352.2 358.7 351.7Q358.3 351.2 357.5 351.2L357.5 351.2Q356.0 351.2 354.6 353.4L354.6 353.4L354.6 365L349.5 365L349.5 341.3L354.6 340.7L354.6 349.8Q355.6 348.6 356.8 348.1Q358.0 347.5 359.5 347.5L359.5 347.5ZM381.5 360.1Q381.5 361.0 381.7 361.5Q382.0 361.9 382.6 362.2L382.6 362.2L381.6 365.4Q380.0 365.3 379.0 364.8Q378.0 364.2 377.5 363.0L377.5 363.0Q375.8 365.5 372.4 365.5L372.4 365.5Q369.8 365.5 368.3 364.1Q366.8 362.6 366.8 360.2L366.8 360.2Q366.8 357.4 368.9 356.0Q370.9 354.5 374.8 354.5L374.8 354.5L376.5 354.5L376.5 353.8Q376.5 352.3 375.9 351.7Q375.2 351.1 373.6 351.1L373.6 351.1Q372.8 351.1 371.6 351.4Q370.4 351.6 369.2 352.0L369.2 352.0L368.0 348.7Q369.6 348.1 371.3 347.8Q373.0 347.5 374.4 347.5L374.4 347.5Q378.1 347.5 379.8 349.0Q381.5 350.5 381.5 353.5L381.5 353.5L381.5 360.1ZM373.8 361.9Q375.6 361.9 376.5 360.3L376.5 360.3L376.5 357.3L375.3 357.3Q373.5 357.3 372.7 357.9Q371.8 358.5 371.8 359.8L371.8 359.8Q371.8 360.8 372.4 361.4Q372.9 361.9 373.8 361.9L373.8 361.9ZM394.7 347.5Q395.6 347.5 396.4 347.8L396.4 347.8L395.6 352.6Q394.7 352.4 394.1 352.4L394.1 352.4Q392.6 352.4 391.8 353.5Q391.0 354.5 390.6 356.6L390.6 356.6L390.6 365L385.5 365L385.5 348.0L389.9 348.0L390.3 351.3Q390.9 349.5 392.1 348.5Q393.2 347.5 394.7 347.5L394.7 347.5ZM412.8 345.3L414.0 349Q412.3 349.7 409.1 349.7L409.1 349.7Q410.8 350.4 411.5 351.4Q412.3 352.4 412.3 354.1L412.3 354.1Q412.3 355.7 411.4 357.0Q410.6 358.3 408.9 359.0Q407.3 359.8 405.2 359.8L405.2 359.8Q404.1 359.8 403.2 359.6L403.2 359.6Q402.9 359.7 402.8 360.0Q402.7 360.2 402.7 360.5L402.7 360.5Q402.7 361 403.0 361.3Q403.4 361.5 404.5 361.5L404.5 361.5L407.1 361.5Q409.0 361.5 410.5 362.2Q412.0 362.8 412.8 363.9Q413.6 365.1 413.6 366.5L413.6 366.5Q413.6 369.1 411.3 370.6Q409.0 372.1 404.7 372.1L404.7 372.1Q401.6 372.1 399.8 371.4Q398.0 370.8 397.3 369.6Q396.5 368.4 396.5 366.6L396.5 366.6L401.1 366.6Q401.1 367.4 401.4 367.8Q401.7 368.3 402.5 368.5Q403.3 368.7 404.8 368.7L404.8 368.7Q406.9 368.7 407.7 368.2Q408.5 367.8 408.5 366.8L408.5 366.8Q408.5 366.1 407.9 365.6Q407.3 365.2 406.0 365.2L406.0 365.2L403.6 365.2Q401.0 365.2 399.7 364.2Q398.4 363.3 398.4 361.8L398.4 361.8Q398.4 360.9 398.9 360.0Q399.5 359.1 400.4 358.5L400.4 358.5Q398.8 357.7 398.1 356.5Q397.3 355.3 397.3 353.7L397.3 353.7Q397.3 350.8 399.4 349.1Q401.4 347.5 404.8 347.5L404.8 347.5Q407.4 347.5 409.1 347.0Q410.9 346.4 412.8 345.3L412.8 345.3ZM404.9 350.8Q403.7 350.8 403.1 351.5Q402.4 352.3 402.4 353.6L402.4 353.6Q402.4 355.0 403.1 355.7Q403.7 356.5 404.9 356.5L404.9 356.5Q406.2 356.5 406.8 355.8Q407.5 355.0 407.5 353.5L407.5 353.5Q407.5 350.8 404.9 350.8L404.9 350.8ZM430.8 356.2Q430.8 357.2 430.7 358.0L430.7 358.0L420.2 358.0Q420.4 360.1 421.4 361Q422.3 361.9 424.0 361.9L424.0 361.9Q425.1 361.9 426.0 361.5Q427.0 361.1 428.1 360.4L428.1 360.4L430.2 363.2Q427.2 365.5 423.6 365.5L423.6 365.5Q419.4 365.5 417.2 363.1Q415.0 360.7 415.0 356.6L415.0 356.6Q415.0 354.0 415.9 351.9Q416.9 349.9 418.7 348.7Q420.4 347.5 422.9 347.5L422.9 347.5Q426.6 347.5 428.7 349.8Q430.8 352.1 430.8 356.2L430.8 356.2ZM425.8 355.0L425.8 354.7Q425.8 350.8 423.1 350.8L423.1 350.8Q421.8 350.8 421.0 351.8Q420.3 352.7 420.2 355.0L420.2 355.0L425.8 355.0ZM443.8 340.7L448.9 341.3L448.9 365L444.4 365L444.1 363.0Q442.3 365.5 439.3 365.5L439.3 365.5Q436.1 365.5 434.5 363.1Q432.8 360.7 432.8 356.5L432.8 356.5Q432.8 353.9 433.7 351.8Q434.6 349.8 436.1 348.6Q437.7 347.5 439.8 347.5L439.8 347.5Q442.2 347.5 443.8 349.1L443.8 349.1L443.8 340.7ZM440.9 361.8Q442.6 361.8 443.8 359.9L443.8 359.9L443.8 352.6Q443.2 351.8 442.6 351.5Q442.0 351.1 441.2 351.1L441.2 351.1Q439.7 351.1 438.9 352.5Q438.1 353.8 438.1 356.5L438.1 356.5Q438.1 359.5 438.8 360.6Q439.5 361.8 440.9 361.8L440.9 361.8Z "/></g><mask id="satori_om-id-2-0-2"><rect x="60" y="380" width="560" height="40" fill="#fff"/></mask><g  ><path fill="#000" d="M67.6 388.9Q70.0 388.9 71.6 389.8Q73.3 390.6 74.2 392.0Q75.1 393.4 75.1 395.1L75.1 395.1Q75.1 396.8 74.4 398.4Q73.7 400.0 71.9 402.0Q70.1 404.0 66.7 407.1L66.7 407.1L75.5 407.1L75.0 411L60.9 411L60.9 407.4Q64.9 403.5 66.7 401.6Q68.4 399.6 69.2 398.3Q69.9 397.0 69.9 395.6L69.9 395.6Q69.9 394.3 69.1 393.5Q68.4 392.8 67.1 392.8L67.1 392.8Q66.0 392.8 65.1 393.3Q64.2 393.8 63.2 395.0L63.2 395.0L60.2 392.7Q61.5 390.9 63.4 389.9Q65.3 388.9 67.6 388.9L67.6 388.9ZM80.4 405.8Q81.6 405.8 82.4 406.6Q83.3 407.4 83.3 408.6L83.3 408.6Q83.3 409.8 82.4 410.7Q81.6 411.5 80.4 411.5L80.4 411.5Q79.2 411.5 78.3 410.7Q77.5 409.8 77.5 408.6L77.5 408.6Q77.5 407.4 78.3 406.6Q79.2 405.8 80.4 405.8L80.4 405.8Z M101.1 388.8Q105.4 388.8 107.9 390.6Q110.3 392.5 110.3 396.1L110.3 396.1Q110.3 399.8 107.9 401.7Q105.5 403.6 101.5 403.6L101.5 403.6L99.1 403.6L99.1 411L93.9 411L93.9 388.8L101.1 388.8ZM101.1 399.8Q102.9 399.8 103.9 399.0Q104.9 398.1 104.9 396.1L104.9 396.1Q104.9 392.6 101.0 392.6L101.0 392.6L99.1 392.6L99.1 399.8L101.1 399.8ZM122.2 393.5Q123.1 393.5 123.9 393.8L123.9 393.8L123.1 398.6Q122.1 398.4 121.6 398.4L121.6 398.4Q120.1 398.4 119.3 399.5Q118.5 400.5 118.0 402.6L118.0 402.6L118.0 411L113.0 411L113.0 394.0L117.4 394.0L117.8 397.3Q118.4 395.5 119.6 394.5Q120.7 393.5 122.2 393.5L122.2 393.5ZM140.6 402.2Q140.6 403.2 140.5 404.0L140.5 404.0L130.0 404.0Q130.3 406.1 131.2 407Q132.2 407.9 133.9 407.9L133.9 407.9Q134.9 407.9 135.9 407.5Q136.8 407.1 138.0 406.4L138.0 406.4L140.0 409.2Q137.1 411.5 133.4 411.5L133.4 411.5Q129.3 411.5 127.1 409.1Q124.9 406.7 124.9 402.6L124.9 402.6Q124.9 400.0 125.8 397.9Q126.7 395.9 128.5 394.7Q130.3 393.5 132.8 393.5L132.8 393.5Q136.5 393.5 138.6 395.8Q140.6 398.1 140.6 402.2L140.6 402.2ZM135.7 401.0L135.7 400.7Q135.6 396.8 132.9 396.8L132.9 396.8Q131.6 396.8 130.9 397.8Q130.2 398.7 130.0 401.0L130.0 401.0L135.7 401.0ZM149.5 393.5Q151.3 393.5 152.9 394.0Q154.5 394.6 155.7 395.5L155.7 395.5L153.9 398.4Q151.8 397.1 149.7 397.1L149.7 397.1Q148.7 397.1 148.1 397.4Q147.6 397.8 147.6 398.4L147.6 398.4Q147.6 398.8 147.9 399.1Q148.1 399.4 148.8 399.8Q149.6 400.1 151.1 400.5L151.1 400.5Q153.8 401.3 155.1 402.5Q156.4 403.8 156.4 405.9L156.4 405.9Q156.4 407.7 155.4 408.9Q154.4 410.2 152.6 410.9Q150.9 411.5 148.8 411.5L148.8 411.5Q146.7 411.5 144.8 410.9Q143.0 410.2 141.7 409.0L141.7 409.0L144.2 406.3Q146.3 407.9 148.7 407.9L148.7 407.9Q149.8 407.9 150.5 407.5Q151.1 407.1 151.1 406.3L151.1 406.3Q151.1 405.7 150.9 405.4Q150.6 405.0 149.9 404.7Q149.2 404.4 147.6 404.0L147.6 404.0Q145.0 403.2 143.8 401.9Q142.5 400.6 142.5 398.6L142.5 398.6Q142.5 397.2 143.4 396.0Q144.2 394.8 145.8 394.2Q147.4 393.5 149.5 393.5L149.5 393.5ZM164.9 393.5Q166.8 393.5 168.4 394.0Q170.0 394.6 171.2 395.5L171.2 395.5L169.3 398.4Q167.2 397.1 165.1 397.1L165.1 397.1Q164.1 397.1 163.6 397.4Q163.1 397.8 163.1 398.4L163.1 398.4Q163.1 398.8 163.3 399.1Q163.6 399.4 164.3 399.8Q165.0 400.1 166.6 400.5L166.6 400.5Q169.2 401.3 170.5 402.5Q171.8 403.8 171.8 405.9L171.8 405.9Q171.8 407.7 170.8 408.9Q169.8 410.2 168.1 410.9Q166.4 411.5 164.3 411.5L164.3 411.5Q162.1 411.5 160.3 410.9Q158.4 410.2 157.2 409.0L157.2 409.0L159.6 406.3Q161.8 407.9 164.1 407.9L164.1 407.9Q165.3 407.9 165.9 407.5Q166.6 407.1 166.6 406.3L166.6 406.3Q166.6 405.7 166.3 405.4Q166.1 405.0 165.3 404.7Q164.6 404.4 163.0 404.0L163.0 404.0Q160.5 403.2 159.2 401.9Q158.0 400.6 158.0 398.6L158.0 398.6Q158.0 397.2 158.8 396.0Q159.7 394.8 161.3 394.2Q162.8 393.5 164.9 393.5L164.9 393.5Z M195.5 406.1Q195.5 407.0 195.8 407.5Q196.0 407.9 196.6 408.2L196.6 408.2L195.6 411.4Q194.0 411.3 193.0 410.8Q192.0 410.2 191.5 409.0L191.5 409.0Q189.8 411.5 186.4 411.5L186.4 411.5Q183.8 411.5 182.3 410.1Q180.8 408.6 180.8 406.2L180.8 406.2Q180.8 403.4 182.9 402.0Q184.9 400.5 188.8 400.5L188.8 400.5L190.5 400.5L190.5 399.8Q190.5 398.3 189.9 397.7Q189.2 397.1 187.6 397.1L187.6 397.1Q186.8 397.1 185.6 397.4Q184.4 397.6 183.2 398.0L183.2 398.0L182.0 394.7Q183.6 394.1 185.3 393.8Q187.0 393.5 188.4 393.5L188.4 393.5Q192.1 393.5 193.8 395.0Q195.5 396.5 195.5 399.5L195.5 399.5L195.5 406.1ZM187.8 407.9Q189.6 407.9 190.5 406.3L190.5 406.3L190.5 403.3L189.3 403.3Q187.6 403.3 186.7 403.9Q185.9 404.5 185.9 405.8L185.9 405.8Q185.9 406.8 186.4 407.4Q186.9 407.9 187.8 407.9L187.8 407.9ZM209.5 393.5Q211.7 393.5 212.9 394.8Q214.2 396.2 214.2 398.6L214.2 398.6L214.2 411L209.1 411L209.1 399.4Q209.1 398.2 208.7 397.7Q208.3 397.2 207.5 397.2L207.5 397.2Q206.0 397.2 204.6 399.4L204.6 399.4L204.6 411L199.5 411L199.5 394.0L203.9 394.0L204.3 396.0Q205.4 394.7 206.6 394.1Q207.9 393.5 209.5 393.5L209.5 393.5ZM228.2 386.7L233.2 387.3L233.2 411L228.7 411L228.5 409.0Q226.7 411.5 223.6 411.5L223.6 411.5Q220.5 411.5 218.8 409.1Q217.2 406.7 217.2 402.5L217.2 402.5Q217.2 399.9 218.0 397.8Q218.9 395.8 220.5 394.6Q222.1 393.5 224.1 393.5L224.1 393.5Q226.6 393.5 228.2 395.1L228.2 395.1L228.2 386.7ZM225.2 407.8Q227.0 407.8 228.2 405.9L228.2 405.9L228.2 398.6Q227.6 397.8 226.9 397.5Q226.3 397.1 225.5 397.1L225.5 397.1Q224.1 397.1 223.3 398.5Q222.4 399.8 222.4 402.5L222.4 402.5Q222.4 405.5 223.2 406.6Q223.9 407.8 225.2 407.8L225.2 407.8Z M254.7 393.5Q256.9 393.5 258.2 394.8Q259.4 396.2 259.4 398.6L259.4 398.6L259.4 411L254.4 411L254.4 399.4Q254.4 398.2 254.0 397.7Q253.5 397.2 252.8 397.2L252.8 397.2Q251.2 397.2 249.8 399.4L249.8 399.4L249.8 411L244.8 411L244.8 387.3L249.8 386.7L249.8 395.8Q250.9 394.6 252.1 394.1Q253.2 393.5 254.7 393.5L254.7 393.5ZM270.6 393.5Q274.5 393.5 276.7 395.8Q278.9 398.2 278.9 402.5L278.9 402.5Q278.9 405.2 277.9 407.3Q276.9 409.3 275.0 410.4Q273.2 411.5 270.6 411.5L270.6 411.5Q266.7 411.5 264.5 409.2Q262.3 406.8 262.3 402.5L262.3 402.5Q262.3 399.8 263.3 397.7Q264.3 395.7 266.2 394.6Q268.0 393.5 270.6 393.5L270.6 393.5ZM270.6 397.2Q269.1 397.2 268.3 398.5Q267.5 399.8 267.5 402.5L267.5 402.5Q267.5 405.3 268.3 406.6Q269.0 407.8 270.6 407.8L270.6 407.8Q272.1 407.8 272.9 406.5Q273.7 405.2 273.7 402.5L273.7 402.5Q273.7 399.7 272.9 398.5Q272.2 397.2 270.6 397.2L270.6 397.2ZM286.4 411.5Q284.2 411.5 283.0 410.3Q281.8 409.0 281.8 406.7L281.8 406.7L281.8 387.3L286.8 386.7L286.8 406.5Q286.8 407.5 287.7 407.5L287.7 407.5Q288.1 407.5 288.5 407.4L288.5 407.4L289.5 411.0Q288.1 411.5 286.4 411.5L286.4 411.5ZM301.6 386.7L306.7 387.3L306.7 411L302.2 411L301.9 409.0Q300.1 411.5 297.1 411.5L297.1 411.5Q293.9 411.5 292.3 409.1Q290.6 406.7 290.6 402.5L290.6 402.5Q290.6 399.9 291.5 397.8Q292.4 395.8 293.9 394.6Q295.5 393.5 297.6 393.5L297.6 393.5Q300 393.5 301.6 395.1L301.6 395.1L301.6 386.7ZM298.7 407.8Q300.4 407.8 301.6 405.9L301.6 405.9L301.6 398.6Q301.0 397.8 300.4 397.5Q299.7 397.1 298.9 397.1L298.9 397.1Q297.5 397.1 296.7 398.5Q295.9 399.8 295.9 402.5L295.9 402.5Q295.9 405.5 296.6 406.6Q297.3 407.8 298.7 407.8L298.7 407.8Z M337.0 393.5Q339.0 393.5 340.2 394.8Q341.4 396.2 341.4 398.6L341.4 398.6L341.4 411L336.4 411L336.4 399.4Q336.4 397.2 334.9 397.2L334.9 397.2Q334.1 397.2 333.5 397.7Q332.9 398.3 332.4 399.4L332.4 399.4L332.4 411L327.3 411L327.3 399.4Q327.3 397.2 325.9 397.2L325.9 397.2Q325.1 397.2 324.5 397.7Q323.8 398.3 323.3 399.4L323.3 399.4L323.3 411L318.2 411L318.2 394.0L322.6 394.0L323.0 396.0Q324.0 394.7 325.2 394.1Q326.4 393.5 327.9 393.5L327.9 393.5Q329.3 393.5 330.4 394.2Q331.4 394.9 331.9 396.2L331.9 396.2Q332.9 394.8 334.2 394.1Q335.4 393.5 337.0 393.5L337.0 393.5ZM345.2 394.0L350.3 394.0L350.3 411L345.2 411L345.2 394.0ZM347.7 385.0Q349.1 385.0 349.9 385.9Q350.8 386.7 350.8 387.9L350.8 387.9Q350.8 389.2 349.9 390.0Q349.1 390.8 347.7 390.8L347.7 390.8Q346.4 390.8 345.6 390.0Q344.8 389.2 344.8 387.9L344.8 387.9Q344.8 386.7 345.6 385.9Q346.4 385.0 347.7 385.0L347.7 385.0ZM364.4 386.7L369.5 387.3L369.5 411L365.0 411L364.8 409.0Q363.0 411.5 359.9 411.5L359.9 411.5Q356.8 411.5 355.1 409.1Q353.5 406.7 353.5 402.5L353.5 402.5Q353.5 399.9 354.3 397.8Q355.2 395.8 356.8 394.6Q358.4 393.5 360.4 393.5L360.4 393.5Q362.8 393.5 364.4 395.1L364.4 395.1L364.4 386.7ZM361.5 407.8Q363.3 407.8 364.4 405.9L364.4 405.9L364.4 398.6Q363.8 397.8 363.2 397.5Q362.6 397.1 361.8 397.1L361.8 397.1Q360.4 397.1 359.6 398.5Q358.7 399.8 358.7 402.5L358.7 402.5Q358.7 405.5 359.4 406.6Q360.2 407.8 361.5 407.8L361.5 407.8ZM383.6 386.7L388.7 387.3L388.7 411L384.2 411L384.0 409.0Q382.2 411.5 379.1 411.5L379.1 411.5Q376.0 411.5 374.3 409.1Q372.7 406.7 372.7 402.5L372.7 402.5Q372.7 399.9 373.5 397.8Q374.4 395.8 376.0 394.6Q377.6 393.5 379.6 393.5L379.6 393.5Q382.0 393.5 383.6 395.1L383.6 395.1L383.6 386.7ZM380.7 407.8Q382.5 407.8 383.6 405.9L383.6 405.9L383.6 398.6Q383.0 397.8 382.4 397.5Q381.8 397.1 381.0 397.1L381.0 397.1Q379.6 397.1 378.8 398.5Q377.9 399.8 377.9 402.5L377.9 402.5Q377.9 405.5 378.6 406.6Q379.4 407.8 380.7 407.8L380.7 407.8ZM397.2 411.5Q395.0 411.5 393.7 410.3Q392.5 409.0 392.5 406.7L392.5 406.7L392.5 387.3L397.6 386.7L397.6 406.5Q397.6 407.5 398.4 407.5L398.4 407.5Q398.9 407.5 399.3 407.4L399.3 407.4L400.3 411.0Q398.9 411.5 397.2 411.5L397.2 411.5ZM417.0 402.2Q417.0 403.2 416.9 404.0L416.9 404.0L406.4 404.0Q406.6 406.1 407.6 407Q408.5 407.9 410.2 407.9L410.2 407.9Q411.3 407.9 412.2 407.5Q413.2 407.1 414.3 406.4L414.3 406.4L416.4 409.2Q413.4 411.5 409.8 411.5L409.8 411.5Q405.6 411.5 403.4 409.1Q401.2 406.7 401.2 402.6L401.2 402.6Q401.2 400.0 402.1 397.9Q403.1 395.9 404.9 394.7Q406.7 393.5 409.2 393.5L409.2 393.5Q412.8 393.5 414.9 395.8Q417.0 398.1 417.0 402.2L417.0 402.2ZM412.0 401.0L412.0 400.7Q412.0 396.8 409.3 396.8L409.3 396.8Q408.0 396.8 407.2 397.8Q406.5 398.7 406.4 401.0L406.4 401.0L412.0 401.0Z M437.1 393.5Q440.1 393.5 441.7 395.8Q443.4 398.2 443.4 402.5L443.4 402.5Q443.4 405.1 442.5 407.2Q441.7 409.2 440.2 410.4Q438.7 411.5 436.6 411.5L436.6 411.5Q435.2 411.5 434.1 411.0Q433.0 410.4 432.2 409.4L432.2 409.4L431.9 411L427.4 411L427.4 387.3L432.5 386.7L432.5 395.7Q433.2 394.7 434.4 394.1Q435.6 393.5 437.1 393.5L437.1 393.5ZM435.1 407.9Q438.1 407.9 438.1 402.5L438.1 402.5Q438.1 399.5 437.4 398.3Q436.7 397.2 435.4 397.2L435.4 397.2Q433.7 397.2 432.5 399.2L432.5 399.2L432.5 406.2Q433.0 407 433.6 407.4Q434.3 407.9 435.1 407.9L435.1 407.9ZM460.9 394.0L460.9 411L456.5 411L456.3 408.9Q454.4 411.5 451.1 411.5L451.1 411.5Q448.8 411.5 447.6 410.1Q446.4 408.7 446.4 406.2L446.4 406.2L446.4 394.0L451.4 394.0L451.4 405.6Q451.4 406.8 451.8 407.3Q452.2 407.8 453.1 407.8L453.1 407.8Q454.7 407.8 455.8 405.8L455.8 405.8L455.8 394.0L460.9 394.0ZM473.8 407L475.5 410.2Q474.6 410.8 473.3 411.2Q472.1 411.5 470.9 411.5L470.9 411.5Q465.3 411.5 465.3 405.4L465.3 405.4L465.3 397.5L462.9 397.5L462.9 394.0L465.3 394.0L465.3 390.3L470.4 389.8L470.4 394.0L474.3 394.0L473.7 397.5L470.4 397.5L470.4 405.3Q470.4 406.5 470.8 407.0Q471.1 407.5 472.0 407.5L472.0 407.5Q472.8 407.5 473.8 407L473.8 407ZM486.1 407L487.8 410.2Q486.9 410.8 485.7 411.2Q484.4 411.5 483.2 411.5L483.2 411.5Q477.7 411.5 477.7 405.4L477.7 405.4L477.7 397.5L475.3 397.5L475.3 394.0L477.7 394.0L477.7 390.3L482.7 389.8L482.7 394.0L486.6 394.0L486.1 397.5L482.7 397.5L482.7 405.3Q482.7 406.5 483.1 407.0Q483.5 407.5 484.3 407.5L484.3 407.5Q485.2 407.5 486.1 407L486.1 407ZM496.9 393.5Q500.8 393.5 503.0 395.8Q505.2 398.2 505.2 402.5L505.2 402.5Q505.2 405.2 504.2 407.3Q503.2 409.3 501.3 410.4Q499.5 411.5 496.9 411.5L496.9 411.5Q493.0 411.5 490.8 409.2Q488.6 406.8 488.6 402.5L488.6 402.5Q488.6 399.8 489.6 397.7Q490.6 395.7 492.5 394.6Q494.3 393.5 496.9 393.5L496.9 393.5ZM496.9 397.2Q495.4 397.2 494.6 398.5Q493.8 399.8 493.8 402.5L493.8 402.5Q493.8 405.3 494.6 406.6Q495.3 407.8 496.9 407.8L496.9 407.8Q498.4 407.8 499.2 406.5Q500.0 405.2 500.0 402.5L500.0 402.5Q500.0 399.7 499.2 398.5Q498.5 397.2 496.9 397.2L496.9 397.2ZM518.2 393.5Q520.4 393.5 521.6 394.8Q522.9 396.2 522.9 398.6L522.9 398.6L522.9 411L517.8 411L517.8 399.4Q517.8 398.2 517.4 397.7Q517.0 397.2 516.2 397.2L516.2 397.2Q514.7 397.2 513.3 399.4L513.3 399.4L513.3 411L508.2 411L508.2 394.0L512.6 394.0L513.0 396.0Q514.1 394.7 515.3 394.1Q516.6 393.5 518.2 393.5L518.2 393.5Z "/></g><mask id="satori_om-id-2-0-3"><rect x="60" y="426" width="560" height="40" fill="#fff"/></mask><g  ><path fill="#000" d="M67.6 434.9Q69.9 434.9 71.5 435.7Q73.2 436.4 74 437.6Q74.8 438.9 74.8 440.4L74.8 440.4Q74.8 442.4 73.7 443.7Q72.6 445 70.6 445.6L70.6 445.6Q72.8 445.8 74.2 447.1Q75.6 448.5 75.6 450.9L75.6 450.9Q75.6 452.7 74.6 454.2Q73.6 455.8 71.8 456.6Q69.9 457.5 67.3 457.5L67.3 457.5Q62.6 457.5 59.9 454.3L59.9 454.3L62.6 451.6Q63.7 452.7 64.7 453.2Q65.8 453.7 67.0 453.7L67.0 453.7Q68.5 453.7 69.4 452.9Q70.4 452.0 70.4 450.6L70.4 450.6Q70.4 448.9 69.5 448.2Q68.6 447.5 66.8 447.5L66.8 447.5L65.1 447.5L65.6 444.0L66.8 444.0Q68.3 444.0 69.1 443.2Q70.0 442.5 70.0 441.2L70.0 441.2Q70.0 440.0 69.2 439.3Q68.4 438.7 67.1 438.7L67.1 438.7Q64.8 438.7 62.8 440.6L62.8 440.6L60.4 437.8Q63.4 434.9 67.6 434.9L67.6 434.9ZM80.5 451.8Q81.7 451.8 82.5 452.6Q83.4 453.4 83.4 454.6L83.4 454.6Q83.4 455.8 82.5 456.7Q81.7 457.5 80.5 457.5L80.5 457.5Q79.3 457.5 78.4 456.7Q77.6 455.8 77.6 454.6L77.6 454.6Q77.6 453.4 78.4 452.6Q79.3 451.8 80.5 451.8L80.5 451.8Z M101.1 434.3Q103.6 434.3 105.5 435.0Q107.3 435.7 108.8 437.1L108.8 437.1L106.4 440.0Q104.1 438.1 101.5 438.1L101.5 438.1Q100.1 438.1 99.3 438.7Q98.5 439.2 98.5 440.3L98.5 440.3Q98.5 441.0 98.9 441.5Q99.2 442.0 100.1 442.4Q101.0 442.8 102.8 443.4L102.8 443.4Q106.2 444.5 107.8 446.0Q109.4 447.6 109.4 450.5L109.4 450.5Q109.4 452.6 108.4 454.2Q107.3 455.8 105.3 456.7Q103.3 457.5 100.6 457.5L100.6 457.5Q97.9 457.5 95.8 456.7Q93.7 455.8 92.2 454.4L92.2 454.4L94.8 451.5Q96.1 452.6 97.5 453.1Q98.8 453.6 100.4 453.6L100.4 453.6Q102.1 453.6 103.0 452.9Q104.0 452.2 104.0 450.9L104.0 450.9Q104.0 450.1 103.6 449.5Q103.3 449.0 102.4 448.5Q101.5 448.1 99.9 447.6L99.9 447.6Q96.2 446.4 94.7 444.8Q93.1 443.2 93.1 440.7L93.1 440.7Q93.1 438.8 94.1 437.3Q95.2 435.8 97.0 435.1Q98.8 434.3 101.1 434.3L101.1 434.3ZM119.6 439.5Q121.3 439.5 122.7 440.0Q124.1 440.5 125.4 441.5L125.4 441.5L123.2 444.6Q121.6 443.3 120.0 443.3L120.0 443.3Q118.3 443.3 117.4 444.6Q116.5 445.8 116.5 448.6L116.5 448.6Q116.5 451.3 117.4 452.4Q118.3 453.5 119.9 453.5L119.9 453.5Q120.8 453.5 121.5 453.3Q122.2 453 123.2 452.4L123.2 452.4L125.4 455.5Q122.8 457.5 119.6 457.5L119.6 457.5Q117.1 457.5 115.2 456.4Q113.3 455.3 112.3 453.3Q111.2 451.3 111.2 448.6L111.2 448.6Q111.2 446.0 112.3 443.9Q113.3 441.8 115.2 440.6Q117.1 439.5 119.6 439.5L119.6 439.5ZM141.0 452.1Q141.0 453.0 141.3 453.5Q141.6 453.9 142.2 454.2L142.2 454.2L141.1 457.4Q139.6 457.3 138.6 456.8Q137.6 456.2 137.0 455.0L137.0 455.0Q135.4 457.5 131.9 457.5L131.9 457.5Q129.4 457.5 127.9 456.1Q126.4 454.6 126.4 452.2L126.4 452.2Q126.4 449.4 128.4 448.0Q130.5 446.5 134.3 446.5L134.3 446.5L136.1 446.5L136.1 445.8Q136.1 444.3 135.4 443.7Q134.8 443.1 133.2 443.1L133.2 443.1Q132.4 443.1 131.2 443.4Q130.0 443.6 128.7 444.0L128.7 444.0L127.6 440.7Q129.2 440.1 130.9 439.8Q132.5 439.5 134.0 439.5L134.0 439.5Q137.6 439.5 139.3 441.0Q141.0 442.5 141.0 445.5L141.0 445.5L141.0 452.1ZM133.4 453.9Q135.1 453.9 136.1 452.3L136.1 452.3L136.1 449.3L134.8 449.3Q133.1 449.3 132.2 449.9Q131.4 450.5 131.4 451.8L131.4 451.8Q131.4 452.8 131.9 453.4Q132.4 453.9 133.4 453.9L133.4 453.9ZM155.0 439.5Q157.2 439.5 158.5 440.8Q159.7 442.2 159.7 444.6L159.7 444.6L159.7 457L154.7 457L154.7 445.4Q154.7 444.2 154.3 443.7Q153.9 443.2 153.1 443.2L153.1 443.2Q151.5 443.2 150.1 445.4L150.1 445.4L150.1 457L145.1 457L145.1 440.0L149.5 440.0L149.8 442.0Q150.9 440.7 152.2 440.1Q153.4 439.5 155.0 439.5L155.0 439.5Z M185.0 455.6Q187.0 455.6 188.6 456.1Q190.1 456.6 191.5 457.6L191.5 457.6L188.4 461.7Q186.5 459.7 184.6 458.6Q182.7 457.4 179.8 457.4L179.8 457.4Q176.9 457.4 174.7 456.1Q172.5 454.7 171.3 452.1Q170.2 449.5 170.2 445.9L170.2 445.9Q170.2 442.3 171.4 439.7Q172.6 437.1 174.8 435.7Q177.1 434.3 180.2 434.3L180.2 434.3Q184.9 434.3 187.5 437.3Q190.2 440.4 190.2 445.9L190.2 445.9Q190.2 452.7 185.0 455.6L185.0 455.6ZM175.7 445.9Q175.7 450.0 176.8 451.8Q177.9 453.7 180.2 453.7L180.2 453.7Q182.5 453.7 183.6 451.9Q184.7 450.0 184.7 445.9L184.7 445.9Q184.7 441.8 183.6 439.9Q182.4 438.1 180.2 438.1L180.2 438.1Q177.9 438.1 176.8 440.0Q175.7 441.8 175.7 445.9L175.7 445.9ZM205.1 457L200.6 448.5L198.5 448.5L198.5 457L193.3 457L193.3 434.8L200.5 434.8Q205.1 434.8 207.4 436.5Q209.7 438.2 209.7 441.6L209.7 441.6Q209.7 443.7 208.6 445.1Q207.6 446.6 205.4 447.6L205.4 447.6L211.0 457L205.1 457ZM198.5 438.5L198.5 444.9L200.7 444.9Q202.5 444.9 203.4 444.1Q204.3 443.3 204.3 441.6L204.3 441.6Q204.3 440.0 203.3 439.2Q202.4 438.5 200.4 438.5L200.4 438.5L198.5 438.5Z M227.9 439.5Q229.6 439.5 231.0 440.0Q232.4 440.5 233.7 441.5L233.7 441.5L231.5 444.6Q229.9 443.3 228.3 443.3L228.3 443.3Q226.6 443.3 225.7 444.6Q224.9 445.8 224.9 448.6L224.9 448.6Q224.9 451.3 225.7 452.4Q226.6 453.5 228.2 453.5L228.2 453.5Q229.1 453.5 229.8 453.3Q230.5 453 231.5 452.4L231.5 452.4L233.7 455.5Q231.2 457.5 228.0 457.5L228.0 457.5Q225.4 457.5 223.5 456.4Q221.6 455.3 220.6 453.3Q219.6 451.3 219.6 448.6L219.6 448.6Q219.6 446.0 220.6 443.9Q221.6 441.8 223.5 440.6Q225.4 439.5 227.9 439.5L227.9 439.5ZM243.2 439.5Q247.1 439.5 249.3 441.8Q251.5 444.2 251.5 448.5L251.5 448.5Q251.5 451.2 250.5 453.3Q249.5 455.3 247.6 456.4Q245.8 457.5 243.2 457.5L243.2 457.5Q239.3 457.5 237.1 455.2Q234.9 452.8 234.9 448.5L234.9 448.5Q234.9 445.8 235.9 443.7Q236.9 441.7 238.8 440.6Q240.6 439.5 243.2 439.5L243.2 439.5ZM243.2 443.2Q241.7 443.2 240.9 444.5Q240.1 445.8 240.1 448.5L240.1 448.5Q240.1 451.3 240.9 452.6Q241.6 453.8 243.2 453.8L243.2 453.8Q244.7 453.8 245.5 452.5Q246.3 451.2 246.3 448.5L246.3 448.5Q246.3 445.7 245.5 444.5Q244.8 443.2 243.2 443.2L243.2 443.2ZM264.7 432.7L269.8 433.3L269.8 457L265.3 457L265.0 455.0Q263.2 457.5 260.2 457.5L260.2 457.5Q257.0 457.5 255.4 455.1Q253.7 452.7 253.7 448.5L253.7 448.5Q253.7 445.9 254.6 443.8Q255.5 441.8 257.0 440.6Q258.6 439.5 260.7 439.5L260.7 439.5Q263.1 439.5 264.7 441.1L264.7 441.1L264.7 432.7ZM261.8 453.8Q263.5 453.8 264.7 451.9L264.7 451.9L264.7 444.6Q264.1 443.8 263.5 443.5Q262.8 443.1 262.0 443.1L262.0 443.1Q260.6 443.1 259.8 444.5Q259.0 445.8 259.0 448.5L259.0 448.5Q259.0 451.5 259.7 452.6Q260.4 453.8 261.8 453.8L261.8 453.8ZM288.5 448.2Q288.5 449.2 288.4 450.0L288.4 450.0L277.9 450.0Q278.2 452.1 279.1 453Q280.1 453.9 281.8 453.9L281.8 453.9Q282.8 453.9 283.8 453.5Q284.7 453.1 285.9 452.4L285.9 452.4L287.9 455.2Q285.0 457.5 281.3 457.5L281.3 457.5Q277.2 457.5 275.0 455.1Q272.8 452.7 272.8 448.6L272.8 448.6Q272.8 446.0 273.7 443.9Q274.6 441.9 276.4 440.7Q278.2 439.5 280.7 439.5L280.7 439.5Q284.4 439.5 286.5 441.8Q288.5 444.1 288.5 448.2L288.5 448.2ZM283.6 447.0L283.6 446.7Q283.5 442.8 280.8 442.8L280.8 442.8Q279.5 442.8 278.8 443.8Q278.1 444.7 277.9 447.0L277.9 447.0L283.6 447.0Z M316.0 440.0L320.8 440.0L317.3 457L311.2 457L309.0 444.5L306.7 457L300.7 457L297.1 440.0L302.2 440.0L304 453.2L306.7 440.0L311.6 440.0L313.9 453.2L316.0 440.0ZM322.9 440.0L328.0 440.0L328.0 457L322.9 457L322.9 440.0ZM325.4 431.0Q326.8 431.0 327.6 431.9Q328.4 432.7 328.4 433.9L328.4 433.9Q328.4 435.2 327.6 436.0Q326.8 436.8 325.4 436.8L325.4 436.8Q324.1 436.8 323.3 436.0Q322.5 435.2 322.5 433.9L322.5 433.9Q322.5 432.7 323.3 431.9Q324.1 431.0 325.4 431.0L325.4 431.0ZM340.9 453L342.6 456.2Q341.7 456.8 340.5 457.2Q339.2 457.5 338.0 457.5L338.0 457.5Q332.4 457.5 332.4 451.4L332.4 451.4L332.4 443.5L330.0 443.5L330.0 440.0L332.4 440.0L332.4 436.3L337.5 435.8L337.5 440.0L341.4 440.0L340.9 443.5L337.5 443.5L337.5 451.3Q337.5 452.5 337.9 453.0Q338.3 453.5 339.1 453.5L339.1 453.5Q340.0 453.5 340.9 453L340.9 453ZM354.3 439.5Q356.5 439.5 357.7 440.8Q359.0 442.2 359.0 444.6L359.0 444.6L359.0 457L353.9 457L353.9 445.4Q353.9 444.2 353.5 443.7Q353.1 443.2 352.3 443.2L352.3 443.2Q350.8 443.2 349.4 445.4L349.4 445.4L349.4 457L344.3 457L344.3 433.3L349.4 432.7L349.4 441.8Q350.4 440.6 351.6 440.1Q352.8 439.5 354.3 439.5L354.3 439.5Z M380.0 439.5Q383.2 439.5 384.7 441.8Q386.3 444.2 386.3 448.5L386.3 448.5Q386.3 451.1 385.5 453.1Q384.7 455.2 383.1 456.4Q381.6 457.5 379.6 457.5L379.6 457.5Q377.0 457.5 375.4 455.8L375.4 455.8L375.4 463.6L370.4 464.1L370.4 440.0L374.8 440.0L375.1 441.9Q376.1 440.6 377.3 440.1Q378.6 439.5 380.0 439.5L380.0 439.5ZM378.0 453.8Q381.1 453.8 381.1 448.5L381.1 448.5Q381.1 445.5 380.4 444.3Q379.7 443.2 378.4 443.2L378.4 443.2Q377.5 443.2 376.8 443.7Q376 444.2 375.4 445.2L375.4 445.2L375.4 452.3Q376.4 453.8 378.0 453.8L378.0 453.8ZM399.4 439.5Q401.6 439.5 402.9 440.8Q404.1 442.2 404.1 444.6L404.1 444.6L404.1 457L399.1 457L399.1 445.4Q399.1 444.2 398.7 443.7Q398.2 443.2 397.5 443.2L397.5 443.2Q395.9 443.2 394.5 445.4L394.5 445.4L394.5 457L389.5 457L389.5 433.3L394.5 432.7L394.5 441.8Q395.6 440.6 396.8 440.1Q398.0 439.5 399.4 439.5L399.4 439.5ZM415.3 439.5Q419.2 439.5 421.4 441.8Q423.6 444.2 423.6 448.5L423.6 448.5Q423.6 451.2 422.6 453.3Q421.6 455.3 419.7 456.4Q417.9 457.5 415.3 457.5L415.3 457.5Q411.4 457.5 409.2 455.2Q407.0 452.8 407.0 448.5L407.0 448.5Q407.0 445.8 408.0 443.7Q409.0 441.7 410.9 440.6Q412.7 439.5 415.3 439.5L415.3 439.5ZM415.3 443.2Q413.8 443.2 413.0 444.5Q412.2 445.8 412.2 448.5L412.2 448.5Q412.2 451.3 413.0 452.6Q413.7 453.8 415.3 453.8L415.3 453.8Q416.8 453.8 417.6 452.5Q418.4 451.2 418.4 448.5L418.4 448.5Q418.4 445.7 417.6 444.5Q416.9 443.2 415.3 443.2L415.3 443.2ZM436.6 439.5Q438.8 439.5 440.0 440.8Q441.3 442.2 441.3 444.6L441.3 444.6L441.3 457L436.2 457L436.2 445.4Q436.2 444.2 435.8 443.7Q435.4 443.2 434.6 443.2L434.6 443.2Q433.1 443.2 431.7 445.4L431.7 445.4L431.7 457L426.6 457L426.6 440.0L431.0 440.0L431.4 442.0Q432.5 440.7 433.7 440.1Q435.0 439.5 436.6 439.5L436.6 439.5ZM459.9 448.2Q459.9 449.2 459.8 450.0L459.8 450.0L449.3 450.0Q449.5 452.1 450.5 453Q451.5 453.9 453.2 453.9L453.2 453.9Q454.2 453.9 455.1 453.5Q456.1 453.1 457.2 452.4L457.2 452.4L459.3 455.2Q456.3 457.5 452.7 457.5L452.7 457.5Q448.5 457.5 446.3 455.1Q444.1 452.7 444.1 448.6L444.1 448.6Q444.1 446.0 445.1 443.9Q446.0 441.9 447.8 440.7Q449.6 439.5 452.1 439.5L452.1 439.5Q455.7 439.5 457.8 441.8Q459.9 444.1 459.9 448.2L459.9 448.2ZM454.9 447.0L454.9 446.7Q454.9 442.8 452.2 442.8L452.2 442.8Q450.9 442.8 450.2 443.8Q449.4 444.7 449.3 447.0L449.3 447.0L454.9 447.0Z "/></g><mask id="satori_om-id-2-1"><rect x="660" y="255" width="240" height="240" fill="#fff"/></mask><clipPath id="satori_cp-id-2-1-0"><rect x="660" y="255" width="240" height="240"/></clipPath><mask id="satori_om-id-2-1-0"><rect x="660" y="255" width="240" height="240" fill="#fff"/></mask><image x="660" y="255" width="240" height="240" href="data:image/svg+xml;utf8,%3Csvg  xmlns=%22http://www.w3.org/2000/svg%22 width=%22Infinity%22 height=%22NaN%22%3E%3Crect x=%222%22 y=%222%22 width=%22236%22 height=%22236%22 fill=%22none%22 stroke=%22%23333%22 stroke-width=%223%22 stroke-dasharray=%2212 10%22%3E%3C/rect%3E%3C/svg%3E" preserveAspectRatio="none" clip-path="url(#satori_cp-id-2-1-0)" mask="url(#satori_om-id-2-1-0)"/><mask id="satori_om-id-2-1-0-0"><rect x="660" y="255" width="0" height="240" fill="#fff"/></mask><mask id="satori_om-id-2-1-1"><rect x="739" y="342" width="82" height="67" fill="#fff"/></mask><g  ><path fill="#333" d="M766.7 391.5Q770.4 391.5 773.0 392.3Q775.7 393.2 778.2 395.0L778.2 395.0L772.7 402.2Q769.5 398.6 766.1 396.7Q762.7 394.8 757.8 394.8L757.8 394.8Q752.6 394.8 748.7 392.4Q744.9 390.0 742.9 385.5Q740.8 381.0 740.8 374.6L740.8 374.6Q740.8 368.3 742.9 363.7Q745.0 359.1 749.0 356.7Q752.9 354.2 758.3 354.2L758.3 354.2Q766.6 354.2 771.2 359.6Q775.8 364.9 775.8 374.6L775.8 374.6Q775.8 386.4 766.7 391.5L766.7 391.5ZM750.5 374.6Q750.5 381.7 752.4 385.0Q754.4 388.2 758.3 388.2L758.3 388.2Q762.4 388.2 764.3 385.0Q766.2 381.8 766.2 374.6L766.2 374.6Q766.2 367.3 764.3 364.2Q762.3 361.0 758.3 361.0L758.3 361.0Q754.3 361.0 752.4 364.2Q750.5 367.4 750.5 374.6L750.5 374.6ZM806 394L798.0 379.2L794.5 379.2L794.5 394L785.3 394L785.3 355.2L798.0 355.2Q805.9 355.2 809.9 358.1Q814.0 361.0 814.0 367.0L814.0 367.0Q814.0 370.8 812.2 373.3Q810.4 375.7 806.5 377.5L806.5 377.5L816.4 394L806 394ZM794.5 361.6L794.5 372.8L798.3 372.8Q801.4 372.8 802.9 371.4Q804.5 370.0 804.5 367.0L804.5 367.0Q804.5 364.2 802.8 362.9Q801.2 361.6 797.8 361.6L797.8 361.6L794.5 361.6Z "/></g></svg>