<svg width="960" height="540" viewBox="0 0 960 540" xmlns="http://www.w3.org/2000/svg"><mask id="satori_om-id"><rect x="0" y="0" width="960" height="540" fill="#fff"/></mask><rect x="0" y="0" width="960" height="540" fill="#fff"/><mask id="satori_om-id-0"><rect x="0" y="0" width="960" height="440" fill="#fff"/></mask><mask id="satori_om-id-0-0"><rect x="0" y="55" width="960" height="80" fill="#fff"/></mask><mask id="satori_om-id-0-0-0"><rect x="104" y="55" width="753" height="80" fill="#fff"/></mask><g  ><path fill="#000" d="M158.5 66.6L171.0 66.6L161.7 122L144.6 122L137.8 79.7L130.5 122L113.8 122L104.7 66.6L117.8 66.6L123.4 112.1L131.0 66.6L144.8 66.6L152 112.1L158.5 66.6ZM201.6 78.2Q207.1 78.2 210.2 81.5Q213.4 84.9 213.4 91.0L213.4 91.0L213.4 122L200.7 122L200.7 93.1Q200.7 89.9 199.7 88.7Q198.6 87.4 196.7 87.4L196.7 87.4Q192.9 87.4 189.4 92.9L189.4 92.9L189.4 122L176.7 122L176.7 62.6L189.4 61.4L189.4 84.1Q192 81.1 195.0 79.6Q197.9 78.2 201.6 78.2L201.6 78.2ZM256.6 109.7Q256.6 112.1 257.3 113.2Q258 114.3 259.5 114.9L259.5 114.9L256.9 123.1Q253.0 122.8 250.5 121.4Q248 120 246.6 117.0L246.6 117.0Q242.5 123.4 233.8 123.4L233.8 123.4Q227.5 123.4 223.8 119.7Q220 116 220 110.1L220 110.1Q220 103.1 225.1 99.4Q230.2 95.8 239.9 95.8L239.9 95.8L244.2 95.8L244.2 93.9Q244.2 90.2 242.6 88.8Q241.0 87.4 237.0 87.4L237.0 87.4Q235.0 87.4 232 88.0Q229.0 88.6 225.9 89.6L225.9 89.6L223.0 81.3Q227.0 79.8 231.2 79.0Q235.4 78.2 239.0 78.2L239.0 78.2Q248.2 78.2 252.4 81.9Q256.6 85.7 256.6 93.2L256.6 93.2L256.6 109.7ZM237.5 114.3Q241.8 114.3 244.2 110.2L244.2 110.2L244.2 102.7L241.1 102.7Q236.8 102.7 234.7 104.2Q232.6 105.8 232.6 109.0L232.6 109.0Q232.6 111.5 233.9 112.9Q235.2 114.3 237.5 114.3L237.5 114.3ZM289.1 112L293.4 120Q291.0 121.6 288.0 122.5Q284.9 123.4 281.8 123.4L281.8 123.4Q267.9 123.3 267.9 108L267.9 108L267.9 88.3L261.9 88.3L261.9 79.5L267.9 79.5L267.9 70.3L280.6 68.9L280.6 79.5L290.3 79.5L289.0 88.3L280.6 88.3L280.6 107.8Q280.6 110.8 281.5 112.1Q282.5 113.4 284.6 113.4L284.6 113.4Q286.7 113.4 289.1 112L289.1 112ZM306.3 88.9L298 88.9L296.5 66.6L307.9 66.6L306.3 88.9ZM331.6 78.2Q336.2 78.2 340.2 79.5Q344.2 80.9 347.2 83.4L347.2 83.4L342.6 90.5Q337.4 87.2 332.1 87.2L332.1 87.2Q329.6 87.2 328.3 88.0Q327.0 88.9 327.0 90.4L327.0 90.4Q327.0 91.6 327.6 92.4Q328.2 93.1 330 93.9Q331.8 94.7 335.7 95.8L335.7 95.8Q342.3 97.8 345.6 100.8Q348.8 103.9 348.8 109.4L348.8 109.4Q348.8 113.7 346.3 116.8Q343.8 120 339.5 121.7Q335.2 123.4 329.9 123.4L329.9 123.4Q324.6 123.4 320.0 121.7Q315.4 120 312.2 117.0L312.2 117.0L318.3 110.2Q323.7 114.3 329.6 114.3L329.6 114.3Q332.5 114.3 334.1 113.3Q335.8 112.2 335.8 110.3L335.8 110.3Q335.8 108.8 335.1 107.9Q334.5 107.0 332.6 106.3Q330.8 105.5 326.8 104.4L326.8 104.4Q320.5 102.6 317.4 99.3Q314.2 96 314.2 91.1L314.2 91.1Q314.2 87.4 316.4 84.5Q318.5 81.6 322.4 79.9Q326.4 78.2 331.6 78.2L331.6 78.2Z M396.6 112L400.9 120Q398.6 121.6 395.5 122.5Q392.4 123.4 389.4 123.4L389.4 123.4Q375.4 123.3 375.4 108L375.4 108L375.4 88.3L369.4 88.3L369.4 79.5L375.4 79.5L375.4 70.3L388.1 68.9L388.1 79.5L397.8 79.5L396.5 88.3L388.1 88.3L388.1 107.8Q388.1 110.8 389.0 112.1Q390 113.4 392.1 113.4L392.1 113.4Q394.2 113.4 396.6 112L396.6 112ZM430.0 78.2Q435.5 78.2 438.6 81.5Q441.8 84.9 441.8 91.0L441.8 91.0L441.8 122L429.1 122L429.1 93.1Q429.1 89.9 428.1 88.7Q427.0 87.4 425.1 87.4L425.1 87.4Q421.3 87.4 417.8 92.9L417.8 92.9L417.8 122L405.1 122L405.1 62.6L417.8 61.4L417.8 84.1Q420.4 81.1 423.4 79.6Q426.3 78.2 430.0 78.2L430.0 78.2ZM488.3 99.9Q488.3 102.6 488.1 104.5L488.1 104.5L461.8 104.5Q462.4 109.8 464.8 112Q467.2 114.2 471.4 114.2L471.4 114.2Q474 114.2 476.4 113.2Q478.8 112.3 481.6 110.4L481.6 110.4L486.8 117.4Q479.4 123.4 470.2 123.4L470.2 123.4Q459.9 123.4 454.4 117.3Q448.9 111.2 448.9 101.0L448.9 101.0Q448.9 94.5 451.2 89.3Q453.5 84.2 458 81.2Q462.5 78.2 468.7 78.2L468.7 78.2Q477.9 78.2 483.1 83.9Q488.3 89.7 488.3 99.9L488.3 99.9ZM475.9 96.9L475.9 96.3Q475.8 86.6 469.0 86.6L469.0 86.6Q465.8 86.6 464.0 89.0Q462.2 91.4 461.8 96.9L461.8 96.9L475.9 96.9Z M563.9 66.6L576.4 66.6L567.1 122L550.1 122L543.2 79.7L535.9 122L519.3 122L510.2 66.6L523.3 66.6L528.8 112.1L536.5 66.6L550.2 66.6L557.4 112.1L563.9 66.6ZM619.2 99.9Q619.2 102.6 619.0 104.5L619.0 104.5L592.6 104.5Q593.3 109.8 595.7 112Q598.1 114.2 602.3 114.2L602.3 114.2Q604.9 114.2 607.3 113.2Q609.7 112.3 612.5 110.4L612.5 110.4L617.7 117.4Q610.2 123.4 601.1 123.4L601.1 123.4Q590.8 123.4 585.3 117.3Q579.8 111.2 579.8 101.0L579.8 101.0Q579.8 94.5 582.1 89.3Q584.4 84.2 588.9 81.2Q593.4 78.2 599.6 78.2L599.6 78.2Q608.8 78.2 614 83.9Q619.2 89.7 619.2 99.9L619.2 99.9ZM606.8 96.9L606.8 96.3Q606.6 86.6 599.9 86.6L599.9 86.6Q596.6 86.6 594.8 89.0Q593.0 91.4 592.6 96.9L592.6 96.9L606.8 96.9ZM660.1 109.7Q660.1 112.1 660.8 113.2Q661.4 114.3 663.0 114.9L663.0 114.9L660.3 123.1Q656.4 122.8 653.9 121.4Q651.4 120 650.1 117.0L650.1 117.0Q645.9 123.4 637.3 123.4L637.3 123.4Q631.0 123.4 627.2 119.7Q623.4 116 623.4 110.1L623.4 110.1Q623.4 103.1 628.6 99.4Q633.7 95.8 643.4 95.8L643.4 95.8L647.7 95.8L647.7 93.9Q647.7 90.2 646.1 88.8Q644.5 87.4 640.5 87.4L640.5 87.4Q638.4 87.4 635.4 88.0Q632.5 88.6 629.4 89.6L629.4 89.6L626.5 81.3Q630.5 79.8 634.7 79.0Q638.9 78.2 642.5 78.2L642.5 78.2Q651.6 78.2 655.8 81.9Q660.1 85.7 660.1 93.2L660.1 93.2L660.1 109.7ZM641.0 114.3Q645.3 114.3 647.7 110.2L647.7 110.2L647.7 102.7L644.6 102.7Q640.2 102.7 638.1 104.2Q636 105.8 636 109.0L636 109.0Q636 111.5 637.3 112.9Q638.6 114.3 641.0 114.3L641.0 114.3ZM692.6 112L696.8 120Q694.5 121.6 691.4 122.5Q688.3 123.4 685.3 123.4L685.3 123.4Q671.4 123.3 671.4 108L671.4 108L671.4 88.3L665.4 88.3L665.4 79.5L671.4 79.5L671.4 70.3L684 68.9L684 79.5L693.8 79.5L692.4 88.3L684 88.3L684 107.8Q684 110.8 685.0 112.1Q685.9 113.4 688 113.4L688 113.4Q690.2 113.4 692.6 112L692.6 112ZM725.9 78.2Q731.4 78.2 734.6 81.5Q737.7 84.9 737.7 91.0L737.7 91.0L737.7 122L725.0 122L725.0 93.1Q725.0 89.9 724 88.7Q723.0 87.4 721.0 87.4L721.0 87.4Q717.2 87.4 713.7 92.9L713.7 92.9L713.7 122L701.0 122L701.0 62.6L713.7 61.4L713.7 84.1Q716.3 81.1 719.3 79.6Q722.2 78.2 725.9 78.2L725.9 78.2ZM784.2 99.9Q784.2 102.6 784 104.5L784 104.5L757.7 104.5Q758.3 109.8 760.7 112Q763.1 114.2 767.4 114.2L767.4 114.2Q769.9 114.2 772.3 113.2Q774.7 112.3 777.5 110.4L777.5 110.4L782.7 117.4Q775.3 123.4 766.2 123.4L766.2 123.4Q755.8 123.4 750.3 117.3Q744.8 111.2 744.8 101.0L744.8 101.0Q744.8 94.5 747.1 89.3Q749.4 84.2 753.9 81.2Q758.4 78.2 764.6 78.2L764.6 78.2Q773.8 78.2 779.0 83.9Q784.2 89.7 784.2 99.9L784.2 99.9ZM771.8 96.9L771.8 96.3Q771.7 86.6 765.0 86.6L765.0 86.6Q761.7 86.6 759.9 89.0Q758.1 91.4 757.7 96.9L757.7 96.9L771.8 96.9ZM814.4 78.3Q816.7 78.3 818.6 78.9L818.6 78.9L816.6 91.1Q814.2 90.6 812.8 90.6L812.8 90.6Q809.0 90.6 807.1 93.2Q805.1 95.8 804 101.0L804 101.0L804 122L791.4 122L791.4 79.5L802.4 79.5L803.4 87.8Q804.9 83.4 807.8 80.8Q810.7 78.3 814.4 78.3L814.4 78.3ZM838.3 65.2Q843.9 65.2 847.9 67Q851.8 68.8 853.8 71.8Q855.8 74.9 855.8 78.6L855.8 78.6Q855.8 81.8 854.7 84.2Q853.5 86.5 851.9 87.9Q850.3 89.4 847.7 91.3L847.7 91.3Q844.5 93.4 843.0 95.2Q841.4 96.9 841.4 99.6L841.4 99.6L841.4 101.6L829.9 101.6L829.9 99.1Q829.9 95.4 831.1 92.8Q832.2 90.2 833.9 88.7Q835.5 87.2 838 85.4L838 85.4Q840.4 83.8 841.5 82.6Q842.6 81.4 842.6 79.7L842.6 79.7Q842.6 77.5 841.2 76.3Q839.7 75.1 837.0 75.1L837.0 75.1Q832 75.1 827.7 80L827.7 80L819.6 73.8Q826.9 65.2 838.3 65.2L838.3 65.2ZM835.8 108.9Q838.8 108.9 840.9 111Q843.0 113.1 843.0 116.1L843.0 116.1Q843.0 119.1 840.9 121.2Q838.8 123.4 835.8 123.4L835.8 123.4Q832.9 123.4 830.8 121.2Q828.6 119.1 828.6 116.1L828.6 116.1Q828.6 113.1 830.8 111Q832.9 108.9 835.8 108.9L835.8 108.9Z "/></g><mask id="satori_om-id-0-1"><rect x="0" y="143" width="960" height="110" fill="#fff"/></mask><mask id="satori_om-id-0-1-0"><rect x="90" y="143" width="780" height="110" fill="#fff"/></mask><mask id="satori_om-id-0-1-0-0"><rect x="90" y="166" width="71" height="64" fill="#fff"/></mask><g  ><path fill="#333" d="M90 197.9L90 197.9Q90 196.7 90.8 195.8L90.8 195.8Q91.7 195.0 92.8 195.0L92.8 195.0L99.7 195.0Q100.8 195.0 101.6 195.9Q102.3 196.7 102.3 197.9Q102.3 199.1 101.6 199.9Q100.8 200.8 99.7 200.8L99.7 200.8L92.8 200.8Q91.7 200.8 90.8 199.9Q90 199.1 90 197.9ZM99.5 221L99.5 221Q99.5 219.8 100.3 219.0L100.3 219.0L105.2 214.2Q106.0 213.4 107.2 213.4L107.2 213.4Q108.4 213.4 109.2 214.2Q110.0 214.9 110.0 216.1L110.0 216.1Q110.0 217.3 109.2 218.2L109.2 218.2L104.4 223.0Q102.4 224.6 100.3 223.0L100.3 223.0Q99.5 222.1 99.5 221ZM99.5 174.8L99.5 174.8Q99.5 173.7 100.3 172.8L100.3 172.8Q101.3 172 102.4 172L102.4 172Q103.5 172 104.4 172.8L104.4 172.8L109.2 177.7Q110.0 178.5 110.0 179.7L110.0 179.7Q110.0 180.9 109.2 181.7Q108.4 182.5 107.2 182.5L107.2 182.5Q106.0 182.5 105.2 181.7L105.2 181.7L100.3 176.9Q99.5 176.1 99.5 174.8ZM108.0 197.9L108.0 197.9Q108.0 193.3 110.4 189.2Q112.7 185.2 116.7 182.9Q120.8 180.5 125.4 180.5L125.4 180.5Q128.9 180.5 132.1 181.9Q135.3 183.3 137.7 185.6Q140 188.0 141.4 191.2Q142.8 194.4 142.8 197.9L142.8 197.9Q142.8 202.6 140.4 206.6Q138.1 210.6 134.1 212.9Q130.1 215.3 125.4 215.3Q120.7 215.3 116.7 212.9Q112.7 210.6 110.4 206.6Q108.0 202.6 108.0 197.9ZM113.7 197.9L113.7 197.9Q113.7 202.8 117.1 206.2Q120.5 209.7 125.4 209.7Q130.3 209.7 133.7 206.2Q137.2 202.8 137.2 197.9L137.2 197.9Q137.2 193.1 133.7 189.7Q130.3 186.3 125.4 186.3L125.4 186.3Q120.6 186.3 117.1 189.7Q113.7 193.1 113.7 197.9ZM122.6 230.4L122.6 223.8Q122.6 222.6 123.4 221.8Q124.2 221 125.4 221L125.4 221Q126.6 221 127.4 221.8Q128.3 222.6 128.3 223.8L128.3 223.8L128.3 230.4Q128.3 231.7 127.4 232.5Q126.6 233.3 125.4 233.3Q124.2 233.3 123.4 232.5Q122.6 231.7 122.6 230.4L122.6 230.4ZM122.6 172.2L122.6 172.2L122.6 165.3Q122.6 164.2 123.4 163.3Q124.3 162.5 125.4 162.5Q126.6 162.5 127.4 163.3Q128.3 164.2 128.3 165.3L128.3 165.3L128.3 172.2Q128.3 173.3 127.4 174.1Q126.6 174.8 125.4 174.8Q124.2 174.8 123.4 174.1Q122.6 173.3 122.6 172.2ZM141.0 216.1L141.0 216.1Q141.0 214.9 141.7 214.2L141.7 214.2Q142.5 213.4 143.6 213.4L143.6 213.4Q144.8 213.4 145.6 214.2L145.6 214.2L150.5 219.0Q151.3 219.8 151.3 221Q151.3 222.2 150.5 223.0L150.5 223.0Q148.5 224.5 146.5 223.0L146.5 223.0L141.7 218.2Q141.0 217.4 141.0 216.1ZM141.0 179.7L141.0 179.7Q141.0 178.4 141.7 177.7L141.7 177.7L146.5 172.8Q147.3 172 148.4 172L148.4 172Q149.6 172 150.5 172.8Q151.3 173.7 151.3 174.8L151.3 174.8Q151.3 176.1 150.5 176.9L150.5 176.9L145.6 181.7Q144.7 182.5 143.6 182.5L143.6 182.5Q142.5 182.5 141.7 181.7Q141.0 180.9 141.0 179.7ZM149.3 199.9Q148.5 199.1 148.5 197.9Q148.5 196.7 149.3 195.8L149.3 195.8Q150.1 195.0 151.2 195.0L151.2 195.0L158.0 195.0Q159.1 195.0 160.0 195.9Q160.8 196.8 160.8 197.9Q160.8 199.1 160.0 199.9Q159.1 200.8 158.0 200.8L158.0 200.8L151.2 200.8Q150.1 200.8 149.3 199.9Z "/></g><mask id="satori_om-id-0-1-0-1"><rect x="228" y="166" width="90" height="64" fill="#fff"/></mask><g  ><path fill="#333" d="M228 205.5L228 205.5Q228 210 230.2 213.8Q232.4 217.6 236.2 219.8Q240.0 222.0 244.4 222.0L244.4 222.0L280.5 222.0Q285 222.0 288.8 219.8Q292.6 217.6 294.8 213.8Q297.1 210 297.1 205.5L297.1 205.5Q297.1 202.2 295.7 198.8L295.7 198.8Q299.5 194.2 299.5 187.8L299.5 187.8Q299.5 184.3 298.1 181.0Q296.7 177.8 294.4 175.4Q292.0 173.1 288.8 171.7Q285.6 170.3 282 170.3L282 170.3Q274.6 170.3 269.1 176.2L269.1 176.2Q265.2 174.0 260.1 174.0L260.1 174.0Q253.0 174.0 247.6 178.3Q242.2 182.7 240.7 189.5L240.7 189.5Q235.1 190.8 231.5 195.3Q228 199.7 228 205.5ZM233.7 205.5L233.7 205.5Q233.7 201.3 236.5 198.3Q239.3 195.3 243.5 194.8L243.5 194.8L245.2 194.7Q245.8 194.7 245.8 194.1L245.8 194.1L246 192.3Q246.7 186.8 250.7 183.2Q254.7 179.6 260.1 179.6L260.1 179.6Q265.6 179.6 269.6 183.2Q273.7 186.9 274.2 192.3L274.2 192.3L274.5 194.2Q274.6 194.8 275.2 194.8L275.2 194.8L280.5 194.8Q284.9 194.8 288.1 197.9Q291.3 201.1 291.3 205.5L291.3 205.5Q291.3 210.0 288.1 213.2Q285.0 216.4 280.5 216.4L280.5 216.4L244.4 216.4Q240.1 216.4 236.9 213.2Q233.7 210.0 233.7 205.5ZM256.0 164.6L256.0 164.6Q256.0 165.8 256.8 166.7L256.8 166.7L259.0 168.8Q260.3 169.8 261.2 169.7L261.2 169.7Q262.2 169.7 263 168.8Q263.8 167.9 263.8 166.7Q263.8 165.5 262.9 164.8L262.9 164.8L261.0 162.6Q260.1 161.8 258.9 161.8L258.9 161.8Q257.7 161.8 256.9 162.6Q256.0 163.4 256.0 164.6ZM273.8 179.3L273.8 179.3Q277.3 176 282 176L282 176Q286.9 176 290.4 179.4Q293.8 182.9 293.8 187.8L293.8 187.8Q293.8 190.9 292.2 193.9L292.2 193.9Q287.3 189.2 280.5 189.2L280.5 189.2L279.5 189.2Q278.2 183.7 273.8 179.3ZM279.3 154.9L279.3 161.8Q279.3 163.0 280.0 163.8Q280.8 164.6 282 164.6L282 164.6Q283.3 164.6 284.1 163.8Q284.8 163.0 284.8 161.8L284.8 161.8L284.8 154.9Q284.8 153.8 284.0 153.0Q283.3 152.2 282 152.2L282 152.2Q280.8 152.2 280.0 153.0Q279.3 153.8 279.3 154.9L279.3 154.9ZM297.7 169.4L297.7 169.4Q297.7 170.7 298.4 171.5L298.4 171.5Q299.5 172.3 300.5 172.3L300.5 172.3Q301.4 172.3 302.4 171.5L302.4 171.5L307.2 166.7Q308.0 165.8 308.0 164.6L308.0 164.6Q308.0 163.4 307.2 162.6Q306.4 161.8 305.3 161.8L305.3 161.8Q304.1 161.8 303.3 162.6L303.3 162.6L298.4 167.3Q297.7 168.3 297.7 169.4ZM301.1 206.8Q300.3 207.7 300.3 208.8Q300.3 210.0 301.2 210.9L301.2 210.9L303.3 213.0Q304.1 213.8 305.3 213.8Q306.4 213.8 307.2 213.0Q308.0 212.2 308.0 210.9L308.0 210.9Q308.0 209.8 307.2 209L307.2 209L305.1 206.8Q304.3 206.0 303.2 206.0L303.2 206.0Q302.0 206.0 301.1 206.8ZM306.0 185.8Q305.2 186.7 305.2 187.8Q305.2 189.0 306.1 189.8L306.1 189.8Q306.9 190.6 308.1 190.6L308.1 190.6L314.9 190.6Q316.1 190.6 316.8 189.8Q317.6 189 317.6 187.8Q317.6 186.6 316.8 185.8Q316.1 185.0 314.9 185.0L314.9 185.0L308.1 185.0Q306.9 185.0 306.0 185.8Z "/></g><mask id="satori_om-id-0-1-0-2"><rect x="385" y="166" width="75" height="64" fill="#fff"/></mask><g  ><path fill="#333" d="M385 207.8L385 207.8Q385 202.8 388.1 199.0Q391.2 195.1 396.0 194.0L396.0 194.0Q397.3 188.2 402.0 184.4Q406.6 180.7 412.7 180.7L412.7 180.7Q418.6 180.7 423.2 184.3Q427.9 188.0 429.3 193.7L429.3 193.7L430.2 193.7Q436.0 193.7 440.2 197.8Q444.3 201.9 444.3 207.8Q444.3 213.7 440.2 217.9Q436.0 222.0 430.2 222.0L430.2 222.0L399.2 222.0Q396.3 222.0 393.7 220.9Q391.1 219.8 389.2 217.9Q387.3 216.0 386.1 213.3Q385 210.7 385 207.8ZM389.8 207.8L389.8 207.8Q389.8 211.6 392.6 214.4Q395.3 217.1 399.2 217.1L399.2 217.1L430.2 217.1Q434.0 217.1 436.8 214.4Q439.5 211.6 439.5 207.8Q439.5 204 436.8 201.3Q434.0 198.6 430.2 198.6L430.2 198.6L425.5 198.6Q425.0 198.6 425.0 198.1L425.0 198.1L424.8 196.4Q424.3 191.7 420.9 188.6Q417.4 185.5 412.7 185.5Q408.0 185.5 404.5 188.6Q401 191.8 400.6 196.4L400.6 196.4L400.3 197.8Q400.3 198.3 399.8 198.3L399.8 198.3L398.3 198.6Q394.7 198.9 392.3 201.5Q389.8 204.2 389.8 207.8ZM419.3 178.8L419.3 178.8Q418.8 179.2 419.6 179.4L419.6 179.4Q421.8 180.4 423.2 181.3L423.2 181.3Q423.8 181.4 423.9 181.2L423.9 181.2Q427.0 178.3 431 178.3Q435.0 178.3 438.0 181.0Q440.9 183.7 441.3 187.7L441.3 187.7L441.6 189.8L446.3 189.8Q449.6 189.8 451.9 192.1Q454.3 194.5 454.3 197.7L454.3 197.7Q454.3 200.7 452.2 202.9Q450.1 205.1 447.1 205.5L447.1 205.5Q446.6 205.5 446.6 206L446.6 206L446.6 209.8Q446.6 210.3 447.1 210.3L447.1 210.3Q452.1 210 455.6 206.3Q459.1 202.7 459.1 197.7L459.1 197.7Q459.1 192.4 455.3 188.7Q451.6 184.9 446.3 184.9L446.3 184.9L445.8 184.9Q444.5 179.9 440.3 176.7Q436.2 173.5 431 173.5L431 173.5Q423.9 173.5 419.3 178.8Z "/></g><mask id="satori_om-id-0-1-0-3"><rect x="526" y="166" width="70" height="64" fill="#fff"/></mask><g  ><path fill="#333" d="M526 205.5L526 205.5Q526 199.8 529.6 195.3Q533.2 190.8 538.7 189.5L538.7 189.5Q540.3 182.7 545.7 178.3Q551.2 174.0 558.2 174.0L558.2 174.0Q565.1 174.0 570.5 178.2Q575.9 182.5 577.5 189.2L577.5 189.2L578.6 189.2Q583.0 189.2 586.8 191.4Q590.7 193.5 592.9 197.3Q595.1 201.1 595.1 205.5L595.1 205.5Q595.1 209.9 593.0 213.7Q590.9 217.4 587.2 219.7Q583.6 221.9 579.2 222.1L579.2 222.1Q578.6 222.1 578.6 221.5L578.6 221.5L578.6 217.1Q578.6 216.5 579.2 216.5L579.2 216.5Q583.5 216.3 586.5 213.1Q589.5 209.9 589.5 205.5Q589.5 201.2 586.3 198.0Q583 194.8 578.6 194.8L578.6 194.8L573.2 194.8Q572.6 194.8 572.6 194.2L572.6 194.2L572.3 192.3Q571.8 186.9 567.7 183.2Q563.6 179.6 558.2 179.6L558.2 179.6Q552.8 179.6 548.7 183.2Q544.7 186.9 544.2 192.3L544.2 192.3L543.9 194.1Q543.9 194.7 543.3 194.7L543.3 194.7L541.5 194.8Q537.3 195.3 534.5 198.3Q531.7 201.4 531.7 205.5L531.7 205.5Q531.7 209.9 534.7 213.1Q537.7 216.3 542.0 216.5L542.0 216.5Q542.5 216.5 542.5 217.1L542.5 217.1L542.5 221.5Q542.5 222.1 542.0 222.1L542.0 222.1Q535.3 221.8 530.6 217.0Q526 212.2 526 205.5ZM543.8 227.8L543.8 227.8Q543.8 227.6 544.0 227.2L544.0 227.2L549.4 207.9Q549.7 207.0 550.5 206.5Q551.3 206.0 552.0 206.0L552.0 206.0Q552.4 206.0 552.8 206.1L552.8 206.1Q554.0 206.3 554.6 207.3Q555.3 208.3 554.9 209.5L554.9 209.5L549.5 228.6Q548.8 230.7 546.7 230.7L546.7 230.7Q546.5 230.7 546.3 230.7L546.3 230.7Q546.1 230.6 546 230.6L546 230.6Q544.9 230.3 544.4 229.5Q543.8 228.7 543.8 227.8ZM552.6 237.2L552.6 237.2L560.7 207.9Q560.9 207.0 561.7 206.5Q562.5 206.0 563.3 206.0L563.3 206.0Q563.8 206.0 564.3 206.1L564.3 206.1Q565.3 206.4 565.9 207.4Q566.4 208.3 566.1 209.5L566.1 209.5L558 238.8Q557.8 239.6 557.0 240.2Q556.3 240.8 555.3 240.8L555.3 240.8Q554.9 240.8 554.5 240.7L554.5 240.7Q553.5 240.4 552.8 239.3L552.8 239.3Q552.2 238.5 552.6 237.2ZM566.3 227.9L566.3 227.9Q566.3 227.7 566.5 227.2L566.5 227.2L571.9 207.9Q572.2 207.0 572.9 206.5Q573.7 206.0 574.5 206.0L574.5 206.0Q574.9 206.0 575.3 206.1L575.3 206.1Q576.4 206.3 576.9 207.1Q577.4 207.8 577.4 208.7L577.4 208.7Q577.4 208.8 577.3 209.1Q577.3 209.4 577.3 209.5L577.3 209.5L571.8 228.6Q571.7 229.6 570.9 230.1Q570.2 230.7 569.2 230.7L569.2 230.7L568.4 230.6Q567.4 230.3 566.9 229.5Q566.3 228.7 566.3 227.9Z "/></g><mask id="satori_om-id-0-1-0-4"><rect x="663" y="166" width="70" height="64" fill="#fff"/></mask><g  ><path fill="#333" d="M663 205.5L663 205.5Q663 211.1 666.3 215.4Q669.6 219.8 674.9 221.4L674.9 221.4L672.7 227Q672.6 227.7 673.2 227.7L673.2 227.7L680.3 227.7L677 242.1L677.9 242.1L691 222.9Q691.2 222.7 691.0 222.5Q690.9 222.2 690.6 222.2L690.6 222.2L683.3 222.2L691.6 206.8Q691.9 206.0 691.1 206.0L691.1 206.0L681.3 206.0Q680.8 206.0 680.5 206.5L680.5 206.5L676.9 216.1Q673.4 215.2 671.0 212.2Q668.7 209.3 668.7 205.5L668.7 205.5Q668.7 201.4 671.5 198.3Q674.3 195.3 678.5 194.8L678.5 194.8L680.3 194.5Q680.9 194.5 680.9 193.9L680.9 193.9L681.2 192.3Q681.7 186.8 685.7 183.2Q689.8 179.5 695.3 179.5L695.3 179.5Q700.7 179.5 704.8 183.2Q708.8 186.8 709.4 192.3L709.4 192.3L709.7 194.2Q709.7 194.8 710.3 194.8L710.3 194.8L715.6 194.8Q720.1 194.8 723.3 197.9Q726.6 201.1 726.6 205.5L726.6 205.5Q726.6 209.8 723.6 212.9Q720.6 216 716.3 216.3L716.3 216.3Q715.6 216.3 715.6 216.9L715.6 216.9L715.6 221.5Q715.6 222.1 716.3 222.1L716.3 222.1Q722.9 221.8 727.5 217.0Q732.2 212.2 732.2 205.5L732.2 205.5Q732.2 201.0 730.0 197.2Q727.8 193.4 723.9 191.2Q720.1 189.0 715.6 189.0L715.6 189.0L714.6 189.0Q712.9 182.4 707.5 178.2Q702.1 173.9 695.3 173.9L695.3 173.9Q688.2 173.9 682.7 178.3Q677.3 182.7 675.7 189.5L675.7 189.5Q670.2 190.8 666.6 195.3Q663 199.8 663 205.5ZM690.2 237.9L690.2 237.9Q690.2 239.9 692.1 240.5L692.1 240.5Q692.2 240.5 692.5 240.5Q692.8 240.6 692.9 240.6L692.9 240.6Q693.8 240.6 694.6 240.1Q695.4 239.6 695.7 238.5L695.7 238.5L703.2 209.5Q703.5 208.3 702.9 207.3Q702.4 206.4 701.3 206.0L701.3 206.0Q700.4 205.9 700.4 205.9L700.4 205.9Q699.6 205.9 698.8 206.4Q698.1 206.9 697.8 207.9L697.8 207.9L690.3 237Q690.2 237.4 690.2 237.9ZM704 227.7L704 227.7Q704 228.3 704.3 228.9L704.3 228.9Q705.0 230.0 706.0 230.4L706.0 230.4Q706.6 230.6 707.0 230.6Q707.5 230.6 708.1 230.3L708.1 230.3Q709.1 229.9 709.5 228.4L709.5 228.4L714.3 209.5Q714.5 208.8 714.5 208.6L714.5 208.6Q714.5 207.8 713.9 207.1Q713.4 206.3 712.4 206.0L712.4 206.0Q711.6 205.9 711.5 205.9L711.5 205.9Q710.7 205.9 710.0 206.4Q709.3 206.9 709.0 207.9L709.0 207.9L704.1 226.9Q704.1 227.0 704.0 227.3Q704 227.6 704 227.7Z "/></g><mask id="satori_om-id-0-1-0-5"><rect x="800" y="166" width="70" height="64" fill="#fff"/></mask><g  ><path fill="#333" d="M800 205.7L800 205.7Q800 199.9 803.5 195.4Q807.1 190.9 812.7 189.5L812.7 189.5Q814.3 182.7 819.7 178.3Q825.2 174.0 832.2 174.0L832.2 174.0Q839.1 174.0 844.5 178.2Q849.9 182.5 851.5 189.2L851.5 189.2L852.6 189.2Q857.0 189.2 860.8 191.4Q864.7 193.6 866.9 197.4Q869.1 201.2 869.1 205.7L869.1 205.7Q869.1 212.3 864.5 217.1Q859.8 221.8 853.2 222.1L853.2 222.1Q852.6 222.1 852.6 221.5L852.6 221.5L852.6 217.1Q852.6 216.5 853.2 216.5L853.2 216.5Q857.5 216.3 860.5 213.1Q863.5 209.9 863.5 205.7L863.5 205.7Q863.5 201.2 860.3 198Q857.1 194.8 852.6 194.8L852.6 194.8L847.2 194.8Q846.6 194.8 846.6 194.2L846.6 194.2L846.3 192.3Q845.8 186.9 841.7 183.2Q837.6 179.6 832.2 179.6L832.2 179.6Q826.7 179.6 822.7 183.3Q818.6 186.9 818.1 192.4L818.1 192.4L817.9 194.1Q817.9 194.7 817.3 194.7L817.3 194.7L815.5 194.9Q811.3 195.3 808.5 198.4Q805.7 201.5 805.7 205.7L805.7 205.7Q805.7 209.9 808.7 213.1Q811.7 216.3 816.0 216.5L816.0 216.5Q816.5 216.5 816.5 217.1L816.5 217.1L816.5 221.5Q816.5 222.1 816.0 222.1L816.0 222.1Q809.3 221.8 804.6 217.1Q800 212.3 800 205.7ZM821.2 219.2L821.2 219.2Q821.2 218.1 822.0 217.3Q822.8 216.5 824.0 216.5Q825.1 216.5 825.9 217.3Q826.7 218.1 826.7 219.2L826.7 219.2Q826.7 220.4 825.9 221.2Q825.1 222.1 824.0 222.1Q822.8 222.1 822.0 221.2Q821.2 220.4 821.2 219.2ZM822.0 233.3Q821.2 232.5 821.2 231.3Q821.2 230.1 822.0 229.3L822.0 229.3Q822.8 228.6 824.0 228.6Q825.1 228.6 825.9 229.3Q826.7 230.1 826.7 231.3Q826.7 232.5 825.9 233.3Q825.1 234.1 824.0 234.1Q822.8 234.1 822.0 233.3ZM832.7 227.6Q831.8 226.8 831.8 225.7Q831.8 224.5 832.7 223.6L832.7 223.6Q833.5 222.8 834.6 222.8L834.6 222.8Q835.8 222.8 836.6 223.6Q837.5 224.5 837.5 225.7Q837.5 226.8 836.6 227.6Q835.8 228.5 834.6 228.5L834.6 228.5Q833.5 228.5 832.7 227.6ZM832.7 215.5Q831.8 214.8 831.8 213.6Q831.8 212.4 832.7 211.6L832.7 211.6Q833.6 210.8 834.6 210.8L834.6 210.8Q835.8 210.8 836.6 211.6Q837.5 212.4 837.5 213.6Q837.5 214.8 836.6 215.5Q835.8 216.3 834.6 216.3L834.6 216.3Q833.5 216.3 832.7 215.5ZM831.8 237.8L831.8 237.8Q831.8 236.7 832.7 235.8L832.7 235.8Q833.5 235 834.6 235L834.6 235Q835.8 235 836.6 235.8Q837.5 236.7 837.5 237.8Q837.5 239 836.6 239.8Q835.8 240.6 834.6 240.6L834.6 240.6Q833.5 240.6 832.7 239.8Q831.8 239 831.8 237.8ZM842.6 219.2L842.6 219.2Q842.6 218.1 843.4 217.3Q844.3 216.5 845.4 216.5Q846.6 216.5 847.4 217.3Q848.2 218.1 848.2 219.2L848.2 219.2Q848.2 220.4 847.4 221.2Q846.6 222.1 845.4 222.1L845.4 222.1Q844.3 222.1 843.4 221.2Q842.6 220.4 842.6 219.2ZM842.6 231.3L842.6 231.3Q842.6 230.2 843.4 229.3L843.4 229.3Q844.3 228.6 845.4 228.6Q846.6 228.6 847.4 229.3Q848.2 230.1 848.2 231.3Q848.2 232.5 847.4 233.3Q846.6 234.1 845.4 234.1Q844.3 234.1 843.4 233.3Q842.6 232.5 842.6 231.3Z "/></g><mask id="satori_om-id-0-2"><rect x="0" y="289" width="960" height="96" fill="#fff"/></mask><mask id="satori_om-id-0-2-0"><rect x="80" y="289" width="800" height="96" fill="#fff"/></mask><mask id="satori_om-id-0-2-0-0"><rect x="80" y="289" width="800" height="40" fill="#fff"/></mask><mask id="satori_om-id-0-2-0-0-0"><rect x="80" y="289" width="38" height="38" fill="#fff"/></mask><g  ><path fill="#000" d="M87.7 297.4L92.2 297.4L92.2 319L87.3 319L87.3 302.3L82.6 305.1L80.4 301.8L87.7 297.4ZM98.7 313.8Q99.9 313.8 100.7 314.6Q101.6 315.4 101.6 316.6L101.6 316.6Q101.6 317.8 100.7 318.7Q99.9 319.5 98.7 319.5L98.7 319.5Q97.5 319.5 96.6 318.7Q95.8 317.8 95.8 316.6L95.8 316.6Q95.8 315.4 96.6 314.6Q97.5 313.8 98.7 313.8L98.7 313.8Z "/></g><mask id="satori_om-id-0-2-0-0-1"><rect x="118" y="289" width="762" height="40" fill="#fff"/></mask><g  ><path fill="#000" d="M120.1 297.8L133.7 297.8L133.1 301.6L125.3 301.6L125.3 306.9L132.1 306.9L132.1 310.6L125.3 310.6L125.3 316.2L133.7 316.2L133.7 320L120.1 320L120.1 297.8ZM146.8 302.5Q149.0 302.5 150.2 303.8Q151.5 305.2 151.5 307.6L151.5 307.6L151.5 320L146.4 320L146.4 308.4Q146.4 307.2 146.0 306.7Q145.6 306.2 144.8 306.2L144.8 306.2Q143.3 306.2 141.9 308.4L141.9 308.4L141.9 320L136.8 320L136.8 303.0L141.2 303.0L141.6 305.0Q142.7 303.7 143.9 303.1Q145.2 302.5 146.8 302.5L146.8 302.5ZM161.3 302.5Q163.1 302.5 164.7 303.0Q166.3 303.6 167.5 304.5L167.5 304.5L165.6 307.4Q163.6 306.1 161.5 306.1L161.5 306.1Q160.5 306.1 159.9 306.4Q159.4 306.8 159.4 307.4L159.4 307.4Q159.4 307.8 159.6 308.1Q159.9 308.4 160.6 308.8Q161.4 309.1 162.9 309.5L162.9 309.5Q165.6 310.3 166.8 311.5Q168.1 312.8 168.1 314.9L168.1 314.9Q168.1 316.7 167.2 317.9Q166.2 319.2 164.4 319.9Q162.7 320.5 160.6 320.5L160.6 320.5Q158.4 320.5 156.6 319.9Q154.8 319.2 153.5 318.0L153.5 318.0L156.0 315.3Q158.1 316.9 160.5 316.9L160.5 316.9Q161.6 316.9 162.3 316.5Q162.9 316.1 162.9 315.3L162.9 315.3Q162.9 314.7 162.7 314.4Q162.4 314.0 161.7 313.7Q160.9 313.4 159.3 313.0L159.3 313.0Q156.8 312.2 155.6 310.9Q154.3 309.6 154.3 307.6L154.3 307.6Q154.3 306.2 155.2 305.0Q156.0 303.8 157.6 303.2Q159.2 302.5 161.3 302.5L161.3 302.5ZM185.1 303.0L185.1 320L180.7 320L180.5 317.9Q178.6 320.5 175.3 320.5L175.3 320.5Q173.0 320.5 171.8 319.1Q170.6 317.7 170.6 315.2L170.6 315.2L170.6 303.0L175.6 303.0L175.6 314.6Q175.6 315.8 176.0 316.3Q176.4 316.8 177.3 316.8L177.3 316.8Q178.9 316.8 180.0 314.8L180.0 314.8L180.0 303.0L185.1 303.0ZM198.3 302.5Q199.2 302.5 200.0 302.8L200.0 302.8L199.2 307.6Q198.2 307.4 197.6 307.4L197.6 307.4Q196.1 307.4 195.3 308.5Q194.5 309.5 194.1 311.6L194.1 311.6L194.1 320L189.0 320L189.0 303.0L193.5 303.0L193.9 306.3Q194.4 304.5 195.6 303.5Q196.8 302.5 198.3 302.5L198.3 302.5ZM216.7 311.2Q216.7 312.2 216.6 313.0L216.6 313.0L206.1 313.0Q206.3 315.1 207.3 316Q208.2 316.9 209.9 316.9L209.9 316.9Q211.0 316.9 211.9 316.5Q212.9 316.1 214.0 315.4L214.0 315.4L216.1 318.2Q213.1 320.5 209.5 320.5L209.5 320.5Q205.3 320.5 203.1 318.1Q200.9 315.7 200.9 311.6L200.9 311.6Q200.9 309.0 201.8 306.9Q202.8 304.9 204.6 303.7Q206.4 302.5 208.8 302.5L208.8 302.5Q212.5 302.5 214.6 304.8Q216.7 307.1 216.7 311.2L216.7 311.2ZM211.7 310.0L211.7 309.7Q211.7 305.8 209.0 305.8L209.0 305.8Q207.7 305.8 206.9 306.8Q206.2 307.7 206.1 310.0L206.1 310.0L211.7 310.0Z M241.9 303.0L236.5 320.0Q235.5 323.3 233.2 325.1Q230.8 326.9 226.9 327.1L226.9 327.1L226.4 323.6Q228.8 323.2 230.0 322.5Q231.2 321.7 231.9 320L231.9 320L230.1 320L224.9 303.0L230.3 303.0L233.4 316.8L236.7 303.0L241.9 303.0ZM251.1 302.5Q255.0 302.5 257.2 304.8Q259.4 307.2 259.4 311.5L259.4 311.5Q259.4 314.2 258.4 316.3Q257.4 318.3 255.5 319.4Q253.6 320.5 251.1 320.5L251.1 320.5Q247.2 320.5 245.0 318.2Q242.7 315.8 242.7 311.5L242.7 311.5Q242.7 308.8 243.7 306.7Q244.8 304.7 246.6 303.6Q248.5 302.5 251.1 302.5L251.1 302.5ZM251.1 306.2Q249.5 306.2 248.8 307.5Q248.0 308.8 248.0 311.5L248.0 311.5Q248.0 314.3 248.7 315.6Q249.5 316.8 251.1 316.8L251.1 316.8Q252.6 316.8 253.4 315.5Q254.1 314.2 254.1 311.5L254.1 311.5Q254.1 308.7 253.4 307.5Q252.6 306.2 251.1 306.2L251.1 306.2ZM276.7 303.0L276.7 320L272.3 320L272.1 317.9Q270.3 320.5 267.0 320.5L267.0 320.5Q264.6 320.5 263.4 319.1Q262.2 317.7 262.2 315.2L262.2 315.2L262.2 303.0L267.3 303.0L267.3 314.6Q267.3 315.8 267.7 316.3Q268.1 316.8 268.9 316.8L268.9 316.8Q270.5 316.8 271.7 314.8L271.7 314.8L271.7 303.0L276.7 303.0ZM289.9 302.5Q290.8 302.5 291.6 302.8L291.6 302.8L290.8 307.6Q289.8 307.4 289.3 307.4L289.3 307.4Q287.8 307.4 287.0 308.5Q286.2 309.5 285.7 311.6L285.7 311.6L285.7 320L280.7 320L280.7 303.0L285.1 303.0L285.5 306.3Q286.1 304.5 287.3 303.5Q288.4 302.5 289.9 302.5L289.9 302.5Z M311.3 295.7L316.3 296.3L316.3 320L311.9 320L311.6 318.0Q309.8 320.5 306.8 320.5L306.8 320.5Q303.6 320.5 302.0 318.1Q300.3 315.7 300.3 311.5L300.3 311.5Q300.3 308.9 301.2 306.8Q302.0 304.8 303.6 303.6Q305.2 302.5 307.2 302.5L307.2 302.5Q309.7 302.5 311.3 304.1L311.3 304.1L311.3 295.7ZM308.3 316.8Q310.1 316.8 311.3 314.9L311.3 314.9L311.3 307.6Q310.7 306.8 310.0 306.5Q309.4 306.1 308.6 306.1L308.6 306.1Q307.2 306.1 306.4 307.5Q305.6 308.8 305.6 311.5L305.6 311.5Q305.6 314.5 306.3 315.6Q307.0 316.8 308.3 316.8L308.3 316.8ZM335.1 311.2Q335.1 312.2 335.0 313.0L335.0 313.0L324.5 313.0Q324.8 315.1 325.7 316Q326.7 316.9 328.4 316.9L328.4 316.9Q329.4 316.9 330.4 316.5Q331.3 316.1 332.4 315.4L332.4 315.4L334.5 318.2Q331.5 320.5 327.9 320.5L327.9 320.5Q323.8 320.5 321.6 318.1Q319.3 315.7 319.3 311.6L319.3 311.6Q319.3 309.0 320.3 306.9Q321.2 304.9 323.0 303.7Q324.8 302.5 327.3 302.5L327.3 302.5Q331.0 302.5 333.0 304.8Q335.1 307.1 335.1 311.2L335.1 311.2ZM330.2 310.0L330.2 309.7Q330.1 305.8 327.4 305.8L327.4 305.8Q326.1 305.8 325.4 306.8Q324.7 307.7 324.5 310.0L324.5 310.0L330.2 310.0ZM347.4 303.0L352.6 303.0L347.2 320L341.3 320L335.8 303.0L341.3 303.0L344.3 316.2L347.4 303.0ZM354.4 303.0L359.4 303.0L359.4 320L354.4 320L354.4 303.0ZM356.9 294.0Q358.2 294.0 359.0 294.9Q359.9 295.7 359.9 296.9L359.9 296.9Q359.9 298.2 359.0 299.0Q358.2 299.8 356.9 299.8L356.9 299.8Q355.6 299.8 354.7 299.0Q353.9 298.2 353.9 296.9L353.9 296.9Q353.9 295.7 354.7 294.9Q355.6 294.0 356.9 294.0L356.9 294.0ZM370.8 302.5Q372.5 302.5 373.9 303.0Q375.3 303.5 376.6 304.5L376.6 304.5L374.4 307.6Q372.8 306.3 371.2 306.3L371.2 306.3Q369.5 306.3 368.6 307.6Q367.8 308.8 367.8 311.6L367.8 311.6Q367.8 314.3 368.6 315.4Q369.5 316.5 371.1 316.5L371.1 316.5Q372.0 316.5 372.7 316.3Q373.4 316 374.4 315.4L374.4 315.4L376.6 318.5Q374.1 320.5 370.9 320.5L370.9 320.5Q368.3 320.5 366.4 319.4Q364.5 318.3 363.5 316.3Q362.4 314.3 362.4 311.6L362.4 311.6Q362.4 309.0 363.5 306.9Q364.5 304.8 366.4 303.6Q368.3 302.5 370.8 302.5L370.8 302.5ZM393.6 311.2Q393.6 312.2 393.5 313.0L393.5 313.0L382.9 313.0Q383.2 315.1 384.1 316Q385.1 316.9 386.8 316.9L386.8 316.9Q387.8 316.9 388.8 316.5Q389.7 316.1 390.9 315.4L390.9 315.4L392.9 318.2Q390.0 320.5 386.3 320.5L386.3 320.5Q382.2 320.5 380.0 318.1Q377.8 315.7 377.8 311.6L377.8 311.6Q377.8 309.0 378.7 306.9Q379.6 304.9 381.4 303.7Q383.2 302.5 385.7 302.5L385.7 302.5Q389.4 302.5 391.5 304.8Q393.6 307.1 393.6 311.2L393.6 311.2ZM388.6 310.0L388.6 309.7Q388.5 305.8 385.8 305.8L385.8 305.8Q384.5 305.8 383.8 306.8Q383.1 307.7 382.9 310.0L382.9 310.0L388.6 310.0Z M404.0 303.0L409.0 303.0L409.0 320L404.0 320L404.0 303.0ZM406.5 294.0Q407.8 294.0 408.6 294.9Q409.5 295.7 409.5 296.9L409.5 296.9Q409.5 298.2 408.6 299.0Q407.8 299.8 406.5 299.8L406.5 299.8Q405.2 299.8 404.3 299.0Q403.5 298.2 403.5 296.9L403.5 296.9Q403.5 295.7 404.3 294.9Q405.2 294.0 406.5 294.0L406.5 294.0ZM419.0 302.5Q420.8 302.5 422.4 303.0Q424.0 303.6 425.2 304.5L425.2 304.5L423.4 307.4Q421.3 306.1 419.2 306.1L419.2 306.1Q418.2 306.1 417.7 306.4Q417.1 306.8 417.1 307.4L417.1 307.4Q417.1 307.8 417.4 308.1Q417.6 308.4 418.4 308.8Q419.1 309.1 420.6 309.5L420.6 309.5Q423.3 310.3 424.6 311.5Q425.9 312.8 425.9 314.9L425.9 314.9Q425.9 316.7 424.9 317.9Q423.9 319.2 422.2 319.9Q420.4 320.5 418.3 320.5L418.3 320.5Q416.2 320.5 414.3 319.9Q412.5 319.2 411.2 318.0L411.2 318.0L413.7 315.3Q415.8 316.9 418.2 316.9L418.2 316.9Q419.3 316.9 420 316.5Q420.7 316.1 420.7 315.3L420.7 315.3Q420.7 314.7 420.4 314.4Q420.1 314.0 419.4 313.7Q418.7 313.4 417.1 313.0L417.1 313.0Q414.5 312.2 413.3 310.9Q412.0 309.6 412.0 307.6L412.0 307.6Q412.0 306.2 412.9 305.0Q413.7 303.8 415.3 303.2Q416.9 302.5 419.0 302.5L419.0 302.5Z M443.4 302.5Q445.2 302.5 446.6 303.0Q448.0 303.5 449.2 304.5L449.2 304.5L447.1 307.6Q445.5 306.3 443.8 306.3L443.8 306.3Q442.1 306.3 441.3 307.6Q440.4 308.8 440.4 311.6L440.4 311.6Q440.4 314.3 441.3 315.4Q442.1 316.5 443.8 316.5L443.8 316.5Q444.6 316.5 445.3 316.3Q446.0 316 447.0 315.4L447.0 315.4L449.2 318.5Q446.7 320.5 443.5 320.5L443.5 320.5Q440.9 320.5 439.0 319.4Q437.1 318.3 436.1 316.3Q435.1 314.3 435.1 311.6L435.1 311.6Q435.1 309.0 436.1 306.9Q437.1 304.8 439.0 303.6Q440.9 302.5 443.4 302.5L443.4 302.5ZM461.3 302.5Q463.5 302.5 464.8 303.8Q466.0 305.2 466.0 307.6L466.0 307.6L466.0 320L461.0 320L461.0 308.4Q461.0 307.2 460.6 306.7Q460.1 306.2 459.4 306.2L459.4 306.2Q457.8 306.2 456.4 308.4L456.4 308.4L456.4 320L451.4 320L451.4 296.3L456.4 295.7L456.4 304.8Q457.5 303.6 458.7 303.1Q459.9 302.5 461.3 302.5L461.3 302.5ZM483.3 315.1Q483.3 316.0 483.6 316.5Q483.9 316.9 484.5 317.2L484.5 317.2L483.4 320.4Q481.9 320.3 480.9 319.8Q479.9 319.2 479.3 318.0L479.3 318.0Q477.7 320.5 474.2 320.5L474.2 320.5Q471.7 320.5 470.2 319.1Q468.7 317.6 468.7 315.2L468.7 315.2Q468.7 312.4 470.7 311.0Q472.8 309.5 476.7 309.5L476.7 309.5L478.4 309.5L478.4 308.8Q478.4 307.3 477.7 306.7Q477.1 306.1 475.5 306.1L475.5 306.1Q474.7 306.1 473.5 306.4Q472.3 306.6 471.1 307.0L471.1 307.0L469.9 303.7Q471.5 303.1 473.2 302.8Q474.9 302.5 476.3 302.5L476.3 302.5Q480.0 302.5 481.6 304.0Q483.3 305.5 483.3 308.5L483.3 308.5L483.3 315.1ZM475.7 316.9Q477.4 316.9 478.4 315.3L478.4 315.3L478.4 312.3L477.1 312.3Q475.4 312.3 474.6 312.9Q473.7 313.5 473.7 314.8L473.7 314.8Q473.7 315.8 474.2 316.4Q474.8 316.9 475.7 316.9L475.7 316.9ZM496.6 302.5Q497.5 302.5 498.3 302.8L498.3 302.8L497.5 307.6Q496.5 307.4 496.0 307.4L496.0 307.4Q494.4 307.4 493.7 308.5Q492.9 309.5 492.4 311.6L492.4 311.6L492.4 320L487.4 320L487.4 303.0L491.8 303.0L492.2 306.3Q492.8 304.5 494.0 303.5Q495.1 302.5 496.6 302.5L496.6 302.5ZM514.7 300.3L515.9 304Q514.2 304.7 511.0 304.7L511.0 304.7Q512.6 305.4 513.4 306.4Q514.2 307.4 514.2 309.1L514.2 309.1Q514.2 310.7 513.3 312.0Q512.4 313.3 510.8 314.0Q509.2 314.8 507.0 314.8L507.0 314.8Q506 314.8 505.1 314.6L505.1 314.6Q504.8 314.7 504.7 315.0Q504.5 315.2 504.5 315.5L504.5 315.5Q504.5 316 504.9 316.3Q505.3 316.5 506.4 316.5L506.4 316.5L508.9 316.5Q510.9 316.5 512.4 317.2Q513.8 317.8 514.6 318.9Q515.4 320.1 515.4 321.5L515.4 321.5Q515.4 324.1 513.2 325.6Q510.9 327.1 506.5 327.1L506.5 327.1Q503.4 327.1 501.6 326.4Q499.9 325.8 499.1 324.6Q498.4 323.4 498.4 321.6L498.4 321.6L503.0 321.6Q503.0 322.4 503.3 322.8Q503.6 323.3 504.4 323.5Q505.2 323.7 506.7 323.7L506.7 323.7Q508.8 323.7 509.6 323.2Q510.4 322.8 510.4 321.8L510.4 321.8Q510.4 321.1 509.7 320.6Q509.1 320.2 507.9 320.2L507.9 320.2L505.5 320.2Q502.8 320.2 501.5 319.2Q500.2 318.3 500.2 316.8L500.2 316.8Q500.2 315.9 500.8 315.0Q501.3 314.1 502.3 313.5L502.3 313.5Q500.7 312.7 499.9 311.5Q499.2 310.3 499.2 308.7L499.2 308.7Q499.2 305.8 501.3 304.1Q503.3 302.5 506.7 302.5L506.7 302.5Q509.2 302.5 511.0 302.0Q512.8 301.4 514.7 300.3L514.7 300.3ZM506.8 305.8Q505.6 305.8 504.9 306.5Q504.2 307.3 504.2 308.6L504.2 308.6Q504.2 310.0 504.9 310.7Q505.6 311.5 506.8 311.5L506.8 311.5Q508.0 311.5 508.7 310.8Q509.4 310.0 509.4 308.5L509.4 308.5Q509.4 305.8 506.8 305.8L506.8 305.8ZM532.7 311.2Q532.7 312.2 532.6 313.0L532.6 313.0L522.0 313.0Q522.3 315.1 523.2 316Q524.2 316.9 525.9 316.9L525.9 316.9Q526.9 316.9 527.9 316.5Q528.8 316.1 530.0 315.4L530.0 315.4L532.0 318.2Q529.1 320.5 525.4 320.5L525.4 320.5Q521.3 320.5 519.1 318.1Q516.9 315.7 516.9 311.6L516.9 311.6Q516.9 309.0 517.8 306.9Q518.7 304.9 520.5 303.7Q522.3 302.5 524.8 302.5L524.8 302.5Q528.5 302.5 530.6 304.8Q532.7 307.1 532.7 311.2L532.7 311.2ZM527.7 310.0L527.7 309.7Q527.6 305.8 524.9 305.8L524.9 305.8Q523.6 305.8 522.9 306.8Q522.2 307.7 522.0 310.0L522.0 310.0L527.7 310.0ZM545.7 295.7L550.7 296.3L550.7 320L546.3 320L546 318.0Q544.2 320.5 541.2 320.5L541.2 320.5Q538 320.5 536.4 318.1Q534.7 315.7 534.7 311.5L534.7 311.5Q534.7 308.9 535.6 306.8Q536.4 304.8 538.0 303.6Q539.6 302.5 541.6 302.5L541.6 302.5Q544.1 302.5 545.7 304.1L545.7 304.1L545.7 295.7ZM542.7 316.8Q544.5 316.8 545.7 314.9L545.7 314.9L545.7 307.6Q545.1 306.8 544.4 306.5Q543.8 306.1 543.0 306.1L543.0 306.1Q541.6 306.1 540.8 307.5Q540.0 308.8 540.0 311.5L540.0 311.5Q540.0 314.5 540.7 315.6Q541.4 316.8 542.7 316.8L542.7 316.8ZM556.6 314.8Q557.7 314.8 558.6 315.6Q559.4 316.4 559.4 317.6L559.4 317.6Q559.4 318.8 558.6 319.7Q557.7 320.5 556.6 320.5L556.6 320.5Q555.3 320.5 554.5 319.7Q553.6 318.8 553.6 317.6L553.6 317.6Q553.6 316.4 554.5 315.6Q555.3 314.8 556.6 314.8L556.6 314.8Z "/></g><mask id="satori_om-id-0-2-0-1"><rect x="80" y="345" width="800" height="40" fill="#fff"/></mask><mask id="satori_om-id-0-2-0-1-0"><rect x="80" y="345" width="38" height="38" fill="#fff"/></mask><g  ><path fill="#000" d="M87.6 352.9Q90.0 352.9 91.6 353.8Q93.3 354.6 94.2 356.0Q95.1 357.4 95.1 359.1L95.1 359.1Q95.1 360.8 94.4 362.4Q93.7 364.0 91.9 366.0Q90.1 368.0 86.7 371.1L86.7 371.1L95.5 371.1L95.0 375L80.9 375L80.9 371.4Q84.9 367.5 86.7 365.6Q88.4 363.6 89.2 362.3Q89.9 361.0 89.9 359.6L89.9 359.6Q89.9 358.3 89.1 357.5Q88.4 356.8 87.1 356.8L87.1 356.8Q86.0 356.8 85.1 357.3Q84.2 357.8 83.2 359.0L83.2 359.0L80.2 356.7Q81.5 354.9 83.4 353.9Q85.3 352.9 87.6 352.9L87.6 352.9ZM100.4 369.8Q101.6 369.8 102.4 370.6Q103.3 371.4 103.3 372.6L103.3 372.6Q103.3 373.8 102.4 374.7Q101.6 375.5 100.4 375.5L100.4 375.5Q99.2 375.5 98.3 374.7Q97.5 373.8 97.5 372.6L97.5 372.6Q97.5 371.4 98.3 370.6Q99.2 369.8 100.4 369.8L100.4 369.8Z "/></g><mask id="satori_om-id-0-2-0-1-1"><rect x="118" y="345" width="762" height="40" fill="#fff"/></mask><g  ><path fill="#000" d="M120.1 353.8L125.3 353.8L125.3 371.8L134.0 371.8L133.4 376L120.1 376L120.1 353.8ZM143.8 358.5Q147.7 358.5 149.9 360.8Q152.1 363.2 152.1 367.5L152.1 367.5Q152.1 370.2 151.1 372.3Q150.1 374.3 148.2 375.4Q146.3 376.5 143.8 376.5L143.8 376.5Q139.9 376.5 137.7 374.2Q135.4 371.8 135.4 367.5L135.4 367.5Q135.4 364.8 136.4 362.7Q137.5 360.7 139.3 359.6Q141.2 358.5 143.8 358.5L143.8 358.5ZM143.8 362.2Q142.2 362.2 141.5 363.5Q140.7 364.8 140.7 367.5L140.7 367.5Q140.7 370.3 141.4 371.6Q142.2 372.8 143.8 372.8L143.8 372.8Q145.3 372.8 146.1 371.5Q146.8 370.2 146.8 367.5L146.8 367.5Q146.8 364.7 146.1 363.5Q145.3 362.2 143.8 362.2L143.8 362.2ZM165.0 358.5Q167.2 358.5 168.5 359.8Q169.7 361.2 169.7 363.6L169.7 363.6L169.7 376L164.7 376L164.7 364.4Q164.7 363.2 164.3 362.7Q163.9 362.2 163.1 362.2L163.1 362.2Q161.6 362.2 160.1 364.4L160.1 364.4L160.1 376L155.1 376L155.1 359.0L159.5 359.0L159.9 361.0Q160.9 359.7 162.2 359.1Q163.5 358.5 165.0 358.5L165.0 358.5ZM188.0 356.3L189.2 360Q187.5 360.7 184.3 360.7L184.3 360.7Q186.0 361.4 186.7 362.4Q187.5 363.4 187.5 365.1L187.5 365.1Q187.5 366.7 186.6 368.0Q185.8 369.3 184.2 370.0Q182.5 370.8 180.4 370.8L180.4 370.8Q179.3 370.8 178.4 370.6L178.4 370.6Q178.2 370.7 178.0 371.0Q177.9 371.2 177.9 371.5L177.9 371.5Q177.9 372 178.2 372.3Q178.6 372.5 179.7 372.5L179.7 372.5L182.3 372.5Q184.2 372.5 185.7 373.2Q187.2 373.8 188.0 374.9Q188.8 376.1 188.8 377.5L188.8 377.5Q188.8 380.1 186.5 381.6Q184.2 383.1 179.9 383.1L179.9 383.1Q176.8 383.1 175.0 382.4Q173.2 381.8 172.5 380.6Q171.8 379.4 171.8 377.6L171.8 377.6L176.3 377.6Q176.3 378.4 176.6 378.8Q176.9 379.3 177.7 379.5Q178.5 379.7 180.0 379.7L180.0 379.7Q182.1 379.7 182.9 379.2Q183.7 378.8 183.7 377.8L183.7 377.8Q183.7 377.1 183.1 376.6Q182.5 376.2 181.3 376.2L181.3 376.2L178.8 376.2Q176.2 376.2 174.9 375.2Q173.6 374.3 173.6 372.8L173.6 372.8Q173.6 371.9 174.1 371.0Q174.7 370.1 175.6 369.5L175.6 369.5Q174.0 368.7 173.3 367.5Q172.6 366.3 172.6 364.7L172.6 364.7Q172.6 361.8 174.6 360.1Q176.7 358.5 180.0 358.5L180.0 358.5Q182.6 358.5 184.4 358.0Q186.1 357.4 188.0 356.3L188.0 356.3ZM180.1 361.8Q179.0 361.8 178.3 362.5Q177.6 363.3 177.6 364.6L177.6 364.6Q177.6 366.0 178.3 366.7Q179.0 367.5 180.1 367.5L180.1 367.5Q181.4 367.5 182.0 366.8Q182.7 366.0 182.7 364.5L182.7 364.5Q182.7 361.8 180.1 361.8L180.1 361.8Z M208.4 358.5Q211.6 358.5 213.1 360.8Q214.7 363.2 214.7 367.5L214.7 367.5Q214.7 370.1 213.9 372.1Q213.1 374.2 211.5 375.4Q210 376.5 208.0 376.5L208.0 376.5Q205.4 376.5 203.8 374.8L203.8 374.8L203.8 382.6L198.8 383.1L198.8 359.0L203.2 359.0L203.5 360.9Q204.5 359.6 205.7 359.1Q207.0 358.5 208.4 358.5L208.4 358.5ZM206.4 372.8Q209.5 372.8 209.5 367.5L209.5 367.5Q209.5 364.5 208.8 363.3Q208.1 362.2 206.8 362.2L206.8 362.2Q205.9 362.2 205.2 362.7Q204.4 363.2 203.8 364.2L203.8 364.2L203.8 371.3Q204.8 372.8 206.4 372.8L206.4 372.8ZM227.1 358.5Q228.0 358.5 228.8 358.8L228.8 358.8L228.0 363.6Q227.0 363.4 226.4 363.4L226.4 363.4Q224.9 363.4 224.2 364.5Q223.4 365.5 222.9 367.6L222.9 367.6L222.9 376L217.9 376L217.9 359.0L222.3 359.0L222.7 362.3Q223.3 360.5 224.4 359.5Q225.6 358.5 227.1 358.5L227.1 358.5ZM245.5 367.2Q245.5 368.2 245.4 369.0L245.4 369.0L234.9 369.0Q235.2 371.1 236.1 372Q237.1 372.9 238.8 372.9L238.8 372.9Q239.8 372.9 240.8 372.5Q241.7 372.1 242.8 371.4L242.8 371.4L244.9 374.2Q241.9 376.5 238.3 376.5L238.3 376.5Q234.2 376.5 232.0 374.1Q229.7 371.7 229.7 367.6L229.7 367.6Q229.7 365.0 230.7 362.9Q231.6 360.9 233.4 359.7Q235.2 358.5 237.7 358.5L237.7 358.5Q241.4 358.5 243.4 360.8Q245.5 363.1 245.5 367.2L245.5 367.2ZM240.6 366.0L240.6 365.7Q240.5 361.8 237.8 361.8L237.8 361.8Q236.5 361.8 235.8 362.8Q235.1 363.7 234.9 366.0L234.9 366.0L240.6 366.0ZM254.4 358.5Q256.2 358.5 257.8 359.0Q259.4 359.6 260.6 360.5L260.6 360.5L258.7 363.4Q256.7 362.1 254.5 362.1L254.5 362.1Q253.6 362.1 253.0 362.4Q252.5 362.8 252.5 363.4L252.5 363.4Q252.5 363.8 252.7 364.1Q253.0 364.4 253.7 364.8Q254.4 365.1 256.0 365.5L256.0 365.5Q258.6 366.3 259.9 367.5Q261.2 368.8 261.2 370.9L261.2 370.9Q261.2 372.7 260.2 373.9Q259.2 375.2 257.5 375.9Q255.8 376.5 253.7 376.5L253.7 376.5Q251.5 376.5 249.7 375.9Q247.9 375.2 246.6 374.0L246.6 374.0L249.0 371.3Q251.2 372.9 253.6 372.9L253.6 372.9Q254.7 372.9 255.4 372.5Q256.0 372.1 256.0 371.3L256.0 371.3Q256.0 370.7 255.8 370.4Q255.5 370.0 254.8 369.7Q254.0 369.4 252.4 369.0L252.4 369.0Q249.9 368.2 248.7 366.9Q247.4 365.6 247.4 363.6L247.4 363.6Q247.4 362.2 248.3 361.0Q249.1 359.8 250.7 359.2Q252.3 358.5 254.4 358.5L254.4 358.5ZM269.8 358.5Q271.6 358.5 273.2 359.0Q274.8 359.6 276.0 360.5L276.0 360.5L274.2 363.4Q272.1 362.1 270 362.1L270 362.1Q269.0 362.1 268.5 362.4Q268.0 362.8 268.0 363.4L268.0 363.4Q268.0 363.8 268.2 364.1Q268.4 364.4 269.2 364.8Q269.9 365.1 271.4 365.5L271.4 365.5Q274.1 366.3 275.4 367.5Q276.7 368.8 276.7 370.9L276.7 370.9Q276.7 372.7 275.7 373.9Q274.7 375.2 273.0 375.9Q271.2 376.5 269.1 376.5L269.1 376.5Q267.0 376.5 265.2 375.9Q263.3 375.2 262.0 374.0L262.0 374.0L264.5 371.3Q266.6 372.9 269.0 372.9L269.0 372.9Q270.2 372.9 270.8 372.5Q271.5 372.1 271.5 371.3L271.5 371.3Q271.5 370.7 271.2 370.4Q271.0 370.0 270.2 369.7Q269.5 369.4 267.9 369.0L267.9 369.0Q265.4 368.2 264.1 366.9Q262.9 365.6 262.9 363.6L262.9 363.6Q262.9 362.2 263.7 361.0Q264.6 359.8 266.1 359.2Q267.7 358.5 269.8 358.5L269.8 358.5Z M295.8 372L297.5 375.2Q296.6 375.8 295.4 376.2Q294.1 376.5 292.9 376.5L292.9 376.5Q287.3 376.5 287.3 370.4L287.3 370.4L287.3 362.5L284.9 362.5L284.9 359.0L287.3 359.0L287.3 355.3L292.4 354.8L292.4 359.0L296.3 359.0L295.8 362.5L292.4 362.5L292.4 370.3Q292.4 371.5 292.8 372.0Q293.2 372.5 294 372.5L294 372.5Q294.9 372.5 295.8 372L295.8 372ZM309.2 358.5Q311.4 358.5 312.6 359.8Q313.9 361.2 313.9 363.6L313.9 363.6L313.9 376L308.8 376L308.8 364.4Q308.8 363.2 308.4 362.7Q308.0 362.2 307.2 362.2L307.2 362.2Q305.7 362.2 304.3 364.4L304.3 364.4L304.3 376L299.2 376L299.2 352.3L304.3 351.7L304.3 360.8Q305.3 359.6 306.5 359.1Q307.7 358.5 309.2 358.5L309.2 358.5ZM332.5 367.2Q332.5 368.2 332.4 369.0L332.4 369.0L321.9 369.0Q322.1 371.1 323.1 372Q324.0 372.9 325.7 372.9L325.7 372.9Q326.8 372.9 327.7 372.5Q328.7 372.1 329.8 371.4L329.8 371.4L331.9 374.2Q328.9 376.5 325.3 376.5L325.3 376.5Q321.1 376.5 318.9 374.1Q316.7 371.7 316.7 367.6L316.7 367.6Q316.7 365.0 317.6 362.9Q318.6 360.9 320.4 359.7Q322.2 358.5 324.7 358.5L324.7 358.5Q328.3 358.5 330.4 360.8Q332.5 363.1 332.5 367.2L332.5 367.2ZM327.5 366.0L327.5 365.7Q327.5 361.8 324.8 361.8L324.8 361.8Q323.5 361.8 322.8 362.8Q322.0 363.7 321.9 366.0L321.9 366.0L327.5 366.0Z M359.9 359.0L364.8 359.0L361.2 376L355.2 376L352.9 363.5L350.7 376L344.7 376L341.1 359.0L346.2 359.0L348.0 372.2L350.6 359.0L355.5 359.0L357.9 372.2L359.9 359.0ZM376.8 358.5Q379.1 358.5 380.3 359.8Q381.6 361.2 381.6 363.6L381.6 363.6L381.6 376L376.5 376L376.5 364.4Q376.5 363.2 376.1 362.7Q375.7 362.2 374.9 362.2L374.9 362.2Q373.4 362.2 372.0 364.4L372.0 364.4L372.0 376L366.9 376L366.9 352.3L372.0 351.7L372.0 360.8Q373.0 359.6 374.2 359.1Q375.4 358.5 376.8 358.5L376.8 358.5ZM385.4 359.0L390.4 359.0L390.4 376L385.4 376L385.4 359.0ZM387.9 350.0Q389.2 350.0 390.0 350.9Q390.9 351.7 390.9 352.9L390.9 352.9Q390.9 354.2 390.0 355.0Q389.2 355.8 387.9 355.8L387.9 355.8Q386.5 355.8 385.7 355.0Q384.9 354.2 384.9 352.9L384.9 352.9Q384.9 351.7 385.7 350.9Q386.5 350.0 387.9 350.0L387.9 350.0ZM403.3 372L405.0 375.2Q404.1 375.8 402.9 376.2Q401.6 376.5 400.4 376.5L400.4 376.5Q394.9 376.5 394.9 370.4L394.9 370.4L394.9 362.5L392.5 362.5L392.5 359.0L394.9 359.0L394.9 355.3L399.9 354.8L399.9 359.0L403.8 359.0L403.3 362.5L399.9 362.5L399.9 370.3Q399.9 371.5 400.3 372.0Q400.7 372.5 401.5 372.5L401.5 372.5Q402.4 372.5 403.3 372L403.3 372ZM421.6 367.2Q421.6 368.2 421.5 369.0L421.5 369.0L410.9 369.0Q411.2 371.1 412.1 372Q413.1 372.9 414.8 372.9L414.8 372.9Q415.8 372.9 416.8 372.5Q417.7 372.1 418.9 371.4L418.9 371.4L420.9 374.2Q418.0 376.5 414.3 376.5L414.3 376.5Q410.2 376.5 408.0 374.1Q405.8 371.7 405.8 367.6L405.8 367.6Q405.8 365.0 406.7 362.9Q407.6 360.9 409.4 359.7Q411.2 358.5 413.7 358.5L413.7 358.5Q417.4 358.5 419.5 360.8Q421.6 363.1 421.6 367.2L421.6 367.2ZM416.6 366.0L416.6 365.7Q416.5 361.8 413.8 361.8L413.8 361.8Q412.5 361.8 411.8 362.8Q411.1 363.7 410.9 366.0L410.9 366.0L416.6 366.0Z M441.6 358.5Q444.7 358.5 446.3 360.8Q447.9 363.2 447.9 367.5L447.9 367.5Q447.9 370.1 447.1 372.2Q446.3 374.2 444.8 375.4Q443.2 376.5 441.2 376.5L441.2 376.5Q439.8 376.5 438.7 376.0Q437.5 375.4 436.7 374.4L436.7 374.4L436.5 376L432.0 376L432.0 352.3L437.0 351.7L437.0 360.7Q437.8 359.7 439.0 359.1Q440.2 358.5 441.6 358.5L441.6 358.5ZM439.7 372.9Q442.7 372.9 442.7 367.5L442.7 367.5Q442.7 364.5 442.0 363.3Q441.3 362.2 439.9 362.2L439.9 362.2Q438.2 362.2 437.0 364.2L437.0 364.2L437.0 371.2Q437.5 372 438.2 372.4Q438.9 372.9 439.7 372.9L439.7 372.9ZM465.4 359.0L465.4 376L461.0 376L460.8 373.9Q459.0 376.5 455.7 376.5L455.7 376.5Q453.3 376.5 452.1 375.1Q450.9 373.7 450.9 371.2L450.9 371.2L450.9 359.0L456.0 359.0L456.0 370.6Q456.0 371.8 456.4 372.3Q456.8 372.8 457.6 372.8L457.6 372.8Q459.2 372.8 460.4 370.8L460.4 370.8L460.4 359.0L465.4 359.0ZM478.4 372L480.0 375.2Q479.1 375.8 477.9 376.2Q476.7 376.5 475.4 376.5L475.4 376.5Q469.9 376.5 469.9 370.4L469.9 370.4L469.9 362.5L467.5 362.5L467.5 359.0L469.9 359.0L469.9 355.3L474.9 354.8L474.9 359.0L478.8 359.0L478.3 362.5L474.9 362.5L474.9 370.3Q474.9 371.5 475.3 372.0Q475.7 372.5 476.5 372.5L476.5 372.5Q477.4 372.5 478.4 372L478.4 372ZM490.7 372L492.4 375.2Q491.5 375.8 490.2 376.2Q489.0 376.5 487.8 376.5L487.8 376.5Q482.2 376.5 482.2 370.4L482.2 370.4L482.2 362.5L479.8 362.5L479.8 359.0L482.2 359.0L482.2 355.3L487.3 354.8L487.3 359.0L491.2 359.0L490.6 362.5L487.3 362.5L487.3 370.3Q487.3 371.5 487.7 372.0Q488.0 372.5 488.9 372.5L488.9 372.5Q489.7 372.5 490.7 372L490.7 372ZM501.5 358.5Q505.4 358.5 507.6 360.8Q509.8 363.2 509.8 367.5L509.8 367.5Q509.8 370.2 508.8 372.3Q507.8 374.3 505.9 375.4Q504.0 376.5 501.5 376.5L501.5 376.5Q497.6 376.5 495.4 374.2Q493.1 371.8 493.1 367.5L493.1 367.5Q493.1 364.8 494.1 362.7Q495.2 360.7 497.0 359.6Q498.9 358.5 501.5 358.5L501.5 358.5ZM501.5 362.2Q499.9 362.2 499.2 363.5Q498.4 364.8 498.4 367.5L498.4 367.5Q498.4 370.3 499.1 371.6Q499.9 372.8 501.5 372.8L501.5 372.8Q503.0 372.8 503.8 371.5Q504.5 370.2 504.5 367.5L504.5 367.5Q504.5 364.7 503.8 363.5Q503.0 362.2 501.5 362.2L501.5 362.2ZM522.7 358.5Q524.9 358.5 526.2 359.8Q527.4 361.2 527.4 363.6L527.4 363.6L527.4 376L522.4 376L522.4 364.4Q522.4 363.2 522.0 362.7Q521.6 362.2 520.8 362.2L520.8 362.2Q519.2 362.2 517.8 364.4L517.8 364.4L517.8 376L512.8 376L512.8 359.0L517.2 359.0L517.6 361.0Q518.6 359.7 519.9 359.1Q521.2 358.5 522.7 358.5L522.7 358.5Z M547.8 372L549.5 375.2Q548.6 375.8 547.3 376.2Q546.1 376.5 544.9 376.5L544.9 376.5Q539.3 376.5 539.3 370.4L539.3 370.4L539.3 362.5L536.9 362.5L536.9 359.0L539.3 359.0L539.3 355.3L544.4 354.8L544.4 359.0L548.3 359.0L547.7 362.5L544.4 362.5L544.4 370.3Q544.4 371.5 544.8 372.0Q545.1 372.5 546.0 372.5L546.0 372.5Q546.8 372.5 547.8 372L547.8 372ZM558.5 358.5Q562.4 358.5 564.7 360.8Q566.9 363.2 566.9 367.5L566.9 367.5Q566.9 370.2 565.9 372.3Q564.8 374.3 563.0 375.4Q561.1 376.5 558.5 376.5L558.5 376.5Q554.7 376.5 552.4 374.2Q550.2 371.8 550.2 367.5L550.2 367.5Q550.2 364.8 551.2 362.7Q552.2 360.7 554.1 359.6Q556.0 358.5 558.5 358.5L558.5 358.5ZM558.5 362.2Q557.0 362.2 556.2 363.5Q555.5 364.8 555.5 367.5L555.5 367.5Q555.5 370.3 556.2 371.6Q557.0 372.8 558.5 372.8L558.5 372.8Q560.1 372.8 560.8 371.5Q561.6 370.2 561.6 367.5L561.6 367.5Q561.6 364.7 560.9 363.5Q560.1 362.2 558.5 362.2L558.5 362.2Z M592.3 367.2Q592.3 368.2 592.2 369.0L592.2 369.0L581.6 369.0Q581.9 371.1 582.9 372Q583.8 372.9 585.5 372.9L585.5 372.9Q586.5 372.9 587.5 372.5Q588.5 372.1 589.6 371.4L589.6 371.4L591.7 374.2Q588.7 376.5 585.0 376.5L585.0 376.5Q580.9 376.5 578.7 374.1Q576.5 371.7 576.5 367.6L576.5 367.6Q576.5 365.0 577.4 362.9Q578.4 360.9 580.1 359.7Q581.9 358.5 584.4 358.5L584.4 358.5Q588.1 358.5 590.2 360.8Q592.3 363.1 592.3 367.2L592.3 367.2ZM587.3 366.0L587.3 365.7Q587.2 361.8 584.6 361.8L584.6 361.8Q583.2 361.8 582.5 362.8Q581.8 363.7 581.6 366.0L581.6 366.0L587.3 366.0ZM605.1 358.5Q607.3 358.5 608.5 359.8Q609.8 361.2 609.8 363.6L609.8 363.6L609.8 376L604.7 376L604.7 364.4Q604.7 363.2 604.3 362.7Q603.9 362.2 603.1 362.2L603.1 362.2Q601.6 362.2 600.2 364.4L600.2 364.4L600.2 376L595.1 376L595.1 359.0L599.5 359.0L599.9 361.0Q601.0 359.7 602.2 359.1Q603.5 358.5 605.1 358.5L605.1 358.5ZM622.5 372L624.2 375.2Q623.3 375.8 622.1 376.2Q620.8 376.5 619.6 376.5L619.6 376.5Q614.1 376.5 614.1 370.4L614.1 370.4L614.1 362.5L611.7 362.5L611.7 359.0L614.1 359.0L614.1 355.3L619.1 354.8L619.1 359.0L623.0 359.0L622.5 362.5L619.1 362.5L619.1 370.3Q619.1 371.5 619.5 372.0Q619.9 372.5 620.7 372.5L620.7 372.5Q621.6 372.5 622.5 372L622.5 372ZM640.8 367.2Q640.8 368.2 640.7 369.0L640.7 369.0L630.1 369.0Q630.4 371.1 631.3 372Q632.3 372.9 634.0 372.9L634.0 372.9Q635.0 372.9 636.0 372.5Q636.9 372.1 638.1 371.4L638.1 371.4L640.1 374.2Q637.2 376.5 633.5 376.5L633.5 376.5Q629.4 376.5 627.2 374.1Q625.0 371.7 625.0 367.6L625.0 367.6Q625.0 365.0 625.9 362.9Q626.8 360.9 628.6 359.7Q630.4 358.5 632.9 358.5L632.9 358.5Q636.6 358.5 638.7 360.8Q640.8 363.1 640.8 367.2L640.8 367.2ZM635.8 366.0L635.8 365.7Q635.7 361.8 633.0 361.8L633.0 361.8Q631.7 361.8 631.0 362.8Q630.3 363.7 630.1 366.0L630.1 366.0L635.8 366.0ZM652.8 358.5Q653.7 358.5 654.5 358.8L654.5 358.8L653.7 363.6Q652.8 363.4 652.2 363.4L652.2 363.4Q650.7 363.4 649.9 364.5Q649.1 365.5 648.7 367.6L648.7 367.6L648.7 376L643.6 376L643.6 359.0L648.0 359.0L648.4 362.3Q649.0 360.5 650.2 359.5Q651.3 358.5 652.8 358.5L652.8 358.5Z M670 358.5Q671.8 358.5 673.4 359.0Q675.0 359.6 676.2 360.5L676.2 360.5L674.4 363.4Q672.3 362.1 670.2 362.1L670.2 362.1Q669.2 362.1 668.7 362.4Q668.1 362.8 668.1 363.4L668.1 363.4Q668.1 363.8 668.4 364.1Q668.6 364.4 669.4 364.8Q670.1 365.1 671.6 365.5L671.6 365.5Q674.3 366.3 675.6 367.5Q676.9 368.8 676.9 370.9L676.9 370.9Q676.9 372.7 675.9 373.9Q674.9 375.2 673.2 375.9Q671.4 376.5 669.3 376.5L669.3 376.5Q667.2 376.5 665.3 375.9Q663.5 375.2 662.2 374.0L662.2 374.0L664.7 371.3Q666.8 372.9 669.2 372.9L669.2 372.9Q670.4 372.9 671.0 372.5Q671.7 372.1 671.7 371.3L671.7 371.3Q671.7 370.7 671.4 370.4Q671.2 370.0 670.4 369.7Q669.7 369.4 668.1 369.0L668.1 369.0Q665.6 368.2 664.3 366.9Q663.1 365.6 663.1 363.6L663.1 363.6Q663.1 362.2 663.9 361.0Q664.8 359.8 666.3 359.2Q667.9 358.5 670 358.5L670 358.5ZM694.3 367.2Q694.3 368.2 694.2 369.0L694.2 369.0L683.7 369.0Q683.9 371.1 684.9 372Q685.8 372.9 687.5 372.9L687.5 372.9Q688.6 372.9 689.5 372.5Q690.5 372.1 691.6 371.4L691.6 371.4L693.7 374.2Q690.7 376.5 687.1 376.5L687.1 376.5Q682.9 376.5 680.7 374.1Q678.5 371.7 678.5 367.6L678.5 367.6Q678.5 365.0 679.4 362.9Q680.4 360.9 682.2 359.7Q684.0 358.5 686.4 358.5L686.4 358.5Q690.1 358.5 692.2 360.8Q694.3 363.1 694.3 367.2L694.3 367.2ZM689.3 366.0L689.3 365.7Q689.3 361.8 686.6 361.8L686.6 361.8Q685.3 361.8 684.5 362.8Q683.8 363.7 683.7 366.0L683.7 366.0L689.3 366.0ZM706.1 372L707.8 375.2Q706.9 375.8 705.6 376.2Q704.4 376.5 703.2 376.5L703.2 376.5Q697.6 376.5 697.6 370.4L697.6 370.4L697.6 362.5L695.2 362.5L695.2 359.0L697.6 359.0L697.6 355.3L702.7 354.8L702.7 359.0L706.6 359.0L706.0 362.5L702.7 362.5L702.7 370.3Q702.7 371.5 703.1 372.0Q703.4 372.5 704.3 372.5L704.3 372.5Q705.1 372.5 706.1 372L706.1 372ZM723.8 359.0L723.8 376L719.4 376L719.2 373.9Q717.4 376.5 714.1 376.5L714.1 376.5Q711.7 376.5 710.5 375.1Q709.3 373.7 709.3 371.2L709.3 371.2L709.3 359.0L714.4 359.0L714.4 370.6Q714.4 371.8 714.8 372.3Q715.2 372.8 716.0 372.8L716.0 372.8Q717.6 372.8 718.8 370.8L718.8 370.8L718.8 359.0L723.8 359.0ZM737.4 358.5Q740.6 358.5 742.2 360.8Q743.7 363.2 743.7 367.5L743.7 367.5Q743.7 370.1 742.9 372.1Q742.1 374.2 740.6 375.4Q739.0 376.5 737.0 376.5L737.0 376.5Q734.4 376.5 732.8 374.8L732.8 374.8L732.8 382.6L727.8 383.1L727.8 359.0L732.2 359.0L732.5 360.9Q733.5 359.6 734.8 359.1Q736.0 358.5 737.4 358.5L737.4 358.5ZM735.4 372.8Q738.5 372.8 738.5 367.5L738.5 367.5Q738.5 364.5 737.8 363.3Q737.1 362.2 735.8 362.2L735.8 362.2Q734.9 362.2 734.2 362.7Q733.4 363.2 732.8 364.2L732.8 364.2L732.8 371.3Q733.9 372.8 735.4 372.8L735.4 372.8Z M773.3 358.5Q775.3 358.5 776.5 359.8Q777.7 361.2 777.7 363.6L777.7 363.6L777.7 376L772.7 376L772.7 364.4Q772.7 362.2 771.2 362.2L771.2 362.2Q770.4 362.2 769.8 362.7Q769.2 363.3 768.6 364.4L768.6 364.4L768.6 376L763.6 376L763.6 364.4Q763.6 362.2 762.1 362.2L762.1 362.2Q761.4 362.2 760.7 362.7Q760.1 363.3 759.5 364.4L759.5 364.4L759.5 376L754.5 376L754.5 359.0L758.9 359.0L759.2 361.0Q760.2 359.7 761.4 359.1Q762.6 358.5 764.2 358.5L764.2 358.5Q765.6 358.5 766.7 359.2Q767.7 359.9 768.2 361.2L768.2 361.2Q769.2 359.8 770.4 359.1Q771.7 358.5 773.3 358.5L773.3 358.5ZM788.9 358.5Q792.8 358.5 795.0 360.8Q797.2 363.2 797.2 367.5L797.2 367.5Q797.2 370.2 796.2 372.3Q795.2 374.3 793.3 375.4Q791.4 376.5 788.9 376.5L788.9 376.5Q785.0 376.5 782.8 374.2Q780.6 371.8 780.6 367.5L780.6 367.5Q780.6 364.8 781.6 362.7Q782.6 360.7 784.4 359.6Q786.3 358.5 788.9 358.5L788.9 358.5ZM788.9 362.2Q787.3 362.2 786.6 363.5Q785.8 364.8 785.8 367.5L785.8 367.5Q785.8 370.3 786.6 371.6Q787.3 372.8 788.9 372.8L788.9 372.8Q790.4 372.8 791.2 371.5Q792.0 370.2 792.0 367.5L792.0 367.5Q792.0 364.7 791.2 363.5Q790.4 362.2 788.9 362.2L788.9 362.2ZM810.4 351.7L815.4 352.3L815.4 376L811.0 376L810.7 374.0Q808.9 376.5 805.9 376.5L805.9 376.5Q802.7 376.5 801.1 374.1Q799.4 371.7 799.4 367.5L799.4 367.5Q799.4 364.9 800.3 362.8Q801.1 360.8 802.7 359.6Q804.3 358.5 806.4 358.5L806.4 358.5Q808.8 358.5 810.4 360.1L810.4 360.1L810.4 351.7ZM807.4 372.8Q809.2 372.8 810.4 370.9L810.4 370.9L810.4 363.6Q809.8 362.8 809.2 362.5Q808.5 362.1 807.7 362.1L807.7 362.1Q806.3 362.1 805.5 363.5Q804.7 364.8 804.7 367.5L804.7 367.5Q804.7 370.5 805.4 371.6Q806.1 372.8 807.4 372.8L807.4 372.8ZM834.2 367.2Q834.2 368.2 834.1 369.0L834.1 369.0L823.6 369.0Q823.9 371.1 824.8 372Q825.8 372.9 827.5 372.9L827.5 372.9Q828.5 372.9 829.5 372.5Q830.4 372.1 831.5 371.4L831.5 371.4L833.6 374.2Q830.6 376.5 827.0 376.5L827.0 376.5Q822.9 376.5 820.7 374.1Q818.4 371.7 818.4 367.6L818.4 367.6Q818.4 365.0 819.4 362.9Q820.3 360.9 822.1 359.7Q823.9 358.5 826.4 358.5L826.4 358.5Q830.1 358.5 832.1 360.8Q834.2 363.1 834.2 367.2L834.2 367.2ZM829.3 366.0L829.3 365.7Q829.2 361.8 826.5 361.8L826.5 361.8Q825.2 361.8 824.5 362.8Q823.8 363.7 823.6 366.0L823.6 366.0L829.3 366.0ZM838.9 370.8Q840.1 370.8 841.0 371.6Q841.8 372.4 841.8 373.6L841.8 373.6Q841.8 374.8 841.0 375.7Q840.1 376.5 838.9 376.5L838.9 376.5Q837.7 376.5 836.9 375.7Q836.0 374.8 836.0 373.6L836.0 373.6Q836.0 372.4 836.9 371.6Q837.7 370.8 838.9 370.8L838.9 370.8Z "/></g><mask id="satori_om-id-1"><rect x="0" y="440" width="960" height="100" fill="#fff"/></mask></svg>