<svg width="960" height="540" viewBox="0 0 960 540" xmlns="http://www.w3.org/2000/svg"><mask id="satori_om-id"><rect x="0" y="0" width="960" height="540" fill="#fff"/></mask><rect x="0" y="0" width="960" height="540" fill="#fff"/><mask id="satori_om-id-0"><rect x="0" y="0" width="960" height="440" fill="#fff"/></mask><mask id="satori_om-id-0-0"><rect x="0" y="27" width="960" height="80" fill="#fff"/></mask><mask id="satori_om-id-0-0-0"><rect x="104" y="27" width="753" height="80" fill="#fff"/></mask><g  ><path fill="#000" d="M158.5 38.6L171.0 38.6L161.7 94L144.6 94L137.8 51.7L130.5 94L113.8 94L104.7 38.6L117.8 38.6L123.4 84.1L131.0 38.6L144.8 38.6L152 84.1L158.5 38.6ZM201.6 50.2Q207.1 50.2 210.2 53.5Q213.4 56.9 213.4 63.0L213.4 63.0L213.4 94L200.7 94L200.7 65.1Q200.7 61.9 199.7 60.7Q198.6 59.4 196.7 59.4L196.7 59.4Q192.9 59.4 189.4 64.9L189.4 64.9L189.4 94L176.7 94L176.7 34.6L189.4 33.4L189.4 56.1Q192 53.1 195.0 51.6Q197.9 50.2 201.6 50.2L201.6 50.2ZM256.6 81.7Q256.6 84.1 257.3 85.2Q258 86.3 259.5 86.9L259.5 86.9L256.9 95.1Q253.0 94.8 250.5 93.4Q248 92 246.6 89.0L246.6 89.0Q242.5 95.4 233.8 95.4L233.8 95.4Q227.5 95.4 223.8 91.7Q220 88 220 82.1L220 82.1Q220 75.1 225.1 71.4Q230.2 67.8 239.9 67.8L239.9 67.8L244.2 67.8L244.2 65.9Q244.2 62.2 242.6 60.8Q241.0 59.4 237.0 59.4L237.0 59.4Q235.0 59.4 232 60.0Q229.0 60.6 225.9 61.6L225.9 61.6L223.0 53.3Q227.0 51.8 231.2 51.0Q235.4 50.2 239.0 50.2L239.0 50.2Q248.2 50.2 252.4 53.9Q256.6 57.7 256.6 65.2L256.6 65.2L256.6 81.7ZM237.5 86.3Q241.8 86.3 244.2 82.2L244.2 82.2L244.2 74.7L241.1 74.7Q236.8 74.7 234.7 76.2Q232.6 77.8 232.6 81.0L232.6 81.0Q232.6 83.5 233.9 84.9Q235.2 86.3 237.5 86.3L237.5 86.3ZM289.1 84L293.4 92Q291.0 93.6 288.0 94.5Q284.9 95.4 281.8 95.4L281.8 95.4Q267.9 95.3 267.9 80L267.9 80L267.9 60.3L261.9 60.3L261.9 51.5L267.9 51.5L267.9 42.3L280.6 40.9L280.6 51.5L290.3 51.5L289.0 60.3L280.6 60.3L280.6 79.8Q280.6 82.8 281.5 84.1Q282.5 85.4 284.6 85.4L284.6 85.4Q286.7 85.4 289.1 84L289.1 84ZM306.3 60.9L298 60.9L296.5 38.6L307.9 38.6L306.3 60.9ZM331.6 50.2Q336.2 50.2 340.2 51.5Q344.2 52.9 347.2 55.4L347.2 55.4L342.6 62.5Q337.4 59.2 332.1 59.2L332.1 59.2Q329.6 59.2 328.3 60.0Q327.0 60.9 327.0 62.4L327.0 62.4Q327.0 63.6 327.6 64.4Q328.2 65.1 330 65.9Q331.8 66.7 335.7 67.8L335.7 67.8Q342.3 69.8 345.6 72.8Q348.8 75.9 348.8 81.4L348.8 81.4Q348.8 85.7 346.3 88.8Q343.8 92 339.5 93.7Q335.2 95.4 329.9 95.4L329.9 95.4Q324.6 95.4 320.0 93.7Q315.4 92 312.2 89.0L312.2 89.0L318.3 82.2Q323.7 86.3 329.6 86.3L329.6 86.3Q332.5 86.3 334.1 85.3Q335.8 84.2 335.8 82.3L335.8 82.3Q335.8 80.8 335.1 79.9Q334.5 79.0 332.6 78.3Q330.8 77.5 326.8 76.4L326.8 76.4Q320.5 74.6 317.4 71.3Q314.2 68 314.2 63.1L314.2 63.1Q314.2 59.4 316.4 56.5Q318.5 53.6 322.4 51.9Q326.4 50.2 331.6 50.2L331.6 50.2Z M396.6 84L400.9 92Q398.6 93.6 395.5 94.5Q392.4 95.4 389.4 95.4L389.4 95.4Q375.4 95.3 375.4 80L375.4 80L375.4 60.3L369.4 60.3L369.4 51.5L375.4 51.5L375.4 42.3L388.1 40.9L388.1 51.5L397.8 51.5L396.5 60.3L388.1 60.3L388.1 79.8Q388.1 82.8 389.0 84.1Q390 85.4 392.1 85.4L392.1 85.4Q394.2 85.4 396.6 84L396.6 84ZM430.0 50.2Q435.5 50.2 438.6 53.5Q441.8 56.9 441.8 63.0L441.8 63.0L441.8 94L429.1 94L429.1 65.1Q429.1 61.9 428.1 60.7Q427.0 59.4 425.1 59.4L425.1 59.4Q421.3 59.4 417.8 64.9L417.8 64.9L417.8 94L405.1 94L405.1 34.6L417.8 33.4L417.8 56.1Q420.4 53.1 423.4 51.6Q426.3 50.2 430.0 50.2L430.0 50.2ZM488.3 71.9Q488.3 74.6 488.1 76.5L488.1 76.5L461.8 76.5Q462.4 81.8 464.8 84Q467.2 86.2 471.4 86.2L471.4 86.2Q474 86.2 476.4 85.2Q478.8 84.3 481.6 82.4L481.6 82.4L486.8 89.4Q479.4 95.4 470.2 95.4L470.2 95.4Q459.9 95.4 454.4 89.3Q448.9 83.2 448.9 73.0L448.9 73.0Q448.9 66.5 451.2 61.3Q453.5 56.2 458 53.2Q462.5 50.2 468.7 50.2L468.7 50.2Q477.9 50.2 483.1 55.9Q488.3 61.7 488.3 71.9L488.3 71.9ZM475.9 68.9L475.9 68.3Q475.8 58.6 469.0 58.6L469.0 58.6Q465.8 58.6 464.0 61.0Q462.2 63.4 461.8 68.9L461.8 68.9L475.9 68.9Z M563.9 38.6L576.4 38.6L567.1 94L550.1 94L543.2 51.7L535.9 94L519.3 94L510.2 38.6L523.3 38.6L528.8 84.1L536.5 38.6L550.2 38.6L557.4 84.1L563.9 38.6ZM619.2 71.9Q619.2 74.6 619.0 76.5L619.0 76.5L592.6 76.5Q593.3 81.8 595.7 84Q598.1 86.2 602.3 86.2L602.3 86.2Q604.9 86.2 607.3 85.2Q609.7 84.3 612.5 82.4L612.5 82.4L617.7 89.4Q610.2 95.4 601.1 95.4L601.1 95.4Q590.8 95.4 585.3 89.3Q579.8 83.2 579.8 73.0L579.8 73.0Q579.8 66.5 582.1 61.3Q584.4 56.2 588.9 53.2Q593.4 50.2 599.6 50.2L599.6 50.2Q608.8 50.2 614 55.9Q619.2 61.7 619.2 71.9L619.2 71.9ZM606.8 68.9L606.8 68.3Q606.6 58.6 599.9 58.6L599.9 58.6Q596.6 58.6 594.8 61.0Q593.0 63.4 592.6 68.9L592.6 68.9L606.8 68.9ZM660.1 81.7Q660.1 84.1 660.8 85.2Q661.4 86.3 663.0 86.9L663.0 86.9L660.3 95.1Q656.4 94.8 653.9 93.4Q651.4 92 650.1 89.0L650.1 89.0Q645.9 95.4 637.3 95.4L637.3 95.4Q631.0 95.4 627.2 91.7Q623.4 88 623.4 82.1L623.4 82.1Q623.4 75.1 628.6 71.4Q633.7 67.8 643.4 67.8L643.4 67.8L647.7 67.8L647.7 65.9Q647.7 62.2 646.1 60.8Q644.5 59.4 640.5 59.4L640.5 59.4Q638.4 59.4 635.4 60.0Q632.5 60.6 629.4 61.6L629.4 61.6L626.5 53.3Q630.5 51.8 634.7 51.0Q638.9 50.2 642.5 50.2L642.5 50.2Q651.6 50.2 655.8 53.9Q660.1 57.7 660.1 65.2L660.1 65.2L660.1 81.7ZM641.0 86.3Q645.3 86.3 647.7 82.2L647.7 82.2L647.7 74.7L644.6 74.7Q640.2 74.7 638.1 76.2Q636 77.8 636 81.0L636 81.0Q636 83.5 637.3 84.9Q638.6 86.3 641.0 86.3L641.0 86.3ZM692.6 84L696.8 92Q694.5 93.6 691.4 94.5Q688.3 95.4 685.3 95.4L685.3 95.4Q671.4 95.3 671.4 80L671.4 80L671.4 60.3L665.4 60.3L665.4 51.5L671.4 51.5L671.4 42.3L684 40.9L684 51.5L693.8 51.5L692.4 60.3L684 60.3L684 79.8Q684 82.8 685.0 84.1Q685.9 85.4 688 85.4L688 85.4Q690.2 85.4 692.6 84L692.6 84ZM725.9 50.2Q731.4 50.2 734.6 53.5Q737.7 56.9 737.7 63.0L737.7 63.0L737.7 94L725.0 94L725.0 65.1Q725.0 61.9 724 60.7Q723.0 59.4 721.0 59.4L721.0 59.4Q717.2 59.4 713.7 64.9L713.7 64.9L713.7 94L701.0 94L701.0 34.6L713.7 33.4L713.7 56.1Q716.3 53.1 719.3 51.6Q722.2 50.2 725.9 50.2L725.9 50.2ZM784.2 71.9Q784.2 74.6 784 76.5L784 76.5L757.7 76.5Q758.3 81.8 760.7 84Q763.1 86.2 767.4 86.2L767.4 86.2Q769.9 86.2 772.3 85.2Q774.7 84.3 777.5 82.4L777.5 82.4L782.7 89.4Q775.3 95.4 766.2 95.4L766.2 95.4Q755.8 95.4 750.3 89.3Q744.8 83.2 744.8 73.0L744.8 73.0Q744.8 66.5 747.1 61.3Q749.4 56.2 753.9 53.2Q758.4 50.2 764.6 50.2L764.6 50.2Q773.8 50.2 779.0 55.9Q784.2 61.7 784.2 71.9L784.2 71.9ZM771.8 68.9L771.8 68.3Q771.7 58.6 765.0 58.6L765.0 58.6Q761.7 58.6 759.9 61.0Q758.1 63.4 757.7 68.9L757.7 68.9L771.8 68.9ZM814.4 50.3Q816.7 50.3 818.6 50.9L818.6 50.9L816.6 63.1Q814.2 62.6 812.8 62.6L812.8 62.6Q809.0 62.6 807.1 65.2Q805.1 67.8 804 73.0L804 73.0L804 94L791.4 94L791.4 51.5L802.4 51.5L803.4 59.8Q804.9 55.4 807.8 52.8Q810.7 50.3 814.4 50.3L814.4 50.3ZM838.3 37.2Q843.9 37.2 847.9 39Q851.8 40.8 853.8 43.8Q855.8 46.9 855.8 50.6L855.8 50.6Q855.8 53.8 854.7 56.2Q853.5 58.5 851.9 59.9Q850.3 61.4 847.7 63.3L847.7 63.3Q844.5 65.4 843.0 67.2Q841.4 68.9 841.4 71.6L841.4 71.6L841.4 73.6L829.9 73.6L829.9 71.1Q829.9 67.4 831.1 64.8Q832.2 62.2 833.9 60.7Q835.5 59.2 838 57.4L838 57.4Q840.4 55.8 841.5 54.6Q842.6 53.4 842.6 51.7L842.6 51.7Q842.6 49.5 841.2 48.3Q839.7 47.1 837.0 47.1L837.0 47.1Q832 47.1 827.7 52L827.7 52L819.6 45.8Q826.9 37.2 838.3 37.2L838.3 37.2ZM835.8 80.9Q838.8 80.9 840.9 83Q843.0 85.1 843.0 88.1L843.0 88.1Q843.0 91.1 840.9 93.2Q838.8 95.4 835.8 95.4L835.8 95.4Q832.9 95.4 830.8 93.2Q828.6 91.1 828.6 88.1L828.6 88.1Q828.6 85.1 830.8 83Q832.9 80.9 835.8 80.9L835.8 80.9Z "/></g><mask id="satori_om-id-0-1"><rect x="0" y="115" width="960" height="110" fill="#fff"/></mask><mask id="satori_om-id-0-1-0"><rect x="90" y="115" width="780" height="110" fill="#fff"/></mask><mask id="satori_om-id-0-1-0-0"><rect x="90" y="138" width="71" height="64" fill="#fff"/></mask><g  ><path fill="#333" d="M90 169.9L90 169.9Q90 168.7 90.8 167.8L90.8 167.8Q91.7 167.0 92.8 167.0L92.8 167.0L99.7 167.0Q100.8 167.0 101.6 167.9Q102.3 168.7 102.3 169.9Q102.3 171.1 101.6 171.9Q100.8 172.8 99.7 172.8L99.7 172.8L92.8 172.8Q91.7 172.8 90.8 171.9Q90 171.1 90 169.9ZM99.5 193L99.5 193Q99.5 191.8 100.3 191.0L100.3 191.0L105.2 186.2Q106.0 185.4 107.2 185.4L107.2 185.4Q108.4 185.4 109.2 186.2Q110.0 186.9 110.0 188.1L110.0 188.1Q110.0 189.3 109.2 190.2L109.2 190.2L104.4 195.0Q102.4 196.6 100.3 195.0L100.3 195.0Q99.5 194.1 99.5 193ZM99.5 146.8L99.5 146.8Q99.5 145.7 100.3 144.8L100.3 144.8Q101.3 144 102.4 144L102.4 144Q103.5 144 104.4 144.8L104.4 144.8L109.2 149.7Q110.0 150.5 110.0 151.7L110.0 151.7Q110.0 152.9 109.2 153.7Q108.4 154.5 107.2 154.5L107.2 154.5Q106.0 154.5 105.2 153.7L105.2 153.7L100.3 148.9Q99.5 148.1 99.5 146.8ZM108.0 169.9L108.0 169.9Q108.0 165.3 110.4 161.2Q112.7 157.2 116.7 154.9Q120.8 152.5 125.4 152.5L125.4 152.5Q128.9 152.5 132.1 153.9Q135.3 155.3 137.7 157.6Q140 160.0 141.4 163.2Q142.8 166.4 142.8 169.9L142.8 169.9Q142.8 174.6 140.4 178.6Q138.1 182.6 134.1 184.9Q130.1 187.3 125.4 187.3Q120.7 187.3 116.7 184.9Q112.7 182.6 110.4 178.6Q108.0 174.6 108.0 169.9ZM113.7 169.9L113.7 169.9Q113.7 174.8 117.1 178.2Q120.5 181.7 125.4 181.7Q130.3 181.7 133.7 178.2Q137.2 174.8 137.2 169.9L137.2 169.9Q137.2 165.1 133.7 161.7Q130.3 158.3 125.4 158.3L125.4 158.3Q120.6 158.3 117.1 161.7Q113.7 165.1 113.7 169.9ZM122.6 202.4L122.6 195.8Q122.6 194.6 123.4 193.8Q124.2 193 125.4 193L125.4 193Q126.6 193 127.4 193.8Q128.3 194.6 128.3 195.8L128.3 195.8L128.3 202.4Q128.3 203.7 127.4 204.5Q126.6 205.3 125.4 205.3Q124.2 205.3 123.4 204.5Q122.6 203.7 122.6 202.4L122.6 202.4ZM122.6 144.2L122.6 144.2L122.6 137.3Q122.6 136.2 123.4 135.3Q124.3 134.5 125.4 134.5Q126.6 134.5 127.4 135.3Q128.3 136.2 128.3 137.3L128.3 137.3L128.3 144.2Q128.3 145.3 127.4 146.1Q126.6 146.8 125.4 146.8Q124.2 146.8 123.4 146.1Q122.6 145.3 122.6 144.2ZM141.0 188.1L141.0 188.1Q141.0 186.9 141.7 186.2L141.7 186.2Q142.5 185.4 143.6 185.4L143.6 185.4Q144.8 185.4 145.6 186.2L145.6 186.2L150.5 191.0Q151.3 191.8 151.3 193Q151.3 194.2 150.5 195.0L150.5 195.0Q148.5 196.5 146.5 195.0L146.5 195.0L141.7 190.2Q141.0 189.4 141.0 188.1ZM141.0 151.7L141.0 151.7Q141.0 150.4 141.7 149.7L141.7 149.7L146.5 144.8Q147.3 144 148.4 144L148.4 144Q149.6 144 150.5 144.8Q151.3 145.7 151.3 146.8L151.3 146.8Q151.3 148.1 150.5 148.9L150.5 148.9L145.6 153.7Q144.7 154.5 143.6 154.5L143.6 154.5Q142.5 154.5 141.7 153.7Q141.0 152.9 141.0 151.7ZM149.3 171.9Q148.5 171.1 148.5 169.9Q148.5 168.7 149.3 167.8L149.3 167.8Q150.1 167.0 151.2 167.0L151.2 167.0L158.0 167.0Q159.1 167.0 160.0 167.9Q160.8 168.8 160.8 169.9Q160.8 171.1 160.0 171.9Q159.1 172.8 158.0 172.8L158.0 172.8L151.2 172.8Q150.1 172.8 149.3 171.9Z "/></g><mask id="satori_om-id-0-1-0-1"><rect x="228" y="138" width="90" height="64" fill="#fff"/></mask><g  ><path fill="#333" d="M228 177.5L228 177.5Q228 182 230.2 185.8Q232.4 189.6 236.2 191.8Q240.0 194.0 244.4 194.0L244.4 194.0L280.5 194.0Q285 194.0 288.8 191.8Q292.6 189.6 294.8 185.8Q297.1 182 297.1 177.5L297.1 177.5Q297.1 174.2 295.7 170.8L295.7 170.8Q299.5 166.2 299.5 159.8L299.5 159.8Q299.5 156.3 298.1 153.0Q296.7 149.8 294.4 147.4Q292.0 145.1 288.8 143.7Q285.6 142.3 282 142.3L282 142.3Q274.6 142.3 269.1 148.2L269.1 148.2Q265.2 146.0 260.1 146.0L260.1 146.0Q253.0 146.0 247.6 150.3Q242.2 154.7 240.7 161.5L240.7 161.5Q235.1 162.8 231.5 167.3Q228 171.7 228 177.5ZM233.7 177.5L233.7 177.5Q233.7 173.3 236.5 170.3Q239.3 167.3 243.5 166.8L243.5 166.8L245.2 166.7Q245.8 166.7 245.8 166.1L245.8 166.1L246 164.3Q246.7 158.8 250.7 155.2Q254.7 151.6 260.1 151.6L260.1 151.6Q265.6 151.6 269.6 155.2Q273.7 158.9 274.2 164.3L274.2 164.3L274.5 166.2Q274.6 166.8 275.2 166.8L275.2 166.8L280.5 166.8Q284.9 166.8 288.1 169.9Q291.3 173.1 291.3 177.5L291.3 177.5Q291.3 182.0 288.1 185.2Q285.0 188.4 280.5 188.4L280.5 188.4L244.4 188.4Q240.1 188.4 236.9 185.2Q233.7 182.0 233.7 177.5ZM256.0 136.6L256.0 136.6Q256.0 137.8 256.8 138.7L256.8 138.7L259.0 140.8Q260.3 141.8 261.2 141.7L261.2 141.7Q262.2 141.7 263 140.8Q263.8 139.9 263.8 138.7Q263.8 137.5 262.9 136.8L262.9 136.8L261.0 134.6Q260.1 133.8 258.9 133.8L258.9 133.8Q257.7 133.8 256.9 134.6Q256.0 135.4 256.0 136.6ZM273.8 151.3L273.8 151.3Q277.3 148 282 148L282 148Q286.9 148 290.4 151.4Q293.8 154.9 293.8 159.8L293.8 159.8Q293.8 162.9 292.2 165.9L292.2 165.9Q287.3 161.2 280.5 161.2L280.5 161.2L279.5 161.2Q278.2 155.7 273.8 151.3ZM279.3 126.9L279.3 133.8Q279.3 135.0 280.0 135.8Q280.8 136.6 282 136.6L282 136.6Q283.3 136.6 284.1 135.8Q284.8 135.0 284.8 133.8L284.8 133.8L284.8 126.9Q284.8 125.8 284.0 125.0Q283.3 124.2 282 124.2L282 124.2Q280.8 124.2 280.0 125.0Q279.3 125.8 279.3 126.9L279.3 126.9ZM297.7 141.4L297.7 141.4Q297.7 142.7 298.4 143.5L298.4 143.5Q299.5 144.3 300.5 144.3L300.5 144.3Q301.4 144.3 302.4 143.5L302.4 143.5L307.2 138.7Q308.0 137.8 308.0 136.6L308.0 136.6Q308.0 135.4 307.2 134.6Q306.4 133.8 305.3 133.8L305.3 133.8Q304.1 133.8 303.3 134.6L303.3 134.6L298.4 139.3Q297.7 140.3 297.7 141.4ZM301.1 178.8Q300.3 179.7 300.3 180.8Q300.3 182.0 301.2 182.9L301.2 182.9L303.3 185.0Q304.1 185.8 305.3 185.8Q306.4 185.8 307.2 185.0Q308.0 184.2 308.0 182.9L308.0 182.9Q308.0 181.8 307.2 181L307.2 181L305.1 178.8Q304.3 178.0 303.2 178.0L303.2 178.0Q302.0 178.0 301.1 178.8ZM306.0 157.8Q305.2 158.7 305.2 159.8Q305.2 161.0 306.1 161.8L306.1 161.8Q306.9 162.6 308.1 162.6L308.1 162.6L314.9 162.6Q316.1 162.6 316.8 161.8Q317.6 161 317.6 159.8Q317.6 158.6 316.8 157.8Q316.1 157.0 314.9 157.0L314.9 157.0L308.1 157.0Q306.9 157.0 306.0 157.8Z "/></g><mask id="satori_om-id-0-1-0-2"><rect x="385" y="138" width="75" height="64" fill="#fff"/></mask><g  ><path fill="#333" d="M385 179.8L385 179.8Q385 174.8 388.1 171.0Q391.2 167.1 396.0 166.0L396.0 166.0Q397.3 160.2 402.0 156.4Q406.6 152.7 412.7 152.7L412.7 152.7Q418.6 152.7 423.2 156.3Q427.9 160.0 429.3 165.7L429.3 165.7L430.2 165.7Q436.0 165.7 440.2 169.8Q444.3 173.9 444.3 179.8Q444.3 185.7 440.2 189.9Q436.0 194.0 430.2 194.0L430.2 194.0L399.2 194.0Q396.3 194.0 393.7 192.9Q391.1 191.8 389.2 189.9Q387.3 188.0 386.1 185.3Q385 182.7 385 179.8ZM389.8 179.8L389.8 179.8Q389.8 183.6 392.6 186.4Q395.3 189.1 399.2 189.1L399.2 189.1L430.2 189.1Q434.0 189.1 436.8 186.4Q439.5 183.6 439.5 179.8Q439.5 176 436.8 173.3Q434.0 170.6 430.2 170.6L430.2 170.6L425.5 170.6Q425.0 170.6 425.0 170.1L425.0 170.1L424.8 168.4Q424.3 163.7 420.9 160.6Q417.4 157.5 412.7 157.5Q408.0 157.5 404.5 160.6Q401 163.8 400.6 168.4L400.6 168.4L400.3 169.8Q400.3 170.3 399.8 170.3L399.8 170.3L398.3 170.6Q394.7 170.9 392.3 173.5Q389.8 176.2 389.8 179.8ZM419.3 150.8L419.3 150.8Q418.8 151.2 419.6 151.4L419.6 151.4Q421.8 152.4 423.2 153.3L423.2 153.3Q423.8 153.4 423.9 153.2L423.9 153.2Q427.0 150.3 431 150.3Q435.0 150.3 438.0 153.0Q440.9 155.7 441.3 159.7L441.3 159.7L441.6 161.8L446.3 161.8Q449.6 161.8 451.9 164.1Q454.3 166.5 454.3 169.7L454.3 169.7Q454.3 172.7 452.2 174.9Q450.1 177.1 447.1 177.5L447.1 177.5Q446.6 177.5 446.6 178L446.6 178L446.6 181.8Q446.6 182.3 447.1 182.3L447.1 182.3Q452.1 182 455.6 178.3Q459.1 174.7 459.1 169.7L459.1 169.7Q459.1 164.4 455.3 160.7Q451.6 156.9 446.3 156.9L446.3 156.9L445.8 156.9Q444.5 151.9 440.3 148.7Q436.2 145.5 431 145.5L431 145.5Q423.9 145.5 419.3 150.8Z "/></g><mask id="satori_om-id-0-1-0-3"><rect x="526" y="138" width="70" height="64" fill="#fff"/></mask><g  ><path fill="#333" d="M526 177.5L526 177.5Q526 171.8 529.6 167.3Q533.2 162.8 538.7 161.5L538.7 161.5Q540.3 154.7 545.7 150.3Q551.2 146.0 558.2 146.0L558.2 146.0Q565.1 146.0 570.5 150.2Q575.9 154.5 577.5 161.2L577.5 161.2L578.6 161.2Q583.0 161.2 586.8 163.4Q590.7 165.5 592.9 169.3Q595.1 173.1 595.1 177.5L595.1 177.5Q595.1 181.9 593.0 185.7Q590.9 189.4 587.2 191.7Q583.6 193.9 579.2 194.1L579.2 194.1Q578.6 194.1 578.6 193.5L578.6 193.5L578.6 189.1Q578.6 188.5 579.2 188.5L579.2 188.5Q583.5 188.3 586.5 185.1Q589.5 181.9 589.5 177.5Q589.5 173.2 586.3 170.0Q583 166.8 578.6 166.8L578.6 166.8L573.2 166.8Q572.6 166.8 572.6 166.2L572.6 166.2L572.3 164.3Q571.8 158.9 567.7 155.2Q563.6 151.6 558.2 151.6L558.2 151.6Q552.8 151.6 548.7 155.2Q544.7 158.9 544.2 164.3L544.2 164.3L543.9 166.1Q543.9 166.7 543.3 166.7L543.3 166.7L541.5 166.8Q537.3 167.3 534.5 170.3Q531.7 173.4 531.7 177.5L531.7 177.5Q531.7 181.9 534.7 185.1Q537.7 188.3 542.0 188.5L542.0 188.5Q542.5 188.5 542.5 189.1L542.5 189.1L542.5 193.5Q542.5 194.1 542.0 194.1L542.0 194.1Q535.3 193.8 530.6 189.0Q526 184.2 526 177.5ZM543.8 199.8L543.8 199.8Q543.8 199.6 544.0 199.2L544.0 199.2L549.4 179.9Q549.7 179.0 550.5 178.5Q551.3 178.0 552.0 178.0L552.0 178.0Q552.4 178.0 552.8 178.1L552.8 178.1Q554.0 178.3 554.6 179.3Q555.3 180.3 554.9 181.5L554.9 181.5L549.5 200.6Q548.8 202.7 546.7 202.7L546.7 202.7Q546.5 202.7 546.3 202.7L546.3 202.7Q546.1 202.6 546 202.6L546 202.6Q544.9 202.3 544.4 201.5Q543.8 200.7 543.8 199.8ZM552.6 209.2L552.6 209.2L560.7 179.9Q560.9 179.0 561.7 178.5Q562.5 178.0 563.3 178.0L563.3 178.0Q563.8 178.0 564.3 178.1L564.3 178.1Q565.3 178.4 565.9 179.4Q566.4 180.3 566.1 181.5L566.1 181.5L558 210.8Q557.8 211.6 557.0 212.2Q556.3 212.8 555.3 212.8L555.3 212.8Q554.9 212.8 554.5 212.7L554.5 212.7Q553.5 212.4 552.8 211.3L552.8 211.3Q552.2 210.5 552.6 209.2ZM566.3 199.9L566.3 199.9Q566.3 199.7 566.5 199.2L566.5 199.2L571.9 179.9Q572.2 179.0 572.9 178.5Q573.7 178.0 574.5 178.0L574.5 178.0Q574.9 178.0 575.3 178.1L575.3 178.1Q576.4 178.3 576.9 179.1Q577.4 179.8 577.4 180.7L577.4 180.7Q577.4 180.8 577.3 181.1Q577.3 181.4 577.3 181.5L577.3 181.5L571.8 200.6Q571.7 201.6 570.9 202.1Q570.2 202.7 569.2 202.7L569.2 202.7L568.4 202.6Q567.4 202.3 566.9 201.5Q566.3 200.7 566.3 199.9Z "/></g><mask id="satori_om-id-0-1-0-4"><rect x="663" y="138" width="70" height="64" fill="#fff"/></mask><g  ><path fill="#333" d="M663 177.5L663 177.5Q663 183.1 666.3 187.4Q669.6 191.8 674.9 193.4L674.9 193.4L672.7 199Q672.6 199.7 673.2 199.7L673.2 199.7L680.3 199.7L677 214.1L677.9 214.1L691 194.9Q691.2 194.7 691.0 194.5Q690.9 194.2 690.6 194.2L690.6 194.2L683.3 194.2L691.6 178.8Q691.9 178.0 691.1 178.0L691.1 178.0L681.3 178.0Q680.8 178.0 680.5 178.5L680.5 178.5L676.9 188.1Q673.4 187.2 671.0 184.2Q668.7 181.3 668.7 177.5L668.7 177.5Q668.7 173.4 671.5 170.3Q674.3 167.3 678.5 166.8L678.5 166.8L680.3 166.5Q680.9 166.5 680.9 165.9L680.9 165.9L681.2 164.3Q681.7 158.8 685.7 155.2Q689.8 151.5 695.3 151.5L695.3 151.5Q700.7 151.5 704.8 155.2Q708.8 158.8 709.4 164.3L709.4 164.3L709.7 166.2Q709.7 166.8 710.3 166.8L710.3 166.8L715.6 166.8Q720.1 166.8 723.3 169.9Q726.6 173.1 726.6 177.5L726.6 177.5Q726.6 181.8 723.6 184.9Q720.6 188 716.3 188.3L716.3 188.3Q715.6 188.3 715.6 188.9L715.6 188.9L715.6 193.5Q715.6 194.1 716.3 194.1L716.3 194.1Q722.9 193.8 727.5 189.0Q732.2 184.2 732.2 177.5L732.2 177.5Q732.2 173.0 730.0 169.2Q727.8 165.4 723.9 163.2Q720.1 161.0 715.6 161.0L715.6 161.0L714.6 161.0Q712.9 154.4 707.5 150.2Q702.1 145.9 695.3 145.9L695.3 145.9Q688.2 145.9 682.7 150.3Q677.3 154.7 675.7 161.5L675.7 161.5Q670.2 162.8 666.6 167.3Q663 171.8 663 177.5ZM690.2 209.9L690.2 209.9Q690.2 211.9 692.1 212.5L692.1 212.5Q692.2 212.5 692.5 212.5Q692.8 212.6 692.9 212.6L692.9 212.6Q693.8 212.6 694.6 212.1Q695.4 211.6 695.7 210.5L695.7 210.5L703.2 181.5Q703.5 180.3 702.9 179.3Q702.4 178.4 701.3 178.0L701.3 178.0Q700.4 177.9 700.4 177.9L700.4 177.9Q699.6 177.9 698.8 178.4Q698.1 178.9 697.8 179.9L697.8 179.9L690.3 209Q690.2 209.4 690.2 209.9ZM704 199.7L704 199.7Q704 200.3 704.3 200.9L704.3 200.9Q705.0 202.0 706.0 202.4L706.0 202.4Q706.6 202.6 707.0 202.6Q707.5 202.6 708.1 202.3L708.1 202.3Q709.1 201.9 709.5 200.4L709.5 200.4L714.3 181.5Q714.5 180.8 714.5 180.6L714.5 180.6Q714.5 179.8 713.9 179.1Q713.4 178.3 712.4 178.0L712.4 178.0Q711.6 177.9 711.5 177.9L711.5 177.9Q710.7 177.9 710.0 178.4Q709.3 178.9 709.0 179.9L709.0 179.9L704.1 198.9Q704.1 199.0 704.0 199.3Q704 199.6 704 199.7Z "/></g><mask id="satori_om-id-0-1-0-5"><rect x="800" y="138" width="70" height="64" fill="#fff"/></mask><g  ><path fill="#333" d="M800 177.7L800 177.7Q800 171.9 803.5 167.4Q807.1 162.9 812.7 161.5L812.7 161.5Q814.3 154.7 819.7 150.3Q825.2 146.0 832.2 146.0L832.2 146.0Q839.1 146.0 844.5 150.2Q849.9 154.5 851.5 161.2L851.5 161.2L852.6 161.2Q857.0 161.2 860.8 163.4Q864.7 165.6 866.9 169.4Q869.1 173.2 869.1 177.7L869.1 177.7Q869.1 184.3 864.5 189.1Q859.8 193.8 853.2 194.1L853.2 194.1Q852.6 194.1 852.6 193.5L852.6 193.5L852.6 189.1Q852.6 188.5 853.2 188.5L853.2 188.5Q857.5 188.3 860.5 185.1Q863.5 181.9 863.5 177.7L863.5 177.7Q863.5 173.2 860.3 170Q857.1 166.8 852.6 166.8L852.6 166.8L847.2 166.8Q846.6 166.8 846.6 166.2L846.6 166.2L846.3 164.3Q845.8 158.9 841.7 155.2Q837.6 151.6 832.2 151.6L832.2 151.6Q826.7 151.6 822.7 155.3Q818.6 158.9 818.1 164.4L818.1 164.4L817.9 166.1Q817.9 166.7 817.3 166.7L817.3 166.7L815.5 166.9Q811.3 167.3 808.5 170.4Q805.7 173.5 805.7 177.7L805.7 177.7Q805.7 181.9 808.7 185.1Q811.7 188.3 816.0 188.5L816.0 188.5Q816.5 188.5 816.5 189.1L816.5 189.1L816.5 193.5Q816.5 194.1 816.0 194.1L816.0 194.1Q809.3 193.8 804.6 189.1Q800 184.3 800 177.7ZM821.2 191.2L821.2 191.2Q821.2 190.1 822.0 189.3Q822.8 188.5 824.0 188.5Q825.1 188.5 825.9 189.3Q826.7 190.1 826.7 191.2L826.7 191.2Q826.7 192.4 825.9 193.2Q825.1 194.1 824.0 194.1Q822.8 194.1 822.0 193.2Q821.2 192.4 821.2 191.2ZM822.0 205.3Q821.2 204.5 821.2 203.3Q821.2 202.1 822.0 201.3L822.0 201.3Q822.8 200.6 824.0 200.6Q825.1 200.6 825.9 201.3Q826.7 202.1 826.7 203.3Q826.7 204.5 825.9 205.3Q825.1 206.1 824.0 206.1Q822.8 206.1 822.0 205.3ZM832.7 199.6Q831.8 198.8 831.8 197.7Q831.8 196.5 832.7 195.6L832.7 195.6Q833.5 194.8 834.6 194.8L834.6 194.8Q835.8 194.8 836.6 195.6Q837.5 196.5 837.5 197.7Q837.5 198.8 836.6 199.6Q835.8 200.5 834.6 200.5L834.6 200.5Q833.5 200.5 832.7 199.6ZM832.7 187.5Q831.8 186.8 831.8 185.6Q831.8 184.4 832.7 183.6L832.7 183.6Q833.6 182.8 834.6 182.8L834.6 182.8Q835.8 182.8 836.6 183.6Q837.5 184.4 837.5 185.6Q837.5 186.8 836.6 187.5Q835.8 188.3 834.6 188.3L834.6 188.3Q833.5 188.3 832.7 187.5ZM831.8 209.8L831.8 209.8Q831.8 208.7 832.7 207.8L832.7 207.8Q833.5 207 834.6 207L834.6 207Q835.8 207 836.6 207.8Q837.5 208.7 837.5 209.8Q837.5 211 836.6 211.8Q835.8 212.6 834.6 212.6L834.6 212.6Q833.5 212.6 832.7 211.8Q831.8 211 831.8 209.8ZM842.6 191.2L842.6 191.2Q842.6 190.1 843.4 189.3Q844.3 188.5 845.4 188.5Q846.6 188.5 847.4 189.3Q848.2 190.1 848.2 191.2L848.2 191.2Q848.2 192.4 847.4 193.2Q846.6 194.1 845.4 194.1L845.4 194.1Q844.3 194.1 843.4 193.2Q842.6 192.4 842.6 191.2ZM842.6 203.3L842.6 203.3Q842.6 202.2 843.4 201.3L843.4 201.3Q844.3 200.6 845.4 200.6Q846.6 200.6 847.4 201.3Q848.2 202.1 848.2 203.3Q848.2 204.5 847.4 205.3Q846.6 206.1 845.4 206.1Q844.3 206.1 843.4 205.3Q842.6 204.5 842.6 203.3Z "/></g><mask id="satori_om-id-0-2"><rect x="0" y="261" width="960" height="152" fill="#fff"/></mask><mask id="satori_om-id-0-2-0"><rect x="80" y="261" width="800" height="152" fill="#fff"/></mask><mask id="satori_om-id-0-2-0-0"><rect x="80" y="261" width="800" height="40" fill="#fff"/></mask><mask id="satori_om-id-0-2-0-0-0"><rect x="80" y="261" width="38" height="38" fill="#fff"/></mask><g  ><path fill="#000" d="M87.7 269.4L92.2 269.4L92.2 291L87.3 291L87.3 274.3L82.6 277.1L80.4 273.8L87.7 269.4ZM98.7 285.8Q99.9 285.8 100.7 286.6Q101.6 287.4 101.6 288.6L101.6 288.6Q101.6 289.8 100.7 290.7Q99.9 291.5 98.7 291.5L98.7 291.5Q97.5 291.5 96.6 290.7Q95.8 289.8 95.8 288.6L95.8 288.6Q95.8 287.4 96.6 286.6Q97.5 285.8 98.7 285.8L98.7 285.8Z "/></g><mask id="satori_om-id-0-2-0-0-1"><rect x="118" y="261" width="762" height="40" fill="#fff"/></mask><g  ><path fill="#000" d="M120.1 269.8L133.7 269.8L133.1 273.6L125.3 273.6L125.3 278.9L132.1 278.9L132.1 282.6L125.3 282.6L125.3 288.2L133.7 288.2L133.7 292L120.1 292L120.1 269.8ZM146.8 274.5Q149.0 274.5 150.2 275.8Q151.5 277.2 151.5 279.6L151.5 279.6L151.5 292L146.4 292L146.4 280.4Q146.4 279.2 146.0 278.7Q145.6 278.2 144.8 278.2L144.8 278.2Q143.3 278.2 141.9 280.4L141.9 280.4L141.9 292L136.8 292L136.8 275.0L141.2 275.0L141.6 277.0Q142.7 275.7 143.9 275.1Q145.2 274.5 146.8 274.5L146.8 274.5ZM161.3 274.5Q163.1 274.5 164.7 275.0Q166.3 275.6 167.5 276.5L167.5 276.5L165.6 279.4Q163.6 278.1 161.5 278.1L161.5 278.1Q160.5 278.1 159.9 278.4Q159.4 278.8 159.4 279.4L159.4 279.4Q159.4 279.8 159.6 280.1Q159.9 280.4 160.6 280.8Q161.4 281.1 162.9 281.5L162.9 281.5Q165.6 282.3 166.8 283.5Q168.1 284.8 168.1 286.9L168.1 286.9Q168.1 288.7 167.2 289.9Q166.2 291.2 164.4 291.9Q162.7 292.5 160.6 292.5L160.6 292.5Q158.4 292.5 156.6 291.9Q154.8 291.2 153.5 290.0L153.5 290.0L156.0 287.3Q158.1 288.9 160.5 288.9L160.5 288.9Q161.6 288.9 162.3 288.5Q162.9 288.1 162.9 287.3L162.9 287.3Q162.9 286.7 162.7 286.4Q162.4 286.0 161.7 285.7Q160.9 285.4 159.3 285.0L159.3 285.0Q156.8 284.2 155.6 282.9Q154.3 281.6 154.3 279.6L154.3 279.6Q154.3 278.2 155.2 277.0Q156.0 275.8 157.6 275.2Q159.2 274.5 161.3 274.5L161.3 274.5ZM185.1 275.0L185.1 292L180.7 292L180.5 289.9Q178.6 292.5 175.3 292.5L175.3 292.5Q173.0 292.5 171.8 291.1Q170.6 289.7 170.6 287.2L170.6 287.2L170.6 275.0L175.6 275.0L175.6 286.6Q175.6 287.8 176.0 288.3Q176.4 288.8 177.3 288.8L177.3 288.8Q178.9 288.8 180.0 286.8L180.0 286.8L180.0 275.0L185.1 275.0ZM198.3 274.5Q199.2 274.5 200.0 274.8L200.0 274.8L199.2 279.6Q198.2 279.4 197.6 279.4L197.6 279.4Q196.1 279.4 195.3 280.5Q194.5 281.5 194.1 283.6L194.1 283.6L194.1 292L189.0 292L189.0 275.0L193.5 275.0L193.9 278.3Q194.4 276.5 195.6 275.5Q196.8 274.5 198.3 274.5L198.3 274.5ZM216.7 283.2Q216.7 284.2 216.6 285.0L216.6 285.0L206.1 285.0Q206.3 287.1 207.3 288Q208.2 288.9 209.9 288.9L209.9 288.9Q211.0 288.9 211.9 288.5Q212.9 288.1 214.0 287.4L214.0 287.4L216.1 290.2Q213.1 292.5 209.5 292.5L209.5 292.5Q205.3 292.5 203.1 290.1Q200.9 287.7 200.9 283.6L200.9 283.6Q200.9 281.0 201.8 278.9Q202.8 276.9 204.6 275.7Q206.4 274.5 208.8 274.5L208.8 274.5Q212.5 274.5 214.6 276.8Q216.7 279.1 216.7 283.2L216.7 283.2ZM211.7 282.0L211.7 281.7Q211.7 277.8 209.0 277.8L209.0 277.8Q207.7 277.8 206.9 278.8Q206.2 279.7 206.1 282.0L206.1 282.0L211.7 282.0Z M241.9 275.0L236.5 292.0Q235.5 295.3 233.2 297.1Q230.8 298.9 226.9 299.1L226.9 299.1L226.4 295.6Q228.8 295.2 230.0 294.5Q231.2 293.7 231.9 292L231.9 292L230.1 292L224.9 275.0L230.3 275.0L233.4 288.8L236.7 275.0L241.9 275.0ZM251.1 274.5Q255.0 274.5 257.2 276.8Q259.4 279.2 259.4 283.5L259.4 283.5Q259.4 286.2 258.4 288.3Q257.4 290.3 255.5 291.4Q253.6 292.5 251.1 292.5L251.1 292.5Q247.2 292.5 245.0 290.2Q242.7 287.8 242.7 283.5L242.7 283.5Q242.7 280.8 243.7 278.7Q244.8 276.7 246.6 275.6Q248.5 274.5 251.1 274.5L251.1 274.5ZM251.1 278.2Q249.5 278.2 248.8 279.5Q248.0 280.8 248.0 283.5L248.0 283.5Q248.0 286.3 248.7 287.6Q249.5 288.8 251.1 288.8L251.1 288.8Q252.6 288.8 253.4 287.5Q254.1 286.2 254.1 283.5L254.1 283.5Q254.1 280.7 253.4 279.5Q252.6 278.2 251.1 278.2L251.1 278.2ZM276.7 275.0L276.7 292L272.3 292L272.1 289.9Q270.3 292.5 267.0 292.5L267.0 292.5Q264.6 292.5 263.4 291.1Q262.2 289.7 262.2 287.2L262.2 287.2L262.2 275.0L267.3 275.0L267.3 286.6Q267.3 287.8 267.7 288.3Q268.1 288.8 268.9 288.8L268.9 288.8Q270.5 288.8 271.7 286.8L271.7 286.8L271.7 275.0L276.7 275.0ZM289.9 274.5Q290.8 274.5 291.6 274.8L291.6 274.8L290.8 279.6Q289.8 279.4 289.3 279.4L289.3 279.4Q287.8 279.4 287.0 280.5Q286.2 281.5 285.7 283.6L285.7 283.6L285.7 292L280.7 292L280.7 275.0L285.1 275.0L285.5 278.3Q286.1 276.5 287.3 275.5Q288.4 274.5 289.9 274.5L289.9 274.5Z M311.3 267.7L316.3 268.3L316.3 292L311.9 292L311.6 290.0Q309.8 292.5 306.8 292.5L306.8 292.5Q303.6 292.5 302.0 290.1Q300.3 287.7 300.3 283.5L300.3 283.5Q300.3 280.9 301.2 278.8Q302.0 276.8 303.6 275.6Q305.2 274.5 307.2 274.5L307.2 274.5Q309.7 274.5 311.3 276.1L311.3 276.1L311.3 267.7ZM308.3 288.8Q310.1 288.8 311.3 286.9L311.3 286.9L311.3 279.6Q310.7 278.8 310.0 278.5Q309.4 278.1 308.6 278.1L308.6 278.1Q307.2 278.1 306.4 279.5Q305.6 280.8 305.6 283.5L305.6 283.5Q305.6 286.5 306.3 287.6Q307.0 288.8 308.3 288.8L308.3 288.8ZM335.1 283.2Q335.1 284.2 335.0 285.0L335.0 285.0L324.5 285.0Q324.8 287.1 325.7 288Q326.7 288.9 328.4 288.9L328.4 288.9Q329.4 288.9 330.4 288.5Q331.3 288.1 332.4 287.4L332.4 287.4L334.5 290.2Q331.5 292.5 327.9 292.5L327.9 292.5Q323.8 292.5 321.6 290.1Q319.3 287.7 319.3 283.6L319.3 283.6Q319.3 281.0 320.3 278.9Q321.2 276.9 323.0 275.7Q324.8 274.5 327.3 274.5L327.3 274.5Q331.0 274.5 333.0 276.8Q335.1 279.1 335.1 283.2L335.1 283.2ZM330.2 282.0L330.2 281.7Q330.1 277.8 327.4 277.8L327.4 277.8Q326.1 277.8 325.4 278.8Q324.7 279.7 324.5 282.0L324.5 282.0L330.2 282.0ZM347.4 275.0L352.6 275.0L347.2 292L341.3 292L335.8 275.0L341.3 275.0L344.3 288.2L347.4 275.0ZM354.4 275.0L359.4 275.0L359.4 292L354.4 292L354.4 275.0ZM356.9 266.0Q358.2 266.0 359.0 266.9Q359.9 267.7 359.9 268.9L359.9 268.9Q359.9 270.2 359.0 271.0Q358.2 271.8 356.9 271.8L356.9 271.8Q355.6 271.8 354.7 271.0Q353.9 270.2 353.9 268.9L353.9 268.9Q353.9 267.7 354.7 266.9Q355.6 266.0 356.9 266.0L356.9 266.0ZM370.8 274.5Q372.5 274.5 373.9 275.0Q375.3 275.5 376.6 276.5L376.6 276.5L374.4 279.6Q372.8 278.3 371.2 278.3L371.2 278.3Q369.5 278.3 368.6 279.6Q367.8 280.8 367.8 283.6L367.8 283.6Q367.8 286.3 368.6 287.4Q369.5 288.5 371.1 288.5L371.1 288.5Q372.0 288.5 372.7 288.3Q373.4 288 374.4 287.4L374.4 287.4L376.6 290.5Q374.1 292.5 370.9 292.5L370.9 292.5Q368.3 292.5 366.4 291.4Q364.5 290.3 363.5 288.3Q362.4 286.3 362.4 283.6L362.4 283.6Q362.4 281.0 363.5 278.9Q364.5 276.8 366.4 275.6Q368.3 274.5 370.8 274.5L370.8 274.5ZM393.6 283.2Q393.6 284.2 393.5 285.0L393.5 285.0L382.9 285.0Q383.2 287.1 384.1 288Q385.1 288.9 386.8 288.9L386.8 288.9Q387.8 288.9 388.8 288.5Q389.7 288.1 390.9 287.4L390.9 287.4L392.9 290.2Q390.0 292.5 386.3 292.5L386.3 292.5Q382.2 292.5 380.0 290.1Q377.8 287.7 377.8 283.6L377.8 283.6Q377.8 281.0 378.7 278.9Q379.6 276.9 381.4 275.7Q383.2 274.5 385.7 274.5L385.7 274.5Q389.4 274.5 391.5 276.8Q393.6 279.1 393.6 283.2L393.6 283.2ZM388.6 282.0L388.6 281.7Q388.5 277.8 385.8 277.8L385.8 277.8Q384.5 277.8 383.8 278.8Q383.1 279.7 382.9 282.0L382.9 282.0L388.6 282.0Z M404.0 275.0L409.0 275.0L409.0 292L404.0 292L404.0 275.0ZM406.5 266.0Q407.8 266.0 408.6 266.9Q409.5 267.7 409.5 268.9L409.5 268.9Q409.5 270.2 408.6 271.0Q407.8 271.8 406.5 271.8L406.5 271.8Q405.2 271.8 404.3 271.0Q403.5 270.2 403.5 268.9L403.5 268.9Q403.5 267.7 404.3 266.9Q405.2 266.0 406.5 266.0L406.5 266.0ZM419.0 274.5Q420.8 274.5 422.4 275.0Q424.0 275.6 425.2 276.5L425.2 276.5L423.4 279.4Q421.3 278.1 419.2 278.1L419.2 278.1Q418.2 278.1 417.7 278.4Q417.1 278.8 417.1 279.4L417.1 279.4Q417.1 279.8 417.4 280.1Q417.6 280.4 418.4 280.8Q419.1 281.1 420.6 281.5L420.6 281.5Q423.3 282.3 424.6 283.5Q425.9 284.8 425.9 286.9L425.9 286.9Q425.9 288.7 424.9 289.9Q423.9 291.2 422.2 291.9Q420.4 292.5 418.3 292.5L418.3 292.5Q416.2 292.5 414.3 291.9Q412.5 291.2 411.2 290.0L411.2 290.0L413.7 287.3Q415.8 288.9 418.2 288.9L418.2 288.9Q419.3 288.9 420 288.5Q420.7 288.1 420.7 287.3L420.7 287.3Q420.7 286.7 420.4 286.4Q420.1 286.0 419.4 285.7Q418.7 285.4 417.1 285.0L417.1 285.0Q414.5 284.2 413.3 282.9Q412.0 281.6 412.0 279.6L412.0 279.6Q412.0 278.2 412.9 277.0Q413.7 275.8 415.3 275.2Q416.9 274.5 419.0 274.5L419.0 274.5Z M443.4 274.5Q445.2 274.5 446.6 275.0Q448.0 275.5 449.2 276.5L449.2 276.5L447.1 279.6Q445.5 278.3 443.8 278.3L443.8 278.3Q442.1 278.3 441.3 279.6Q440.4 280.8 440.4 283.6L440.4 283.6Q440.4 286.3 441.3 287.4Q442.1 288.5 443.8 288.5L443.8 288.5Q444.6 288.5 445.3 288.3Q446.0 288 447.0 287.4L447.0 287.4L449.2 290.5Q446.7 292.5 443.5 292.5L443.5 292.5Q440.9 292.5 439.0 291.4Q437.1 290.3 436.1 288.3Q435.1 286.3 435.1 283.6L435.1 283.6Q435.1 281.0 436.1 278.9Q437.1 276.8 439.0 275.6Q440.9 274.5 443.4 274.5L443.4 274.5ZM461.3 274.5Q463.5 274.5 464.8 275.8Q466.0 277.2 466.0 279.6L466.0 279.6L466.0 292L461.0 292L461.0 280.4Q461.0 279.2 460.6 278.7Q460.1 278.2 459.4 278.2L459.4 278.2Q457.8 278.2 456.4 280.4L456.4 280.4L456.4 292L451.4 292L451.4 268.3L456.4 267.7L456.4 276.8Q457.5 275.6 458.7 275.1Q459.9 274.5 461.3 274.5L461.3 274.5ZM483.3 287.1Q483.3 288.0 483.6 288.5Q483.9 288.9 484.5 289.2L484.5 289.2L483.4 292.4Q481.9 292.3 480.9 291.8Q479.9 291.2 479.3 290.0L479.3 290.0Q477.7 292.5 474.2 292.5L474.2 292.5Q471.7 292.5 470.2 291.1Q468.7 289.6 468.7 287.2L468.7 287.2Q468.7 284.4 470.7 283.0Q472.8 281.5 476.7 281.5L476.7 281.5L478.4 281.5L478.4 280.8Q478.4 279.3 477.7 278.7Q477.1 278.1 475.5 278.1L475.5 278.1Q474.7 278.1 473.5 278.4Q472.3 278.6 471.1 279.0L471.1 279.0L469.9 275.7Q471.5 275.1 473.2 274.8Q474.9 274.5 476.3 274.5L476.3 274.5Q480.0 274.5 481.6 276.0Q483.3 277.5 483.3 280.5L483.3 280.5L483.3 287.1ZM475.7 288.9Q477.4 288.9 478.4 287.3L478.4 287.3L478.4 284.3L477.1 284.3Q475.4 284.3 474.6 284.9Q473.7 285.5 473.7 286.8L473.7 286.8Q473.7 287.8 474.2 288.4Q474.8 288.9 475.7 288.9L475.7 288.9ZM496.6 274.5Q497.5 274.5 498.3 274.8L498.3 274.8L497.5 279.6Q496.5 279.4 496.0 279.4L496.0 279.4Q494.4 279.4 493.7 280.5Q492.9 281.5 492.4 283.6L492.4 283.6L492.4 292L487.4 292L487.4 275.0L491.8 275.0L492.2 278.3Q492.8 276.5 494.0 275.5Q495.1 274.5 496.6 274.5L496.6 274.5ZM514.7 272.3L515.9 276Q514.2 276.7 511.0 276.7L511.0 276.7Q512.6 277.4 513.4 278.4Q514.2 279.4 514.2 281.1L514.2 281.1Q514.2 282.7 513.3 284.0Q512.4 285.3 510.8 286.0Q509.2 286.8 507.0 286.8L507.0 286.8Q506 286.8 505.1 286.6L505.1 286.6Q504.8 286.7 504.7 287.0Q504.5 287.2 504.5 287.5L504.5 287.5Q504.5 288 504.9 288.3Q505.3 288.5 506.4 288.5L506.4 288.5L508.9 288.5Q510.9 288.5 512.4 289.2Q513.8 289.8 514.6 290.9Q515.4 292.1 515.4 293.5L515.4 293.5Q515.4 296.1 513.2 297.6Q510.9 299.1 506.5 299.1L506.5 299.1Q503.4 299.1 501.6 298.4Q499.9 297.8 499.1 296.6Q498.4 295.4 498.4 293.6L498.4 293.6L503.0 293.6Q503.0 294.4 503.3 294.8Q503.6 295.3 504.4 295.5Q505.2 295.7 506.7 295.7L506.7 295.7Q508.8 295.7 509.6 295.2Q510.4 294.8 510.4 293.8L510.4 293.8Q510.4 293.1 509.7 292.6Q509.1 292.2 507.9 292.2L507.9 292.2L505.5 292.2Q502.8 292.2 501.5 291.2Q500.2 290.3 500.2 288.8L500.2 288.8Q500.2 287.9 500.8 287.0Q501.3 286.1 502.3 285.5L502.3 285.5Q500.7 284.7 499.9 283.5Q499.2 282.3 499.2 280.7L499.2 280.7Q499.2 277.8 501.3 276.1Q503.3 274.5 506.7 274.5L506.7 274.5Q509.2 274.5 511.0 274.0Q512.8 273.4 514.7 272.3L514.7 272.3ZM506.8 277.8Q505.6 277.8 504.9 278.5Q504.2 279.3 504.2 280.6L504.2 280.6Q504.2 282.0 504.9 282.7Q505.6 283.5 506.8 283.5L506.8 283.5Q508.0 283.5 508.7 282.8Q509.4 282.0 509.4 280.5L509.4 280.5Q509.4 277.8 506.8 277.8L506.8 277.8ZM532.7 283.2Q532.7 284.2 532.6 285.0L532.6 285.0L522.0 285.0Q522.3 287.1 523.2 288Q524.2 288.9 525.9 288.9L525.9 288.9Q526.9 288.9 527.9 288.5Q528.8 288.1 530.0 287.4L530.0 287.4L532.0 290.2Q529.1 292.5 525.4 292.5L525.4 292.5Q521.3 292.5 519.1 290.1Q516.9 287.7 516.9 283.6L516.9 283.6Q516.9 281.0 517.8 278.9Q518.7 276.9 520.5 275.7Q522.3 274.5 524.8 274.5L524.8 274.5Q528.5 274.5 530.6 276.8Q532.7 279.1 532.7 283.2L532.7 283.2ZM527.7 282.0L527.7 281.7Q527.6 277.8 524.9 277.8L524.9 277.8Q523.6 277.8 522.9 278.8Q522.2 279.7 522.0 282.0L522.0 282.0L527.7 282.0ZM545.7 267.7L550.7 268.3L550.7 292L546.3 292L546 290.0Q544.2 292.5 541.2 292.5L541.2 292.5Q538 292.5 536.4 290.1Q534.7 287.7 534.7 283.5L534.7 283.5Q534.7 280.9 535.6 278.8Q536.4 276.8 538.0 275.6Q539.6 274.5 541.6 274.5L541.6 274.5Q544.1 274.5 545.7 276.1L545.7 276.1L545.7 267.7ZM542.7 288.8Q544.5 288.8 545.7 286.9L545.7 286.9L545.7 279.6Q545.1 278.8 544.4 278.5Q543.8 278.1 543.0 278.1L543.0 278.1Q541.6 278.1 540.8 279.5Q540.0 280.8 540.0 283.5L540.0 283.5Q540.0 286.5 540.7 287.6Q541.4 288.8 542.7 288.8L542.7 288.8ZM556.6 286.8Q557.7 286.8 558.6 287.6Q559.4 288.4 559.4 289.6L559.4 289.6Q559.4 290.8 558.6 291.7Q557.7 292.5 556.6 292.5L556.6 292.5Q555.3 292.5 554.5 291.7Q553.6 290.8 553.6 289.6L553.6 289.6Q553.6 288.4 554.5 287.6Q555.3 286.8 556.6 286.8L556.6 286.8Z "/></g><mask id="satori_om-id-0-2-0-1"><rect x="80" y="317" width="800" height="40" fill="#fff"/></mask><mask id="satori_om-id-0-2-0-1-0"><rect x="80" y="317" width="38" height="38" fill="#fff"/></mask><g  ><path fill="#000" d="M87.6 324.9Q90.0 324.9 91.6 325.8Q93.3 326.6 94.2 328.0Q95.1 329.4 95.1 331.1L95.1 331.1Q95.1 332.8 94.4 334.4Q93.7 336.0 91.9 338.0Q90.1 340.0 86.7 343.1L86.7 343.1L95.5 343.1L95.0 347L80.9 347L80.9 343.4Q84.9 339.5 86.7 337.6Q88.4 335.6 89.2 334.3Q89.9 333.0 89.9 331.6L89.9 331.6Q89.9 330.3 89.1 329.5Q88.4 328.8 87.1 328.8L87.1 328.8Q86.0 328.8 85.1 329.3Q84.2 329.8 83.2 331.0L83.2 331.0L80.2 328.7Q81.5 326.9 83.4 325.9Q85.3 324.9 87.6 324.9L87.6 324.9ZM100.4 341.8Q101.6 341.8 102.4 342.6Q103.3 343.4 103.3 344.6L103.3 344.6Q103.3 345.8 102.4 346.7Q101.6 347.5 100.4 347.5L100.4 347.5Q99.2 347.5 98.3 346.7Q97.5 345.8 97.5 344.6L97.5 344.6Q97.5 343.4 98.3 342.6Q99.2 341.8 100.4 341.8L100.4 341.8Z "/></g><mask id="satori_om-id-0-2-0-1-1"><rect x="118" y="317" width="762" height="40" fill="#fff"/></mask><g  ><path fill="#000" d="M120.1 325.8L125.3 325.8L125.3 343.8L134.0 343.8L133.4 348L120.1 348L120.1 325.8ZM143.8 330.5Q147.7 330.5 149.9 332.8Q152.1 335.2 152.1 339.5L152.1 339.5Q152.1 342.2 151.1 344.3Q150.1 346.3 148.2 347.4Q146.3 348.5 143.8 348.5L143.8 348.5Q139.9 348.5 137.7 346.2Q135.4 343.8 135.4 339.5L135.4 339.5Q135.4 336.8 136.4 334.7Q137.5 332.7 139.3 331.6Q141.2 330.5 143.8 330.5L143.8 330.5ZM143.8 334.2Q142.2 334.2 141.5 335.5Q140.7 336.8 140.7 339.5L140.7 339.5Q140.7 342.3 141.4 343.6Q142.2 344.8 143.8 344.8L143.8 344.8Q145.3 344.8 146.1 343.5Q146.8 342.2 146.8 339.5L146.8 339.5Q146.8 336.7 146.1 335.5Q145.3 334.2 143.8 334.2L143.8 334.2ZM165.0 330.5Q167.2 330.5 168.5 331.8Q169.7 333.2 169.7 335.6L169.7 335.6L169.7 348L164.7 348L164.7 336.4Q164.7 335.2 164.3 334.7Q163.9 334.2 163.1 334.2L163.1 334.2Q161.6 334.2 160.1 336.4L160.1 336.4L160.1 348L155.1 348L155.1 331.0L159.5 331.0L159.9 333.0Q160.9 331.7 162.2 331.1Q163.5 330.5 165.0 330.5L165.0 330.5ZM188.0 328.3L189.2 332Q187.5 332.7 184.3 332.7L184.3 332.7Q186.0 333.4 186.7 334.4Q187.5 335.4 187.5 337.1L187.5 337.1Q187.5 338.7 186.6 340.0Q185.8 341.3 184.2 342.0Q182.5 342.8 180.4 342.8L180.4 342.8Q179.3 342.8 178.4 342.6L178.4 342.6Q178.2 342.7 178.0 343.0Q177.9 343.2 177.9 343.5L177.9 343.5Q177.9 344 178.2 344.3Q178.6 344.5 179.7 344.5L179.7 344.5L182.3 344.5Q184.2 344.5 185.7 345.2Q187.2 345.8 188.0 346.9Q188.8 348.1 188.8 349.5L188.8 349.5Q188.8 352.1 186.5 353.6Q184.2 355.1 179.9 355.1L179.9 355.1Q176.8 355.1 175.0 354.4Q173.2 353.8 172.5 352.6Q171.8 351.4 171.8 349.6L171.8 349.6L176.3 349.6Q176.3 350.4 176.6 350.8Q176.9 351.3 177.7 351.5Q178.5 351.7 180.0 351.7L180.0 351.7Q182.1 351.7 182.9 351.2Q183.7 350.8 183.7 349.8L183.7 349.8Q183.7 349.1 183.1 348.6Q182.5 348.2 181.3 348.2L181.3 348.2L178.8 348.2Q176.2 348.2 174.9 347.2Q173.6 346.3 173.6 344.8L173.6 344.8Q173.6 343.9 174.1 343.0Q174.7 342.1 175.6 341.5L175.6 341.5Q174.0 340.7 173.3 339.5Q172.6 338.3 172.6 336.7L172.6 336.7Q172.6 333.8 174.6 332.1Q176.7 330.5 180.0 330.5L180.0 330.5Q182.6 330.5 184.4 330.0Q186.1 329.4 188.0 328.3L188.0 328.3ZM180.1 333.8Q179.0 333.8 178.3 334.5Q177.6 335.3 177.6 336.6L177.6 336.6Q177.6 338.0 178.3 338.7Q179.0 339.5 180.1 339.5L180.1 339.5Q181.4 339.5 182.0 338.8Q182.7 338.0 182.7 336.5L182.7 336.5Q182.7 333.8 180.1 333.8L180.1 333.8Z M208.4 330.5Q211.6 330.5 213.1 332.8Q214.7 335.2 214.7 339.5L214.7 339.5Q214.7 342.1 213.9 344.1Q213.1 346.2 211.5 347.4Q210 348.5 208.0 348.5L208.0 348.5Q205.4 348.5 203.8 346.8L203.8 346.8L203.8 354.6L198.8 355.1L198.8 331.0L203.2 331.0L203.5 332.9Q204.5 331.6 205.7 331.1Q207.0 330.5 208.4 330.5L208.4 330.5ZM206.4 344.8Q209.5 344.8 209.5 339.5L209.5 339.5Q209.5 336.5 208.8 335.3Q208.1 334.2 206.8 334.2L206.8 334.2Q205.9 334.2 205.2 334.7Q204.4 335.2 203.8 336.2L203.8 336.2L203.8 343.3Q204.8 344.8 206.4 344.8L206.4 344.8ZM227.1 330.5Q228.0 330.5 228.8 330.8L228.8 330.8L228.0 335.6Q227.0 335.4 226.4 335.4L226.4 335.4Q224.9 335.4 224.2 336.5Q223.4 337.5 222.9 339.6L222.9 339.6L222.9 348L217.9 348L217.9 331.0L222.3 331.0L222.7 334.3Q223.3 332.5 224.4 331.5Q225.6 330.5 227.1 330.5L227.1 330.5ZM245.5 339.2Q245.5 340.2 245.4 341.0L245.4 341.0L234.9 341.0Q235.2 343.1 236.1 344Q237.1 344.9 238.8 344.9L238.8 344.9Q239.8 344.9 240.8 344.5Q241.7 344.1 242.8 343.4L242.8 343.4L244.9 346.2Q241.9 348.5 238.3 348.5L238.3 348.5Q234.2 348.5 232.0 346.1Q229.7 343.7 229.7 339.6L229.7 339.6Q229.7 337.0 230.7 334.9Q231.6 332.9 233.4 331.7Q235.2 330.5 237.7 330.5L237.7 330.5Q241.4 330.5 243.4 332.8Q245.5 335.1 245.5 339.2L245.5 339.2ZM240.6 338.0L240.6 337.7Q240.5 333.8 237.8 333.8L237.8 333.8Q236.5 333.8 235.8 334.8Q235.1 335.7 234.9 338.0L234.9 338.0L240.6 338.0ZM254.4 330.5Q256.2 330.5 257.8 331.0Q259.4 331.6 260.6 332.5L260.6 332.5L258.7 335.4Q256.7 334.1 254.5 334.1L254.5 334.1Q253.6 334.1 253.0 334.4Q252.5 334.8 252.5 335.4L252.5 335.4Q252.5 335.8 252.7 336.1Q253.0 336.4 253.7 336.8Q254.4 337.1 256.0 337.5L256.0 337.5Q258.6 338.3 259.9 339.5Q261.2 340.8 261.2 342.9L261.2 342.9Q261.2 344.7 260.2 345.9Q259.2 347.2 257.5 347.9Q255.8 348.5 253.7 348.5L253.7 348.5Q251.5 348.5 249.7 347.9Q247.9 347.2 246.6 346.0L246.6 346.0L249.0 343.3Q251.2 344.9 253.6 344.9L253.6 344.9Q254.7 344.9 255.4 344.5Q256.0 344.1 256.0 343.3L256.0 343.3Q256.0 342.7 255.8 342.4Q255.5 342.0 254.8 341.7Q254.0 341.4 252.4 341.0L252.4 341.0Q249.9 340.2 248.7 338.9Q247.4 337.6 247.4 335.6L247.4 335.6Q247.4 334.2 248.3 333.0Q249.1 331.8 250.7 331.2Q252.3 330.5 254.4 330.5L254.4 330.5ZM269.8 330.5Q271.6 330.5 273.2 331.0Q274.8 331.6 276.0 332.5L276.0 332.5L274.2 335.4Q272.1 334.1 270 334.1L270 334.1Q269.0 334.1 268.5 334.4Q268.0 334.8 268.0 335.4L268.0 335.4Q268.0 335.8 268.2 336.1Q268.4 336.4 269.2 336.8Q269.9 337.1 271.4 337.5L271.4 337.5Q274.1 338.3 275.4 339.5Q276.7 340.8 276.7 342.9L276.7 342.9Q276.7 344.7 275.7 345.9Q274.7 347.2 273.0 347.9Q271.2 348.5 269.1 348.5L269.1 348.5Q267.0 348.5 265.2 347.9Q263.3 347.2 262.0 346.0L262.0 346.0L264.5 343.3Q266.6 344.9 269.0 344.9L269.0 344.9Q270.2 344.9 270.8 344.5Q271.5 344.1 271.5 343.3L271.5 343.3Q271.5 342.7 271.2 342.4Q271.0 342.0 270.2 341.7Q269.5 341.4 267.9 341.0L267.9 341.0Q265.4 340.2 264.1 338.9Q262.9 337.6 262.9 335.6L262.9 335.6Q262.9 334.2 263.7 333.0Q264.6 331.8 266.1 331.2Q267.7 330.5 269.8 330.5L269.8 330.5Z M295.8 344L297.5 347.2Q296.6 347.8 295.4 348.2Q294.1 348.5 292.9 348.5L292.9 348.5Q287.3 348.5 287.3 342.4L287.3 342.4L287.3 334.5L284.9 334.5L284.9 331.0L287.3 331.0L287.3 327.3L292.4 326.8L292.4 331.0L296.3 331.0L295.8 334.5L292.4 334.5L292.4 342.3Q292.4 343.5 292.8 344.0Q293.2 344.5 294 344.5L294 344.5Q294.9 344.5 295.8 344L295.8 344ZM309.2 330.5Q311.4 330.5 312.6 331.8Q313.9 333.2 313.9 335.6L313.9 335.6L313.9 348L308.8 348L308.8 336.4Q308.8 335.2 308.4 334.7Q308.0 334.2 307.2 334.2L307.2 334.2Q305.7 334.2 304.3 336.4L304.3 336.4L304.3 348L299.2 348L299.2 324.3L304.3 323.7L304.3 332.8Q305.3 331.6 306.5 331.1Q307.7 330.5 309.2 330.5L309.2 330.5ZM332.5 339.2Q332.5 340.2 332.4 341.0L332.4 341.0L321.9 341.0Q322.1 343.1 323.1 344Q324.0 344.9 325.7 344.9L325.7 344.9Q326.8 344.9 327.7 344.5Q328.7 344.1 329.8 343.4L329.8 343.4L331.9 346.2Q328.9 348.5 325.3 348.5L325.3 348.5Q321.1 348.5 318.9 346.1Q316.7 343.7 316.7 339.6L316.7 339.6Q316.7 337.0 317.6 334.9Q318.6 332.9 320.4 331.7Q322.2 330.5 324.7 330.5L324.7 330.5Q328.3 330.5 330.4 332.8Q332.5 335.1 332.5 339.2L332.5 339.2ZM327.5 338.0L327.5 337.7Q327.5 333.8 324.8 333.8L324.8 333.8Q323.5 333.8 322.8 334.8Q322.0 335.7 321.9 338.0L321.9 338.0L327.5 338.0Z M359.9 331.0L364.8 331.0L361.2 348L355.2 348L352.9 335.5L350.7 348L344.7 348L341.1 331.0L346.2 331.0L348.0 344.2L350.6 331.0L355.5 331.0L357.9 344.2L359.9 331.0ZM376.8 330.5Q379.1 330.5 380.3 331.8Q381.6 333.2 381.6 335.6L381.6 335.6L381.6 348L376.5 348L376.5 336.4Q376.5 335.2 376.1 334.7Q375.7 334.2 374.9 334.2L374.9 334.2Q373.4 334.2 372.0 336.4L372.0 336.4L372.0 348L366.9 348L366.9 324.3L372.0 323.7L372.0 332.8Q373.0 331.6 374.2 331.1Q375.4 330.5 376.8 330.5L376.8 330.5ZM385.4 331.0L390.4 331.0L390.4 348L385.4 348L385.4 331.0ZM387.9 322.0Q389.2 322.0 390.0 322.9Q390.9 323.7 390.9 324.9L390.9 324.9Q390.9 326.2 390.0 327.0Q389.2 327.8 387.9 327.8L387.9 327.8Q386.5 327.8 385.7 327.0Q384.9 326.2 384.9 324.9L384.9 324.9Q384.9 323.7 385.7 322.9Q386.5 322.0 387.9 322.0L387.9 322.0ZM403.3 344L405.0 347.2Q404.1 347.8 402.9 348.2Q401.6 348.5 400.4 348.5L400.4 348.5Q394.9 348.5 394.9 342.4L394.9 342.4L394.9 334.5L392.5 334.5L392.5 331.0L394.9 331.0L394.9 327.3L399.9 326.8L399.9 331.0L403.8 331.0L403.3 334.5L399.9 334.5L399.9 342.3Q399.9 343.5 400.3 344.0Q400.7 344.5 401.5 344.5L401.5 344.5Q402.4 344.5 403.3 344L403.3 344ZM421.6 339.2Q421.6 340.2 421.5 341.0L421.5 341.0L410.9 341.0Q411.2 343.1 412.1 344Q413.1 344.9 414.8 344.9L414.8 344.9Q415.8 344.9 416.8 344.5Q417.7 344.1 418.9 343.4L418.9 343.4L420.9 346.2Q418.0 348.5 414.3 348.5L414.3 348.5Q410.2 348.5 408.0 346.1Q405.8 343.7 405.8 339.6L405.8 339.6Q405.8 337.0 406.7 334.9Q407.6 332.9 409.4 331.7Q411.2 330.5 413.7 330.5L413.7 330.5Q417.4 330.5 419.5 332.8Q421.6 335.1 421.6 339.2L421.6 339.2ZM416.6 338.0L416.6 337.7Q416.5 333.8 413.8 333.8L413.8 333.8Q412.5 333.8 411.8 334.8Q411.1 335.7 410.9 338.0L410.9 338.0L416.6 338.0Z M441.6 330.5Q444.7 330.5 446.3 332.8Q447.9 335.2 447.9 339.5L447.9 339.5Q447.9 342.1 447.1 344.2Q446.3 346.2 444.8 347.4Q443.2 348.5 441.2 348.5L441.2 348.5Q439.8 348.5 438.7 348.0Q437.5 347.4 436.7 346.4L436.7 346.4L436.5 348L432.0 348L432.0 324.3L437.0 323.7L437.0 332.7Q437.8 331.7 439.0 331.1Q440.2 330.5 441.6 330.5L441.6 330.5ZM439.7 344.9Q442.7 344.9 442.7 339.5L442.7 339.5Q442.7 336.5 442.0 335.3Q441.3 334.2 439.9 334.2L439.9 334.2Q438.2 334.2 437.0 336.2L437.0 336.2L437.0 343.2Q437.5 344 438.2 344.4Q438.9 344.9 439.7 344.9L439.7 344.9ZM465.4 331.0L465.4 348L461.0 348L460.8 345.9Q459.0 348.5 455.7 348.5L455.7 348.5Q453.3 348.5 452.1 347.1Q450.9 345.7 450.9 343.2L450.9 343.2L450.9 331.0L456.0 331.0L456.0 342.6Q456.0 343.8 456.4 344.3Q456.8 344.8 457.6 344.8L457.6 344.8Q459.2 344.8 460.4 342.8L460.4 342.8L460.4 331.0L465.4 331.0ZM478.4 344L480.0 347.2Q479.1 347.8 477.9 348.2Q476.7 348.5 475.4 348.5L475.4 348.5Q469.9 348.5 469.9 342.4L469.9 342.4L469.9 334.5L467.5 334.5L467.5 331.0L469.9 331.0L469.9 327.3L474.9 326.8L474.9 331.0L478.8 331.0L478.3 334.5L474.9 334.5L474.9 342.3Q474.9 343.5 475.3 344.0Q475.7 344.5 476.5 344.5L476.5 344.5Q477.4 344.5 478.4 344L478.4 344ZM490.7 344L492.4 347.2Q491.5 347.8 490.2 348.2Q489.0 348.5 487.8 348.5L487.8 348.5Q482.2 348.5 482.2 342.4L482.2 342.4L482.2 334.5L479.8 334.5L479.8 331.0L482.2 331.0L482.2 327.3L487.3 326.8L487.3 331.0L491.2 331.0L490.6 334.5L487.3 334.5L487.3 342.3Q487.3 343.5 487.7 344.0Q488.0 344.5 488.9 344.5L488.9 344.5Q489.7 344.5 490.7 344L490.7 344ZM501.5 330.5Q505.4 330.5 507.6 332.8Q509.8 335.2 509.8 339.5L509.8 339.5Q509.8 342.2 508.8 344.3Q507.8 346.3 505.9 347.4Q504.0 348.5 501.5 348.5L501.5 348.5Q497.6 348.5 495.4 346.2Q493.1 343.8 493.1 339.5L493.1 339.5Q493.1 336.8 494.1 334.7Q495.2 332.7 497.0 331.6Q498.9 330.5 501.5 330.5L501.5 330.5ZM501.5 334.2Q499.9 334.2 499.2 335.5Q498.4 336.8 498.4 339.5L498.4 339.5Q498.4 342.3 499.1 343.6Q499.9 344.8 501.5 344.8L501.5 344.8Q503.0 344.8 503.8 343.5Q504.5 342.2 504.5 339.5L504.5 339.5Q504.5 336.7 503.8 335.5Q503.0 334.2 501.5 334.2L501.5 334.2ZM522.7 330.5Q524.9 330.5 526.2 331.8Q527.4 333.2 527.4 335.6L527.4 335.6L527.4 348L522.4 348L522.4 336.4Q522.4 335.2 522.0 334.7Q521.6 334.2 520.8 334.2L520.8 334.2Q519.2 334.2 517.8 336.4L517.8 336.4L517.8 348L512.8 348L512.8 331.0L517.2 331.0L517.6 333.0Q518.6 331.7 519.9 331.1Q521.2 330.5 522.7 330.5L522.7 330.5Z M547.8 344L549.5 347.2Q548.6 347.8 547.3 348.2Q546.1 348.5 544.9 348.5L544.9 348.5Q539.3 348.5 539.3 342.4L539.3 342.4L539.3 334.5L536.9 334.5L536.9 331.0L539.3 331.0L539.3 327.3L544.4 326.8L544.4 331.0L548.3 331.0L547.7 334.5L544.4 334.5L544.4 342.3Q544.4 343.5 544.8 344.0Q545.1 344.5 546.0 344.5L546.0 344.5Q546.8 344.5 547.8 344L547.8 344ZM558.5 330.5Q562.4 330.5 564.7 332.8Q566.9 335.2 566.9 339.5L566.9 339.5Q566.9 342.2 565.9 344.3Q564.8 346.3 563.0 347.4Q561.1 348.5 558.5 348.5L558.5 348.5Q554.7 348.5 552.4 346.2Q550.2 343.8 550.2 339.5L550.2 339.5Q550.2 336.8 551.2 334.7Q552.2 332.7 554.1 331.6Q556.0 330.5 558.5 330.5L558.5 330.5ZM558.5 334.2Q557.0 334.2 556.2 335.5Q555.5 336.8 555.5 339.5L555.5 339.5Q555.5 342.3 556.2 343.6Q557.0 344.8 558.5 344.8L558.5 344.8Q560.1 344.8 560.8 343.5Q561.6 342.2 561.6 339.5L561.6 339.5Q561.6 336.7 560.9 335.5Q560.1 334.2 558.5 334.2L558.5 334.2Z M584.8 330.5Q588.7 330.5 590.9 332.8Q593.1 335.2 593.1 339.5L593.1 339.5Q593.1 342.2 592.1 344.3Q591.1 346.3 589.2 347.4Q587.4 348.5 584.8 348.5L584.8 348.5Q580.9 348.5 578.7 346.2Q576.5 343.8 576.5 339.5L576.5 339.5Q576.5 336.8 577.5 334.7Q578.5 332.7 580.4 331.6Q582.3 330.5 584.8 330.5L584.8 330.5ZM584.8 334.2Q583.3 334.2 582.5 335.5Q581.7 336.8 581.7 339.5L581.7 339.5Q581.7 342.3 582.5 343.6Q583.2 344.8 584.8 344.8L584.8 344.8Q586.4 344.8 587.1 343.5Q587.9 342.2 587.9 339.5L587.9 339.5Q587.9 336.7 587.1 335.5Q586.4 334.2 584.8 334.2L584.8 334.2ZM605.7 330.5Q608.9 330.5 610.5 332.8Q612.1 335.2 612.1 339.5L612.1 339.5Q612.1 342.1 611.3 344.1Q610.4 346.2 608.9 347.4Q607.4 348.5 605.3 348.5L605.3 348.5Q602.8 348.5 601.2 346.8L601.2 346.8L601.2 354.6L596.1 355.1L596.1 331.0L600.6 331.0L600.8 332.9Q601.8 331.6 603.1 331.1Q604.4 330.5 605.7 330.5L605.7 330.5ZM603.8 344.8Q606.8 344.8 606.8 339.5L606.8 339.5Q606.8 336.5 606.2 335.3Q605.5 334.2 604.1 334.2L604.1 334.2Q603.3 334.2 602.5 334.7Q601.8 335.2 601.2 336.2L601.2 336.2L601.2 343.3Q602.2 344.8 603.8 344.8L603.8 344.8ZM630.1 339.2Q630.1 340.2 630.0 341.0L630.0 341.0L619.4 341.0Q619.7 343.1 620.7 344Q621.6 344.9 623.3 344.9L623.3 344.9Q624.3 344.9 625.3 344.5Q626.3 344.1 627.4 343.4L627.4 343.4L629.5 346.2Q626.5 348.5 622.8 348.5L622.8 348.5Q618.7 348.5 616.5 346.1Q614.3 343.7 614.3 339.6L614.3 339.6Q614.3 337.0 615.2 334.9Q616.1 332.9 617.9 331.7Q619.7 330.5 622.2 330.5L622.2 330.5Q625.9 330.5 628.0 332.8Q630.1 335.1 630.1 339.2L630.1 339.2ZM625.1 338.0L625.1 337.7Q625.0 333.8 622.4 333.8L622.4 333.8Q621.0 333.8 620.3 334.8Q619.6 335.7 619.4 338.0L619.4 338.0L625.1 338.0ZM642.9 330.5Q645.1 330.5 646.3 331.8Q647.6 333.2 647.6 335.6L647.6 335.6L647.6 348L642.5 348L642.5 336.4Q642.5 335.2 642.1 334.7Q641.7 334.2 640.9 334.2L640.9 334.2Q639.4 334.2 638.0 336.4L638.0 336.4L638.0 348L632.9 348L632.9 331.0L637.3 331.0L637.7 333.0Q638.8 331.7 640.0 331.1Q641.3 330.5 642.9 330.5L642.9 330.5Z M667.9 344L669.6 347.2Q668.7 347.8 667.5 348.2Q666.2 348.5 665.0 348.5L665.0 348.5Q659.4 348.5 659.4 342.4L659.4 342.4L659.4 334.5L657.0 334.5L657.0 331.0L659.4 331.0L659.4 327.3L664.5 326.8L664.5 331.0L668.4 331.0L667.9 334.5L664.5 334.5L664.5 342.3Q664.5 343.5 664.9 344.0Q665.3 344.5 666.1 344.5L666.1 344.5Q667.0 344.5 667.9 344L667.9 344ZM681.3 330.5Q683.5 330.5 684.7 331.8Q686.0 333.2 686.0 335.6L686.0 335.6L686.0 348L680.9 348L680.9 336.4Q680.9 335.2 680.5 334.7Q680.1 334.2 679.3 334.2L679.3 334.2Q677.8 334.2 676.4 336.4L676.4 336.4L676.4 348L671.3 348L671.3 324.3L676.4 323.7L676.4 332.8Q677.4 331.6 678.6 331.1Q679.8 330.5 681.3 330.5L681.3 330.5ZM704.6 339.2Q704.6 340.2 704.5 341.0L704.5 341.0L694.0 341.0Q694.2 343.1 695.2 344Q696.1 344.9 697.8 344.9L697.8 344.9Q698.9 344.9 699.8 344.5Q700.8 344.1 701.9 343.4L701.9 343.4L704.0 346.2Q701.0 348.5 697.4 348.5L697.4 348.5Q693.2 348.5 691.0 346.1Q688.8 343.7 688.8 339.6L688.8 339.6Q688.8 337.0 689.7 334.9Q690.7 332.9 692.5 331.7Q694.3 330.5 696.8 330.5L696.8 330.5Q700.4 330.5 702.5 332.8Q704.6 335.1 704.6 339.2L704.6 339.2ZM699.6 338.0L699.6 337.7Q699.6 333.8 696.9 333.8L696.9 333.8Q695.6 333.8 694.8 334.8Q694.1 335.7 694.0 338.0L694.0 338.0L699.6 338.0Z M735.5 325.8L737.1 348L732.0 348L731.6 339.3Q731.4 336.2 731.4 333.8L731.4 333.8Q731.4 331.9 731.5 330.3L731.5 330.3L728.1 345.7L723.2 345.7L719.5 330.3Q719.7 333.1 719.7 335.5L719.7 335.5Q719.7 337.4 719.6 339.4L719.6 339.4L719.2 348L714.1 348L715.8 325.8L722.4 325.8L725.7 340.9L728.8 325.8L735.5 325.8ZM755.0 339.2Q755.0 340.2 754.9 341.0L754.9 341.0L744.4 341.0Q744.6 343.1 745.6 344Q746.5 344.9 748.2 344.9L748.2 344.9Q749.3 344.9 750.2 344.5Q751.2 344.1 752.3 343.4L752.3 343.4L754.4 346.2Q751.4 348.5 747.8 348.5L747.8 348.5Q743.6 348.5 741.4 346.1Q739.2 343.7 739.2 339.6L739.2 339.6Q739.2 337.0 740.1 334.9Q741.1 332.9 742.9 331.7Q744.7 330.5 747.2 330.5L747.2 330.5Q750.8 330.5 752.9 332.8Q755.0 335.1 755.0 339.2L755.0 339.2ZM750.0 338.0L750.0 337.7Q750.0 333.8 747.3 333.8L747.3 333.8Q746.0 333.8 745.2 334.8Q744.5 335.7 744.4 338.0L744.4 338.0L750.0 338.0ZM767.8 330.5Q770 330.5 771.2 331.8Q772.5 333.2 772.5 335.6L772.5 335.6L772.5 348L767.4 348L767.4 336.4Q767.4 335.2 767.0 334.7Q766.6 334.2 765.8 334.2L765.8 334.2Q764.3 334.2 762.9 336.4L762.9 336.4L762.9 348L757.8 348L757.8 331.0L762.3 331.0L762.6 333.0Q763.7 331.7 765.0 331.1Q766.2 330.5 767.8 330.5L767.8 330.5ZM790.6 331.0L790.6 348L786.3 348L786.0 345.9Q784.2 348.5 780.9 348.5L780.9 348.5Q778.5 348.5 777.3 347.1Q776.1 345.7 776.1 343.2L776.1 343.2L776.1 331.0L781.2 331.0L781.2 342.6Q781.2 343.8 781.6 344.3Q782.0 344.8 782.8 344.8L782.8 344.8Q784.4 344.8 785.6 342.8L785.6 342.8L785.6 331.0L790.6 331.0ZM796.5 342.8Q797.6 342.8 798.5 343.6Q799.3 344.4 799.3 345.6L799.3 345.6Q799.3 346.8 798.5 347.7Q797.6 348.5 796.5 348.5L796.5 348.5Q795.2 348.5 794.4 347.7Q793.6 346.8 793.6 345.6L793.6 345.6Q793.6 344.4 794.4 343.6Q795.2 342.8 796.5 342.8L796.5 342.8Z "/></g><mask id="satori_om-id-0-2-0-2"><rect x="80" y="373" width="800" height="40" fill="#fff"/></mask><mask id="satori_om-id-0-2-0-2-0"><rect x="80" y="373" width="38" height="38" fill="#fff"/></mask><g  ><path fill="#000" d="M87.6 380.9Q89.9 380.9 91.5 381.7Q93.2 382.4 94 383.6Q94.8 384.9 94.8 386.4L94.8 386.4Q94.8 388.4 93.7 389.7Q92.6 391 90.6 391.6L90.6 391.6Q92.8 391.8 94.2 393.1Q95.6 394.5 95.6 396.9L95.6 396.9Q95.6 398.7 94.6 400.2Q93.6 401.8 91.8 402.6Q89.9 403.5 87.3 403.5L87.3 403.5Q82.6 403.5 79.9 400.3L79.9 400.3L82.6 397.6Q83.7 398.7 84.7 399.2Q85.8 399.7 87.0 399.7L87.0 399.7Q88.5 399.7 89.4 398.9Q90.4 398.0 90.4 396.6L90.4 396.6Q90.4 394.9 89.5 394.2Q88.6 393.5 86.8 393.5L86.8 393.5L85.1 393.5L85.6 390.0L86.8 390.0Q88.3 390.0 89.1 389.2Q90.0 388.5 90.0 387.2L90.0 387.2Q90.0 386.0 89.2 385.3Q88.4 384.7 87.1 384.7L87.1 384.7Q84.8 384.7 82.8 386.6L82.8 386.6L80.4 383.8Q83.4 380.9 87.6 380.9L87.6 380.9ZM100.5 397.8Q101.7 397.8 102.5 398.6Q103.4 399.4 103.4 400.6L103.4 400.6Q103.4 401.8 102.5 402.7Q101.7 403.5 100.5 403.5L100.5 403.5Q99.3 403.5 98.4 402.7Q97.6 401.8 97.6 400.6L97.6 400.6Q97.6 399.4 98.4 398.6Q99.3 397.8 100.5 397.8L100.5 397.8Z "/></g><mask id="satori_om-id-0-2-0-2-1"><rect x="118" y="373" width="762" height="40" fill="#fff"/></mask><g  ><path fill="#000" d="M120.1 381.8L125.3 381.8L125.3 399.8L134.0 399.8L133.4 404L120.1 404L120.1 381.8ZM143.8 386.5Q147.7 386.5 149.9 388.8Q152.1 391.2 152.1 395.5L152.1 395.5Q152.1 398.2 151.1 400.3Q150.1 402.3 148.2 403.4Q146.3 404.5 143.8 404.5L143.8 404.5Q139.9 404.5 137.7 402.2Q135.4 399.8 135.4 395.5L135.4 395.5Q135.4 392.8 136.4 390.7Q137.5 388.7 139.3 387.6Q141.2 386.5 143.8 386.5L143.8 386.5ZM143.8 390.2Q142.2 390.2 141.5 391.5Q140.7 392.8 140.7 395.5L140.7 395.5Q140.7 398.3 141.4 399.6Q142.2 400.8 143.8 400.8L143.8 400.8Q145.3 400.8 146.1 399.5Q146.8 398.2 146.8 395.5L146.8 395.5Q146.8 392.7 146.1 391.5Q145.3 390.2 143.8 390.2L143.8 390.2ZM165.0 386.5Q167.2 386.5 168.5 387.8Q169.7 389.2 169.7 391.6L169.7 391.6L169.7 404L164.7 404L164.7 392.4Q164.7 391.2 164.3 390.7Q163.9 390.2 163.1 390.2L163.1 390.2Q161.6 390.2 160.1 392.4L160.1 392.4L160.1 404L155.1 404L155.1 387.0L159.5 387.0L159.9 389.0Q160.9 387.7 162.2 387.1Q163.5 386.5 165.0 386.5L165.0 386.5ZM188.0 384.3L189.2 388Q187.5 388.7 184.3 388.7L184.3 388.7Q186.0 389.4 186.7 390.4Q187.5 391.4 187.5 393.1L187.5 393.1Q187.5 394.7 186.6 396.0Q185.8 397.3 184.2 398.0Q182.5 398.8 180.4 398.8L180.4 398.8Q179.3 398.8 178.4 398.6L178.4 398.6Q178.2 398.7 178.0 399.0Q177.9 399.2 177.9 399.5L177.9 399.5Q177.9 400 178.2 400.3Q178.6 400.5 179.7 400.5L179.7 400.5L182.3 400.5Q184.2 400.5 185.7 401.2Q187.2 401.8 188.0 402.9Q188.8 404.1 188.8 405.5L188.8 405.5Q188.8 408.1 186.5 409.6Q184.2 411.1 179.9 411.1L179.9 411.1Q176.8 411.1 175.0 410.4Q173.2 409.8 172.5 408.6Q171.8 407.4 171.8 405.6L171.8 405.6L176.3 405.6Q176.3 406.4 176.6 406.8Q176.9 407.3 177.7 407.5Q178.5 407.7 180.0 407.7L180.0 407.7Q182.1 407.7 182.9 407.2Q183.7 406.8 183.7 405.8L183.7 405.8Q183.7 405.1 183.1 404.6Q182.5 404.2 181.3 404.2L181.3 404.2L178.8 404.2Q176.2 404.2 174.9 403.2Q173.6 402.3 173.6 400.8L173.6 400.8Q173.6 399.9 174.1 399.0Q174.7 398.1 175.6 397.5L175.6 397.5Q174.0 396.7 173.3 395.5Q172.6 394.3 172.6 392.7L172.6 392.7Q172.6 389.8 174.6 388.1Q176.7 386.5 180.0 386.5L180.0 386.5Q182.6 386.5 184.4 386.0Q186.1 385.4 188.0 384.3L188.0 384.3ZM180.1 389.8Q179.0 389.8 178.3 390.5Q177.6 391.3 177.6 392.6L177.6 392.6Q177.6 394.0 178.3 394.7Q179.0 395.5 180.1 395.5L180.1 395.5Q181.4 395.5 182.0 394.8Q182.7 394.0 182.7 392.5L182.7 392.5Q182.7 389.8 180.1 389.8L180.1 389.8Z M208.4 386.5Q211.6 386.5 213.1 388.8Q214.7 391.2 214.7 395.5L214.7 395.5Q214.7 398.1 213.9 400.1Q213.1 402.2 211.5 403.4Q210 404.5 208.0 404.5L208.0 404.5Q205.4 404.5 203.8 402.8L203.8 402.8L203.8 410.6L198.8 411.1L198.8 387.0L203.2 387.0L203.5 388.9Q204.5 387.6 205.7 387.1Q207.0 386.5 208.4 386.5L208.4 386.5ZM206.4 400.8Q209.5 400.8 209.5 395.5L209.5 395.5Q209.5 392.5 208.8 391.3Q208.1 390.2 206.8 390.2L206.8 390.2Q205.9 390.2 205.2 390.7Q204.4 391.2 203.8 392.2L203.8 392.2L203.8 399.3Q204.8 400.8 206.4 400.8L206.4 400.8ZM227.1 386.5Q228.0 386.5 228.8 386.8L228.8 386.8L228.0 391.6Q227.0 391.4 226.4 391.4L226.4 391.4Q224.9 391.4 224.2 392.5Q223.4 393.5 222.9 395.6L222.9 395.6L222.9 404L217.9 404L217.9 387.0L222.3 387.0L222.7 390.3Q223.3 388.5 224.4 387.5Q225.6 386.5 227.1 386.5L227.1 386.5ZM245.5 395.2Q245.5 396.2 245.4 397.0L245.4 397.0L234.9 397.0Q235.2 399.1 236.1 400Q237.1 400.9 238.8 400.9L238.8 400.9Q239.8 400.9 240.8 400.5Q241.7 400.1 242.8 399.4L242.8 399.4L244.9 402.2Q241.9 404.5 238.3 404.5L238.3 404.5Q234.2 404.5 232.0 402.1Q229.7 399.7 229.7 395.6L229.7 395.6Q229.7 393.0 230.7 390.9Q231.6 388.9 233.4 387.7Q235.2 386.5 237.7 386.5L237.7 386.5Q241.4 386.5 243.4 388.8Q245.5 391.1 245.5 395.2L245.5 395.2ZM240.6 394.0L240.6 393.7Q240.5 389.8 237.8 389.8L237.8 389.8Q236.5 389.8 235.8 390.8Q235.1 391.7 234.9 394.0L234.9 394.0L240.6 394.0ZM254.4 386.5Q256.2 386.5 257.8 387.0Q259.4 387.6 260.6 388.5L260.6 388.5L258.7 391.4Q256.7 390.1 254.5 390.1L254.5 390.1Q253.6 390.1 253.0 390.4Q252.5 390.8 252.5 391.4L252.5 391.4Q252.5 391.8 252.7 392.1Q253.0 392.4 253.7 392.8Q254.4 393.1 256.0 393.5L256.0 393.5Q258.6 394.3 259.9 395.5Q261.2 396.8 261.2 398.9L261.2 398.9Q261.2 400.7 260.2 401.9Q259.2 403.2 257.5 403.9Q255.8 404.5 253.7 404.5L253.7 404.5Q251.5 404.5 249.7 403.9Q247.9 403.2 246.6 402.0L246.6 402.0L249.0 399.3Q251.2 400.9 253.6 400.9L253.6 400.9Q254.7 400.9 255.4 400.5Q256.0 400.1 256.0 399.3L256.0 399.3Q256.0 398.7 255.8 398.4Q255.5 398.0 254.8 397.7Q254.0 397.4 252.4 397.0L252.4 397.0Q249.9 396.2 248.7 394.9Q247.4 393.6 247.4 391.6L247.4 391.6Q247.4 390.2 248.3 389.0Q249.1 387.8 250.7 387.2Q252.3 386.5 254.4 386.5L254.4 386.5ZM269.8 386.5Q271.6 386.5 273.2 387.0Q274.8 387.6 276.0 388.5L276.0 388.5L274.2 391.4Q272.1 390.1 270 390.1L270 390.1Q269.0 390.1 268.5 390.4Q268.0 390.8 268.0 391.4L268.0 391.4Q268.0 391.8 268.2 392.1Q268.4 392.4 269.2 392.8Q269.9 393.1 271.4 393.5L271.4 393.5Q274.1 394.3 275.4 395.5Q276.7 396.8 276.7 398.9L276.7 398.9Q276.7 400.7 275.7 401.9Q274.7 403.2 273.0 403.9Q271.2 404.5 269.1 404.5L269.1 404.5Q267.0 404.5 265.2 403.9Q263.3 403.2 262.0 402.0L262.0 402.0L264.5 399.3Q266.6 400.9 269.0 400.9L269.0 400.9Q270.2 400.9 270.8 400.5Q271.5 400.1 271.5 399.3L271.5 399.3Q271.5 398.7 271.2 398.4Q271.0 398.0 270.2 397.7Q269.5 397.4 267.9 397.0L267.9 397.0Q265.4 396.2 264.1 394.9Q262.9 393.6 262.9 391.6L262.9 391.6Q262.9 390.2 263.7 389.0Q264.6 387.8 266.1 387.2Q267.7 386.5 269.8 386.5L269.8 386.5Z M295.8 400L297.5 403.2Q296.6 403.8 295.4 404.2Q294.1 404.5 292.9 404.5L292.9 404.5Q287.3 404.5 287.3 398.4L287.3 398.4L287.3 390.5L284.9 390.5L284.9 387.0L287.3 387.0L287.3 383.3L292.4 382.8L292.4 387.0L296.3 387.0L295.8 390.5L292.4 390.5L292.4 398.3Q292.4 399.5 292.8 400.0Q293.2 400.5 294 400.5L294 400.5Q294.9 400.5 295.8 400L295.8 400ZM309.2 386.5Q311.4 386.5 312.6 387.8Q313.9 389.2 313.9 391.6L313.9 391.6L313.9 404L308.8 404L308.8 392.4Q308.8 391.2 308.4 390.7Q308.0 390.2 307.2 390.2L307.2 390.2Q305.7 390.2 304.3 392.4L304.3 392.4L304.3 404L299.2 404L299.2 380.3L304.3 379.7L304.3 388.8Q305.3 387.6 306.5 387.1Q307.7 386.5 309.2 386.5L309.2 386.5ZM332.5 395.2Q332.5 396.2 332.4 397.0L332.4 397.0L321.9 397.0Q322.1 399.1 323.1 400Q324.0 400.9 325.7 400.9L325.7 400.9Q326.8 400.9 327.7 400.5Q328.7 400.1 329.8 399.4L329.8 399.4L331.9 402.2Q328.9 404.5 325.3 404.5L325.3 404.5Q321.1 404.5 318.9 402.1Q316.7 399.7 316.7 395.6L316.7 395.6Q316.7 393.0 317.6 390.9Q318.6 388.9 320.4 387.7Q322.2 386.5 324.7 386.5L324.7 386.5Q328.3 386.5 330.4 388.8Q332.5 391.1 332.5 395.2L332.5 395.2ZM327.5 394.0L327.5 393.7Q327.5 389.8 324.8 389.8L324.8 389.8Q323.5 389.8 322.8 390.8Q322.0 391.7 321.9 394.0L321.9 394.0L327.5 394.0Z M359.9 387.0L364.8 387.0L361.2 404L355.2 404L352.9 391.5L350.7 404L344.7 404L341.1 387.0L346.2 387.0L348.0 400.2L350.6 387.0L355.5 387.0L357.9 400.2L359.9 387.0ZM376.8 386.5Q379.1 386.5 380.3 387.8Q381.6 389.2 381.6 391.6L381.6 391.6L381.6 404L376.5 404L376.5 392.4Q376.5 391.2 376.1 390.7Q375.7 390.2 374.9 390.2L374.9 390.2Q373.4 390.2 372.0 392.4L372.0 392.4L372.0 404L366.9 404L366.9 380.3L372.0 379.7L372.0 388.8Q373.0 387.6 374.2 387.1Q375.4 386.5 376.8 386.5L376.8 386.5ZM385.4 387.0L390.4 387.0L390.4 404L385.4 404L385.4 387.0ZM387.9 378.0Q389.2 378.0 390.0 378.9Q390.9 379.7 390.9 380.9L390.9 380.9Q390.9 382.2 390.0 383.0Q389.2 383.8 387.9 383.8L387.9 383.8Q386.5 383.8 385.7 383.0Q384.9 382.2 384.9 380.9L384.9 380.9Q384.9 379.7 385.7 378.9Q386.5 378.0 387.9 378.0L387.9 378.0ZM403.3 400L405.0 403.2Q404.1 403.8 402.9 404.2Q401.6 404.5 400.4 404.5L400.4 404.5Q394.9 404.5 394.9 398.4L394.9 398.4L394.9 390.5L392.5 390.5L392.5 387.0L394.9 387.0L394.9 383.3L399.9 382.8L399.9 387.0L403.8 387.0L403.3 390.5L399.9 390.5L399.9 398.3Q399.9 399.5 400.3 400.0Q400.7 400.5 401.5 400.5L401.5 400.5Q402.4 400.5 403.3 400L403.3 400ZM421.6 395.2Q421.6 396.2 421.5 397.0L421.5 397.0L410.9 397.0Q411.2 399.1 412.1 400Q413.1 400.9 414.8 400.9L414.8 400.9Q415.8 400.9 416.8 400.5Q417.7 400.1 418.9 399.4L418.9 399.4L420.9 402.2Q418.0 404.5 414.3 404.5L414.3 404.5Q410.2 404.5 408.0 402.1Q405.8 399.7 405.8 395.6L405.8 395.6Q405.8 393.0 406.7 390.9Q407.6 388.9 409.4 387.7Q411.2 386.5 413.7 386.5L413.7 386.5Q417.4 386.5 419.5 388.8Q421.6 391.1 421.6 395.2L421.6 395.2ZM416.6 394.0L416.6 393.7Q416.5 389.8 413.8 389.8L413.8 389.8Q412.5 389.8 411.8 390.8Q411.1 391.7 410.9 394.0L410.9 394.0L416.6 394.0Z M441.6 386.5Q444.7 386.5 446.3 388.8Q447.9 391.2 447.9 395.5L447.9 395.5Q447.9 398.1 447.1 400.2Q446.3 402.2 444.8 403.4Q443.2 404.5 441.2 404.5L441.2 404.5Q439.8 404.5 438.7 404.0Q437.5 403.4 436.7 402.4L436.7 402.4L436.5 404L432.0 404L432.0 380.3L437.0 379.7L437.0 388.7Q437.8 387.7 439.0 387.1Q440.2 386.5 441.6 386.5L441.6 386.5ZM439.7 400.9Q442.7 400.9 442.7 395.5L442.7 395.5Q442.7 392.5 442.0 391.3Q441.3 390.2 439.9 390.2L439.9 390.2Q438.2 390.2 437.0 392.2L437.0 392.2L437.0 399.2Q437.5 400 438.2 400.4Q438.9 400.9 439.7 400.9L439.7 400.9ZM465.4 387.0L465.4 404L461.0 404L460.8 401.9Q459.0 404.5 455.7 404.5L455.7 404.5Q453.3 404.5 452.1 403.1Q450.9 401.7 450.9 399.2L450.9 399.2L450.9 387.0L456.0 387.0L456.0 398.6Q456.0 399.8 456.4 400.3Q456.8 400.8 457.6 400.8L457.6 400.8Q459.2 400.8 460.4 398.8L460.4 398.8L460.4 387.0L465.4 387.0ZM478.4 400L480.0 403.2Q479.1 403.8 477.9 404.2Q476.7 404.5 475.4 404.5L475.4 404.5Q469.9 404.5 469.9 398.4L469.9 398.4L469.9 390.5L467.5 390.5L467.5 387.0L469.9 387.0L469.9 383.3L474.9 382.8L474.9 387.0L478.8 387.0L478.3 390.5L474.9 390.5L474.9 398.3Q474.9 399.5 475.3 400.0Q475.7 400.5 476.5 400.5L476.5 400.5Q477.4 400.5 478.4 400L478.4 400ZM490.7 400L492.4 403.2Q491.5 403.8 490.2 404.2Q489.0 404.5 487.8 404.5L487.8 404.5Q482.2 404.5 482.2 398.4L482.2 398.4L482.2 390.5L479.8 390.5L479.8 387.0L482.2 387.0L482.2 383.3L487.3 382.8L487.3 387.0L491.2 387.0L490.6 390.5L487.3 390.5L487.3 398.3Q487.3 399.5 487.7 400.0Q488.0 400.5 488.9 400.5L488.9 400.5Q489.7 400.5 490.7 400L490.7 400ZM501.5 386.5Q505.4 386.5 507.6 388.8Q509.8 391.2 509.8 395.5L509.8 395.5Q509.8 398.2 508.8 400.3Q507.8 402.3 505.9 403.4Q504.0 404.5 501.5 404.5L501.5 404.5Q497.6 404.5 495.4 402.2Q493.1 399.8 493.1 395.5L493.1 395.5Q493.1 392.8 494.1 390.7Q495.2 388.7 497.0 387.6Q498.9 386.5 501.5 386.5L501.5 386.5ZM501.5 390.2Q499.9 390.2 499.2 391.5Q498.4 392.8 498.4 395.5L498.4 395.5Q498.4 398.3 499.1 399.6Q499.9 400.8 501.5 400.8L501.5 400.8Q503.0 400.8 503.8 399.5Q504.5 398.2 504.5 395.5L504.5 395.5Q504.5 392.7 503.8 391.5Q503.0 390.2 501.5 390.2L501.5 390.2ZM522.7 386.5Q524.9 386.5 526.2 387.8Q527.4 389.2 527.4 391.6L527.4 391.6L527.4 404L522.4 404L522.4 392.4Q522.4 391.2 522.0 390.7Q521.6 390.2 520.8 390.2L520.8 390.2Q519.2 390.2 517.8 392.4L517.8 392.4L517.8 404L512.8 404L512.8 387.0L517.2 387.0L517.6 389.0Q518.6 387.7 519.9 387.1Q521.2 386.5 522.7 386.5L522.7 386.5Z M547.8 400L549.5 403.2Q548.6 403.8 547.3 404.2Q546.1 404.5 544.9 404.5L544.9 404.5Q539.3 404.5 539.3 398.4L539.3 398.4L539.3 390.5L536.9 390.5L536.9 387.0L539.3 387.0L539.3 383.3L544.4 382.8L544.4 387.0L548.3 387.0L547.7 390.5L544.4 390.5L544.4 398.3Q544.4 399.5 544.8 400.0Q545.1 400.5 546.0 400.5L546.0 400.5Q546.8 400.5 547.8 400L547.8 400ZM558.5 386.5Q562.4 386.5 564.7 388.8Q566.9 391.2 566.9 395.5L566.9 395.5Q566.9 398.2 565.9 400.3Q564.8 402.3 563.0 403.4Q561.1 404.5 558.5 404.5L558.5 404.5Q554.7 404.5 552.4 402.2Q550.2 399.8 550.2 395.5L550.2 395.5Q550.2 392.8 551.2 390.7Q552.2 388.7 554.1 387.6Q556.0 386.5 558.5 386.5L558.5 386.5ZM558.5 390.2Q557.0 390.2 556.2 391.5Q555.5 392.8 555.5 395.5L555.5 395.5Q555.5 398.3 556.2 399.6Q557.0 400.8 558.5 400.8L558.5 400.8Q560.1 400.8 560.8 399.5Q561.6 398.2 561.6 395.5L561.6 395.5Q561.6 392.7 560.9 391.5Q560.1 390.2 558.5 390.2L558.5 390.2Z M583.4 386.5Q585.3 386.5 586.9 387.0Q588.5 387.6 589.7 388.5L589.7 388.5L587.8 391.4Q585.7 390.1 583.6 390.1L583.6 390.1Q582.6 390.1 582.1 390.4Q581.6 390.8 581.6 391.4L581.6 391.4Q581.6 391.8 581.8 392.1Q582.1 392.4 582.8 392.8Q583.5 393.1 585.1 393.5L585.1 393.5Q587.7 394.3 589.0 395.5Q590.3 396.8 590.3 398.9L590.3 398.9Q590.3 400.7 589.3 401.9Q588.3 403.2 586.6 403.9Q584.9 404.5 582.8 404.5L582.8 404.5Q580.6 404.5 578.8 403.9Q576.9 403.2 575.7 402.0L575.7 402.0L578.1 399.3Q580.3 400.9 582.6 400.9L582.6 400.9Q583.8 400.9 584.4 400.5Q585.1 400.1 585.1 399.3L585.1 399.3Q585.1 398.7 584.8 398.4Q584.6 398.0 583.9 397.7Q583.1 397.4 581.5 397.0L581.5 397.0Q579.0 396.2 577.7 394.9Q576.5 393.6 576.5 391.6L576.5 391.6Q576.5 390.2 577.3 389.0Q578.2 387.8 579.8 387.2Q581.4 386.5 583.4 386.5L583.4 386.5ZM607.7 395.2Q607.7 396.2 607.6 397.0L607.6 397.0L597.1 397.0Q597.4 399.1 598.3 400Q599.3 400.9 601.0 400.9L601.0 400.9Q602 400.9 603.0 400.5Q603.9 400.1 605.0 399.4L605.0 399.4L607.1 402.2Q604.1 404.5 600.5 404.5L600.5 404.5Q596.4 404.5 594.2 402.1Q592.0 399.7 592.0 395.6L592.0 395.6Q592.0 393.0 592.9 390.9Q593.8 388.9 595.6 387.7Q597.4 386.5 599.9 386.5L599.9 386.5Q603.6 386.5 605.6 388.8Q607.7 391.1 607.7 395.2L607.7 395.2ZM602.8 394.0L602.8 393.7Q602.7 389.8 600.0 389.8L600.0 389.8Q598.7 389.8 598.0 390.8Q597.3 391.7 597.1 394.0L597.1 394.0L602.8 394.0ZM615.1 404.5Q612.9 404.5 611.6 403.3Q610.4 402.0 610.4 399.7L610.4 399.7L610.4 380.3L615.5 379.7L615.5 399.5Q615.5 400.5 616.3 400.5L616.3 400.5Q616.8 400.5 617.2 400.4L617.2 400.4L618.2 404.0Q616.8 404.5 615.1 404.5L615.1 404.5ZM634.9 395.2Q634.9 396.2 634.8 397.0L634.8 397.0L624.3 397.0Q624.5 399.1 625.5 400Q626.4 400.9 628.1 400.9L628.1 400.9Q629.2 400.9 630.1 400.5Q631.1 400.1 632.2 399.4L632.2 399.4L634.3 402.2Q631.3 404.5 627.7 404.5L627.7 404.5Q623.5 404.5 621.3 402.1Q619.1 399.7 619.1 395.6L619.1 395.6Q619.1 393.0 620.0 390.9Q621.0 388.9 622.8 387.7Q624.6 386.5 627.1 386.5L627.1 386.5Q630.7 386.5 632.8 388.8Q634.9 391.1 634.9 395.2L634.9 395.2ZM629.9 394.0L629.9 393.7Q629.9 389.8 627.2 389.8L627.2 389.8Q625.9 389.8 625.2 390.8Q624.4 391.7 624.3 394.0L624.3 394.0L629.9 394.0ZM645.1 386.5Q646.9 386.5 648.3 387.0Q649.7 387.5 650.9 388.5L650.9 388.5L648.8 391.6Q647.2 390.3 645.5 390.3L645.5 390.3Q643.8 390.3 643.0 391.6Q642.1 392.8 642.1 395.6L642.1 395.6Q642.1 398.3 643.0 399.4Q643.8 400.5 645.5 400.5L645.5 400.5Q646.3 400.5 647.0 400.3Q647.7 400 648.7 399.4L648.7 399.4L650.9 402.5Q648.4 404.5 645.2 404.5L645.2 404.5Q642.6 404.5 640.7 403.4Q638.8 402.3 637.8 400.3Q636.8 398.3 636.8 395.6L636.8 395.6Q636.8 393.0 637.8 390.9Q638.8 388.8 640.7 387.6Q642.6 386.5 645.1 386.5L645.1 386.5ZM662.0 400L663.7 403.2Q662.8 403.8 661.6 404.2Q660.3 404.5 659.1 404.5L659.1 404.5Q653.6 404.5 653.6 398.4L653.6 398.4L653.6 390.5L651.2 390.5L651.2 387.0L653.6 387.0L653.6 383.3L658.6 382.8L658.6 387.0L662.5 387.0L662.0 390.5L658.6 390.5L658.6 398.3Q658.6 399.5 659.0 400.0Q659.4 400.5 660.2 400.5L660.2 400.5Q661.1 400.5 662.0 400L662.0 400Z M679.3 381.8Q684.5 381.8 687.6 384.2Q690.8 386.5 690.8 392.8L690.8 392.8Q690.8 399.0 687.7 401.5Q684.7 404 679.8 404L679.8 404L673.1 404L673.1 381.8L679.3 381.8ZM680.0 385.6L678.4 385.6L678.4 400.2L680.1 400.2Q682.7 400.2 684.0 398.6Q685.4 397.0 685.4 392.8L685.4 392.8Q685.4 390.0 684.7 388.4Q684.0 386.8 682.9 386.2Q681.7 385.6 680.0 385.6L680.0 385.6ZM708.7 395.2Q708.7 396.2 708.6 397.0L708.6 397.0L698.0 397.0Q698.3 399.1 699.2 400Q700.2 400.9 701.9 400.9L701.9 400.9Q702.9 400.9 703.9 400.5Q704.8 400.1 706.0 399.4L706.0 399.4L708.0 402.2Q705.1 404.5 701.4 404.5L701.4 404.5Q697.3 404.5 695.1 402.1Q692.9 399.7 692.9 395.6L692.9 395.6Q692.9 393.0 693.8 390.9Q694.7 388.9 696.5 387.7Q698.3 386.5 700.8 386.5L700.8 386.5Q704.5 386.5 706.6 388.8Q708.7 391.1 708.7 395.2L708.7 395.2ZM703.7 394.0L703.7 393.7Q703.6 389.8 700.9 389.8L700.9 389.8Q699.6 389.8 698.9 390.8Q698.2 391.7 698.0 394.0L698.0 394.0L703.7 394.0ZM721.0 387.0L726.1 387.0L720.8 404L714.8 404L709.3 387.0L714.8 387.0L717.8 400.2L721.0 387.0ZM727.9 387.0L733.0 387.0L733.0 404L727.9 404L727.9 387.0ZM730.4 378.0Q731.7 378.0 732.6 378.9Q733.4 379.7 733.4 380.9L733.4 380.9Q733.4 382.2 732.6 383.0Q731.7 383.8 730.4 383.8L730.4 383.8Q729.1 383.8 728.3 383.0Q727.4 382.2 727.4 380.9L727.4 380.9Q727.4 379.7 728.3 378.9Q729.1 378.0 730.4 378.0L730.4 378.0ZM744.3 386.5Q746.1 386.5 747.5 387.0Q748.9 387.5 750.1 388.5L750.1 388.5L748.0 391.6Q746.4 390.3 744.7 390.3L744.7 390.3Q743.0 390.3 742.2 391.6Q741.3 392.8 741.3 395.6L741.3 395.6Q741.3 398.3 742.2 399.4Q743.0 400.5 744.7 400.5L744.7 400.5Q745.5 400.5 746.2 400.3Q746.9 400 747.9 399.4L747.9 399.4L750.1 402.5Q747.6 404.5 744.4 404.5L744.4 404.5Q741.8 404.5 739.9 403.4Q738.0 402.3 737.0 400.3Q736.0 398.3 736.0 395.6L736.0 395.6Q736.0 393.0 737.0 390.9Q738.0 388.8 739.9 387.6Q741.8 386.5 744.3 386.5L744.3 386.5ZM767.1 395.2Q767.1 396.2 767.0 397.0L767.0 397.0L756.5 397.0Q756.7 399.1 757.7 400Q758.6 400.9 760.3 400.9L760.3 400.9Q761.4 400.9 762.3 400.5Q763.3 400.1 764.4 399.4L764.4 399.4L766.5 402.2Q763.5 404.5 759.9 404.5L759.9 404.5Q755.7 404.5 753.5 402.1Q751.3 399.7 751.3 395.6L751.3 395.6Q751.3 393.0 752.2 390.9Q753.2 388.9 755.0 387.7Q756.8 386.5 759.2 386.5L759.2 386.5Q762.9 386.5 765.0 388.8Q767.1 391.1 767.1 395.2L767.1 395.2ZM762.1 394.0L762.1 393.7Q762.1 389.8 759.4 389.8L759.4 389.8Q758.1 389.8 757.3 390.8Q756.6 391.7 756.5 394.0L756.5 394.0L762.1 394.0Z M783.5 386.5Q785.3 386.5 786.9 387.0Q788.5 387.6 789.7 388.5L789.7 388.5L787.9 391.4Q785.8 390.1 783.7 390.1L783.7 390.1Q782.7 390.1 782.2 390.4Q781.6 390.8 781.6 391.4L781.6 391.4Q781.6 391.8 781.9 392.1Q782.1 392.4 782.9 392.8Q783.6 393.1 785.1 393.5L785.1 393.5Q787.8 394.3 789.1 395.5Q790.4 396.8 790.4 398.9L790.4 398.9Q790.4 400.7 789.4 401.9Q788.4 403.2 786.7 403.9Q784.9 404.5 782.8 404.5L782.8 404.5Q780.7 404.5 778.8 403.9Q777.0 403.2 775.7 402.0L775.7 402.0L778.2 399.3Q780.3 400.9 782.7 400.9L782.7 400.9Q783.9 400.9 784.5 400.5Q785.2 400.1 785.2 399.3L785.2 399.3Q785.2 398.7 784.9 398.4Q784.7 398.0 783.9 397.7Q783.2 397.4 781.6 397.0L781.6 397.0Q779.1 396.2 777.8 394.9Q776.6 393.6 776.6 391.6L776.6 391.6Q776.6 390.2 777.4 389.0Q778.3 387.8 779.8 387.2Q781.4 386.5 783.5 386.5L783.5 386.5ZM807.8 395.2Q807.8 396.2 807.7 397.0L807.7 397.0L797.2 397.0Q797.4 399.1 798.4 400Q799.3 400.9 801.0 400.9L801.0 400.9Q802.1 400.9 803.0 400.5Q804.0 400.1 805.1 399.4L805.1 399.4L807.2 402.2Q804.2 404.5 800.6 404.5L800.6 404.5Q796.4 404.5 794.2 402.1Q792.0 399.7 792.0 395.6L792.0 395.6Q792.0 393.0 792.9 390.9Q793.9 388.9 795.7 387.7Q797.5 386.5 800.0 386.5L800.0 386.5Q803.6 386.5 805.7 388.8Q807.8 391.1 807.8 395.2L807.8 395.2ZM802.8 394.0L802.8 393.7Q802.8 389.8 800.1 389.8L800.1 389.8Q798.8 389.8 798.0 390.8Q797.3 391.7 797.2 394.0L797.2 394.0L802.8 394.0ZM819.6 400L821.3 403.2Q820.4 403.8 819.1 404.2Q817.9 404.5 816.7 404.5L816.7 404.5Q811.1 404.5 811.1 398.4L811.1 398.4L811.1 390.5L808.7 390.5L808.7 387.0L811.1 387.0L811.1 383.3L816.2 382.8L816.2 387.0L820.1 387.0L819.5 390.5L816.2 390.5L816.2 398.3Q816.2 399.5 816.6 400.0Q816.9 400.5 817.8 400.5L817.8 400.5Q818.6 400.5 819.6 400L819.6 400ZM837.3 387.0L837.3 404L832.9 404L832.7 401.9Q830.9 404.5 827.6 404.5L827.6 404.5Q825.2 404.5 824.0 403.1Q822.8 401.7 822.8 399.2L822.8 399.2L822.8 387.0L827.9 387.0L827.9 398.6Q827.9 399.8 828.3 400.3Q828.7 400.8 829.5 400.8L829.5 400.8Q831.1 400.8 832.3 398.8L832.3 398.8L832.3 387.0L837.3 387.0ZM850.9 386.5Q854.1 386.5 855.7 388.8Q857.2 391.2 857.2 395.5L857.2 395.5Q857.2 398.1 856.4 400.1Q855.6 402.2 854.1 403.4Q852.5 404.5 850.5 404.5L850.5 404.5Q847.9 404.5 846.4 402.8L846.4 402.8L846.4 410.6L841.3 411.1L841.3 387.0L845.7 387.0L846 388.9Q847.0 387.6 848.3 387.1Q849.6 386.5 850.9 386.5L850.9 386.5ZM848.9 400.8Q852.0 400.8 852.0 395.5L852.0 395.5Q852.0 392.5 851.3 391.3Q850.6 390.2 849.3 390.2L849.3 390.2Q848.4 390.2 847.7 390.7Q846.9 391.2 846.4 392.2L846.4 392.2L846.4 399.3Q847.4 400.8 848.9 400.8L848.9 400.8ZM862.3 398.8Q863.4 398.8 864.3 399.6Q865.1 400.4 865.1 401.6L865.1 401.6Q865.1 402.8 864.3 403.7Q863.4 404.5 862.3 404.5L862.3 404.5Q861.0 404.5 860.2 403.7Q859.3 402.8 859.3 401.6L859.3 401.6Q859.3 400.4 860.2 399.6Q861.0 398.8 862.3 398.8L862.3 398.8Z "/></g><mask id="satori_om-id-1"><rect x="0" y="440" width="960" height="100" fill="#fff"/></mask></svg>